<svg version="1.1" xmlns="http://www.w3.org/2000/svg" x="0px" y="0px" viewBox="0 0 14 13">
<path fill="currentColor" d="M13.8,6.6c0-0.5-0.3-0.8-0.9-0.8H6L4.4,5.8l2.2-2l1.5-1.5c0.2-0.2,0.3-0.4,0.3-0.6c0-0.5-0.3-0.8-0.8-0.8
	C7.3,0.9,7.1,1,6.9,1.2L2.1,6C2,6.1,1.9,6.2,1.9,6.4V1.6c0-0.5-0.4-0.8-0.8-0.8c-0.5,0-0.8,0.3-0.8,0.8v9.9c0,0.5,0.4,0.8,0.8,0.8
	c0.5,0,0.8-0.3,0.8-0.8V6.8c0,0.2,0.1,0.3,0.3,0.4L6.9,12c0.2,0.2,0.4,0.3,0.6,0.3c0.5,0,0.8-0.3,0.8-0.8c0-0.2-0.1-0.5-0.3-0.6
	L6.5,9.3l-2.2-2L6,7.4h7C13.4,7.4,13.8,7.1,13.8,6.6z"/>
</svg>
