<svg viewBox="0 0 14 8" fill="none" xmlns="http://www.w3.org/2000/svg">
    <path d="M13.6136 3.74679C13.5819 3.66496 13.5343 3.59019 13.4736 3.52679L10.8069 0.860124C10.7448 0.797965 10.671 0.748658 10.5898 0.715017C10.5085 0.681377 10.4215 0.664063 10.3336 0.664063C10.1561 0.664062 9.98579 0.734588 9.86026 0.860124C9.73472 0.985659 9.6642 1.15592 9.6642 1.33346C9.6642 1.51099 9.73472 1.68125 9.86026 1.80679L11.3936 3.33346H2.60692L4.14026 1.80679C4.20242 1.74463 4.25172 1.67084 4.28536 1.58962C4.319 1.50841 4.33632 1.42136 4.33632 1.33346C4.33632 1.24555 4.319 1.15851 4.28536 1.07729C4.25172 0.996076 4.20242 0.922283 4.14026 0.860124C4.0781 0.797965 4.0043 0.748658 3.92309 0.715017C3.84187 0.681377 3.75483 0.664062 3.66692 0.664063C3.57902 0.664063 3.49197 0.681377 3.41076 0.715017C3.32954 0.748658 3.25575 0.797965 3.19359 0.860124L0.526923 3.52679C0.466229 3.59019 0.418653 3.66496 0.386923 3.74679C0.320244 3.9091 0.320244 4.09115 0.386923 4.25346C0.418653 4.33529 0.466229 4.41005 0.526923 4.47346L3.19359 7.14012C3.25557 7.20261 3.3293 7.25221 3.41054 7.28605C3.49178 7.3199 3.57892 7.33732 3.66692 7.33732C3.75493 7.33732 3.84207 7.3199 3.92331 7.28605C4.00455 7.25221 4.07828 7.20261 4.14026 7.14012C4.20274 7.07815 4.25234 7.00441 4.28618 6.92317C4.32003 6.84194 4.33746 6.7548 4.33746 6.66679C4.33746 6.57878 4.32003 6.49165 4.28618 6.41041C4.25234 6.32917 4.20274 6.25543 4.14026 6.19346L2.60692 4.66679H11.3936L9.86026 6.19346C9.79777 6.25543 9.74817 6.32917 9.71433 6.41041C9.68048 6.49165 9.66306 6.57878 9.66306 6.66679C9.66306 6.7548 9.68048 6.84194 9.71433 6.92317C9.74817 7.00441 9.79777 7.07815 9.86026 7.14012C9.92223 7.20261 9.99597 7.25221 10.0772 7.28605C10.1584 7.3199 10.2456 7.33732 10.3336 7.33732C10.4216 7.33732 10.5087 7.3199 10.59 7.28605C10.6712 7.25221 10.7449 7.20261 10.8069 7.14012L13.4736 4.47346C13.5343 4.41005 13.5819 4.33529 13.6136 4.25346C13.6803 4.09115 13.6803 3.9091 13.6136 3.74679Z" fill="currentColor"/>
</svg>
