<svg  viewBox="0 0 40 40" fill="none" xmlns="http://www.w3.org/2000/svg">
  <path d="M35.5042 8.73388L31.2645 4.49421L25.9215 1.77318L19.999 0.833984L14.0764 1.77318L8.73339 4.49421L4.49372 8.73388L1.7727 14.0769L0.833496 19.9994L1.7727 25.922L4.49372 31.265L8.73339 35.5047L14.0764 38.2281L19.999 39.1673L25.9215 38.2281L31.2645 35.5047L35.5042 31.265L38.2276 25.922L39.1668 19.9994L38.2276 14.0769L35.5042 8.73388Z" stroke="currentColor" stroke-width="1.09999" stroke-miterlimit="10"/>
  <path d="M24.327 14.0462L19.998 6.7832" stroke="currentColor" stroke-width="0.549996" stroke-linecap="round" stroke-linejoin="round"/>
  <path d="M11.0942 7.74661L19.9983 6.7832L28.9049 7.74661" stroke="currentColor" stroke-width="0.549996" stroke-miterlimit="10"/>
  <path d="M15.6711 14.043H24.3265" stroke="currentColor" stroke-width="0.549996" stroke-linecap="round" stroke-linejoin="round"/>
  <path d="M19.9976 6.7832L15.6711 14.0462" stroke="currentColor" stroke-width="0.549996" stroke-linecap="round" stroke-linejoin="round"/>
  <path d="M11.0942 7.7466L14.076 1.77539L19.9983 6.78319L25.9207 1.77539L28.9049 7.7466" stroke="currentColor" stroke-width="0.549996" stroke-miterlimit="10"/>
  <path d="M31.2649 4.49414L19.9995 20.0004L8.73419 4.49414" stroke="currentColor" stroke-width="0.549996" stroke-linecap="round" stroke-linejoin="round"/>
  <path d="M7.42725 15.9143L15.6722 14.043L12.9971 22.2766L19.9987 27.3641L27.7705 30.6962" stroke="currentColor" stroke-width="0.549996" stroke-linecap="round" stroke-linejoin="round"/>
  <path d="M7.42725 15.918L12.9971 22.2803" stroke="currentColor" stroke-width="0.549996" stroke-linecap="round" stroke-linejoin="round"/>
  <path d="M5.58927 24.6842L0.833008 20.0024L7.42658 15.917L4.49316 8.73606L11.094 7.74609L7.42658 15.917L5.58927 24.6842ZM5.58927 24.6842L12.2287 30.6989L19.9981 35.1562L25.9205 38.2323L27.7699 30.6989L35.503 31.2687L34.4069 24.6842" stroke="currentColor" stroke-width="0.549996" stroke-miterlimit="10"/>
  <path d="M12.9973 22.2773L12.2295 30.6969" stroke="currentColor" stroke-width="0.549996" stroke-linecap="round" stroke-linejoin="round"/>
  <path d="M12.2295 30.6954L19.9989 27.3633" stroke="currentColor" stroke-width="0.549996" stroke-linecap="round" stroke-linejoin="round"/>
  <path d="M19.9984 35.1555L14.076 38.2317L12.229 30.6983L4.49347 31.2681L5.58958 24.6836" stroke="currentColor" stroke-width="0.549996" stroke-miterlimit="10"/>
  <path d="M1.77374 25.921L19.9996 19.998V39.1672" stroke="currentColor" stroke-width="0.549996" stroke-linecap="round" stroke-linejoin="round"/>
  <path d="M27.0025 22.2793L27.7703 30.6989L34.4073 24.6842L39.166 20.0024L32.5724 15.917L35.5035 8.73606L28.9051 7.74609L32.5724 15.917L24.3275 14.0457L27.0025 22.2793ZM27.0025 22.2793L32.5724 15.917L34.4073 24.6842" stroke="currentColor" stroke-width="0.549996" stroke-linecap="round" stroke-linejoin="round"/>
  <path d="M19.998 19.998L38.2264 25.921" stroke="currentColor" stroke-width="0.549996" stroke-linecap="round" stroke-linejoin="round"/>
  <path d="M19.998 27.3648L27.0021 22.2773" stroke="currentColor" stroke-width="0.549996" stroke-linecap="round" stroke-linejoin="round"/>
  <path d="M19.998 35.1565L27.7698 30.6992L31.2634 35.509" stroke="currentColor" stroke-width="0.549996" stroke-linecap="round" stroke-linejoin="round"/>
  <path d="M19.998 6.78104V0.833984" stroke="currentColor" stroke-width="0.549996" stroke-linecap="round" stroke-linejoin="round"/>
  <path d="M32.5713 15.9156L38.2257 14.0781" stroke="currentColor" stroke-width="0.549996" stroke-linecap="round" stroke-linejoin="round"/>
  <path d="M12.2302 30.6992L8.73419 35.509" stroke="currentColor" stroke-width="0.549996" stroke-linecap="round" stroke-linejoin="round"/>
  <path d="M7.42814 15.9156L1.77374 14.0781" stroke="currentColor" stroke-width="0.549996" stroke-linecap="round" stroke-linejoin="round"/>
</svg>
