<?xml version="1.0" encoding="utf-8"?>
<!-- Generator: Adobe Illustrator 28.0.0, SVG Export Plug-In . SVG Version: 6.00 Build 0)  -->
<svg version="1.1" id="Layer_1" xmlns="http://www.w3.org/2000/svg" xmlns:xlink="http://www.w3.org/1999/xlink" x="0px" y="0px"
	 viewBox="0 0 2500 2500" style="enable-background:new 0 0 2500 2500;" xml:space="preserve">
<style type="text/css">
	.st0{fill:#E50571;}
	.st1{fill:#FFFFFF;}
</style>
<circle class="st0" cx="1250" cy="1250" r="1250"/>
<path class="st1" d="M1336.6,1182.4c-23,4.2-102.5,23-175.7,39.7c-100.4,25.1-186.1,29.3-345.1,18.8
	c-255.2-18.8-276.1-6.3-253.1,150.6c31.4,215.4,175.7,409.9,376.5,510.3c85.8,39.7,140.5,60.9,276.4,60.9
	c196.6,0,323.9-60.9,453.5-184.3c161-154.8,253.1-451.8,165.2-533.4c-20.9-16.7-94.1-41.8-161.1-54.4
	C1550,1167.8,1416.1,1163.6,1336.6,1182.4z M1782.1,1322.6c-14.6,4.2-131.8,41.8-259.4,83.7c-267.7,87.8-468.5,112.9-640,77.4
	c-131.8-27.2-253.1-98.3-263.5-154.8c-6.3-31.4,18.8-35.6,251-33.5c169.4,0,292.8-10.5,361.8-31.4c123.4-35.6,363.9-41.8,474.8-12.5
	C1790.5,1274.5,1828.2,1310,1782.1,1322.6z"/>
<path class="st1" d="M1656.6,1027.7c-4.2-18.8-16.7-37.6-29.3-41.8c-35.6-12.5-71.1,43.9-50.2,75.3
	C1600.2,1100.9,1665,1073.7,1656.6,1027.7z"/>
<path class="st1" d="M1529.1,939.8c25.1-52.3,6.3-119.2-43.9-152.7c-66.9-46-159,20.9-159,115C1326.2,1006.7,1481,1036,1529.1,939.8
	z"/>
<path class="st1" d="M1788.4,414.8c-46-23-112.9-41.8-148.5-41.8c-110.9,0-182,119.2-127.6,207.1c16.7,25.1,25.1,20.9,46-23
	c12.6-31.4,37.6-60.7,52.3-66.9c41.8-14.6,232.2,87.8,290.7,159c60.7,71.1,58.6,102.5-6.3,131.8c-62.7,29.3-56.5,52.3,12.5,52.3
	c77.4,0,129.7-58.6,129.7-142.2C2037.3,611.4,1920.2,483.8,1788.4,414.8z"/>
<path class="st1" d="M1893.2,1016.4c-19.9-47.5-44.5-92.4-73.5-134.3l0.3,0.2c-19.9-51.1,26.7-134.7,26.7-134.7s41.7-71.8,34.3-88.4
	c-6.1-13.6-84.6-70-84.6-70c-50.3-33.8-98.5-63.3-109-63.3s-50.3,23.2-92.2,50.7c-57.4,39.7-72.5,48.3-119.6,34.9
	c-83-31.7-170.3-47.7-260.1-47.7c-99.3,0-195.6,19.6-286.2,58.2c-87.6,37.3-166.2,90.7-233.7,158.8
	c-67.5,68-120.5,147.3-157.6,235.5c-38.3,91.4-57.8,188.4-57.8,288.4s19.4,197.1,57.8,288.4c37,88.2,90.1,167.5,157.6,235.5
	c67.5,68,146.2,121.5,233.7,158.8c90.7,38.6,187,58.2,286.2,58.2c99.3,0,195.6-19.6,286.2-58.2c87.6-37.3,166.2-90.7,233.7-158.8
	c67.5-68,120.5-147.3,157.6-235.5c38.3-91.4,57.8-188.4,57.8-288.4S1931.6,1107.8,1893.2,1016.4z M1844.8,1572.7
	c-34.4,81.9-83.6,155.5-146.3,218.7c-62.7,63.2-135.7,112.8-217,147.5c-84.2,35.9-173.6,54.1-265.8,54.1
	c-92.2,0-181.6-18.2-265.8-54.1c-81.3-34.7-154.3-84.3-217-147.5c-62.7-63.2-111.9-136.8-146.3-218.7
	c-35.6-84.8-53.6-174.9-53.6-267.8c0-92.9,18-183,53.6-267.8c34.4-81.9,83.6-155.5,146.3-218.7c62.7-63.2,135.7-112.8,217-147.5
	c84.2-35.9,173.6-54.1,265.8-54.1c92.2,0,181.6,18.2,265.8,54.1c81.3,34.7,154.3,84.3,217,147.5c62.7,63.2,111.9,136.8,146.3,218.7
	c35.6,84.8,53.6,174.9,53.6,267.8C1898.5,1397.8,1880.4,1487.9,1844.8,1572.7z"/>
</svg>
