<?xml version="1.0" encoding="utf-8"?>
<!-- Generator: Adobe Illustrator 28.0.0, SVG Export Plug-In . SVG Version: 6.00 Build 0)  -->
<svg version="1.1" id="Layer_1" xmlns="http://www.w3.org/2000/svg" xmlns:xlink="http://www.w3.org/1999/xlink" x="0px" y="0px"
	 viewBox="0 0 2500 2500" style="enable-background:new 0 0 2500 2500;" xml:space="preserve">
<style type="text/css">
	.st0{fill:#8623FF;}
	.st1{fill:#FFFFFF;}
</style>
<circle class="st0" cx="1250" cy="1250" r="1250"/>
<path class="st1" d="M2031.1,1086.1c-0.2-0.7-0.3-1.4-0.4-2.1c-31.6-149.8-105.7-287.4-216.5-398.2
	c-150.7-150.7-351-233.7-564.2-233.7S836.5,535,685.8,685.8c-36.7,36.7-69.3,76.2-97.7,118.2c-8.4,11.2-16,23.1-22.7,35.6
	c-73.8,122.7-113.3,263.5-113.3,410.4c0,213.2,83,413.5,233.7,564.2s351,233.7,564.2,233.7s413.5-83,564.2-233.7
	c71.1-71.1,127.1-153.3,166.5-242.7c4.8-9.9,9-20.1,12.6-30.3c35.8-91.5,54.6-189.8,54.6-291.2
	C2047.9,1194.2,2042.2,1139.5,2031.1,1086.1z M1753.8,719.2c4.6,4.4,9.1,8.8,13.7,13.3c70.5,70.5,124.9,152.9,161.2,242.7
	c3.6,9.1-4,18.5-13.6,16.8c-21-3.8-44.7-5.4-70.9-5c-18.1,0.3-33.9-12.4-37.1-30.3c-14.2-79.8-34.8-153.5-61.3-217.8
	c-1.5-3.6-3-7.3-4.5-10.8C1737.9,720.1,1747.7,713.3,1753.8,719.2z M1829.7,1187.3c-0.2-8.4,10.5-12,15.4-5.1
	c6,8.4,11.7,16.8,17.2,25.3c7.4,11.2,14.2,22.5,20.5,33.6c4,7,3,15.6-2.3,21.5c-8.6,9.4-17.8,19.1-27.9,29.1
	c-3.6,3.6-7.4,7.4-11.2,11c-4.8,4.6-12.7,1.1-12.4-5.5c0.5-12,0.8-24,1.1-36.2C1830.5,1236.3,1830.4,1211.7,1829.7,1187.3z
	 M825.1,653.9c123.2-88.2,270.4-135.8,424.9-135.8c40.8,0,81,3.3,120.5,9.9c10.6,1.8,14.1,15.2,5.7,21.8
	c-38.2,29.9-73.7,74.3-105.2,131.8c-7.7,14-24,20.9-39.3,16.6c-104.1-29.3-206.6-43.1-301.2-39.8c-34.9,1.2-68,4.8-99.1,10.5
	C822.6,670.5,817.9,659.1,825.1,653.9z M720.7,1747.1c-15.4-29.1,4.5-96.3,105.5-198.4l0.1-0.1c10.5-10.7,9.5-28.2-2.3-37.4
	c-4-3.2-8.1-6.4-12.1-9.6c-10-8.1-24.6-7.4-33.7,1.8c-2,2-3.5,3.5-4,4c-50.5,51.8-85.9,99.8-105.6,143c-5.6,12.2-22.6,13.5-29.9,2.3
	c-78.3-118.5-120.5-257.3-120.5-402.6c0-52,5.4-103.1,15.9-152.7c1.6-7.5,12.2-8,14.4-0.6c15.2,50.1,39.9,102,74,154.4
	c46,70.6,106.6,138.5,178.4,200.7c24.5,21.3,50.4,41.8,77.4,61.7c54.8,40.1,114.3,77.3,177.5,110.1c28.1,14.6,55.4,28.5,83.4,41.1
	c15.6,7,33.3,7.5,49.2,1.3c13.2-5.2,26.5-10.5,39.8-16.1c14.6-6.1,22.4-21.9,18.5-37.2c-0.5-1.9-0.9-3.5-1.1-4.4
	c-22-92.7-34.3-197.1-35.8-306.5h-0.1c0-1.3,0-2.6,0-4c-0.1-6,0-12-0.2-18c0-1.9,0-5.1,0.1-7c0-0.7,0-1.5,0-2.3l0,0
	c0-6.9,0.1-13.7,0.2-20.6c0.3-18.8,1.1-37.4,1.9-55.8l0,0c6.8-132,29.1-256,64.7-360.3c3.3-9.6-1.9-20.2-11.5-23.4
	c-9.4-3.2-18.8-6.3-28.2-9.2c-9.5-3-19.7,2.2-22.8,11.6c-38.6,113.3-62.4,247.6-68.7,389.8c-0.8,18-10.6,34.5-26.1,43.7
	c-84.2,49.9-161.6,102.9-228.4,156.2c-13.9,11.1-33.8,10.7-47.3-1c-67-58.1-123.3-121.1-166-186.5c-83.8-128.6-103.7-249.7-56-341
	c0.2-0.2,0.2-0.4,0.4-0.6c6.1-10,12.4-20,18.9-29.8c54.7-72.4,156.6-114.4,291.7-119.1c8.6-0.3,17.2-0.5,25.8-0.5
	c82.9,0,171.7,13.7,262.2,39.7l0,0c1.9,0.6,4,1.1,5.9,1.8c1.5,0.5,3.1,0.9,4.6,1.3l0,0c20.9,6.2,41.8,13.2,62.9,20.7l0,0
	c0.5,0.2,1,0.4,1.5,0.6c5.5,1.9,10.9,4,16.4,6.1c1.7,0.6,3.4,1.3,5.1,1.9c1.6,0.6,3.3,1.2,4.9,1.9l0,0c44.2,17.1,88.3,37,131.8,59.6
	c84.3,43.8,161.5,95.2,228.7,151.6c-128.2,29.4-277.2,86-427,162.4c-6.9,3.6-11.5,10.4-11.9,18.2c-0.5,9.3-1.2,27.9-1.7,42.8
	c-0.3,9.3,9.5,15.5,17.8,11.2l0.1-0.1c148.3-77.9,296.4-136.1,423.6-166.9c23.8-5.7,39.2-28.6,35.8-52.8
	c-2.3-16.9-4.9-33.6-7.8-49.9c-3.6-20.6-14.9-38.9-31.5-51.5c-59.6-45.4-125.2-87-195.4-123.5c-47.3-24.6-95.4-46.1-143.6-64.6
	c-10.3-4-14.7-16.1-9.3-25.7c49.6-88.7,108.6-138.4,166.1-138.4c0.6,0,1.2,0,1.8,0c67.8,1.2,135.4,71.8,185.5,193.7
	c25.3,61.7,45,132.8,58.4,210.2c-0.1-0.1-0.2-0.2-0.2-0.2c5.7,33,10.4,67.1,13.8,102c-0.3,0.2-0.6,0.3-0.9,0.6
	c0.4,0.4,0.8,0.8,1.2,1.2c5.7,58.7,8.1,119.8,7,182.2c-0.7,39.5-2.8,78.3-6.2,116.5c-90.7,73.3-202.8,146.2-326.1,211.5
	c-40.5,21.4-81,41.4-121.1,59.9c-0.6,0.3-1.2,0.6-1.9,0.9c-3.1,1.4-6.2,2.8-9.2,4.2h-0.1c-33.3,15.1-66.1,29-98.5,41.7l0,0
	c-1.9,0.7-3.6,1.4-5.5,2.1c-2.3,0.9-4.5,1.8-6.8,2.7c-5.4,2.1-10.8,4.1-16.3,6.2c-1.5,0.6-3,1.1-4.5,1.7c-6.6,2.4-13,4.8-19.6,7.1
	c-0.8,0.3-1.6,0.6-2.4,0.9l0,0c-69.4,24.7-135.5,43.4-195.7,54.9C804.8,1798,736.2,1776.6,720.7,1747.1z M921.2,1463.1
	c64.5-52.5,140.1-104.9,222.9-154.5c1.8,106,13.4,207.8,34,299.7c-30.8-13.1-61.4-27.5-91.8-43.3
	C1027.5,1534.4,972.1,1500.1,921.2,1463.1z M1344.4,1975.8c-31.1,4-62.6,6.1-94.4,6.1c-142.3,0-278.3-40.3-395.2-115.6
	c-8-5.2-4.6-17.6,4.9-18.1c1.9-0.1,3.8-0.2,5.4-0.3c29.7-1.9,62.2-6.3,97.5-13.1c75-14.4,158.4-39.2,245.8-72.5
	c7.8-3,16.6,0.9,19.7,8.7c0,0.1,0,0.1,0.1,0.2c33.8,82.4,75.5,144.6,122.3,184.3C1358.3,1961.9,1354.5,1974.5,1344.4,1975.8z
	 M1653.8,1780.4c-52.3,102.8-116.6,160.5-178.9,159.3c-67.8-1.2-135.4-71.8-185.5-193.7l-0.1-0.2c-3.2-7.8,0.5-16.6,8.2-19.9
	c0.6-0.2,1.1-0.5,1.6-0.7c3.3-1.5,7-1.7,10.4-0.7c93.6,26.3,185.9,40,272.3,40c9.4,0,18.7-0.2,28-0.5c10.8-0.4,21.4-1,32-1.9
	C1651.5,1761.4,1658.3,1771.7,1653.8,1780.4z M1676.3,1692c-21.8,3.2-44.8,5.2-68.9,6.1c-58.7,2-120.7-3-184.3-14.7
	c-7.8-1.5-9.2-11.9-2.2-15.5c13.9-7,27.8-14.2,41.7-21.6c97.4-51.6,188.4-108.1,267.9-166c6-4.4,14.2,0.8,12.9,8.1
	c-11,66.4-26.3,128.8-45.5,185.5C1694.8,1683.5,1686.4,1690.6,1676.3,1692z M1784.3,1750.1c-5.5,5.9-11.1,11.7-16.8,17.4
	c-10,10-20.2,19.6-30.6,28.9c-6.6,5.8-16.5-1.5-12.8-9.5c1.1-2.3,2.1-4.6,3.2-6.9c4.4-9.6,8.7-19.6,12.7-29.7c1-2.3,3-4.1,5.5-4.8
	c10.4-2.7,20.5-5.5,30.3-8.7C1783.9,1734.3,1790.1,1744,1784.3,1750.1z M1931.5,1517.9c-3.5,9-7.2,17.8-11.1,26.6
	c-0.6,1.2-1.1,2.4-1.8,3.6c-24.1,46.5-64.7,83-118.7,108.4c-12.1,5.7-25.4-5.4-21.8-18.3c18-64.3,31.6-134,40.4-207.2
	c1.6-13.6,8.3-26.1,18.8-35.1c22.3-19.3,43.1-38.4,62.1-57.5l0.2-0.2c9.4-9.4,25.5-5.3,29.3,7.4
	C1947.7,1408.4,1948.8,1466.9,1931.5,1517.9z M1946.1,1175.1c-5.4,9.8-19.4,10.3-25.5,0.8c-1-1.5-1.9-2.9-2.8-4.4
	c-21.8-33.5-46.9-66.4-75-98.4c-6.9-7.8-1.3-20.2,9.2-20.2h0.2c65.5,0,99.9,16.2,110.5,36
	C1971.4,1105.4,1968.7,1134.3,1946.1,1175.1z M1981.5,1271.8c-0.2,4.9-6.9,6.2-8.8,1.7c-0.8-1.9-1.7-4-2.6-5.9
	c-1.6-3.6-1.1-7.8,1.2-10.9c0.5-0.6,1.5-1.9,2.7-3.5c3.2-4.2,7.8-3.6,7.8,1.1C1981.9,1260.2,1981.7,1265.5,1981.5,1271.8z"/>
</svg>
