<svg version="1.1" xmlns="http://www.w3.org/2000/svg" viewBox="0 0 2500 2500">
  <circle fill="#8623FF" cx="1250" cy="1250" r="1250" />
  <path
    fill="#FFFFFF"
    d="M2231.4,1044.1c-0.3-0.9-0.4-1.8-0.5-2.6c-39.7-188.2-132.8-361.1-272-500.3
	c-189.3-189.3-441-293.6-708.9-293.6S730.5,351.7,541.1,541.1c-46.1,46.1-87.1,95.7-122.7,148.5c-10.6,14.1-20.1,29-28.5,44.7
	c-92.7,154.2-142.3,331.1-142.3,515.6c0,267.9,104.3,519.5,293.6,708.9s441,293.6,708.9,293.6s519.5-104.3,708.9-293.6
	c89.3-89.3,159.7-192.6,209.2-304.9c6-12.4,11.3-25.3,15.8-38.1c45-115,68.6-238.5,68.6-365.9
	C2252.5,1179.9,2245.3,1111.2,2231.4,1044.1z M1883,583.1c5.8,5.5,11.4,11.1,17.2,16.7c88.6,88.6,156.9,192.1,202.5,304.9
	c4.5,11.4-5,23.2-17.1,21.1c-26.4-4.8-56.2-6.8-89.1-6.3c-22.7,0.4-42.6-15.6-46.6-38.1c-17.8-100.3-43.7-192.9-77-273.6
	c-1.9-4.5-3.8-9.2-5.7-13.6C1863,584.2,1875.3,575.7,1883,583.1z M1978.3,1171.2c-0.3-10.6,13.2-15.1,19.3-6.4
	c7.5,10.6,14.7,21.1,21.6,31.8c9.3,14.1,17.8,28.3,25.8,42.2c5,8.8,3.8,19.6-2.9,27c-10.8,11.8-22.4,24-35.1,36.6
	c-4.5,4.5-9.3,9.3-14.1,13.8c-6,5.8-16,1.4-15.6-6.9c0.6-15.1,1-30.2,1.4-45.5C1979.3,1232.8,1979.2,1201.9,1978.3,1171.2z
	 M716.2,501.1c154.8-110.8,339.7-170.6,533.8-170.6c51.3,0,101.8,4.1,151.4,12.4c13.3,2.3,17.7,19.1,7.2,27.4
	c-48,37.6-92.6,93.3-132.2,165.6c-9.7,17.6-30.2,26.3-49.4,20.9c-130.8-36.8-259.6-54.2-378.4-50c-43.8,1.5-85.4,6-124.5,13.2
	C713,521.9,707.1,507.6,716.2,501.1z M585,1874.5c-19.3-36.6,5.7-121,132.5-249.3l0.1-0.1c13.2-13.4,11.9-35.4-2.9-47
	c-5-4-10.2-8-15.2-12.1c-12.6-10.2-30.9-9.3-42.3,2.3c-2.5,2.5-4.4,4.4-5,5c-63.4,65.1-107.9,125.4-132.7,179.7
	c-7,15.3-28.4,17-37.6,2.9c-98.4-148.9-151.4-323.3-151.4-505.8c0-65.3,6.8-129.5,20-191.8c2-9.4,15.3-10.1,18.1-0.8
	c19.1,62.9,50.1,128.2,93,194c57.8,88.7,133.9,174,224.1,252.2c30.8,26.8,63.3,52.5,97.2,77.5c68.8,50.4,143.6,97.1,223,138.3
	c35.3,18.3,69.6,35.8,104.8,51.6c19.6,8.8,41.8,9.4,61.8,1.6c16.6-6.5,33.3-13.2,50-20.2c18.3-7.7,28.1-27.5,23.2-46.7
	c-0.6-2.4-1.1-4.4-1.4-5.5c-27.6-116.5-43.1-247.6-45-385.1h-0.1c0-1.6,0-3.3,0-5c-0.1-7.5,0-15.1-0.3-22.6c0-2.4,0-6.4,0.1-8.8
	c0-0.9,0-1.9,0-2.9l0,0c0-8.7,0.1-17.2,0.3-25.9c0.4-23.6,1.4-47,2.4-70.1l0,0c8.5-165.8,36.6-321.6,81.3-452.7
	c4.1-12.1-2.4-25.4-14.4-29.4c-11.8-4-23.6-7.9-35.4-11.6c-11.9-3.8-24.8,2.8-28.6,14.6c-48.5,142.3-78.4,311.1-86.3,489.7
	c-1,22.6-13.3,43.3-32.8,54.9c-105.8,62.7-203,129.3-287,196.2c-17.5,13.9-42.5,13.4-59.4-1.3c-84.2-73-154.9-152.1-208.6-234.3
	c-105.3-161.6-130.3-313.7-70.4-428.4c0.3-0.3,0.3-0.5,0.5-0.8c7.7-12.6,15.6-25.1,23.7-37.4c68.7-91,196.8-143.7,366.5-149.6
	c10.8-0.4,21.6-0.6,32.4-0.6c104.2,0,215.7,17.2,329.4,49.9l0,0c2.4,0.8,5,1.4,7.4,2.3c1.9,0.6,3.9,1.1,5.8,1.6l0,0
	c26.3,7.8,52.5,16.6,79,26l0,0c0.6,0.3,1.3,0.5,1.9,0.8c6.9,2.4,13.7,5,20.6,7.7c2.1,0.8,4.3,1.6,6.4,2.4c2,0.8,4.1,1.5,6.2,2.4l0,0
	c55.5,21.5,110.9,46.5,165.6,74.9c105.9,55,202.9,119.6,287.3,190.5c-161.1,36.9-348.3,108-536.5,204c-8.7,4.5-14.4,13.1-15,22.9
	c-0.6,11.7-1.5,35.1-2.1,53.8c-0.4,11.7,11.9,19.5,22.4,14.1l0.1-0.1c186.3-97.9,372.4-171,532.2-209.7c29.9-7.2,49.3-35.9,45-66.3
	c-2.9-21.2-6.2-42.2-9.8-62.7c-4.5-25.9-18.7-48.9-39.6-64.7c-74.9-57-157.3-109.3-245.5-155.2c-59.4-30.9-119.9-57.9-180.4-81.2
	c-12.9-5-18.5-20.2-11.7-32.3c62.3-111.4,136.4-173.9,208.7-173.9c0.8,0,1.5,0,2.3,0c85.2,1.5,170.1,90.2,233.1,243.4
	c31.8,77.5,56.5,166.8,73.4,264.1c-0.1-0.1-0.3-0.3-0.3-0.3c7.2,41.5,13.1,84.3,17.3,128.2c-0.4,0.3-0.8,0.4-1.1,0.8
	c0.5,0.5,1,1,1.5,1.5c7.2,73.7,10.2,150.5,8.8,228.9c-0.9,49.6-3.5,98.4-7.8,146.4c-114,92.1-254.8,183.7-409.7,265.7
	c-50.9,26.9-101.8,52-152.1,75.3c-0.8,0.4-1.5,0.8-2.4,1.1c-3.9,1.8-7.8,3.5-11.6,5.3h-0.1c-41.8,19-83,36.4-123.8,52.4l0,0
	c-2.4,0.9-4.5,1.8-6.9,2.6c-2.9,1.1-5.7,2.3-8.5,3.4c-6.8,2.6-13.6,5.2-20.5,7.8c-1.9,0.8-3.8,1.4-5.7,2.1c-8.3,3-16.3,6-24.6,8.9
	c-1,0.4-2,0.8-3,1.1l0,0c-87.2,31-170.2,54.5-245.9,69C690.7,1938.5,604.5,1911.6,585,1874.5z M836.9,1517.7
	c81-66,176-131.8,280-194.1c2.3,133.2,16.8,261.1,42.7,376.5c-38.7-16.5-77.1-34.6-115.3-54.4
	C970.5,1607.3,900.9,1564.2,836.9,1517.7z M1368.6,2161.9c-39.1,5-78.6,7.7-118.6,7.7c-178.8,0-349.7-50.6-496.5-145.2
	c-10.1-6.5-5.8-22.1,6.2-22.7c2.4-0.1,4.8-0.3,6.8-0.4c37.3-2.4,78.1-7.9,122.5-16.5c94.2-18.1,199-49.3,308.8-91.1
	c9.8-3.8,20.9,1.1,24.8,10.9c0,0.1,0,0.1,0.1,0.3c42.5,103.5,94.9,181.7,153.7,231.6C1386.1,2144.4,1381.3,2160.3,1368.6,2161.9z
	 M1757.3,1916.4c-65.7,129.2-146.5,201.6-224.8,200.1c-85.2-1.5-170.1-90.2-233.1-243.4l-0.1-0.3c-4-9.8,0.6-20.9,10.3-25
	c0.8-0.3,1.4-0.6,2-0.9c4.1-1.9,8.8-2.1,13.1-0.9c117.6,33,233.6,50.3,342.1,50.3c11.8,0,23.5-0.3,35.2-0.6
	c13.6-0.5,26.9-1.3,40.2-2.4C1754.4,1892.5,1763,1905.5,1757.3,1916.4z M1785.6,1805.3c-27.4,4-56.3,6.5-86.6,7.7
	c-73.7,2.5-151.6-3.8-231.6-18.5c-9.8-1.9-11.6-15-2.8-19.5c17.5-8.8,34.9-17.8,52.4-27.1c122.4-64.8,236.7-135.8,336.6-208.6
	c7.5-5.5,17.8,1,16.2,10.2c-13.8,83.4-33,161.8-57.2,233.1C1808.8,1794.6,1798.3,1803.6,1785.6,1805.3z M1921.3,1878.3
	c-6.9,7.4-13.9,14.7-21.1,21.9c-12.6,12.6-25.4,24.6-38.4,36.3c-8.3,7.3-20.7-1.9-16.1-11.9c1.4-2.9,2.6-5.8,4-8.7
	c5.5-12.1,10.9-24.6,16-37.3c1.3-2.9,3.8-5.2,6.9-6c13.1-3.4,25.8-6.9,38.1-10.9C1920.8,1858.5,1928.6,1870.7,1921.3,1878.3z
	 M2106.2,1586.6c-4.4,11.3-9,22.4-13.9,33.4c-0.8,1.5-1.4,3-2.3,4.5c-30.3,58.4-81.3,104.3-149.1,136.2c-15.2,7.2-31.9-6.8-27.4-23
	c22.6-80.8,39.7-168.4,50.8-260.3c2-17.1,10.4-32.8,23.6-44.1c28-24.2,54.2-48.2,78-72.2l0.3-0.3c11.8-11.8,32-6.7,36.8,9.3
	C2126.6,1449,2128,1522.5,2106.2,1586.6z M2124.6,1155.9c-6.8,12.3-24.4,12.9-32,1c-1.3-1.9-2.4-3.6-3.5-5.5
	c-27.4-42.1-58.9-83.4-94.2-123.6c-8.7-9.8-1.6-25.4,11.6-25.4h0.3c82.3,0,125.5,20.4,138.8,45.2
	C2156.4,1068.3,2153,1104.6,2124.6,1155.9z M2169,1277.4c-0.3,6.2-8.7,7.8-11.1,2.1c-1-2.4-2.1-5-3.3-7.4c-2-4.5-1.4-9.8,1.5-13.7
	c0.6-0.8,1.9-2.4,3.4-4.4c4-5.3,9.8-4.5,9.8,1.4C2169.5,1262.8,2169.3,1269.5,2169,1277.4z"
  />
</svg>
