<svg width="123" height="40" viewBox="0 0 123 40" fill="none" xmlns="http://www.w3.org/2000/svg">
    <path fill-rule="evenodd" clip-rule="evenodd" d="M20.1655 0L26.3455 0.980034L31.9208 3.81935L36.3448 8.24338L39.1866 13.8187L40.1667 19.9988L39.1866 26.1788L36.3448 31.7542L31.9208 36.1781L26.3455 39.02L20.1655 40L13.9854 39.02L8.41006 36.1781L3.98604 31.7541L1.14672 26.1788L0.166687 19.9988L1.14672 13.8188L3.98604 8.24343L8.41011 3.81935L13.9854 0.980034L20.1655 0ZM17.3068 15.753L20.1656 19.6876L23.0243 15.753H17.3068ZM17.0096 15.9661L19.8697 19.9026L15.2433 21.4059L17.0096 15.9661ZM14.6292 21.6055L10.6162 17.2441L9.23814 23.3573L14.6292 21.6055ZM8.90009 23.1937L10.2664 17.133L5.60265 18.5986L8.90009 23.1937ZM2.29427 19.6382L5.09208 18.759L4.42002 24.4026L2.29427 19.6382ZM0.918683 20.0705L1.83803 19.7816L1.50498 23.7676L0.918683 20.0705ZM1.82205 25.7671L1.74535 25.2834L2.16604 20.2484L4.27298 24.9706L1.82205 25.7671ZM4.38391 25.3192L5.45531 30.3758L2.15644 26.5496L1.93507 26.1149L4.38391 25.3192ZM4.84906 25.168L8.84039 29.477L8.80753 23.8817L4.84906 25.168ZM9.35033 23.7054L14.0573 27.8427L14.7435 21.9529L9.35033 23.7054ZM13.8376 28.1365L9.17419 24.0375L9.2074 29.6907L13.8376 28.1365ZM8.69814 29.8616L4.83703 25.6932L5.91796 30.7948L8.69814 29.8616ZM5.46485 30.9469L2.85327 27.9179L4.5519 31.2534L5.46485 30.9469ZM15.1034 22.0243L14.418 27.9066L19.8048 25.4398L15.1034 22.0243ZM19.9827 25.7607L14.5923 28.2291L19.9827 31.4302V25.7607ZM14.3312 33.415L14.3786 28.5275L19.7219 31.7008L14.3312 33.415ZM14.2976 36.8845L14.3261 33.9497L19.4872 36.3352L14.2976 36.8845ZM14.2836 38.3266L14.293 37.3608L17.9976 38.9156L14.2836 38.3266ZM19.9827 39.2304L19.5167 39.1565L14.8422 37.1946L19.9827 36.6505V39.2304ZM20.3484 36.1637L25.6779 33.6994L20.3484 32.0018V36.1637ZM20.3484 36.653V39.2304L20.8241 39.1549L25.489 37.1971L20.3484 36.653ZM22.3431 38.9141L26.0449 38.327L26.0355 37.3644L22.3431 38.9141ZM26.0309 36.8867L26.0024 33.9523L20.8437 36.3376L26.0309 36.8867ZM25.9973 33.4173L25.9499 28.5301L20.6091 31.7009L25.9973 33.4173ZM25.7364 28.2315L20.3484 31.4303V25.7608L25.7364 28.2315ZM20.526 25.4399L25.2275 22.0243L25.9106 27.909L20.526 25.4399ZM25.5874 21.9526L26.2712 27.8429L30.9811 23.705L25.5874 21.9526ZM31.1213 29.6937L26.489 28.1384L31.1567 24.0375L31.1213 29.6937ZM34.4105 30.798L31.6284 29.8639L35.4917 25.6932L34.4105 30.798ZM35.7773 31.2569L34.8633 30.95L37.4817 27.913L35.7773 31.2569ZM38.3982 26.1148L38.18 26.543L34.8732 30.3783L35.945 25.3178L38.3982 26.1148ZM35.5947 24.8194L31.6372 23.5336L34.8983 18.9892L35.5947 24.8194ZM31.0928 23.3567L25.702 21.6053L29.7153 17.2459L31.0928 23.3567ZM30.0653 17.1357L34.7269 18.6006L31.431 23.1937L30.0653 17.1357ZM35.2394 18.7617L38.0368 19.6407L35.9133 24.4028L35.2394 18.7617ZM38.4929 19.7841L38.8257 23.7847L39.4142 20.0736L38.4929 19.7841ZM38.585 25.3027L38.5113 25.767L36.0605 24.9707L38.1648 20.2517L38.585 25.3027ZM25.4504 21.3387L23.6555 15.8111L29.4621 16.9809L25.4504 21.3387ZM23.6989 15.4468L27.0323 10.8588L29.5106 16.6176L23.6989 15.4468ZM29.8133 7.03122L27.3672 10.398L32.6789 12.1576L29.8133 7.03122ZM34.58 9.21794L30.1006 6.63579L31.6165 4.5495L31.953 4.88603L34.58 9.21794ZM27.4031 10.7952L29.8588 16.5016L32.7709 12.5734L27.4031 10.7952ZM33.0398 5.97286L35.6954 8.62841L35.1205 9.40387L33.0398 5.97286ZM30.317 7.18265L34.836 9.78766L33.0898 12.1432L30.317 7.18265ZM30.1349 16.7434L33.0039 12.8732L34.7414 18.2218L30.1462 16.7778L30.1711 16.7507L30.1349 16.7434ZM39.3752 19.678L38.4843 19.398L38.8071 16.0956L39.3752 19.678ZM38.5117 14.233L38.5797 14.6619L38.1912 18.6365L36.9284 14.7479L38.5117 14.233ZM35.2718 18.3885L36.6737 15.1477L38.0051 19.2474L35.2718 18.3885ZM35.3406 9.72115L37.542 12.2029L35.8955 8.9726L35.3406 9.72115ZM38.2024 13.4985L38.3994 13.8849L36.8156 14.4L35.5507 10.5092L38.2024 13.4985ZM35.0412 10.125L36.3744 14.226L33.336 12.4253L35.0412 10.125ZM35.4806 25.1669L31.5235 23.8812L31.4884 29.4768L35.4806 25.1669ZM26.3153 28.4969L26.3489 28.5123L26.3446 28.4757L30.9074 30.0076L26.362 33.3108L26.3153 28.4969ZM26.4091 38.1666L26.4 37.2365L29.6305 36.5246L26.4091 38.1666ZM31.3175 35.6647L30.9248 35.8648L27.0307 36.723L30.3399 34.3191L31.3175 35.6647ZM26.3674 33.8691L29.8812 34.2002L26.3952 36.7325L26.3674 33.8691ZM34.1527 31.0972L31.4365 30.1853L30.6646 33.631L34.1527 31.0972ZM31.9232 35.1413L31.614 35.4506L30.6357 34.1041L33.9451 31.7001L31.9232 35.1413ZM32.9517 34.1128L34.6294 31.2573L35.5112 31.5533L32.9517 34.1128ZM19.9827 36.1613V32.0016L14.6512 33.697L19.9827 36.1613ZM13.9838 28.4732L13.9796 28.5097L14.0132 28.4943L13.9665 33.3084L9.41862 30.0056L13.9838 28.4732ZM4.81668 31.5503L5.69663 31.2549L7.37442 34.108L4.81668 31.5503ZM8.71432 35.4479L8.4044 35.138L6.38154 31.6981L9.69052 34.1018L8.71432 35.4479ZM8.89143 30.1826L9.66189 33.6289L6.17343 31.0949L8.89143 30.1826ZM13.9333 36.7299L13.9611 33.8667L10.4454 34.1978L13.9333 36.7299ZM9.39908 35.8612L9.01015 35.663L9.98652 34.3166L13.2976 36.7204L9.39908 35.8612ZM10.6934 36.521L13.9285 37.2339L13.9194 38.1653L10.6934 36.521ZM4.73872 24.8193L8.69413 23.534L5.43297 18.9894L4.73872 24.8193ZM14.8806 21.3385L16.6755 15.811L10.8689 16.9786L14.8806 21.3385ZM12.9626 10.396L7.6521 12.1574L10.517 7.03001L12.9626 10.396ZM13.298 10.8576L10.8177 16.6158L16.6322 15.4466L13.298 10.8576ZM10.4706 16.4972L12.9276 10.793L7.56143 12.5728L10.4706 16.4972ZM7.24188 12.1418L5.49491 9.78521L10.0142 7.18006L7.24188 12.1418ZM5.21041 9.40144L4.63657 8.62736L7.2874 5.97653L5.21041 9.40144ZM8.37422 4.88971L5.75093 9.21547L10.2292 6.63395L8.7146 4.54933L8.37422 4.88971ZM10.196 16.7408L7.32774 12.8717L5.59073 18.2189L10.1848 16.7752L10.1598 16.7481L10.196 16.7408ZM4.43624 8.97127L4.99047 9.71888L2.7952 12.1936L4.43624 8.97127ZM1.9347 13.8834L2.13617 13.4877L4.78052 10.5067L3.51565 14.3975L1.9347 13.8834ZM5.2899 10.1228L3.95668 14.2239L6.99626 12.4246L5.2899 10.1228ZM1.82192 14.2313L3.40263 14.7454L2.13981 18.634L1.75235 14.67L1.82192 14.2313ZM1.525 16.1037L1.84676 19.3955L0.958725 19.6745L1.525 16.1037ZM2.32597 19.2449L3.65736 15.1451L5.0585 18.3862L2.32597 19.2449ZM13.2594 10.1824L10.8141 6.81672L16.5743 5.67562L13.2594 10.1824ZM16.9273 15.2306L13.5946 10.6437L19.835 10.065L16.9273 15.2306ZM16.9977 5.71724L19.8322 9.69798L13.6479 10.2715L16.9977 5.71724ZM14.9863 2.89232L16.6868 5.2805L11.1123 6.38478L14.9863 2.89232ZM14.1496 1.71731L14.7088 2.50266L10.8083 3.41891L14.1496 1.71731ZM14.3663 2.95881L9.43893 4.11628L9.01055 4.33444L10.5263 6.42067L14.3663 2.95881ZM20.496 10.065L23.4038 15.2307L26.7367 10.6435L20.496 10.065ZM29.8049 6.42062L31.3206 4.33455L30.8915 4.11603L25.9671 2.9588L29.8049 6.42062ZM29.5216 3.41841L26.1813 1.71731L25.6225 2.50212L29.5216 3.41841ZM25.3457 2.89086L23.6442 5.28045L29.2192 6.38485L25.3457 2.89086ZM23.3334 5.71698L20.4987 9.69794L26.6856 10.2715L23.3334 5.71698ZM29.5171 6.81672L27.0729 10.1807L23.7571 5.67566L29.5171 6.81672ZM23.0722 15.3872L20.1655 10.2235L17.2588 15.3872H23.0722ZM20.1836 9.50999L20.1655 9.47789L20.1474 9.51008L17.3544 5.58764H22.9765L20.1836 9.50999ZM25.7924 1.63295L25.2528 2.3908L22.2168 1.06592L25.7924 1.63295ZM20.3485 0.769652L20.7804 0.838135L24.44 2.43514H20.3485V0.769652ZM23.2997 5.13376L20.6501 2.80088H24.9608L23.2997 5.13376ZM15.3701 2.80088L17.0314 5.13396L19.6812 2.80088H15.3701ZM15.0788 2.39169L14.5385 1.63295L18.1161 1.06562L15.0788 2.39169ZM19.5515 0.837982L15.8933 2.43514H19.9828V0.769591L19.5515 0.837982ZM23.3214 15.9664L20.4614 19.9026L25.0876 21.4056L23.3214 15.9664ZM24.9769 21.7542L20.3484 20.2504V25.1169L24.9769 21.7542ZM19.9827 25.117V20.2504L15.3542 21.7544L19.9827 25.117ZM17.485 5.2219L20.1656 2.86167L22.8463 5.2219H17.485ZM6.93945 12.8832L3.8648 14.7033L5.28274 17.9832L6.93945 12.8832ZM9.31006 30.3788L10.0892 33.8639L13.6477 33.5288L9.31006 30.3788ZM26.6807 33.5313L30.237 33.8664L31.0182 30.3792L26.6807 33.5313ZM33.3919 12.8836L36.4664 14.7057L35.0485 17.9834L33.3919 12.8836Z" fill="white"/>
    <path d="M52.1648 13.9395L53.5284 16.2505L54.8919 13.9395L55.2056 16.6667H55.9866L55.3721 11.9614L53.5284 15.0022L51.6911 11.9614L51.0765 16.6667H51.8575L52.1648 13.9395Z" fill="white"/>
    <path d="M63.5969 15.5144H65.9655L65.8183 14.8742H63.7377L63.5969 15.5144ZM64.7684 13.453L65.479 15.1175L65.4982 15.3031L66.1064 16.6667H66.9578L64.7684 11.9358L62.579 16.6667H63.4305L64.0514 15.2647L64.0642 15.0982L64.7684 13.453Z" fill="white"/>
    <path d="M74.7385 14.5285L76.1661 16.6667H77.0752L75.558 14.5285H74.7385ZM73.8167 12.1855V16.6667H74.5721V12.1855H73.8167ZM74.2648 12.8385H75.1675C75.3382 12.8385 75.4875 12.8683 75.6156 12.9281C75.7479 12.9878 75.8503 13.0732 75.9229 13.1841C75.9954 13.2951 76.0317 13.4317 76.0317 13.5939C76.0317 13.7518 75.9954 13.8883 75.9229 14.0036C75.8503 14.1145 75.7479 14.1999 75.6156 14.2596C75.4875 14.3194 75.3382 14.3492 75.1675 14.3492H74.2648V14.9702H75.1995C75.5238 14.9702 75.8055 14.9126 76.0445 14.7974C76.2878 14.6821 76.4755 14.52 76.6078 14.3108C76.7401 14.1017 76.8063 13.8563 76.8063 13.5746C76.8063 13.293 76.7401 13.0497 76.6078 12.8449C76.4755 12.6357 76.2878 12.4736 76.0445 12.3583C75.8055 12.2431 75.5238 12.1855 75.1995 12.1855H74.2648V12.8385Z" fill="white"/>
    <path d="M84.2561 15.2263L83.6927 15.6168C83.7909 15.8216 83.9232 16.0115 84.0896 16.1865C84.2561 16.3615 84.4503 16.5023 84.6722 16.609C84.8984 16.7115 85.1438 16.7627 85.4084 16.7627C85.6004 16.7627 85.7839 16.7307 85.9589 16.6667C86.1382 16.6069 86.2982 16.5215 86.439 16.4106C86.5799 16.2954 86.6908 16.1545 86.7719 15.9881C86.853 15.8216 86.8936 15.6339 86.8936 15.4247C86.8936 15.2284 86.8594 15.0577 86.7911 14.9126C86.7271 14.7675 86.6396 14.6416 86.5287 14.5349C86.4177 14.4239 86.2939 14.3322 86.1574 14.2596C86.0251 14.1871 85.8928 14.1273 85.7605 14.0804C85.5215 13.995 85.3273 13.9118 85.1779 13.8307C85.0285 13.7496 84.9176 13.6643 84.845 13.5746C84.7767 13.4808 84.7426 13.3762 84.7426 13.261C84.7426 13.1329 84.7917 13.022 84.8898 12.9281C84.988 12.8299 85.1416 12.7808 85.3508 12.7808C85.5001 12.7808 85.6303 12.8107 85.7413 12.8705C85.8565 12.9259 85.9568 13.0028 86.0421 13.1009C86.1275 13.1948 86.1979 13.2972 86.2534 13.4082L86.868 13.0625C86.7911 12.9046 86.6844 12.7531 86.5479 12.608C86.4156 12.4629 86.2513 12.3434 86.0549 12.2495C85.8586 12.1556 85.6282 12.1087 85.3636 12.1087C85.0947 12.1087 84.8536 12.1599 84.6402 12.2623C84.4311 12.3605 84.2646 12.5013 84.1408 12.6848C84.0171 12.8641 83.9552 13.0732 83.9552 13.3122C83.9552 13.5213 83.9957 13.7005 84.0768 13.8499C84.1579 13.995 84.2603 14.1188 84.3841 14.2212C84.5079 14.3194 84.638 14.4026 84.7746 14.4709C84.9112 14.5349 85.0349 14.5861 85.1459 14.6245C85.3337 14.6928 85.498 14.7632 85.6388 14.8358C85.7839 14.9041 85.897 14.9894 85.9781 15.0918C86.0592 15.19 86.0998 15.3223 86.0998 15.4887C86.0998 15.6637 86.0357 15.8067 85.9077 15.9177C85.7797 16.0286 85.6132 16.0841 85.4084 16.0841C85.2377 16.0841 85.084 16.05 84.9475 15.9817C84.8109 15.9091 84.685 15.8088 84.5698 15.6808C84.4588 15.5485 84.3542 15.397 84.2561 15.2263Z" fill="white"/>
    <path d="M51.3326 21.8522V26.3333H52.088V21.8522H51.3326ZM51.7807 22.5179H52.6834C52.9437 22.5179 53.1528 22.5798 53.3107 22.7036C53.4686 22.8231 53.5476 23.0023 53.5476 23.2413C53.5476 23.4803 53.4686 23.6617 53.3107 23.7855C53.1528 23.9092 52.9437 23.9711 52.6834 23.9711H51.7807V24.6369H52.6834C53.0077 24.6369 53.2894 24.5814 53.5284 24.4704C53.7716 24.3552 53.9594 24.193 54.0917 23.9839C54.224 23.7748 54.2902 23.5273 54.2902 23.2413C54.2902 22.9554 54.224 22.71 54.0917 22.5051C53.9594 22.296 53.7716 22.136 53.5284 22.025C53.2894 21.9098 53.0077 21.8522 52.6834 21.8522H51.7807V22.5179Z" fill="white"/>
    <path d="M61.3968 24.1952L62.8244 26.3333H63.7334L62.2162 24.1952H61.3968ZM60.475 21.8522V26.3333H61.2304V21.8522H60.475ZM60.9231 22.5051H61.8257C61.9964 22.5051 62.1458 22.535 62.2739 22.5947C62.4062 22.6545 62.5086 22.7399 62.5811 22.8508C62.6537 22.9618 62.69 23.0983 62.69 23.2605C62.69 23.4184 62.6537 23.555 62.5811 23.6702C62.5086 23.7812 62.4062 23.8665 62.2739 23.9263C62.1458 23.986 61.9964 24.0159 61.8257 24.0159H60.9231V24.6369H61.8577C62.1821 24.6369 62.4638 24.5793 62.7028 24.464C62.946 24.3488 63.1338 24.1866 63.2661 23.9775C63.3984 23.7684 63.4646 23.523 63.4646 23.2413C63.4646 22.9596 63.3984 22.7164 63.2661 22.5115C63.1338 22.3024 62.946 22.1402 62.7028 22.025C62.4638 21.9098 62.1821 21.8522 61.8577 21.8522H60.9231V22.5051Z" fill="white"/>
    <path d="M70.2678 24.0927C70.2678 23.7855 70.3318 23.5123 70.4598 23.2733C70.5921 23.0301 70.7735 22.8401 71.004 22.7036C71.2344 22.567 71.4969 22.4987 71.7914 22.4987C72.0944 22.4987 72.359 22.567 72.5852 22.7036C72.8156 22.8401 72.9949 23.0301 73.1229 23.2733C73.251 23.5123 73.315 23.7855 73.315 24.0927C73.315 24.4 73.2488 24.6753 73.1165 24.9186C72.9885 25.1575 72.8092 25.3453 72.5788 25.4819C72.3526 25.6185 72.0901 25.6868 71.7914 25.6868C71.4969 25.6868 71.2344 25.6185 71.004 25.4819C70.7735 25.3453 70.5921 25.1575 70.4598 24.9186C70.3318 24.6753 70.2678 24.4 70.2678 24.0927ZM69.4676 24.0927C69.4676 24.4256 69.5252 24.735 69.6404 25.021C69.7557 25.3069 69.9157 25.5545 70.1205 25.7636C70.3297 25.9727 70.5772 26.137 70.8631 26.2565C71.1491 26.3717 71.4585 26.4293 71.7914 26.4293C72.1285 26.4293 72.438 26.3717 72.7196 26.2565C73.0056 26.137 73.2531 25.9727 73.4622 25.7636C73.6713 25.5545 73.8335 25.3069 73.9487 25.021C74.064 24.735 74.1216 24.4256 74.1216 24.0927C74.1216 23.7556 74.064 23.4462 73.9487 23.1645C73.8335 22.8828 73.6692 22.6396 73.4558 22.4347C73.2467 22.2256 73.0013 22.0634 72.7196 21.9482C72.438 21.8329 72.1285 21.7753 71.7914 21.7753C71.4628 21.7753 71.1555 21.8329 70.8695 21.9482C70.5879 22.0634 70.3403 22.2256 70.1269 22.4347C69.9178 22.6396 69.7557 22.8828 69.6404 23.1645C69.5252 23.4462 69.4676 23.7556 69.4676 24.0927Z" fill="white"/>
    <path d="M79.6557 22.5499H80.8336V26.3333H81.5954V22.5499H82.7797V21.8522H79.6557V22.5499Z" fill="white"/>
    <path d="M88.9964 24.0927C88.9964 23.7855 89.0604 23.5123 89.1885 23.2733C89.3208 23.0301 89.5021 22.8401 89.7326 22.7036C89.9631 22.567 90.2255 22.4987 90.52 22.4987C90.823 22.4987 91.0876 22.567 91.3138 22.7036C91.5443 22.8401 91.7235 23.0301 91.8516 23.2733C91.9796 23.5123 92.0436 23.7855 92.0436 24.0927C92.0436 24.4 91.9775 24.6753 91.8452 24.9186C91.7171 25.1575 91.5379 25.3453 91.3074 25.4819C91.0812 25.6185 90.8188 25.6868 90.52 25.6868C90.2255 25.6868 89.9631 25.6185 89.7326 25.4819C89.5021 25.3453 89.3208 25.1575 89.1885 24.9186C89.0604 24.6753 88.9964 24.4 88.9964 24.0927ZM88.1962 24.0927C88.1962 24.4256 88.2538 24.735 88.369 25.021C88.4843 25.3069 88.6443 25.5545 88.8492 25.7636C89.0583 25.9727 89.3058 26.137 89.5918 26.2565C89.8777 26.3717 90.1871 26.4293 90.52 26.4293C90.8572 26.4293 91.1666 26.3717 91.4482 26.2565C91.7342 26.137 91.9817 25.9727 92.1908 25.7636C92.4 25.5545 92.5621 25.3069 92.6774 25.021C92.7926 24.735 92.8502 24.4256 92.8502 24.0927C92.8502 23.7556 92.7926 23.4462 92.6774 23.1645C92.5621 22.8828 92.3978 22.6396 92.1844 22.4347C91.9753 22.2256 91.7299 22.0634 91.4482 21.9482C91.1666 21.8329 90.8572 21.7753 90.52 21.7753C90.1914 21.7753 89.8841 21.8329 89.5982 21.9482C89.3165 22.0634 89.069 22.2256 88.8556 22.4347C88.6465 22.6396 88.4843 22.8828 88.369 23.1645C88.2538 23.4462 88.1962 23.7556 88.1962 24.0927Z" fill="white"/>
    <path d="M99.5832 24.0927C99.5832 23.7727 99.6536 23.4952 99.7945 23.2605C99.9396 23.0215 100.127 22.838 100.358 22.71C100.593 22.5777 100.846 22.5115 101.12 22.5115C101.333 22.5115 101.525 22.5393 101.696 22.5947C101.866 22.6502 102.02 22.727 102.157 22.8252C102.298 22.9191 102.419 23.0258 102.522 23.1453V22.2491C102.334 22.0954 102.131 21.9781 101.913 21.897C101.696 21.8159 101.423 21.7753 101.094 21.7753C100.765 21.7753 100.458 21.8308 100.172 21.9418C99.8905 22.0527 99.6451 22.2128 99.436 22.4219C99.2269 22.631 99.0625 22.8786 98.943 23.1645C98.8278 23.4462 98.7702 23.7556 98.7702 24.0927C98.7702 24.4299 98.8278 24.7414 98.943 25.0274C99.0625 25.3091 99.2269 25.5545 99.436 25.7636C99.6451 25.9727 99.8905 26.1327 100.172 26.2437C100.458 26.3547 100.765 26.4101 101.094 26.4101C101.423 26.4101 101.696 26.3696 101.913 26.2885C102.131 26.2074 102.334 26.0901 102.522 25.9364V25.0402C102.419 25.1597 102.298 25.2685 102.157 25.3667C102.02 25.4606 101.866 25.5352 101.696 25.5907C101.525 25.6462 101.333 25.6739 101.12 25.6739C100.846 25.6739 100.593 25.6099 100.358 25.4819C100.127 25.3496 99.9396 25.1639 99.7945 24.925C99.6536 24.686 99.5832 24.4086 99.5832 24.0927Z" fill="white"/>
    <path d="M109.438 24.0927C109.438 23.7855 109.502 23.5123 109.63 23.2733C109.762 23.0301 109.944 22.8401 110.174 22.7036C110.405 22.567 110.667 22.4987 110.962 22.4987C111.265 22.4987 111.529 22.567 111.755 22.7036C111.986 22.8401 112.165 23.0301 112.293 23.2733C112.421 23.5123 112.485 23.7855 112.485 24.0927C112.485 24.4 112.419 24.6753 112.287 24.9186C112.159 25.1575 111.979 25.3453 111.749 25.4819C111.523 25.6185 111.26 25.6868 110.962 25.6868C110.667 25.6868 110.405 25.6185 110.174 25.4819C109.944 25.3453 109.762 25.1575 109.63 24.9186C109.502 24.6753 109.438 24.4 109.438 24.0927ZM108.638 24.0927C108.638 24.4256 108.695 24.735 108.811 25.021C108.926 25.3069 109.086 25.5545 109.291 25.7636C109.5 25.9727 109.747 26.137 110.033 26.2565C110.319 26.3717 110.629 26.4293 110.962 26.4293C111.299 26.4293 111.608 26.3717 111.89 26.2565C112.176 26.137 112.423 25.9727 112.632 25.7636C112.842 25.5545 113.004 25.3069 113.119 25.021C113.234 24.735 113.292 24.4256 113.292 24.0927C113.292 23.7556 113.234 23.4462 113.119 23.1645C113.004 22.8828 112.839 22.6396 112.626 22.4347C112.417 22.2256 112.171 22.0634 111.89 21.9482C111.608 21.8329 111.299 21.7753 110.962 21.7753C110.633 21.7753 110.326 21.8329 110.04 21.9482C109.758 22.0634 109.511 22.2256 109.297 22.4347C109.088 22.6396 108.926 22.8828 108.811 23.1645C108.695 23.4462 108.638 23.7556 108.638 24.0927Z" fill="white"/>
    <path d="M119.468 21.8522V26.3333H122.003V25.6547H120.223V21.8522H119.468Z" fill="white"/>
</svg>
