<svg viewBox="0 0 15 12" fill="none" xmlns="http://www.w3.org/2000/svg">
<path d="M14.1666 3.6665H0.833252M0.833252 6.33317H3.1977C3.55783 6.33317 3.73789 6.33317 3.91201 6.36421C4.06655 6.39176 4.21732 6.4374 4.36119 6.50021C4.52328 6.57097 4.6731 6.67085 4.97274 6.87061L5.36043 7.12906C5.66007 7.32883 5.80989 7.42871 5.97198 7.49947C6.11585 7.56227 6.26662 7.60792 6.42116 7.63547C6.59528 7.6665 6.77534 7.6665 7.13547 7.6665H7.86437C8.2245 7.6665 8.40456 7.6665 8.57868 7.63547C8.73322 7.60792 8.88399 7.56227 9.02786 7.49947C9.18995 7.42871 9.33977 7.32883 9.63941 7.12906L10.0271 6.87061C10.3267 6.67085 10.4766 6.57097 10.6386 6.50021C10.7825 6.4374 10.9333 6.39176 11.0878 6.36421C11.2619 6.33317 11.442 6.33317 11.8021 6.33317H14.1666M0.833252 2.79984L0.833252 9.19984C0.833252 9.94657 0.833252 10.3199 0.978577 10.6052C1.10641 10.856 1.31038 11.06 1.56126 11.1878C1.84648 11.3332 2.21985 11.3332 2.96659 11.3332L12.0333 11.3332C12.78 11.3332 13.1534 11.3332 13.4386 11.1878C13.6895 11.06 13.8934 10.856 14.0213 10.6052C14.1666 10.3199 14.1666 9.94657 14.1666 9.19984V2.79984C14.1666 2.0531 14.1666 1.67973 14.0213 1.39452C13.8934 1.14363 13.6895 0.939661 13.4386 0.81183C13.1534 0.666505 12.78 0.666505 12.0333 0.666505L2.96659 0.666504C2.21985 0.666504 1.84648 0.666504 1.56126 0.811828C1.31038 0.93966 1.10641 1.14363 0.978577 1.39452C0.833252 1.67973 0.833252 2.0531 0.833252 2.79984Z" stroke="currentColor" stroke-linecap="round" stroke-linejoin="round"/>
</svg>
