<svg width="20" height="20" viewBox="0 0 20 20" fill="none" xmlns="http://www.w3.org/2000/svg">
    <path d="M14.9999 8.33424L11.6666 5.0009M2.08325 17.9176L4.90356 17.6042C5.24813 17.5659 5.42042 17.5468 5.58146 17.4946C5.72433 17.4484 5.86029 17.383 5.98566 17.3004C6.12696 17.2072 6.24954 17.0846 6.49469 16.8395L17.4999 5.83424C18.4204 4.91376 18.4204 3.42138 17.4999 2.5009C16.5795 1.58043 15.0871 1.58043 14.1666 2.5009L3.16136 13.5061C2.91621 13.7513 2.79363 13.8739 2.70045 14.0152C2.61778 14.1405 2.55243 14.2765 2.50618 14.4194C2.45405 14.5804 2.43491 14.7527 2.39662 15.0973L2.08325 17.9176Z" stroke="currentColor" stroke-linecap="round" stroke-linejoin="round"/>
</svg>
