<svg viewBox="0 0 22 20" fill="none" xmlns="http://www.w3.org/2000/svg">
  <path
    d="M10.9998 8.00023V12.0002M10.9998 16.0002H11.0098M9.61507 2.89195L1.39019 17.0986C0.933982 17.8866 0.70588 18.2806 0.739593 18.6039C0.768998 18.886 0.916769 19.1423 1.14613 19.309C1.40908 19.5002 1.86435 19.5002 2.77487 19.5002H19.2246C20.1352 19.5002 20.5904 19.5002 20.8534 19.309C21.0827 19.1423 21.2305 18.886 21.2599 18.6039C21.2936 18.2806 21.0655 17.8866 20.6093 17.0986L12.3844 2.89195C11.9299 2.10679 11.7026 1.71421 11.4061 1.58235C11.1474 1.46734 10.8521 1.46734 10.5935 1.58235C10.2969 1.71421 10.0696 2.10679 9.61507 2.89195Z"
    stroke="currentColor"
    stroke-linecap="round"
    stroke-linejoin="round"
  />
</svg>
