<svg
  version="1.1"
  xmlns="http://www.w3.org/2000/svg"
  x="0px"
  y="0px"
  viewBox="0 0 525 165"
  style="enable-background: new 0 0 525 165"
>
  <defs>
    <rect id="GridWebRect" x="-0.5" y="0.6" width="526.1" height="164.7" />
  </defs>
  <clipPath id="GridWeb">
    <use href="#GridWebRect" style="overflow: visible" />
  </clipPath>
  <path
    style="clip-path: url(#GridWeb)"
    fill="currentColor"
    d="M589.8,99.3
		c-0.9-5.8-5.8-10.4-14-14.8c-5.1-2.9-10.5-5.2-16.3-7c-8.3-3.1-18-6.2-28.9-9.7l-3.7-1.2c-10.1-3.3-22.5-7.4-35.6-11.7
		c-28.5-9.5-63.5-21.1-96.7-31.1l-0.1-0.1c0,0-0.1,0-0.1,0.1C353,11.3,314.4,1.2,295,0.9c-17.5-0.3-58.8,7.3-95.2,13.9
		c-5.4,1-10.7,2-15.8,2.9c0,0-0.1,0-0.1,0l0,0.1c-4.6,0.8-9.1,1.6-13.4,2.4c-43,7.5-87.7,18.5-127.1,28.2c-9,2.2-17.7,4.4-26,6.4
		c-8.5,2.1-13.6,5-15.9,9.2c-3.2,5.7-0.7,13.1,2.1,21.6c0.8,2.4,1.6,4.9,2.4,7.5c2,6.9,12.3,21.4,22.3,35.4
		c7.8,11,15.2,21.3,18.8,28.1c24.1,46,30.2,46.2,77.5,47.2c53.2,1.1,119.3,2.6,169.7,10.8c15.3,2.5,28.8,6,41.9,9.4
		c18.8,4.8,35.7,9.2,53.1,9.2c20.3,0,41.3-6,66.6-24c15.1-10.8,30.5-21,45.4-30.8c14.9-9.8,30.3-20,45.3-30.8
		C578.7,124.6,591.5,110.2,589.8,99.3z M293.9,213.2c-49.7-8.1-114.2-9.5-166.9-10.7c6-4.3,11.9-9,17.8-13.9
		c16.5,1.8,34.7-0.1,51-1.9c11.5-1.2,22.3-2.4,30.6-2c22.6,0.6,43.3,1.9,67.6,5.5V213.2z M226.4,183.6c-1.2-0.1-2.5-0.1-3.8-0.1
		c-7.7,0-17.1,1-27,2.1c-15.9,1.7-33.5,3.6-49.6,2c7.4-6.3,14.6-12.9,21.7-19.5c0.4,0,0.8,0,1.2,0c15.2-2,27.3-1.8,42.6-1.5
		c5.6,0.1,11.4,0.2,18.1,0.2c26.4-1.6,48-0.6,64.2,2.9v19.4C269.7,185.5,248.9,184.2,226.4,183.6z M430.7,40.5
		c-2.8,0.8-5.3,1.7-7.7,2.6c-9.1-2.3-17.5-4.1-24.6-5c-5.7-0.7-11.5-1.8-17.5-3.2c3.2-2.2,6.5-4.4,9.8-6.8
		C404.2,32,417.8,36.3,430.7,40.5z M391.8,27.2c0.9-0.7,1.9-1.4,2.8-2.2c14.3,4.3,28.9,8.9,43.2,13.5c-1.8,0.4-3.5,0.9-5.2,1.3
		C419.5,35.6,405.6,31.3,391.8,27.2z M547.9,76.1c-4.2,17-20.3,29-38.5,39c-13-3.9-26.4-7.2-40-9.8c14.1-9.1,28.4-18.8,40.7-30.9
		l0.7-0.7c12.2-0.3,23.6,0.1,34.2,1.8C546,75.6,547,75.8,547.9,76.1z M507.8,74.5c0.1,0,0.3,0,0.4,0c-12.3,11.8-26.5,21.3-40.5,30.4
		c-5.8-1.1-11.7-2.2-17.7-3.1c5.5-5.9,9.9-12.8,12.3-20.7c0.4-1.4,0.3-2.7-0.2-3.9c0.9-0.1,1.9-0.2,2.8-0.3
		c12.4-1.1,24.4-2.2,35.8-2.9C503.4,74.4,505.7,74.5,507.8,74.5z M97.2,66.4c8.6-0.5,17.1-0.7,25.6-0.8
		c4.8,11.1,35.6,26.5,57.5,36.3c-16.2,4.4-32.3,9.3-48.6,14.3C119.5,104.1,103,82.1,97.2,66.4z M461.3,80.7
		c-2.4,7.9-6.8,14.8-12.7,20.8c-14.1-2.2-28.4-4-42.7-5.6c8.9-5.2,15.3-10.4,17.3-15.5c0.1-0.1,0.1-0.3,0.1-0.4
		c12.8-0.7,25.3-1.7,37.6-2.9C461.5,78.3,461.7,79.5,461.3,80.7z M374.4,134.1c-4.7-7.1-7.8-11.2-16.4-17.6
		c16.9-5.8,33.8-12.6,46.3-19.6c14.6,1.6,29.1,3.4,43.4,5.6C430.9,119.2,403,128.9,374.4,134.1z M123.3,62.6
		c0.3-5.4,5.2-9.9,13.2-13.7c10.9,1.1,21.7,2.5,32.5,4.2c-6.8,3.2-11.1,7.2-11.7,12.1c-11-0.5-22.3-0.8-33.8-0.8
		C123.3,63.8,123.2,63.2,123.3,62.6z M266.6,31.5c1.2,3,2.4,6.1,3.7,9.3c-12.3-0.1-25.9,0.2-39.2,1c-4.5-2.7-9.1-5.4-13.8-8
		C233.9,32.5,250.8,31.8,266.6,31.5z M422.6,79c-2.7,0.1-5.4,0.3-8.2,0.3c-5.3,0.2-10.2,0.3-14.9,0.4c0.2-0.3,0.4-0.7,0.6-1
		c1.4-2.8,1.3-5.5-0.4-7.8c-2.1-2.8-5.5-5.3-9.9-7.3c5.2-0.7,10.4-1.2,15.7-1.7c5.8,2.7,10.8,5.9,14.5,9.5
		C422.5,73.7,423.3,76.2,422.6,79z M398.1,79.7c-7.4,0.1-14,0.1-20.2,0.1c-0.5,0-1,0-1.5,0c1.8-3,2.5-5.9,2.2-8.7
		c-0.2-2-1.7-3.8-4.3-5.3c4.5-0.7,8.9-1.4,13.3-2c5,2.1,8.8,4.7,11.1,7.7c1.5,2,1.6,4.1,0.3,6.6C398.8,78.7,398.5,79.2,398.1,79.7z
		 M211,64c0.1-0.9,0.6-1.7,1.3-2.5c6.3,1.4,12.5,3,18.6,4.5c-0.1,0.2-0.2,0.4-0.3,0.7c-0.6,1.7-0.7,3.6-0.2,5.8
		c-6.1-0.9-12.4-1.8-18.9-2.6C210.9,68,210.7,66,211,64z M356.4,71.4c0.9,2.3,0.5,5.3-1.1,8.6c-6.4,0.2-13.1,0.5-20.5,1
		c1.5-2.7,2.2-5.1,1.8-7c6.4-1.7,12.6-3.2,18.7-4.5C355.8,70.1,356.2,70.7,356.4,71.4z M347.1,90.4c-6.2-0.6-12.5-1.1-18.7-1.7
		c1.8-1.6,3.3-3.2,4.6-4.9c0.4-0.5,0.8-1,1.1-1.5c7.4-0.6,14.2-0.9,20.6-1c-0.4,0.8-0.9,1.5-1.5,2.3
		C351.6,85.9,349.6,88.2,347.1,90.4z M235.3,80.3c-1.5-2.2-2.6-4.3-3.2-6.3c7.4,1.1,14.5,2.3,21.1,3.5c0.8,1.5,1.8,3.2,3.1,4.8
		c1.1,1.5,2.4,2.9,3.9,4.4c-5.9,0.5-11.8,1.2-17.5,2C239.7,86,237.2,83.2,235.3,80.3z M231.7,67.2c0.1-0.3,0.2-0.6,0.4-0.8
		c6.7,1.7,13.1,3.5,19.5,5.4c0,1.3,0.4,2.8,1.1,4.5c-6.6-1.2-13.6-2.3-20.9-3.5C231.1,70.7,231.1,68.7,231.7,67.2z M332.3,70.9
		c-5.5,1.8-11.7,4.1-19.2,7.5c-1.2-0.4-2.8-0.7-4.7-0.8c4.3-2.8,8.5-5.5,12.7-8C325.8,69.5,329.7,69.8,332.3,70.9z M335.2,73.3
		c-6.5,1.8-13.2,3.7-20.2,5.9l0.1,0.4c-0.2-0.2-0.4-0.4-0.7-0.6c7.5-3.3,13.7-5.7,19.3-7.4C334.3,72.1,334.8,72.6,335.2,73.3z
		 M333.4,81.2c-5.4,0.4-11.3,1-17.7,1.7c0.2-0.6,0.3-1.1,0.2-1.6c0-0.4-0.2-0.7-0.4-1c6.9-2.2,13.5-4.1,20-5.8
		C335.8,76.1,335.1,78.5,333.4,81.2z M257.2,81.7c-1-1.3-1.8-2.6-2.5-3.8c6.5,1.2,12.6,2.4,18.2,3.5c0.3,1.1,1,2.4,2.2,3.7
		c0.2,0.2,0.4,0.4,0.6,0.7c-4.7,0.2-9.4,0.5-14,1C260,85,258.5,83.3,257.2,81.7z M254.5,68.6c7.3,2.8,14.4,5.7,21.3,8.7
		c-0.6,0.2-1.2,0.4-1.6,0.6l0.1-0.2c-6.9-2.3-14.1-4.6-21.5-6.8c0-0.1,0-0.1,0-0.2C253,69.8,253.6,69.1,254.5,68.6z M281.8,76.9
		c-1.4,0-2.7,0-3.8,0.1c-7.1-3.1-14.4-6.1-21.8-9c0.9-0.2,2-0.3,3.3-0.3c2.9,0,6.6,0.5,10.9,1.1C275.1,72,279,74.8,281.8,76.9z
		 M289.1,78.4l0.1-0.1c1.6,0.1,3.2,0.1,4.9,0.1c1.5,0,3,0,4.4,0c6.1,0,11.6,0,14.4,1.1l0.1,0.1c0,0,0.1,0,0.1-0.1
		c1,0.4,1.6,1,1.7,1.7c0.1,0.9-0.5,2.2-1.6,3.5c-3.2,3.7-10.2,7.4-18.7,7.4c-8,0-15-4-18.5-7.9c-1.4-1.6-2.2-3.2-2-4.2
		c0.2-1.2,1.6-1.8,3.8-2c0.1,0,0.1,0.1,0.2,0.1l0.1-0.1c0.8-0.1,1.8-0.1,2.8-0.1c1.8,0,3.8,0.1,6,0.2
		C287.5,78.2,288.3,78.3,289.1,78.4C289,78.3,289.1,78.3,289.1,78.4z M273.4,78.6c-0.3,0.4-0.5,0.8-0.6,1.4c0,0.1,0,0.1,0,0.2
		c-5.8-1.2-12.1-2.4-18.8-3.6c-0.8-1.7-1.2-3.2-1.3-4.4C259.8,74.2,266.7,76.4,273.4,78.6z M276.9,86.8c1.7,1.5,3.9,3,6.5,4.1
		c-3.1,1.5-6.3,2.9-9.5,4.2c-4.2-2.1-7.8-4.7-10.9-7.4C267.5,87.3,272.1,87,276.9,86.8z M284.8,91.6c2.7,1.1,5.8,1.8,9.1,1.8v6.8
		c-6.9-0.1-13.2-1.8-18.7-4.4C278.4,94.5,281.6,93.1,284.8,91.6z M295,93.4c3.4-0.1,6.6-0.7,9.4-1.7c3.2,1.5,6.6,3,10,4.4
		c-5.7,2.5-12.3,4-19.4,4.1V93.4z M305.9,91.1c2-0.9,3.8-1.9,5.3-3l0,0c4.7,0.5,9.5,1,14.3,1.5c-2.8,2.2-6,4.2-9.7,5.9
		C312.5,94,309.1,92.6,305.9,91.1z M312.5,87.1c0.5-0.5,1-1,1.4-1.4c0.5-0.5,0.8-1.1,1.1-1.6c6.3-0.7,12.1-1.3,17.5-1.7
		c-0.2,0.2-0.3,0.5-0.5,0.7c-1.4,1.8-3.2,3.7-5.3,5.4C322,88.1,317.2,87.6,312.5,87.1z M306.4,77.4c-2.1-0.1-4.4-0.1-6.9-0.1
		c1.5-2.4,2.9-4.7,4.2-7.1c1.6-0.1,3.1-0.2,4.7-0.2c3.7-0.2,7.2-0.4,10.4-0.5C314.6,72,310.5,74.6,306.4,77.4z M298.1,77.3
		c-1.3,0-2.6,0-3.9,0c-1.5,0-3-0.1-4.5-0.1c-1.4-2.3-2.8-4.5-4.1-6.8c2.6,0.2,5.3,0.3,8,0.2c3,0,5.9-0.2,8.7-0.3
		C301,72.6,299.6,75,298.1,77.3z M288.3,77.1c-0.5,0-0.9,0-1.4-0.1c-1.3-0.1-2.6-0.1-3.8-0.1l0.2-0.3c-2.5-1.8-6.1-4.4-10.5-7.5
		c3.5,0.5,7.3,0.9,11.4,1.2C285.5,72.6,286.8,74.8,288.3,77.1z M271,67.6c-0.1,0-0.2,0-0.3,0c-2.4-1.6-4.9-3.4-7.6-5.3
		c0.8,0.1,1.5,0.1,2.3,0.2c4.8,0.4,9.9,0.9,15.2,1.2c0.9,1.8,1.8,3.5,2.8,5.3C279,68.7,274.7,68.1,271,67.6z M268.3,67.3
		c-6.1-0.8-10.9-1.2-13.8,0c-4.9-1.9-9.9-3.7-14.9-5.4c2.1-0.4,4.6-0.6,7.4-0.6c4,0,8.7,0.3,13.8,0.8
		C263.4,63.9,265.9,65.7,268.3,67.3z M253.1,68.1c-0.7,0.6-1.2,1.4-1.5,2.4c0,0.1,0,0.1,0,0.2c-6.1-1.8-12.4-3.6-18.9-5.2
		c1.1-1.4,2.7-2.3,4.7-2.9C242.7,64.2,248,66.1,253.1,68.1z M261.3,87.9c3.1,2.8,6.8,5.6,11.1,7.9c-3.2,1.3-6.4,2.5-9.5,3.7
		c-1,0.4-2,0.8-3,1.2c-6.2-3.1-11.6-6.8-16-10.7C249.6,89.1,255.4,88.4,261.3,87.9z M263.3,100.5c3.4-1.3,6.9-2.6,10.4-4.1
		c5.9,2.9,12.7,4.9,20.1,5v7.5c-12.1-0.2-23.2-3.2-32.6-7.6C262,101,262.6,100.7,263.3,100.5z M295,101.4c7.6-0.1,14.7-1.9,20.8-4.7
		c1.8,0.8,3.7,1.5,5.5,2.3c2.4,1,4.9,2,7.3,3.1c-9.5,4.1-20.8,6.8-33.4,6.8c-0.1,0-0.1,0-0.2,0V101.4z M321.8,97.9
		c-1.5-0.6-3-1.2-4.5-1.9c3.7-1.8,7.1-4,9.9-6.3c6.2,0.6,12.5,1.2,18.8,1.8c-4.2,3.6-9.6,7.1-15.8,9.9
		C327.3,100.2,324.5,99.1,321.8,97.9z M336.3,73c-0.3-0.7-0.7-1.2-1.3-1.7c6.2-1.9,11.6-3.1,17.4-4.2c0.8,0.5,1.5,1,2.1,1.5
		C348.5,69.8,342.5,71.3,336.3,73z M333.9,70.4c-2.4-1.4-6.1-1.9-10.9-2c2.8-1.7,5.6-3.3,8.3-4.8c8.2,0.1,14.9,0.7,19.4,2.6
		C345.2,67.3,339.9,68.5,333.9,70.4z M320.7,68.3c-3.7,0-7.8,0.2-12.4,0.5c-1.3,0.1-2.6,0.1-4,0.2c0.9-1.7,1.8-3.3,2.7-5
		c2.3-0.1,4.5-0.1,6.8-0.2c5.4-0.2,10.5-0.3,15.2-0.3C326.2,65.1,323.5,66.7,320.7,68.3z M303,69.1c-3.1,0.1-6.2,0.3-9.4,0.3
		c-3,0-5.9-0.1-8.7-0.3c-1-1.8-2-3.6-2.9-5.3c3.7,0.2,7.5,0.4,11.4,0.4c4.2,0,8.3-0.1,12.3-0.2C304.8,65.7,303.9,67.4,303,69.1z
		 M293.4,63.1c-4.1,0-8.1-0.2-12-0.4c-0.9-1.7-1.7-3.4-2.5-5.1c5,0.1,10.1,0.2,15.2,0.2c5.1,0,10,0.1,14.7,0.2
		c-0.8,1.6-1.6,3.3-2.5,5C302.1,63,297.8,63.1,293.4,63.1z M280.1,62.6c-5.1-0.3-10-0.8-14.5-1.2c-1.5-0.1-3-0.3-4.4-0.4
		c-2-1.3-4-2.7-6.1-4.1c3.6,0.1,7.4,0.2,11.2,0.3c3.7,0.1,7.6,0.2,11.4,0.3C278.4,59.2,279.2,60.9,280.1,62.6z M258.8,60.8
		c-8.9-0.7-16.3-1-21.4,0.4c-3.9-1.3-7.8-2.6-11.7-3.9c7.2-0.8,16.7-0.8,27.1-0.5C254.9,58.2,256.9,59.5,258.8,60.8z M235.6,61.8
		c-1.8,0.8-3.2,1.8-4.1,3.2c-5.9-1.5-12-3-18.1-4.4c2.1-1.4,5.3-2.3,9.5-2.9C227.2,59,231.4,60.4,235.6,61.8z M230.7,73.9
		c0.7,2.2,1.9,4.6,3.6,7.1c1.8,2.7,4.1,5.4,6.9,8.1c-3.8,0.5-7.5,1.1-11.2,1.8c-5.3-3.7-9.9-7.6-13.3-11.6c-2.3-2.7-3.9-5.4-4.8-8
		C218.4,72.1,224.7,72.9,230.7,73.9z M242.3,90.1c4.4,4,9.9,7.9,16.1,11.1c-1.9,0.7-3.7,1.5-5.6,2.2c-7.6-3.4-15-7.3-21.4-11.6
		C235,91.1,238.7,90.6,242.3,90.1z M259.8,101.8c9.7,4.8,21.4,8,34.1,8.2v5.1c-9.5-0.3-24.7-4.6-39.6-11.1
		C256.1,103.2,258,102.5,259.8,101.8z M295,110c0.1,0,0.1,0,0.2,0c13.2,0,25.1-2.9,34.9-7.3c1.9,0.8,3.8,1.7,5.7,2.5
		c-15.4,6-31.4,9.9-40.8,9.9V110z M331.5,102c6.3-3,11.7-6.6,15.9-10.4c3.8,0.3,7.5,0.7,11.2,1c0.7,0.1,1.4,0.1,2,0.2
		c-6.8,4.4-15,8.4-23.4,11.8C335.4,103.7,333.5,102.9,331.5,102z M358.8,91.5c-3.4-0.3-6.8-0.6-10.2-0.9c2.2-2.1,4.1-4.2,5.5-6.3
		c0.7-1,1.3-2,1.9-3c6.2-0.1,12.1-0.2,18.3-0.2c-0.6,0.8-1.3,1.7-2,2.5c-2.6,2.8-6,5.6-10,8.3C361.1,91.7,360,91.6,358.8,91.5z
		 M356.6,80c1.5-3.4,1.9-6.5,0.9-9v0c-0.2-0.6-0.6-1.2-0.9-1.8c5.4-1.2,10.8-2.2,16.1-3.1c3,1.5,4.6,3.3,4.8,5.2
		c0.3,2.7-0.5,5.6-2.4,8.5C368.9,79.9,362.8,79.9,356.6,80z M355.8,68.2c-0.5-0.6-1.1-1.1-1.8-1.6c0.6-0.1,1.2-0.2,1.8-0.4
		c3.5-0.7,7.2-1.4,11.3-2.3c1.4,0.4,2.6,0.9,3.7,1.3C365.9,66.1,360.9,67.1,355.8,68.2z M355.6,65.1c-1,0.2-2,0.4-3,0.6
		c-4.4-2.3-11.1-3.2-19.3-3.3c1.8-1,3.7-2,5.5-3c10.9,0.9,19.6,2.2,26,3.9C361.5,64,358.4,64.6,355.6,65.1z M331,62.4
		c-5.3,0-11.1,0.1-17.2,0.3c-2,0.1-4.1,0.1-6.1,0.2c0.8-1.7,1.6-3.3,2.4-4.9c9.9,0.2,18.8,0.6,26.6,1.3
		C334.8,60.2,332.9,61.3,331,62.4z M310.6,56.8c0.7-1.5,1.4-3,2.1-4.5c10.1,0.5,21.2,1.3,32.2,2.4c-2.1,1.1-4.2,2.3-6.3,3.5
		C329.7,57.5,320.1,57,310.6,56.8z M309.3,56.8c-5.1-0.1-10.3-0.2-15.3-0.2c-5.2,0-10.5-0.1-15.7-0.2c-0.9-1.8-1.7-3.7-2.5-5.5
		c6.7,0,13.2,0.2,19,0.5c2,0.1,4.1,0.2,6.3,0.3c3.2,0.2,6.7,0.3,10.3,0.5C310.7,53.7,310.1,55.2,309.3,56.8z M277,56.3
		c-3.6-0.1-7.2-0.2-10.8-0.3c-4.5-0.1-8.9-0.3-13-0.4c-2.1-1.4-4.3-2.8-6.5-4.2c8.4-0.4,16.9-0.6,25.2-0.6c0.9,0,1.8,0,2.7,0
		C275.3,52.7,276.2,54.5,277,56.3z M251,55.6c-11.1-0.2-20.8-0.1-28,0.9c-2.7-0.8-5.4-1.7-8.1-2.5c8.8-1.2,19.1-2,29.8-2.5
		C246.9,52.9,249,54.3,251,55.6z M220.5,57c-3.8,0.7-6.7,1.8-8.5,3.4c-4.6-1.1-9.3-2.1-14-3c3.8-1.1,8.6-2,14.2-2.8
		C215,55.3,217.7,56.1,220.5,57z M211,61.3c-0.6,0.8-1,1.6-1.2,2.6c-0.3,2-0.2,4,0.3,6c-6.3-0.8-12.8-1.5-19.4-2.2
		c-0.7-1-1.2-1.9-1.5-2.8c-0.6-1.8-0.3-3.2,1-4.2c1.2-1,3.1-1.9,5.5-2.7C200.9,59,206,60.1,211,61.3z M210.6,71.1
		c1,2.9,2.7,5.8,5.2,8.9c3.2,3.8,7.6,7.6,12.6,11.1c-1.6,0.3-3.2,0.6-4.9,0.9c-14.3-8.1-26.5-16.5-31.8-23
		C198.2,69.6,204.5,70.3,210.6,71.1z M229.8,92c6.5,4.4,13.9,8.4,21.6,11.9c-0.9,0.4-1.8,0.7-2.7,1.1c-7.9-3.8-16-8-23.6-12.2
		C226.7,92.6,228.2,92.3,229.8,92z M252.8,104.6c15.4,6.8,31.3,11.3,41.1,11.6v5.4c-7.3-0.4-25-7-43.8-16
		C251,105.3,251.9,104.9,252.8,104.6z M295,116.3C295.1,116.3,295.1,116.3,295,116.3c9.8,0,26.4-4.1,42.2-10.4
		c2.2,1,4.3,2.1,6.4,3.1c-20.5,7.3-40.5,12.5-48.6,12.7V116.3z M338.7,105.2c8.7-3.5,17.1-7.7,23.9-12.3c5.1,0.5,10.3,0.9,15.4,1.4
		c-9.6,5-21.2,9.8-32.9,14.1C343,107.3,340.9,106.3,338.7,105.2z M364.1,92c3.6-2.5,6.6-5.1,9-7.7c1-1.1,1.9-2.2,2.6-3.3
		c0.7,0,1.5,0,2.2,0c5.9,0,12.2,0,19.3-0.1c-3.4,4-9.6,8.3-17.4,12.5C374.6,92.9,369.3,92.4,364.1,92z M372.7,64.9
		c-1.1-0.5-2.3-1-3.6-1.5c3.2-0.7,6.6-1.6,10.4-2.5c2.1,0.6,4.1,1.3,6,2C381.3,63.5,377,64.2,372.7,64.9z M367,62.8
		c-6.8-2-16-3.4-26.4-4.4c1.7-0.9,3.3-1.8,5-2.7c0.4-0.2,0.9-0.5,1.3-0.7c11,1.2,21.6,2.9,30.5,5.4C373.6,61.3,370.1,62.1,367,62.8z
		 M348.6,54c3.1-1.7,6.2-3.4,9.3-5.1c11.6,1.9,23,4.3,33.2,7.5c-2.7,0.9-5.6,1.8-8.7,2.7c-1,0.3-1.9,0.5-2.8,0.8
		C370.5,57.1,359.8,55.3,348.6,54z M346.6,53.8c-11.3-1.3-22.9-2-33.4-2.6c1.1-2.4,2.1-4.8,3-7.1c12,0.9,26,2.3,39.8,4.4
		C352.9,50.3,349.7,52,346.6,53.8z M311.9,51.1c-3.8-0.2-7.4-0.4-10.8-0.5c-2.2-0.1-4.3-0.2-6.3-0.3c-5.7-0.3-12.4-0.5-19.6-0.5
		c-1.2-2.7-2.3-5.3-3.3-7.8c8.5,0.1,16.4,0.4,22.9,0.7c5.5,0.3,12.3,0.7,20,1.3C314,46.3,313,48.7,311.9,51.1z M274.1,49.8
		c-9.2,0-19.2,0.2-29.1,0.6c-3.9-2.5-7.9-5-12-7.5c11.2-0.7,22.5-0.9,33-0.9c1.6,0,3.3,0,4.9,0C271.8,44.5,272.9,47.1,274.1,49.8z
		 M243,50.5c-11.1,0.6-21.8,1.5-30.9,2.8c-6.8-2-13.7-3.9-20.4-5.7c11.6-2.3,25.3-3.7,39.2-4.6C235,45.5,239.1,48,243,50.5z
		 M209.4,53.6c-5.4,0.9-10.2,1.9-13.8,3.2c-7.5-1.5-15-2.9-22.6-4.2c4.6-1.8,10.1-3.3,16.1-4.5C195.9,49.8,202.6,51.7,209.4,53.6z
		 M193.6,57.6c-1.7,0.7-3.1,1.4-4.1,2.3c-1.7,1.4-2.1,3.3-1.3,5.5c0.3,0.7,0.6,1.5,1.1,2.3c-10-1-20.3-1.7-30.9-2.3
		c0.7-4.8,5.3-8.7,12.5-11.8C178.6,54.7,186.1,56.1,193.6,57.6z M190.2,68.8c4.9,6.6,17,15.1,31.5,23.5c-7.6,1.4-15,3.1-22.4,4.8
		c-16.7-8.6-30.7-17.4-37.2-24.4c-2.3-2.5-3.5-4.6-3.6-6.3C169.3,67,179.9,67.8,190.2,68.8z M223.2,93.2c7.6,4.4,15.8,8.6,23.9,12.5
		c-4.5,2-9,4.2-13.3,6.7c-0.3,0.1-0.5,0.3-0.8,0.5c-11-4.6-22.1-9.8-32.3-15C208.2,96.2,215.6,94.6,223.2,93.2z M234.4,113.4
		c4.5-2.7,9.3-5,14.1-7c19.2,9.2,37.5,16.1,45.4,16.4v8.9C282.7,131.4,258.9,123.7,234.4,113.4C234.4,113.4,234.4,113.4,234.4,113.4
		z M295,122.8c8.4-0.2,29.2-5.5,50.1-13c3.4,1.8,6.5,3.7,9.4,5.8c0.3,0.2,0.7,0.5,1,0.7c-26.6,8.9-52.7,15.2-60.5,15.4V122.8z
		 M355.2,114.6c-2.7-1.9-5.6-3.7-8.6-5.4c12-4.4,24-9.4,33.6-14.7c7.4,0.7,14.9,1.4,22.3,2.2c-12.4,6.8-29,13.4-45.6,19
		C356.4,115.4,355.8,115,355.2,114.6z M382,93.6c7.6-4.3,13.6-8.6,16.7-12.7c4.9-0.1,10.1-0.2,15.7-0.4c2.6-0.1,5.2-0.2,7.7-0.3
		c-2.1,5.1-8.7,10.4-17.9,15.6C396.8,95,389.4,94.3,382,93.6z M387.8,62.7c-1.9-0.8-4-1.6-6.2-2.3c0.4-0.1,0.7-0.2,1.1-0.3
		c3.8-1,7.1-2.1,10.2-3.2c3.7,1.2,7.2,2.5,10.5,4C398.1,61.4,392.9,62,387.8,62.7z M394.6,56.3c2.5-0.9,4.7-1.8,6.9-2.7
		c6.6,2,13,4,18.9,6c-5,0.3-9.9,0.6-14.7,1.1C402.3,59.1,398.6,57.6,394.6,56.3z M392.9,55.7c-10-3.2-21.4-5.7-33.5-7.7
		c2.4-1.3,4.7-2.7,7.1-4.1c11.3,2.8,22.7,5.9,33.4,9.1C397.6,53.9,395.3,54.8,392.9,55.7z M357.6,47.7c-13.2-2.1-27.2-3.6-40.9-4.7
		c1.3-3.1,2.4-6.1,3.5-8.9c13.4,2.2,29,5.5,44.7,9.4C362.4,44.9,360,46.3,357.6,47.7z M315.4,42.9c-6.9-0.5-13.7-1-20.4-1.4
		c-6.9-0.4-14.9-0.7-23.5-0.8c-1.3-3.2-2.5-6.4-3.7-9.3c6.3-0.1,12.5-0.2,18.3-0.2c2.5,0,4.9,0,7.2,0c6.7,0.1,15.5,1,25.6,2.6
		C317.9,36.8,316.7,39.8,315.4,42.9z M229.1,41.9c-14.3,0.9-28.2,2.5-39.9,5c-8.8-2.3-17.4-4.3-25.7-6.1c15.1-3.1,33.1-5.3,51.8-6.8
		C219.9,36.5,224.5,39.2,229.1,41.9z M186.7,47.4c-6,1.4-11.3,3-15.7,4.9c-10.7-1.7-21.5-3.2-32.3-4.3c6-2.6,13.6-4.8,22.1-6.6
		C169.1,43.1,177.8,45.2,186.7,47.4z M157.2,66.4c0.1,2,1.4,4.4,3.9,7.1c6.5,7,20,15.6,36.1,24.1c-5.2,1.2-10.3,2.6-15.4,3.9
		c-29.4-13-53.5-26.7-57.9-35.9C135.2,65.6,146.4,65.8,157.2,66.4z M198.8,98.4c10.3,5.3,21.6,10.6,32.8,15.4
		c-2.5,1.5-5,3.1-7.4,4.8c-13.7-5-27.6-10.6-40.6-16.3C188.6,100.9,193.7,99.6,198.8,98.4z M233,114.3
		c24.9,10.4,49.2,18.2,60.9,18.6v5.2c-14.9-1.6-41-9.1-68.3-19C228,117.4,230.5,115.8,233,114.3z M295,132.9
		c7.9-0.3,34.5-6.7,61.6-15.8c8.8,6.4,11.9,10.5,16.5,17.3c-29.1,5.2-58.8,5.6-78.1,3.8V132.9z M423.8,78.9c0.7-3-0.3-5.9-3-8.4
		c-3.5-3.3-7.9-6.2-13.1-8.8c5.2-0.4,10.3-0.8,15.6-1.1c7,2.4,13.3,4.8,18.5,7.1c1.2,0.5,3.1,1.4,5.3,2.4c3.7,1.7,8.3,3.8,11.6,5.2
		c0.6,0.2,1,0.6,1.4,0.9C448.3,77.2,436.1,78.3,423.8,78.9z M459.2,74.1c-3.3-1.4-7.9-3.5-11.6-5.2c-2.2-1-4.1-1.9-5.3-2.4
		c-4.6-2-10-4-15.9-6.1c6.6-0.3,13.4-0.5,20.3-0.7c17.9,5.7,35.5,11,48.7,13.4c-9.8,0.6-20,1.6-30.5,2.5c-1.1,0.1-2.2,0.2-3.3,0.3
		C461,75.2,460.2,74.5,459.2,74.1z M423.5,59.4c-6.3-2.2-13.1-4.4-20.3-6.6c2.5-1.1,4.9-2.2,7.3-3.2c0.5-0.2,1-0.5,1.6-0.7
		c7.9,2.3,16.7,5.1,25.7,8c1.8,0.6,3.7,1.2,5.5,1.7C436.5,58.8,430,59.1,423.5,59.4z M410,48.6c-2.8,1.2-5.6,2.5-8.5,3.8
		c-10.7-3.2-22.2-6.4-33.6-9.3c1.9-1.1,3.7-2.2,5.6-3.4c6.3,1.6,12.4,3,18.4,4.1c5,0.9,11.4,2.6,18.6,4.7
		C410.3,48.5,410.1,48.5,410,48.6z M366.3,42.7c-16.1-4-32-7.4-45.7-9.7c0.2-0.6,0.5-1.2,0.7-1.8c0.7-1.7,1.3-3.3,1.9-4.9
		c9.8,2.2,19.9,5,29.8,7.8c6.3,1.8,12.6,3.5,18.9,5.2C370,40.4,368.1,41.6,366.3,42.7z M320.2,30.8c-0.3,0.7-0.5,1.3-0.8,2
		c-10.3-1.7-19.2-2.6-26-2.7c-1.6,0-11.6-0.1-25.9,0.3c-1-2.6-1.9-5-2.9-7.3c9.7-0.4,19.1-0.7,28-0.8c9-0.1,19,1.5,29.5,3.8
		C321.4,27.6,320.8,29.2,320.2,30.8z M266.2,30.4c-14,0.3-32,1-50.4,2.5c-3.4-1.9-6.7-3.7-10.1-5.4c19.2-2,38.9-3.5,57.6-4.4
		C264.3,25.4,265.2,27.9,266.2,30.4z M213.7,33.1c-18.3,1.5-36.9,3.8-52.6,7.1c-6-1.3-11.8-2.5-17.4-3.6c17.9-3.6,38.5-6.6,59.9-8.9
		C207,29.5,210.3,31.2,213.7,33.1z M158.4,40.8c-8.4,1.9-15.9,4.2-21.9,6.9c-9.4-0.9-18.7-1.6-28-2c8.8-3.1,19.8-5.9,32.1-8.5
		C146.4,38.3,152.3,39.5,158.4,40.8z M134.6,48.7c-7.5,3.8-12.1,8.3-12.5,13.8c0,0.6,0,1.3,0.2,2c-8.5,0.1-17,0.3-25.6,0.8
		c-1.3-3.9-2-7.3-1.7-10.1c0.3-2.7,1.5-4.5,3.6-5.5c2.1-1,4.4-2,7-2.9C115.2,47.1,124.9,47.8,134.6,48.7z M181.9,102.7
		c4.1,1.8,7.9,3.4,11,4.8c10,4.2,20.2,8.2,30.2,11.8c-10.1,7-19.8,14.9-29.3,23.3c-20.6-2.6-40.2-8.3-56.2-20.9
		c-1.5-1.2-3.2-2.8-5.1-4.5C149.2,112.1,165.5,107.1,181.9,102.7z M224.5,119.8c28.6,10.4,55.1,18,69.4,19.5v7.8
		c-14.1-2.5-30.9-2.5-48.7-2.4c-16.2,0.1-33.3,0.1-49.8-1.8C204.8,134.5,214.5,126.6,224.5,119.8z M295,139.3
		c6.4,0.6,13.9,0.9,22.2,0.9c17.1,0,37.2-1.4,56.6-4.8c3.9,7.5,8.5,14.6,13.9,21.3c-21.5,7.5-38.9,3.2-62.3-2.6
		c-8.9-2.2-18.9-4.7-30.3-6.9V139.3z M375,135.2c4.1-0.7,8.2-1.6,12.2-2.5c21.1-4.9,46.1-13.8,61.9-30c5.8,0.9,11.5,1.9,17.2,3
		c-1.3,0.8-2.5,1.6-3.8,2.4c-11.8,7.6-24.1,15.5-35.3,24.5c-14.9,12-27.2,19.4-38.4,23.5C383.5,149.7,378.9,142.7,375,135.2z
		 M501,72.8c-12.9-1.7-31.9-7.3-50.6-13.1c7.1-0.1,14.4-0.1,21.9-0.1c14.3,5.1,26.7,9.9,33.9,13C504.5,72.7,502.7,72.7,501,72.8z
		 M446.9,58.6c-2.9-0.9-5.9-1.9-8.8-2.8c-8.6-2.7-16.9-5.4-24.4-7.6c3-1.4,6.1-2.7,9.4-3.9c14.8,3.8,31.2,9,45.9,14.1
		C461.3,58.4,454,58.5,446.9,58.6z M412,47.7c-7.8-2.3-14.6-4.1-20-5.1c-5.6-1-11.3-2.3-17.2-3.8c1.6-1,3.2-2,4.8-3.1
		c6.4,1.5,12.6,2.7,18.6,3.5c6.6,0.8,14.5,2.5,22.9,4.6C418,45.1,415,46.4,412,47.7z M373.3,38.4c-6.6-1.7-13.4-3.6-20-5.4
		c-9.9-2.8-20-5.6-29.7-7.8c0.6-1.6,1.2-3.1,1.8-4.5c7.5,1.9,15.3,4.2,23.3,6.6c9.7,2.9,19.6,5.8,29.3,8.2
		C376.4,36.4,374.9,37.5,373.3,38.4z M322.4,24.9c-10.6-2.3-20.7-3.9-29.9-3.8c-9.1,0.1-18.6,0.4-28.4,0.8c-0.7-1.6-1.3-3.1-1.9-4.6
		c12-0.9,23.1-1.4,32.8-1.5c0.1,0,0.3,0,0.4,0c8.5,0,18.3,1.8,28.9,4.5C323.7,21.8,323.1,23.3,322.4,24.9z M262.9,22
		c-19.2,0.9-39.4,2.5-59.1,4.6c-1.6-0.8-3.1-1.6-4.7-2.3c21.6-3,42.8-5.4,61.8-6.8C261.6,18.9,262.2,20.4,262.9,22z M201.7,26.8
		c-21.8,2.4-42.9,5.6-61,9.3c-2.3-0.4-4.6-0.8-6.8-1.2c20.1-3.8,41.8-7.3,63.2-10.3C198.6,25.3,200.1,26.1,201.7,26.8z M137.7,36.7
		c-12.6,2.7-23.6,5.7-32.2,8.9c-7.2-0.2-14.3-0.3-21.4-0.2c13.6-3.3,29.4-6.7,46.5-10C132.9,35.9,135.3,36.3,137.7,36.7z
		 M102.8,46.7c-1.6,0.7-3.1,1.3-4.6,2c-2.5,1.2-3.9,3.3-4.3,6.4c-0.3,2.8,0.3,6.3,1.6,10.3C84,66,72.4,67.1,60.9,68.6
		c-2.1-4.8-3-9-2.1-12.2c0.9-3,3.2-5,7.1-6.1c4-1.2,8.4-2.4,13-3.6C86.8,46.5,94.7,46.5,102.8,46.7z M95.9,66.5
		c5.7,15.8,22,37.7,34.5,50.2c-1.4,0.4-2.9,0.9-4.3,1.3c-7.3,2.2-14.6,4.5-22,6.8c-2.8-3.3-5.9-6.8-9-10.5
		C82.4,99.8,67.6,82.7,61.4,69.7C72.9,68.2,84.4,67.1,95.9,66.5z M126.4,119.1c1.6-0.5,3.3-1,4.9-1.5c2,2,3.9,3.7,5.6,5
		c15.9,12.6,35.4,18.4,55.7,21c-6.7,6-13.3,12.1-19.8,18.1c-1.9,1.7-3.7,3.5-5.6,5.2c-32.2,0.5-36.5-5.5-53.4-29.6l-1.4-2
		c-1.9-2.8-4.6-6-7.6-9.6C112.1,123.5,119.3,121.3,126.4,119.1z M173.7,162.6c6.8-6.3,13.6-12.6,20.6-18.8c17,2.1,34.5,2,51,2
		c17.8-0.1,34.6-0.1,48.7,2.4v20.3c-16.3-3.5-37.8-4.4-64.2-2.8c-6.7,0-12.5-0.1-18.1-0.2c-15.3-0.3-27.4-0.5-42.6,1.5
		C170.6,165.5,172.1,164,173.7,162.6z M295,148.4c11.3,2.1,21.3,4.6,30.1,6.8c14.7,3.7,27,6.7,39.4,6.7c7.8,0,15.6-1.2,24-4.2
		c7.3,8.9,15.8,16.9,25,23.7c-31.2,10.6-74.2-0.9-102.7-8.6c-5.7-1.5-10.7-2.9-14.9-3.8c-0.3-0.1-0.6-0.1-0.9-0.2V148.4z
		 M389.7,157.3c11.2-4.2,23.5-11.6,38.3-23.6c11.2-9,23.4-16.9,35.2-24.5c1.6-1,3.2-2.1,4.8-3.1c13.6,2.6,27,5.8,40,9.7
		c-6.6,3.6-13.5,6.9-20.1,10.1c-12.7,6.2-24.8,12-33.6,18.6c-7.5,6.7-13.6,13.1-19.1,18.8c-8,8.3-14.3,14.9-20.4,17.6
		C405.5,174.2,397,166.2,389.7,157.3z M508.9,72.5c-6.2-2.8-18.5-7.7-33.1-12.9c3.2,0,6.5,0,9.9,0.1c5.4,2,10.2,3.9,14.1,5.6
		c3.3,1.4,11.7,3.1,22.3,5.2c3.7,0.8,7.7,1.6,11.8,2.4C525.8,72.3,517.5,72.2,508.9,72.5z M472.5,58.4c-15-5.3-32.1-10.8-47.5-14.8
		c2.4-0.9,5-1.7,7.7-2.5c18.7,6.1,36.1,12.2,49.8,17.4C479.1,58.5,475.8,58.4,472.5,58.4z M379.4,34.5c-10-2.4-20.3-5.4-30.3-8.4
		c-7.9-2.4-15.7-4.7-23.1-6.6c1.1-2.7,2.3-5.1,3.4-7.1c17.8,3.6,38.7,9,60,15.2C386,30.1,382.7,32.4,379.4,34.5z M324.7,19.3
		c-10.7-2.7-20.7-4.6-29.4-4.6H295c-9.9,0.1-21.1,0.6-33.3,1.5c-0.9-2-1.8-3.7-2.6-5.3c14.6-1.8,27-2.8,36-2.8c0.1,0,0.1,0,0.2,0
		c8.4,0,19.8,1.5,32.9,4.1C327,14.3,325.9,16.7,324.7,19.3z M260.5,16.3c-19.5,1.5-41.2,4-63.2,7.1c-1.7-0.8-3.4-1.6-5.1-2.3
		c23.8-4.2,46.5-7.7,65.6-10C258.7,12.6,259.6,14.4,260.5,16.3z M195.1,23.7c-21.9,3.1-44.1,6.8-64.5,10.6c-1.5-0.3-3-0.5-4.4-0.7
		c20.8-4.2,42.8-8.4,63.9-12.1C191.8,22.2,193.4,22.9,195.1,23.7z M127.3,34.9c-18.1,3.5-34.7,7.1-48.5,10.6
		c-3.6,0.1-7.2,0.3-10.8,0.6c16.6-3.9,36.2-8.1,56.9-12.3l-0.1,0.7C125.6,34.7,126.5,34.8,127.3,34.9z M73.5,47
		c-2.7,0.7-5.4,1.5-7.8,2.2c-4.3,1.3-6.9,3.6-7.9,6.9c-1,3.4-0.1,7.8,2,12.7c-9.7,1.3-19.3,3-28.8,5c-2.2-4.9-3.1-9.3-1.9-12.8
		c1.2-3.7,4.5-6.3,10.2-7.8c6.1-1.6,13.3-3.4,21.3-5.3C64.8,47.5,69.1,47.2,73.5,47z M60.2,69.9c6.2,13.3,21.2,30.5,33.9,45.2
		c3,3.5,6,6.9,8.7,10.1c-8.9,2.7-18,5.4-27.4,8c-4.6-6.4-10.6-13.6-17-21.2C48,99.5,36.6,86,31.4,74.9
		C40.9,72.9,50.6,71.2,60.2,69.9z M103.7,126.1c3.1,3.7,5.8,7.1,7.8,9.9l1.4,2c17,24.2,21.5,30.5,53.1,30.2
		c-7.1,6.5-14.3,13.1-21.6,19.3c-2.8-0.3-5.5-0.7-8.1-1.3c-10.6-2.2-20.4-7.8-28.1-16.1c-3-3.2-6.3-6.5-9.8-10
		c-7.7-7.8-15.7-15.8-19.9-22.4c-0.7-1.1-1.4-2.2-2.2-3.3C85.6,131.5,94.7,128.8,103.7,126.1z M295,170c0.2,0,0.4,0.1,0.6,0.1
		c4.2,1,9.2,2.3,14.9,3.8c20.4,5.5,48.1,12.9,73.7,12.9c10.6,0,20.9-1.3,30.2-4.5c0.1,0,0.2-0.1,0.2-0.1c5.7,4.1,11.6,7.7,17.7,10.8
		c-1,0.5-1.9,1.1-2.9,1.6c-36.2,20.1-60.4,13-88.5,4.9c-10-2.9-20.4-5.9-32.1-8c-4.8-0.9-9.4-1.6-13.9-2.3V170z M415.9,181.7
		c6.1-2.9,12.4-9.5,20.1-17.5c5.4-5.6,11.5-12,19-18.7c8.7-6.6,20.7-12.4,33.4-18.5c7-3.4,14.2-6.9,21.1-10.7
		c8,2.4,15.9,5.2,23.7,8.2c0,0,0,0,0,0c-5.1,2.5-9.4,4.7-12,6.4c-11.9,7.8-24.5,17.2-36.7,26.2c-16.7,12.5-34,25.3-50.8,35.1
		C427.5,189.2,421.6,185.7,415.9,181.7z M510.9,115.5c18.1-10,33.9-22.1,38.1-39.2c6.6,1.6,12.7,3.4,17.6,5.2c2.1,0.9,4,1.7,5.8,2.6
		c1.7,0.9,3.1,1.9,3.9,2.9c1.6,14.5-24,27.8-41.9,36.8C526.9,120.7,519,118,510.9,115.5z M530.2,68.9c6.3,2,12.3,4,17.8,5.8
		c-0.9-0.2-1.9-0.3-2.9-0.5c-7.7-1.8-15.8-3.4-22.9-4.9c-10.1-2.1-18.8-3.8-22-5.2c-3.2-1.3-7-2.8-11.2-4.5c4.3,0,8.7,0.1,13.2,0.2
		l0-0.1c8.9,2.9,17.2,5.7,24.4,8L530.2,68.9z M499,58.7c-4.5-0.1-8.8-0.1-13.1-0.1c-13.8-5.2-31.7-11.5-51.2-17.9
		c1.5-0.4,3.1-0.8,4.7-1.1l-0.1-0.4c18.3,5.9,35.9,11.8,51.7,17C493.7,56.9,496.3,57.8,499,58.7z M390.4,26.8
		C369,20.6,347.9,15,329.9,11.4c0.8-1.3,1.6-2.5,2.4-3.4c17.9,4.1,39,10,61.1,16.7C392.4,25.4,391.4,26.1,390.4,26.8z M294.1,2.1
		c0.3,0,0.6,0,0.9,0c8.6,0.1,21.1,2.2,36,5.6c-0.8,1-1.6,2.2-2.3,3.5c-13.4-2.7-25-4.2-33.5-4.2H295c-9.2,0-21.8,1.1-36.6,2.8
		c-0.8-1.3-1.6-2.5-2.4-3.5C271.9,3.7,285.6,2.1,294.1,2.1z M200,15.9c18.2-3.3,37.6-6.8,54.7-9.5c0.9,1,1.7,2.1,2.5,3.5
		c-19.6,2.4-42.8,6-67.1,10.3c-1.4-0.6-2.7-1.2-4.1-1.7C190.5,17.7,195.2,16.8,200,15.9z M170.7,21.2c4.2-0.7,8.6-1.5,13.1-2.3
		c1.4,0.5,2.8,1.1,4.1,1.7c-45.3,8-93.7,18.1-127.8,26.3c-3.8,0.4-7.5,0.8-11.2,1.3C87.1,38.7,129.7,28.3,170.7,21.2z M2.5,64.4
		c2.1-3.8,7.1-6.7,15.2-8.6c5.8-1.4,11.8-2.9,18-4.4l0,0.1c5.1-1,10.4-1.8,15.8-2.5c-4.6,1.1-8.8,2.2-12.6,3.2
		c-6,1.6-9.7,4.5-11,8.6c-1.2,3.7-0.3,8.3,1.9,13.4c-8.9,2-17.7,4.2-26.3,6.9C1.3,74.5,0.1,68.8,2.5,64.4z M7.1,92.6
		c-0.8-2.6-1.6-5.1-2.4-7.5c-0.3-1-0.7-2-1-2.9c8.7-2.7,17.5-5,26.5-6.9c5.1,11,16.4,24.4,27.4,37.5c6.2,7.4,12.1,14.5,16.7,20.8
		c-11.1,3.1-22.6,6.2-34.5,9c-3.2-4.6-6.8-9.7-10.5-14.9C19.3,113.7,9,99.3,7.1,92.6z M124.5,202.4c-46.6-1-52.6-1.1-76.4-46.6
		c-1.8-3.4-4.5-7.6-7.7-12.4c12-2.9,23.4-5.9,34.6-9c0.9,1.2,1.7,2.5,2.4,3.6c4.3,6.7,12.3,14.8,20.1,22.6c3.5,3.5,6.8,6.8,9.8,10
		c7.9,8.5,17.8,14.2,28.7,16.5c2.3,0.5,4.7,0.9,7.2,1.2c-5.9,4.9-11.8,9.6-17.8,13.9l0.1,0.2C125.2,202.5,124.8,202.5,124.5,202.4z
		 M455.3,208c-46.5,33.3-78.4,25.1-118.8,14.7c-12.9-3.3-26.3-6.8-41.5-9.3v-22.9c4.5,0.7,9,1.4,13.7,2.3c11.7,2.1,22,5.1,32,8
		c14.6,4.2,28.2,8.2,43,8.2c13.8,0,28.6-3.4,46.3-13.2c1.2-0.7,2.4-1.3,3.5-2c9.1,4.5,18.6,7.8,28.2,9.8
		C459.7,204.9,457.5,206.5,455.3,208z M546.1,146.5c-15,10.8-30.4,20.9-45.3,30.7c-12.3,8.1-25,16.5-37.6,25.3
		c-9.7-1.9-19.2-5.2-28.3-9.6c16.7-9.8,33.8-22.5,50.3-34.8c12.7-9.5,24.7-18.4,36.6-26.2c2.5-1.7,6.9-3.8,11.9-6.4
		c0.3-0.2,0.6-0.3,1-0.5c8.5,3.4,16.8,7.2,24.8,11.4C555.5,139.6,551,143,546.1,146.5z M560.5,135.7c-7.9-4.2-16.1-8-24.5-11.3
		c18.1-9.1,43.2-22.4,41.6-37.4c1.1,0.7,2.1,1.4,3.1,2.1l0.1-0.2c4.5,3.2,7.2,6.6,7.8,10.6C590,108.1,581.5,119.3,560.5,135.7z"
  />
</svg>
