<svg
  version="1.1"
  xmlns="http://www.w3.org/2000/svg"
  x="0px"
  y="0px"
  viewBox="0 0 593 225"
  style="enable-background: new 0 0 593 225"
>
  <defs>
    <rect id="gridTireRect" y="0.5" width="593" height="224.5" />
  </defs>
  <clipPath id="gridTire">
    <use href="#gridTireRect" style="overflow: visible" />
  </clipPath>
  <path
    style="clip-path: url(#gridTire)"
    fill="currentColor"
    d="M373.8,339c-0.2,0-0.4-0.1-0.6-0.2
		c0,0-0.1,0-0.1,0l-59.6-8.9c0,0-0.1,0-0.1,0l-50.2-15.2l-4.6-1.2c-0.1,0-0.1,0-0.2-0.1L204,286.1c-0.2-0.1-0.4-0.3-0.5-0.5
		l-49.9-35.5l-1.4-0.8l0.1-0.2l-0.2-0.1c0,0-0.1-0.1-0.1-0.1l-45.9-44l-0.6-0.4c-0.1-0.1-0.2-0.1-0.2-0.2l-39.7-50.8
		c-0.1-0.2-0.2-0.3-0.2-0.5l-12.8-22.6L34.6,98.7c-0.1-0.1-0.1-0.2-0.2-0.3l-1.3-3.4l-6.8-18.1L13.6,42.6c0-0.1,0-0.1,0-0.2
		l-1.1-5.9L6.3,1.2L6.1,0.7c0-0.1,0-0.2,0-0.3V0.2L3.8-12.5c0-0.1,0-0.1,0-0.2L4-19.4c0-0.1,0-0.2,0-0.3L0-58.2l1-0.1l-1-0.1
		l6.4-53.8c0-0.1,0-0.2,0.1-0.3l5.1-12.8l13.5-33.9l0.9,0.4l-0.8-0.6l9.8-12.4l0.2-0.5l11.5-24.3c0-0.1,0.1-0.2,0.2-0.2l33.3-36.2
		c0.1-0.1,0.1-0.1,0.2-0.2l11.5-6.7l31.9-18.3l0.3,0.6l0.1,0l-0.2-0.6l2.8-0.7l3.1-1.5l32.8-16c0.1,0,0.2-0.1,0.3-0.1l15.6-2.8
		l36.1-6.6c0.2,0,0.4,0,0.5,0.1l19.7,1.2l36.4,2.1c0.1,0,0.1,0,0.2,0l16.6,4.5c0.1,0,0.2,0.1,0.3,0.1l25.8,3.7
		c0.2-0.1,0.5-0.1,0.7,0l55.2,18.8l-0.3,0.9l0.5-0.9l32.1,17.4l22,11.9c0,0,0.1,0.1,0.1,0.1l40.1,30.3l10.8,8.1
		c0.1,0.1,0.2,0.2,0.3,0.3l25.3,25.9l19.8,20.1c0.1,0.1,0.2,0.2,0.3,0.3l5.5,7.5l16.1,21.6l16.4,22.4c0,0,0.1,0.1,0.1,0.1l29,55
		c0,0,0,0.1,0.1,0.1L607,21.4c0,0.1,0,0.1,0,0.2l9,59c0,0,0,0.1,0,0.2v55.4c0.1,0,0.1,0,0.2,0c0.5,0.1,0.9,0.7,0.7,1.2l-12.2,50.8
		c0,0.1-0.1,0.2-0.1,0.2l-33.4,61.4c0,0.1-0.1,0.1-0.1,0.2l-33.3,36.3c-0.1,0.1-0.2,0.3-0.4,0.4l-11.5,6.7l-31.6,18.3
		c-0.2,0.1-0.4,0.2-0.5,0.1l-0.7,0.3l-16.1,9.2c-0.1,0-0.1,0.1-0.2,0.1l-48.3,15.1c-0.1,0-0.2,0-0.3,0.1L373.8,339
		C373.8,339,373.8,339,373.8,339z M324.1,328.3l49.3,8.5c0.1,0,0.1,0,0.2,0.1c0,0,0,0,0,0l57.2-12.3h-9.5l-36.5-0.3
		c-0.1,0-0.1,0-0.2,0l-1.4-0.3L324.1,328.3z M440.3,324.6L386,336.3l42.2-2l1.8-0.6l49.1-18.5l-35.7,8.7l-0.8,0.5
		c-0.2,0.1-0.4,0.2-0.5,0.2H440.3z M312.4,326l2.8,0.8l0.7,0.1l8.7-0.6l51.9-3.8l-16.6-3.6l-35.6-7.9c-0.1,0-0.1,0-0.2-0.1l-1.2-0.5
		l-61.1-3.4l27.9,10.5l6.4,2.5L312.4,326z M480.7,316.7l-17.6,6.7l13.2-4.1L480.7,316.7z M388.4,322.3l33,0.2h18.7l2.5-0.5l1-0.7
		l30.7-19.9l22.2-14.5l-32,5.8l-15.3,2.8c0,0,0,0,0,0c0,0,0,0,0,0L388.4,322.3z M327.5,309.6l32.8,7.3l23.2,5.1l1-0.1l60.1-26.5
		l-52.5-3.1c0,0-0.1,0-0.1,0L327.5,309.6z M501.5,285.8l-0.2,0.4c-0.1,0.1-0.2,0.2-0.3,0.3l-25.6,16.6l-26.9,17.5l44.4-10.9
		c0,0,0.1,0,0.1,0l1.6-0.9l10.1-9.2l35.8-32.9L501.5,285.8z M263.8,312.8l27.9,7.5l-2.6-1l-33.6-12.6h-0.2c-0.2,0-0.3,0-0.5-0.1
		l-0.7-0.4l-6-2.4l-20.5-8.2l31.7,15.9L263.8,312.8z M323.3,308.4l0.9,0l64-17.2l-31.7-8.5l-23.2-6.2c-0.1,0.1-0.2,0.1-0.4,0.1
		l-33.4,3.8l-32.2,3.9l30,13.2L323.3,308.4z M255.8,304.7h1.6l60,3.4l-20.8-8.7l-33.1-14.5l-0.1,0c-0.1,0-0.2,0-0.3,0l-30.1-5.4
		l-30.4-5.4l26.6,15.4l25.8,14.8L255.8,304.7z M568.2,243.2l-2.1,2l-20.3,19.2l-43.1,39.6l32.9-18.8c0,0,0-0.1,0.1-0.1l20.7-27
		L568.2,243.2z M206.3,284.9l35.1,14l-13.4-7.7L196.6,273l-29.3-15.6l37.7,26.8L206.3,284.9z M394.9,290.5l53.7,3.2l38.7-42.3
		l-46.9,4.1L394.9,290.5z M490.6,250.6c0,0.1-0.1,0.2-0.2,0.2l-16.1,17.6L451.8,293l12.4-2.3l35.8-6.5l0.2-0.1l19.1-29.8l11.9-18.6
		L490.6,250.6z M335.6,275l21.5,5.7l34.9,9.4l45.3-34.8l-51-7L335.6,275z M263.7,282.7L263.7,282.7l35.7-4.2l29.9-3.4l-29.8-13.8
		L273.2,249c-0.2-0.1-0.3-0.2-0.4-0.3l-64.9-0.8L263.7,282.7z M534.1,234.3l0,0.4c0,0.2-0.1,0.3-0.2,0.5l-13,20.3l-17.4,27.1
		l40-19.6l0.2-0.5l9.2-21.7l13.2-30.6L534.1,234.3z M197.5,271.2l35.7,6.3l25.6,4.6L204,247.8c-0.1,0-0.1,0-0.2,0l-26.4-7.7
		l-30.1-8.9L197.5,271.2z M276.3,248.2l24,11.2l32.3,15l51.5-27.1l-32.3-11.1l-19.4-6.6c-0.1,0.1-0.3,0.2-0.4,0.3l-23.4,7.7
		L276.3,248.2z M575.4,237.3l-17.4,22.2l-1.6,2.1l-5.1,6.7L569,249L575.4,237.3z M154.7,248.4l33.2,17.7L142,229.4l-6.6-4.5
		l-19.2-13.2l37.1,35.6L154.7,248.4z M569.4,208.1L555,241.5l-8.3,19.4l18.1-17.1l13-12.8l0.4-0.5l0.5-2l2.4-9.6c0-0.1,0-0.2,0-0.2
		l10.7-42.2L574,201.5L569.4,208.1z M388.1,246.5l51.4,7.1l13.7-33.3l3.6-9.4l-43.9-2.4L388.1,246.5z M458.9,210.8L455,221
		l-13.2,32.3l46.6-4.1l9.8-45.9L458.9,210.8z M500.3,203l-9.8,45.5l41.6-15.2l1.6-35.2l0.6-12.1l-31.3,15.6L500.3,203z M219.5,209.8
		l24.4,16.6l30.2,20.4c0,0,0,0,0,0l33.7-11.2l21.2-7l-30-17L277.5,200c0,0,0,0-0.1,0l-24.4,4.1L219.5,209.8z M204.6,245.8l65.6,0.8
		L242.8,228l-26.1-17.7l-31-4.2l-32.4-4.3l24.7,21L204.6,245.8z M333.4,227.9l18.9,6.4l33.8,11.6l24.5-37.6l-45.8-12l-6.8,6.8
		L333.4,227.9z M143.2,227.9l34.8,10.3l22.2,6.5l-23.6-20.2l-27-23l-0.3,0c-0.1,0-0.2,0-0.3-0.1l-21.1-8.7l-29.6-12.6l22.1,23.5
		L143.2,227.9z M536.4,184.8c0,0.1,0,0.1,0,0.2l-0.7,13.3l-1.5,33.5l4.1-3.1l28.7-21.6l-1.3-13l-3.6-33.9L536.4,184.8z M279.5,198.7
		l20.5,11.1l31,17.6l25.7-25.8l6.3-6.3l-31.8-14.7l-14.6-6.7l-8.2,5.5L279.5,198.7z M583,219.1v0.2c0,0.1,0,0.2,0,0.2l-1.3,5
		l14.5-25.8l6.2-10.9c0.1-0.2,0.2-0.3,0.3-0.4l5.7-55L595,171.3c0,0.1,0,0.3,0,0.4L583,219.1z M107.3,203.3l28.4,19.5l-16.8-18
		L94,178.3L74,160.8l32.7,41.9L107.3,203.3z M413.4,206.6l43.3,2.3l-9.6-38.4l-35.7-1.3l-0.4,0l0.1,1.8L413.4,206.6z M449.2,170.3
		l1,4l8.6,34.5l4.7-0.9l34.9-6.6L482,163.4L449.2,170.3z M167.8,163l23,21l26.4,24.2l35.6-6.1l22.1-3.7l-27.3-20.7L226,161.4
		L167.8,163z M150.5,199.4l35.5,4.7l28,3.8l-24.5-22.5l-24.3-22.2c-0.1,0-0.2,0-0.4,0l-59.3-15l21.3,24.2l23.4,26.8L150.5,199.4z
		 M365.5,194.3l45.8,12l-2.3-37.4l-38.4-9.5L365.5,194.3z M564,158.4l3.7,35.5l1.2,11.5l3.5-5l20.5-29.1l-11.3-45.7l-17.5,31.7
		C564.3,157.7,564.2,158.1,564,158.4z M483.7,162.4l2.5,5.7l14,32.6l1.9-0.9l31.6-15.8L511.5,148l-0.1-0.1L483.7,162.4z M95.3,176.5
		l33.3,14.2l17.8,7.4l-21.2-24.3l-23.2-26.4l-0.5-0.1c-0.1,0-0.2-0.1-0.2-0.1l-14.8-8.4l-28.4-15.3l18.5,26.5L95.3,176.5z
		 M228.3,160.7l20.4,15.4l28.5,21.6l37.5-25.1L270.6,143L228.3,160.7z M317.9,172.3l14.1,6.5l31.7,14.7l5.1-34.3l-38.5-17.2
		L317.9,172.3z M513,146.8l4.1,6.6l18.3,29.6l0.8-0.7l25.7-24.6c0,0,0,0,0,0l-27.2-32.5L513,146.8z M613,101.7l-2,25.2l-4.9,47.2
		l0.4-1.7l8.2-34.2c-0.4-0.1-0.7-0.5-0.7-0.9L613,101.7z M67.5,152.5l22.1,19.3L75,151l-20.9-29.9l-13-14.9L67.1,152L67.5,152.5z
		 M272.1,141.6l44.1,29.6l12.3-30.3l-0.1-0.3l-29.8-19.4l-7.4-4.8L272.1,141.6z M410.4,167.2h1.1l34.1,1.2l-24.4-23.6l-3.6-3.3
		l-29-2.6L410.4,167.2z M420,141l2.5,2.3l25.9,25l31.9-6.7l-33.2-24.3c-0.1,0-0.1,0-0.2,0l-0.7-0.2L420,141z M583.1,122.7l11.1,45
		l14.1-40.8l-0.4-1.1L591.8,85L583.1,122.7z M370.6,157.5l4.2,1l32.5,8l-21.4-27.8l-30.1-8.8L370.6,157.5z M123,109.2l42.3,51.9
		l59.1-1.6l-43.6-44.3l-23.9-2.5L123,109.2z M449.3,136.5l4.2,3.1l29,21.2l26.7-14l-29.7-16l-7.5-4l-0.5-0.1L449.3,136.5z
		 M103.2,145.5l59.2,15l-42-51.5c0,0-0.1,0-0.1,0l-23-8.6l-31-11.7l17.8,27.6l18.6,28.7L103.2,145.5z M183.3,114.8l43.6,44.3
		l41.7-17.5l-25.7-23.5l-14.4-13.1L183.3,114.8z M330.8,140l37.1,16.5L353.1,129l-0.7-0.4l-30-14.8l7.7,25.5l0.2,0.1
		C330.6,139.6,330.7,139.8,330.8,140z M536.1,123.6l26.8,32l0.7-1.3l17.2-31.3l-26.6-23.8l-3.7-3.5L536.1,123.6z M473.7,125.4
		l6.8,3.7l30.8,16.6l21.6-21.6l-6.9-2.5l-33.6-12.5L473.7,125.4z M55.7,119.8L87.5,137l12,6.8l-17.1-26.4L63.1,87.6l-0.1,0
		c-0.1,0-0.1-0.1-0.2-0.1L28,63.8L55.7,119.8z M230.2,104l14,12.7l26.1,23.8l19.3-25.5l-34.1-30.2L230.2,104z M385.2,127.7l16.4,5.8
		l16.6,5.8l22.7-3.3l-37.6-8.7c-0.3-0.1-0.5-0.3-0.7-0.5l-4.3,1c-0.1,0-0.1,0-0.2,0H385.2z M386.7,136.8l24.5,2.2l-10.3-3.6
		l-21.7-7.7h-0.5c-0.1,0-0.1,0-0.2,0l-19.7-3.9L386.7,136.8z M292,114.4l7.7,5l27.9,18.1l-7.5-24.8l-28.9-20.4L292,114.4z
		 M447,135.1c0.1,0,0.3,0,0.4,0.1l20.2-8.9l-41.4-4.7l-9.6,2.1l-9,2.5l38.7,9l0.5-0.1C446.9,135.1,446.9,135.1,447,135.1z
		 M354.3,127.3l19.8,5.8l-23.1-10.7l-14.9-5.9l17.2,10.4l0.8,0.4C354.3,127.3,354.3,127.3,354.3,127.3z M395.9,125.7h2.1l5.2-1.2
		c0.1,0,0.1,0,0.2,0h0.3l12.4-2.8l9.4-2.6l11.3-6.9L405,122.8c-0.1,0-0.2,0.1-0.3,0.1h-0.6l-3.5,1.1l-0.2,0.2
		c-0.2,0.1-0.4,0.2-0.6,0.2h-0.2L395.9,125.7z M352.1,120.5l25.9,5.1c0.2-0.1,0.3-0.2,0.5-0.2h12.4l7.8-2.8l5.5-8.8v-0.2
		c0-0.1,0-0.2,0-0.3l0.1-0.2l-0.7-23.6l-6.4-27.2l-11.7-27.5L368.9,8.4c0,0,0,0,0,0l-20.4-23.9c0,0-0.1-0.1-0.1-0.1l-23.9-21.1
		c-0.1,0-0.1-0.1-0.1-0.2l-25.5-16.5c0,0-0.1,0-0.1,0l-27.1-12c-0.1,0-0.1-0.1-0.2-0.1l-26.2-6.4c-0.1,0-0.1,0-0.2,0l-18-0.6
		l-8.5,3.6l-3.1,4.3l-1.8,5.2l-0.4,2.6l2,25.7c0.2,0.1,0.3,0.3,0.4,0.5l7.7,27.5c0.1,0.2,0,0.4,0,0.6l12.3,26.2c0,0,0,0,0.1,0.1
		L253.2,50l0.5,0.6l20.9,23.1l24.4,20.2l26.2,15.8L352.1,120.5z M428.3,119.8l7.9,0.9l35,4l0.4-0.2l17.9-15.5h-8.3l-35.8,0.3
		c0,0-0.1,0.1-0.2,0.1L428.3,119.8z M592.9,82.1l3.5,8.9l12.9,33l2.2-27.9l0-0.3l1-12.7l-0.2-6.5l-0.2-1.6l-2.8-4.8l-16.5-30.4
		l0.3,32.5v9.4C593,81.7,593,81.9,592.9,82.1z M493.7,107.4l40.7,15.1l14.4-27.8l-42-8.7L493.7,107.4z M551.2,93.7l4.3,4.1
		l25.9,23.2l0.9-4l8.2-35.2l-32.4-21.1L551.2,93.7z M405.7,119l0.6,0.8l-1.3,1l38.8-12.9c0-0.1,0.1-0.1,0.1-0.2L455,94.8l-28.8,13.3
		l-10.5,4.8c-0.2,0.1-0.4,0.1-0.6,0.1l-1.8,1.3l-7,5.5L405.7,119z M404.7,116.7l-2.1,3.4l2.1-1.6V116.7z M406.7,113.9v2.5l9-9.9
		l9.9-11.2l4.4-12.6L406.7,113.9z M321.6,111.2l10.1,5l-7-4.2l-0.7-0.3c-0.1,0-0.1,0-0.1-0.1l-8.5-5.1L321.6,111.2z M36.2,97.5
		l14.4,16.5l-26-52.6c-0.2-0.1-0.3-0.3-0.4-0.5l-0.1-0.5l-4.5-7.8L36.2,97.5z M144.9,63.4l36.6,49.7l45.5-9.8l-22.2-26.8l-12.8-15.2
		l-12.6,0.6L144.9,63.4z M121.1,106.9l36,3.8l21.8,2.3l-36.7-49.8L87.6,50.6L102.8,76L121.1,106.9z M256.6,83.2l33.3,29.5l-0.8-21.8
		l-16.3-15.6c-0.2-0.2-0.3-0.4-0.3-0.6L262.4,65L256.6,83.2z M414.6,110.7l-0.2,0.3l0.1-0.1L414.6,110.7z M411.4,95.4l-4.1,14.5
		l25.1-33.5c0-0.1,0.1-0.1,0.1-0.2l1.4-16.8l-16.7,27.1l-5.3,8.6C411.7,95.2,411.5,95.3,411.4,95.4z M427.5,96.9l-9.1,12.5l7-3.2
		l32.8-15.1l0-0.1c0,0,0-0.1,0.1-0.1l7.4-17L427.5,96.9z M459.4,92.8l-12.5,14.5l34.3-0.3h10.4l12.8-20.8l-44.7,6.5
		C459.5,92.7,459.5,92.7,459.4,92.8L459.4,92.8z M64.4,86l33.5,12.6l20.4,7.6L101.1,77L84.9,50L37.8,26.7l26.5,59L64.4,86z
		 M405.5,89.6l0.4,14.1l4.5-31.5l-2.8-15.4l-2.1,32.7C405.5,89.4,405.5,89.5,405.5,89.6z M194.4,61l12,14.3l22.5,27.2l25.1-19
		l-22.9-27l-6.3-7.7L194.4,61z M410.2,88.1l-1.2,8.3l0.7-2.5c0-0.1,0.1-0.2,0.1-0.3l0.2-0.3L410.2,88.1z M434.3,77.2l-5.9,16.9
		l8.1-4.9l30.6-18.4l0.1-0.3c0.1-0.1,0.1-0.2,0.2-0.3l3.4-21.3L434.3,77.2z M507.6,84.1l7,1.5l34.8,7.2l6.9-32.7l-35.4-1.4l-6.1-0.4
		L507.6,84.1z M468.7,72.2l-8,18.3l9.4-1.4l35.5-5.1l7-25.2l-43.3,12.8c-0.1,0.2-0.2,0.4-0.4,0.5L468.7,72.2z M412.7,72.3l-0.5,17.7
		l22.2-35.7l0,0l-2.7-19.9L412.7,72.3z M26.2,60.1L61.3,84L34.9,25.2L8.9,2.9l17.1,56.8L26.2,60.1z M399.1,61.8l4.9,20.7l2.2-34
		l0-0.2c0-0.1,0-0.2,0-0.3l-7.1-18.9V61.8z M226.4,47.5l6.2,7.7L255,81.6l5.8-18.2l-22.6-28.6L226.4,47.5z M558.3,58.4l3.5,2.3
		l29.1,19v-7.5l-0.3-35.6L557.4,22l1,34.9V58.4z M436.1,55.6l-1.5,18.8l36.1-28L468.9,23L444.6,47l-8.2,7.9c0,0.1-0.1,0.3-0.1,0.4
		L436.1,55.6z M592.1,34.8c0.2,0.1,0.3,0.2,0.4,0.4l1,1.8l17.7,32.6l-0.2-1.7l-6.3-45.5l-4.8-7.1l-2.4-3.4L582.9-8.3L592.1,34.8z
		 M473,47.7l-3.4,21.7L513,56.6l0.7-28.3l-31.6,14.7L473,47.7z M408.2,48.4l3.7,20.9L431,31l-7.2-21.7l-12.7,31.6l-2.9,7.3
		L408.2,48.4z M115.8,8.6l11.1,20.9l16.8,31.9l47.1-2.2l-18.1-29.8l-9.6-15.9l-12.9-1.4L115.8,8.6z M86.3,48.3l54.8,12.6l-16-30.4
		L113.3,8.3l-18-6.7L62.9-9.8l10,24.8L86.3,48.3z M165.5,13.7l9,14.8l18.7,30.8l30.3-12.2L199.7,8.9L165.5,13.7z M515,56.4l5.9,0.4
		l35.4,1.4V57l-1-35.2l-39.6,5.7L515,56.4z M387.3,34.1l9.8,23V23.8L385.8,3.9L387.3,34.1z M433.2,31.3l2.9,21.1l7.1-6.8l25.5-25.2
		l-7-25.3l-21,27.1L433.2,31.3z M15.5,41.6l6.1,10.6L11.2,17.5L15.5,41.6z M36.5,23.9l47.2,23.3L71,15.7L60.4-10.6L50.1-17
		L21.3-35.1l8.4,32.5L36.5,23.9z M201.9,8.6l4.7,7.5L225.1,46L237,33.1l-0.4-1L219.2,1.7L201.9,8.6z M470.7,21l1.9,24.7l8.7-4.6
		l32.4-15L508-4.7l-28.6,19.8L470.7,21C470.7,21,470.7,21,470.7,21z M399.2,23.7l8,21.6l2-5.1l13.4-33.4l-11.2-21.4L399.2,23.7z
		 M557.4,19.8l0.9,0.4l31.7,13.9l-9.9-45.8l-31.7-7.2L557.4,19.8z M370.7,7.5l14.4,23l-1.5-30.4l-15.1-19.2L370.7,7.5z M425.1,6.8
		l7.4,22.3l6.6-8.1l21.7-28.2l-11.7-24.9L425.1,6.8z M509.8-5.7l5.8,31.1l39.7-5.7l-0.9-4.1l-8-34.5l-33.5,12L509.8-5.7z M8.1-0.4
		l1.4,1.2l24.4,20.9L27.8-2.1l-9-34.7L2.3-55.4l4.5,42.6l0.5,5.1l0.8,7.1C8.1-0.4,8.1-0.4,8.1-0.4z M385.7-0.4l12.2,21.5l1.3-4
		l11-34.3l-15-20.5l-8.5,33.4L385.7-0.4z M463.2-6.6l7.1,25.4l7.9-5.4l29.4-20.3l-11.9-31.5l-25.2,24.5L463.2-6.6z M581.9-13
		l19.8,27.2l1.5,2.3l-16.6-49.8l-22.7-23.8l11.8,28.9L581.9-13z M220.8,0.6l0.2,0.3l8.4,14.6l-7.6-16.1L220.8,0.6z M145.4-35.3
		l5.6,13.8l13.6,33.2l34.1-4.7l-13.8-32.4l-3.1-7.3h-1.6L145.4-35.3z M114.7,6.5l47.6,5l-13.2-32.2l-5.9-14.5l-12.8-3.2L96.9-47
		L114.7,6.5z M184.2-32.1l2.5,6l14,33l17.6-7l-12.1-32H184.2z M62-12.2l34,12l16.4,6.1L94.6-47.7l-13.7-6.6l-31-15.1l4.7,22.2
		L62-12.2z M349.9-16.9l18.5,21.8l-2.1-26.6l-18.2-17.4L349.9-16.9z M412.3-17.4L424,4.8l24.2-39.1c0-0.1,0-0.1,0-0.2l-16.3-24.3
		l-14.9,31.7L412.3-17.4z M208.7-31.4l11.3,29.9l1-1.2l-7.5-26.9L208.7-31.4z M368.3-22.6l15.8,20.2l0.6-2.3l8.8-34.9L375.5-58
		L368.3-22.6z M497.4-39.6l12,31.9l2.8-1l33.5-12l-16.6-39.1L497.4-39.6z M450.4-34.2l12,25.6l6.7-6.7l25.6-24.9l-17.5-30.6
		l-20.8,28.1l-6,8.2C450.4-34.4,450.4-34.3,450.4-34.2z M20.7-37.9l30.5,19.2l8.6,5.3l-7.2-33.4l-5-23.7L17.6-94.2L20.7-37.9z
		 M547.8-21.1l31.6,7.1l-5.5-13.6l-13.5-33l-29.2,0.4L547.8-21.1z M326-38.1l21.7,19.2L346-41.2l-20.6-14.6L326-38.1z M395.8-40.1
		L411-19.4l4-8.6l15.3-32.4l-19.8-21.9l-11.4,32.8L395.8-40.1z M348-42.1l18.6,17.8l0.1-0.3l7.1-35.2l-20.3-15.4L348-42.1z
		 M207.4-34l5.8,2.2l-1.9-24.4l-5.3-4.3l-0.3-0.2c-0.1,0-0.1-0.1-0.1-0.1l-3.5-2.8l1,5.7c0,0.1,0,0.1,0,0.2v0.1L207.4-34z
		 M183.6-34.1h21.7l-4.3-23.2c0-0.1,0-0.1,0-0.2v-0.1l-1.4-7.8l-25.2-7.1l0.8,3.5L183.6-34.1z M144.6-37.3l35.7,2.7l1.1,0l-9.2-38.6
		l-37.5-10l2.5,11.3L144.6-37.3z M433-60.6l16.3,24.2l5.5-7.5l21.3-28.8l-0.9-1.1L453.7-101L433-60.6z M96.3-49.2l46.3,11.8
		l-7.3-34.1l-2.7-12.4l-11-4.5l-32.3-13l2.2,16.6L96.3-49.2z M300.1-55L324-39.5l-0.6-17.6l-21.9-11L300.1-55z M561.6-62.4
		c0,0,0.1,0.1,0.1,0.1l1.2,1.3l20.4,21.4l-25.5-48.4c0,0,0,0,0,0l-21.9-16.8L561.6-62.4z M2-58.7l16.5,18.5l-3-56l-7.4-12.9L2-58.7z
		 M478.5-72.5l17.9,31.2l2-1.3l29.8-19l-4.8-7.7l-18.6-30L478.5-72.5z M376-60.3l18.3,18.6l3-8.5L409-84.1l-22.7-18.8L376-60.3z
		 M346.9-41.7L346.9-41.7z M325.4-58.2l20.8,14.8l5.4-32.9l-21.7-11.8L325.4-58.2z M49.4-71.8l44.7,21.7l-4.7-34.3l-2.3-17.8
		l-37.6-23.5V-71.8z M273.3-66.9l24.9,11l1.3-13.1l-22.2-6.6L273.3-66.9z M206.6-62.4l0.3,0.2c0.1,0,0.1,0.1,0.2,0.1l4.4,3.6
		l0.2-1.1l1,0.2l-1-0.2l0.8-4.6l0.5-3.2V-68c0-0.1,0-0.1,0-0.2l0.2-1.4l1.6-10.9l-12.7-14.1l-0.7,27.9L206.6-62.4z M301.7-70.3
		l21.9,11L328-89l-22-7.6L301.7-70.3z M353.8-77.4l20.5,15.5l10.2-42.1l-24.5-14.7L353.8-77.4z M411.2-84.5l20.3,22.4l4.5-8.8
		l16.3-31.8l-1.1-1.1l-25.5-24.2L411.2-84.5C411.2-84.5,411.2-84.5,411.2-84.5z M506.6-100.3l18.5,29.9l5.1,8.2l29-0.4l-27.4-45.3
		L506.6-100.3z M174.2-74.6l25.2,7.1l0.8-29.2L173.2-111v0.5L174.2-74.6z M247.5-73.4l23.9,5.8l3.8-8.3l-21.2-2L247.5-73.4z
		 M215.7-70.6v1.7l1.1-1.5c0.1-0.1,0.3-0.3,0.4-0.3l0.2-0.1l7.5-10.6l-0.7-15.8l-7.4,16.8L215.7-70.6z M277.9-77.6l21.9,6.5
		l4.3-26.1l-21.3-3L277.9-77.6z M226.9-80.7c0,0.2-0.1,0.3-0.2,0.5l-5.6,7.8l5.2-2.2l5.4-2.4l6.5-12.2L226.9-80.7z M17.6-96.8
		l29.9,23.6V-127l-20.8-21.1l-6,34L17.6-96.8z M231.4-74.4l13.5,0.4l4.8-3.4L232.9-75L231.4-74.4z M454.6-103.1l22.8,28.9l26.2-26.7
		l-6.5-7.7l-22.6-26.7L454.6-103.1z M134.4-85.4l37.8,10.1l-1-35.1l0-1.5l-5.5-2.5l-31.8-14.4v7.8L134.4-85.4z M241.7-91.3
		l-7.5,14.1l18.8-2.6l5.8-17.7L241.7-91.3C241.7-91.3,241.7-91.3,241.7-91.3z M255-79.8l20.9,2l4.8-22.4l-19.5,1.7L255-79.8z
		 M330.4-90.3l21.6,11.8l0.9-6l5.4-35.3l-25-10L330.4-90.3z M253.7-78.9L253.7-78.9z M202.4-97.2l13.1,14.6l8.4-19.1l-14.5-20.8
		L202.4-97.2z M226-101.3l0.8,18.2l13.5-10.1l-1.8-22.7L226-101.3z M89.2-103.5l33.1,13.3l10.1,4.1l-0.4-34.9v-8.8L93-151.7
		L89.2-103.5z M386.8-105l22.8,18.9l3.1-9.2l11.3-33.8l-0.7-0.5l-28.5-20.1L386.8-105z M306.2-98.6l22.2,7.6l2.9-39.4l-24.8-4.9
		L306.2-98.6z M240.4-118.2l1.9,24.5l17-6.2l-2.2-28.6L240.4-118.2z M533.3-109.4L553.4-94l-28.3-38.5l-5.5-7.4l-19.6-9.7l20.3,24.4
		l12.9,15.5C533.2-109.6,533.3-109.5,533.3-109.4z M173.3-113.2l27.4,14.4l7.2-25.8l-0.2-0.2l-27.6-21.1L173.3-113.2z M282.9-102.2
		l21.3,3v-0.8l0.3-35.5l-23,0.4L282.9-102.2z M8.5-112.1L16-99.3l2.7-15.2l6.4-35.9v-3.3l-11.5,29.1L8.5-112.1z M259.1-129.3
		l2.2,28.8l19.6-1.7l-1.4-32.7L259.1-129.3z M475.7-136.9l29.6,35l25.3-7.6l-11.9-14.4l-22.9-27.4L475.7-136.9z M210.1-125
		l15.1,21.6l13-15.1L223-146L210.1-125z M49.4-128.2l37.9,23.7l3.8-48.2l-2.8-2.2L61-176.7l-3.3,13.8L49.4-128.2z M426.6-130
		l26.6,25.3l1.1-1.8l18.7-30.4l-7.6-6.7l-26.1-23.3L426.6-130z M360.4-120.9l24.6,14.8l8.1-45.1l-30.7-15.2L360.4-120.9z
		 M134.3-130.8l37.1,16.8l7-33.2l-35-22.8l-1,4.2L134.3-130.8z M224.6-147.4l15.1,27.4l17.1-10.5l-0.3-0.6l-13.7-32.3L224.6-147.4z
		 M333.2-132l25.2,10.1l0.4-9.4l1.6-35.7l-30.6-9l2.7,34.8L333.2-132z M181.1-147.6l27.6,21.1l13.1-21.2l-26.3-27.6L181.1-147.6z
		 M27.3-150.4l20.4,20.8l8.1-33.8l3.5-14.9L48-194.5l-10.9,23.1l0.1,0.1l-0.4,0.5l-6.7,14.3L27.3-150.4z M395.1-152l29.7,20.9
		l1.1-3.4l11.8-33.8l-7.5-4.9l-29.5-19.2l-5.6,40.1C395.1-152.1,395.1-152,395.1-152z M244.4-164.6l14.2,33.4l20.5-5.7l-1.2-3.9
		l-10.4-33.8L244.4-164.6z M93.1-153.9l39.4,22l9.2-39.4l-5.7-4.2l-28.2-20.7l-3,8.6L93.1-153.9z M306.4-137.4l24.8,4.9l-0.6-8.5
		l-2.8-35.5l-29.5-2.6l6.7,34.6L306.4-137.4z M269.4-175.3l11.8,38.3l23.2-0.4l-1.3-6.9l-6.8-34.9L269.4-175.3z M440.3-168.7
		l26.5,23.7l7.5,6.6l20.1-14.3l-14-12.7l-26-23.8L440.3-168.7z M496.8-153.4l18.6,9.2l-15.8-16l-25.3-25.9l-16.9-3.1l24.3,22.3
		L496.8-153.4C496.8-153.4,496.8-153.4,496.8-153.4z M143.8-172.1l35.7,23.2l14.5-28l-5.5-4.8L162-205l-0.9,1.7L143.8-172.1z
		 M196.4-177.3l26.9,28.3l18.4-16.3l-3.3-4.8l-20.6-28.7L196.4-177.3z M362.5-168.5l30.8,15.2l5.6-39.8l-6.3-2.8L360.8-210
		L362.5-168.5z M27-158.5v3.9l1.3-2.7l3.2-6.8L27-158.5z M61.6-178.8L91.4-155l14.6-42.5l-21.3-22.1l-5.5,9.7L61.6-178.8z
		 M219.4-200.1l20.6,28.8l3.4,4.9l23.3-10.1l-3.4-6.5l-16.6-31.4L219.4-200.1z M329.5-178.2l31,9.2l-1.6-42c0-0.1-0.1-0.1-0.1-0.2
		l-3.8-0.9l-34-8.1L329.5-178.2z M401.3-194.2l30.1,19.5l7.4,4.8l14.2-20.5l-14.9-9.9L408.9-220L401.3-194.2z M108.6-198l33.6,24.7
		l18.2-33.1l-27.2-26.3l-4.2,5.8L108.6-198z M248.7-215l16.4,31.1l3.5,6.7l27.1-3.9l-14.6-40.7L248.7-215z M297.8-181.3l29.6,2.6
		l-8.5-41.9h-0.8l-34.9-1.2L297.8-181.3z M163.2-206.6l31.8,27.9l21.6-21.6l-27-31.6l-0.8,0.8L163.2-206.6z M297-180.3L297-180.3z
		 M49.3-196.1l3.5,5.1l7.4,10.6l17.3-30.5l5.8-10.3l-2.6-9.5L49.3-196.1z M454.5-191.8l16.4,3l-7.3-5.5l-39.8-30l-13,3.2l28.4,19.1
		L454.5-191.8z M360.7-212.2l38.7,17.2l7.7-26l-46-21.3l-0.5,29.7C360.7-212.4,360.7-212.3,360.7-212.2z M85.9-221.3l21.2,22
		l24.8-34.9l-12.8-18.5L85.9-221.3z M191.3-233l26.7,31.3l27.7-14.5l-2.1-3.3L225-249.6l-2,1L191.3-233z M134.6-234.1l27,26.1
		l26.6-25.5l-19.8-25.9l-5.5,4.1L134.6-234.1z M320.5-222.5l34.9,8.3l3.2,0.8l0.5-29.5l-11.8-3.1l-33.6-9L320.5-222.5z M227-250.1
		l20.6,33.2l32.5-6.8l-0.3-0.8l-13.8-32.9l-4.8,0.9L227-250.1z M282.3-223.8l36.2,1.2l-6.9-32.6l-43.4-2.3L282.3-223.8
		C282.3-223.8,282.3-223.8,282.3-223.8z M362-244.1l46.4,21.5l13-3.2l-19.8-10.7l-31.4-17L362-244.1z M82.3-232.1l2.5,9l7.1-6.7
		l21.3-20.1L93-238.3L82.3-232.1z M133.1-234.2L133.1-234.2z M170.2-260.3l19.8,25.8l33.9-16.8l-12.3-23.9l-8.4,2.9L170.2-260.3z
		 M120.7-253.9l12.6,18.3l34-25.4l-2.1-6.1c0-0.1-0.1-0.2-0.1-0.3v-0.1l-2.4-6.9l-34.9,17.1l0,0l-0.1,0L120.7-253.9z M313.5-257
		l34.3,9.2l12.1,3.2l8.3-9.6l-19.1-6.3l-33.6-11.5l-0.3,2v0.7c0,0,0,0.1,0,0.1L313.5-257z M213.4-275.8l12.3,23.9l39.7-7.5
		l-4.7-20.5l-35.5,3.1l-1.5,0L213.4-275.8z M267.5-259.5l44,2.3l1.8-12.2v-0.7c0,0,0-0.1,0-0.1l0.3-2.3l-25.7-3.7l-25.1-3.5
		L267.5-259.5z M167.2-267.6l1.9,5.6l33.3-12.2l8.9-3l2.2-6.7l-4.2,0.8l-44.6,8.2l2.4,6.9c0,0.1,0.1,0.2,0.1,0.3V-267.6z
		 M215.7-284.1l-2.1,6.3l10-0.9l1.5,0l32.7-2.9L215.7-284.1z M270.8-280.6l1.6,0.2l-1-0.3L270.8-280.6z"
  />
</svg>
