<svg viewBox="0 0 16 16" fill="none" xmlns="http://www.w3.org/2000/svg">
  <path
    d="M8.00019 0.730774C3.98577 0.730774 0.730957 3.98558 0.730957 8C0.730957 12.0144 3.98577 15.2692 8.00019 15.2692C12.0146 15.2692 15.2694 12.0144 15.2694 8C15.2694 3.98558 12.0146 0.730774 8.00019 0.730774ZM9.51461 11.9976C9.13961 12.1442 8.84153 12.2572 8.61798 12.3341C8.39442 12.4111 8.13721 12.4495 7.84153 12.4495C7.38961 12.4495 7.03625 12.3389 6.78384 12.1178C6.53384 11.899 6.40884 11.6178 6.40884 11.2764C6.40884 11.1442 6.41846 11.0096 6.43769 10.8726C6.45452 10.7332 6.48577 10.5793 6.52663 10.4039L6.99538 8.75C7.03625 8.59135 7.0723 8.44231 7.10115 8.30049C7.13 8.15866 7.14201 8.02885 7.14201 7.91106C7.14201 7.70193 7.09875 7.55289 7.01221 7.47116C6.92327 7.38702 6.7574 7.34616 6.51221 7.34616C6.39202 7.34616 6.26702 7.36539 6.13961 7.40145C6.01221 7.43991 5.90403 7.47597 5.81269 7.50962L5.93769 7C6.24298 6.875 6.53625 6.76924 6.8175 6.68029C7.09634 6.59135 7.36317 6.54568 7.61077 6.54568C8.06028 6.54568 8.40884 6.65625 8.65163 6.8726C8.89442 7.08895 9.01702 7.3726 9.01702 7.71875C9.01702 7.79087 9.0098 7.91827 8.99298 8.09856C8.97615 8.27885 8.9449 8.44472 8.89923 8.59856L8.43288 10.2476C8.39442 10.3798 8.36077 10.5313 8.32952 10.6995C8.30067 10.8678 8.28625 10.9976 8.28625 11.0841C8.28625 11.3029 8.33432 11.4543 8.43288 11.5337C8.52903 11.613 8.69971 11.6514 8.9425 11.6514C9.05548 11.6514 9.18288 11.6322 9.32711 11.5938C9.46894 11.5529 9.5723 11.5192 9.63721 11.488L9.51461 11.9976ZM9.43048 5.30289C9.21413 5.50481 8.95211 5.60577 8.64682 5.60577C8.34153 5.60577 8.07711 5.50481 7.85836 5.30289C7.63961 5.10097 7.53144 4.85577 7.53144 4.56972C7.53144 4.28366 7.64202 4.03606 7.85836 3.83174C8.07711 3.62741 8.34153 3.52645 8.64682 3.52645C8.95211 3.52645 9.21413 3.62741 9.43048 3.83174C9.64923 4.03606 9.7574 4.28366 9.7574 4.56972C9.7574 4.85577 9.64923 5.10097 9.43048 5.30289Z"
    fill="currentColor"
  />
</svg>
