<svg viewBox="0 0 13 14" fill="none" xmlns="http://www.w3.org/2000/svg">
  <path
    d="M9.83317 6.33333V4.33333C9.83317 2.49238 8.34079 1 6.49984 1C4.65889 1 3.1665 2.49238 3.1665 4.33333V6.33333M4.3665 13H8.63317C9.75328 13 10.3133 13 10.7412 12.782C11.1175 12.5903 11.4234 12.2843 11.6152 11.908C11.8332 11.4802 11.8332 10.9201 11.8332 9.8V9.53333C11.8332 8.41323 11.8332 7.85318 11.6152 7.42535C11.4234 7.04903 11.1175 6.74307 10.7412 6.55132C10.3133 6.33333 9.75328 6.33333 8.63317 6.33333H4.3665C3.2464 6.33333 2.68635 6.33333 2.25852 6.55132C1.8822 6.74307 1.57624 7.04903 1.38449 7.42535C1.1665 7.85318 1.1665 8.41323 1.1665 9.53333V9.8C1.1665 10.9201 1.1665 11.4802 1.38449 11.908C1.57624 12.2843 1.8822 12.5903 2.25852 12.782C2.68635 13 3.2464 13 4.3665 13Z"
    stroke="currentColor"
    stroke-linecap="round"
    stroke-linejoin="round"
  />
</svg>
