<svg viewBox="0 0 20 20" fill="none" xmlns="http://www.w3.org/2000/svg">
  <path
    d="M6.66732 18.3307V16.6641M7.91732 12.4974V5.83073M13.334 18.3307V16.6641M12.084 12.4974V5.83073M7.33398 16.6641H12.6673C14.0674 16.6641 14.7675 16.6641 15.3023 16.3916C15.7727 16.1519 16.1552 15.7694 16.3948 15.299C16.6673 14.7643 16.6673 14.0642 16.6673 12.6641V5.66406C16.6673 4.26393 16.6673 3.56387 16.3948 3.02909C16.1552 2.55868 15.7727 2.17623 15.3023 1.93655C14.7675 1.66406 14.0674 1.66406 12.6673 1.66406H7.33398C5.93385 1.66406 5.23379 1.66406 4.69901 1.93655C4.2286 2.17623 3.84615 2.55868 3.60647 3.02909C3.33398 3.56387 3.33398 4.26393 3.33398 5.66406V12.6641C3.33398 14.0642 3.33398 14.7643 3.60647 15.299C3.84615 15.7694 4.2286 16.1519 4.69901 16.3916C5.23379 16.6641 5.93385 16.6641 7.33398 16.6641Z"
    stroke="currentColor"
    stroke-linecap="round"
    stroke-linejoin="round"
  />
</svg>
