<svg width="12" height="15" viewBox="0 0 12 15" fill="none" xmlns="http://www.w3.org/2000/svg">
<path d="M5.53451 13.4096C5.6821 13.4957 5.7559 13.5388 5.86005 13.5611C5.94088 13.5785 6.0588 13.5785 6.13962 13.5611C6.24377 13.5388 6.31757 13.4957 6.46516 13.4096C7.76386 12.652 11.3332 10.272 11.3332 6.99972V4.46639C11.3332 3.75046 11.3332 3.39249 11.2228 3.13839C11.1106 2.88012 10.9989 2.74273 10.7689 2.58032C10.5426 2.42054 10.0989 2.32827 9.21164 2.14373C8.23371 1.94034 7.48269 1.57308 6.79609 1.04193C6.46684 0.787231 6.30222 0.659881 6.1734 0.625145C6.03746 0.588493 5.96221 0.588493 5.82628 0.625145C5.69746 0.659881 5.53283 0.787231 5.20358 1.04193C4.51698 1.57308 3.76597 1.94034 2.78804 2.14373C1.90075 2.32827 1.45711 2.42054 1.2308 2.58032C1.00078 2.74273 0.889028 2.88012 0.776862 3.13839C0.666504 3.39249 0.666504 3.75046 0.666504 4.46639V6.99972C0.666504 10.272 4.23581 12.652 5.53451 13.4096Z" stroke="currentColor" stroke-linecap="round" stroke-linejoin="round"/>
</svg>
