<svg viewBox="0 0 16 4" fill="none" xmlns="http://www.w3.org/2000/svg">
  <path
    d="M8.8335 2.00004C8.8335 1.5398 8.4604 1.16671 8.00016 1.16671C7.53993 1.16671 7.16683 1.5398 7.16683 2.00004C7.16683 2.46028 7.53993 2.83337 8.00016 2.83337C8.4604 2.83337 8.8335 2.46028 8.8335 2.00004Z"
    stroke="currentColor"
    stroke-linecap="round"
    stroke-linejoin="round"
  />
  <path
    d="M3.00016 2.00004C3.00016 1.5398 2.62707 1.16671 2.16683 1.16671C1.70659 1.16671 1.3335 1.5398 1.3335 2.00004C1.3335 2.46028 1.70659 2.83337 2.16683 2.83337C2.62707 2.83337 3.00016 2.46028 3.00016 2.00004Z"
    stroke="currentColor"
    stroke-linecap="round"
    stroke-linejoin="round"
  />
  <path
    d="M14.6668 2.00004C14.6668 1.5398 14.2937 1.16671 13.8335 1.16671C13.3733 1.16671 13.0002 1.5398 13.0002 2.00004C13.0002 2.46028 13.3733 2.83337 13.8335 2.83337C14.2937 2.83337 14.6668 2.46028 14.6668 2.00004Z"
    stroke="currentColor"
    stroke-linecap="round"
    stroke-linejoin="round"
  />
</svg>
