<svg viewBox="0 0 16 18" fill="none" xmlns="http://www.w3.org/2000/svg">
<path d="M11.3333 4.00033V3.33366C11.3333 2.40024 11.3333 1.93353 11.1517 1.57701C10.9919 1.2634 10.7369 1.00844 10.4233 0.848648C10.0668 0.666992 9.60009 0.666992 8.66667 0.666992H7.33333C6.39991 0.666992 5.9332 0.666992 5.57668 0.848648C5.26308 1.00844 5.00811 1.2634 4.84832 1.57701C4.66667 1.93353 4.66667 2.40024 4.66667 3.33366V4.00033M0.5 4.00033H15.5M13.8333 4.00033V13.3337C13.8333 14.7338 13.8333 15.4339 13.5608 15.9686C13.3212 16.439 12.9387 16.8215 12.4683 17.0612C11.9335 17.3337 11.2335 17.3337 9.83333 17.3337H6.16667C4.76654 17.3337 4.06647 17.3337 3.53169 17.0612C3.06129 16.8215 2.67883 16.439 2.43915 15.9686C2.16667 15.4339 2.16667 14.7338 2.16667 13.3337V4.00033" stroke="currentColor" stroke-linecap="round" stroke-linejoin="round"/>
</svg>
