<svg viewBox="0 0 14 16" fill="none" xmlns="http://www.w3.org/2000/svg">
<path d="M9.66667 4.00065V3.46732C9.66667 2.72058 9.66667 2.34721 9.52134 2.062C9.39351 1.81111 9.18954 1.60714 8.93865 1.47931C8.65344 1.33398 8.28007 1.33398 7.53333 1.33398H6.46667C5.71993 1.33398 5.34656 1.33398 5.06135 1.47931C4.81046 1.60714 4.60649 1.81111 4.47866 2.062C4.33333 2.34721 4.33333 2.72058 4.33333 3.46732V4.00065M1 4.00065H13M11.6667 4.00065V11.4673C11.6667 12.5874 11.6667 13.1475 11.4487 13.5753C11.2569 13.9516 10.951 14.2576 10.5746 14.4493C10.1468 14.6673 9.58677 14.6673 8.46667 14.6673H5.53333C4.41323 14.6673 3.85318 14.6673 3.42535 14.4493C3.04903 14.2576 2.74307 13.9516 2.55132 13.5753C2.33333 13.1475 2.33333 12.5874 2.33333 11.4673V4.00065" stroke="currentColor" stroke-linecap="round" stroke-linejoin="round"/>
</svg>

