<svg viewBox="0 0 15 12" fill="none" xmlns="http://www.w3.org/2000/svg">
  <path
    d="M5.49967 9.33329L7.49967 11.3333M7.49967 11.3333L9.49967 9.33329M7.49967 11.3333V6.66663M14.1663 3.99996H0.833008M3.16634 9.99996H2.96634C2.2196 9.99996 1.84624 9.99996 1.56102 9.85463C1.31014 9.7268 1.10616 9.52283 0.978332 9.27194C0.833008 8.98673 0.833008 8.61336 0.833008 7.86662V2.79996C0.833008 2.05322 0.833008 1.67985 0.978333 1.39464C1.10616 1.14376 1.31014 0.939782 1.56102 0.811951C1.84624 0.666626 2.2196 0.666626 2.96634 0.666626H12.033C12.7797 0.666626 13.1531 0.666626 13.4383 0.811952C13.6892 0.939783 13.8932 1.14376 14.021 1.39464C14.1663 1.67986 14.1663 2.05322 14.1663 2.79996V7.86663C14.1663 8.61336 14.1663 8.98673 14.021 9.27195C13.8932 9.52283 13.6892 9.7268 13.4383 9.85463C13.1531 9.99996 12.7797 9.99996 12.033 9.99996H11.833"
    stroke="currentColor"
    stroke-linecap="round"
    stroke-linejoin="round"
  />
</svg>
