<svg xmlns="http://www.w3.org/2000/svg" version="1.1" viewBox="0 0 120 120">
  <path d="M44.9,70.5h11.7v-14.3c-4-.3-7.9-1.1-11.7-2.4v16.6Z" fill="currentColor" />
  <path d="M63.5,70.5h11.6v-16.6c-3.8,1.3-7.7,2.1-11.6,2.4v14.2Z" fill="currentColor" />
  <path d="M26.2,70.5h11.6v-19.6c-4.3-2.2-8.2-5.1-11.6-8.7v28.3Z" fill="currentColor" />
  <path
    d="M60,0C26.9,0,0,26.9,0,60s26.9,60,60,60,60-26.9,60-60S93.1,0,60,0ZM106.6,77.5h-5.8v10.5c0,1.9-1.6,3.5-3.5,3.5s-3.5-1.6-3.5-3.5v-10.5H26.2v10.5c0,1.9-1.6,3.5-3.5,3.5s-3.5-1.6-3.5-3.5v-10.5h-5.8c-1.9,0-3.5-1.6-3.5-3.5s1.6-3.5,3.5-3.5h5.8v-38.4c0-1.6,1-2.9,2.5-3.4,1.5-.4,3.1.2,3.9,1.5,7.6,12.3,20.8,19.1,34.3,19.2,0,0,0,0,0,0,0,0,0,0,0,0,7.2,0,14.5-1.9,21.1-5.9,5.4-3.3,9.9-7.9,13.2-13.2.8-1.3,2.4-2,3.9-1.5,1.5.4,2.5,1.8,2.5,3.4v38.4h5.8c1.9,0,3.5,1.6,3.5,3.5s-1.6,3.5-3.5,3.5Z"
    fill="currentColor"
  />
  <path
    d="M82.1,50.9v19.6h11.7v-28.3c-2.7,2.8-5.7,5.2-9,7.2-.9.5-1.7,1-2.6,1.5Z"
    fill="currentColor"
  />
</svg>
