<svg xmlns="http://www.w3.org/2000/svg" version="1.1" viewBox="0 0 120 120">
  <path
    fill="currentColor"
    d="M101.6,21.5c-7.8-3.6-16-6.3-24.7-7.8-1.1,1.9-2.3,4.5-3.2,6.6-9.2-1.4-18.4-1.4-27.4,0-.9-2.1-2.1-4.7-3.2-6.6-8.7,1.5-17,4.2-24.7,7.8C2.6,45.1-1.6,68.1.5,90.8c10.4,7.8,20.5,12.4,30.4,15.5,2.5-3.3,4.6-6.9,6.5-10.7-3.6-1.3-7-3-10.2-5,.9-.6,1.7-1.3,2.5-2,19.8,9.2,41.2,9.2,60.7,0,.8.7,1.6,1.3,2.5,2-3.2,2-6.7,3.6-10.2,5,1.9,3.7,4,7.3,6.5,10.7,9.9-3.1,20-7.8,30.4-15.5,2.5-26.3-4.2-49.1-17.8-69.3h-.1ZM40,76.9c-5.9,0-10.8-5.5-10.8-12.2s4.7-12.2,10.8-12.2,10.9,5.5,10.8,12.2c0,6.7-4.7,12.2-10.8,12.2ZM79.9,76.9c-5.9,0-10.8-5.5-10.8-12.2s4.7-12.2,10.8-12.2,10.9,5.5,10.8,12.2c0,6.7-4.7,12.2-10.8,12.2Z"
  />
</svg>
