<svg viewBox="0 0 15 16" fill="none" xmlns="http://www.w3.org/2000/svg">
  <path
    d="M5.68211 1.96355C6.68286 0.962793 8.30538 0.962794 9.30615 1.96355L11.8648 4.5222C14.2787 6.93607 14.2787 10.8497 11.8648 13.2635C9.45094 15.6774 5.53731 15.6774 3.12344 13.2635C0.709584 10.8497 0.709585 6.93607 3.12344 4.5222L5.68211 1.96355Z"
    fill="#6039FF"
  />
  <path
    fill-rule="evenodd"
    clip-rule="evenodd"
    d="M9.61622 1.65431L12.1749 4.21297C14.7598 6.79785 14.7598 10.9888 12.1749 13.5737C9.58998 16.1585 5.39909 16.1585 2.81421 13.5737C0.229328 10.9888 0.229328 6.79785 2.81421 4.21297L5.37287 1.65431C6.54465 0.482538 8.44449 0.48254 9.61622 1.65431ZM9.30659 1.96398C8.30582 0.963222 6.68328 0.963221 5.68253 1.96397L3.12387 4.52263C0.710011 6.9365 0.71001 10.8502 3.12387 13.264C5.53774 15.6779 9.45139 15.6779 11.8652 13.264C14.2791 10.8502 14.2791 6.9365 11.8652 4.52263L9.30659 1.96398Z"
    fill="#F7F7F7"
  />
  <path
    fill-rule="evenodd"
    clip-rule="evenodd"
    d="M7.95322 3.65494C7.65116 3.37515 7.18457 3.37515 6.88248 3.65494L4.53334 5.83064C4.41681 5.93857 4.33562 6.07919 4.30041 6.23408L3.59077 9.35637C3.56166 9.48444 3.56558 9.61279 3.59718 9.73216C3.59858 9.82257 3.61576 9.9146 3.6507 10.0049L4.15578 11.3089C4.2232 11.483 4.35024 11.6275 4.51425 11.7166L7.04193 13.0904C7.27655 13.2179 7.55979 13.2179 7.79441 13.0904L10.3221 11.7166C10.4861 11.6275 10.6131 11.483 10.6806 11.3089L11.1857 10.0049C11.2209 9.91379 11.2381 9.82088 11.2392 9.72966C11.2702 9.61102 11.2739 9.48355 11.245 9.35637L10.5353 6.23408C10.5001 6.07919 10.4189 5.93857 10.3024 5.83064L7.95322 3.65494ZM8.15511 6.04859C8.44012 6.36038 8.81134 6.48502 8.98421 6.32699C9.15707 6.16895 9.06622 5.78809 8.78121 5.4763C8.4962 5.16452 8.12497 5.03988 7.95211 5.19792C7.77923 5.35595 7.8701 5.73681 8.15511 6.04859ZM9.82981 7.22374C9.7167 7.32709 9.47399 7.24558 9.28756 7.04169C9.10122 6.83779 9.04175 6.58873 9.15486 6.48538C9.26789 6.38204 9.51061 6.46354 9.69703 6.66744C9.88338 6.87133 9.94284 7.1204 9.82981 7.22374Z"
    fill="#FFFFFF"
  />
</svg>
