<svg
  width="100%"
  className="icon"
  version="1.1"
  xmlns="http://www.w3.org/2000/svg"
  x="0px"
  y="0px"
  viewBox="0 0 461 191"
  style="enable-background: new 0 0 461 191"
>
  <defs>
    <rect id="clippingRect" y="0" width="461.9" height="192.2" />
  </defs>
  <clipPath id="clippingMaskGridGlobe">
    <use href="#clippingRect" style="overflow: visible" />
  </clipPath>
  <g style="clip-path: url(#clippingMaskGridGlobe)">
    <path
      d="M357.5,39.4c-0.1,0-0.2,0-0.2,0l-18.9-5.5c-0.1,0-0.2-0.1-0.3-0.1l-23.5-16c-0.4-0.3-0.5-0.8-0.3-1.2
			c0.2-0.4,0.7-0.5,1.2-0.3l42.4,21.5c0.4,0.2,0.6,0.7,0.4,1.1C358.2,39.2,357.9,39.4,357.5,39.4z M339,32.3l9.7,2.8l-21.8-11
			L339,32.3z"
      fill="currentColor"
    />
    <path
      d="M413.4,94.6c-0.2,0-0.5-0.1-0.6-0.3l-34.3-34.7c-0.3-0.3-0.3-0.8-0.1-1.2c0.3-0.3,0.8-0.4,1.2-0.2l15.3,9.4
			c0.1,0.1,0.2,0.1,0.2,0.2l19.1,25.2c0.3,0.4,0.2,0.9-0.1,1.2C413.9,94.5,413.7,94.6,413.4,94.6z M384.9,63.6l19.9,20.1l-11.1-14.6
			L384.9,63.6z"
      fill="currentColor"
    />
    <path
      d="M394.4,69.3c-0.2,0-0.3,0-0.5-0.1l-15.3-9.4c-0.1,0-0.1-0.1-0.1-0.1l-21.6-20.5c-0.3-0.3-0.4-0.9-0.1-1.2
			c0.3-0.4,0.8-0.4,1.2-0.1l36.9,29.9c0.4,0.3,0.4,0.8,0.2,1.2C394.9,69.2,394.6,69.3,394.4,69.3z M379.6,58.3l3.6,2.2l-8.7-7
			L379.6,58.3z"
      fill="currentColor"
    />
    <path
      d="M436.6,132.3c-0.3,0-0.6-0.2-0.7-0.4l-23.2-37.7c-0.2-0.4-0.1-0.9,0.2-1.2c0.4-0.3,0.9-0.2,1.2,0.1l10.7,11.7
			c0.1,0.1,0.1,0.1,0.1,0.2l12.5,26c0.2,0.4,0,0.9-0.4,1.2C436.9,132.2,436.7,132.3,436.6,132.3z M419.1,101.2l9.3,15.1l-5-10.4
			L419.1,101.2z"
      fill="currentColor"
    />
    <path
      d="M424.1,106.3c-0.2,0-0.5-0.1-0.7-0.3l-10.7-11.7l0-0.1L393.7,69c-0.3-0.4-0.2-0.9,0.2-1.2c0.4-0.3,0.9-0.2,1.2,0.1
			l29.7,37c0.3,0.4,0.2,0.9-0.1,1.2C424.5,106.2,424.3,106.3,424.1,106.3z"
      fill="currentColor"
    />
    <path
      d="M191.8,4.7c-0.5,0-0.9-0.4-0.9-0.8c0-0.5,0.3-0.9,0.8-0.9l48.6-3c0.5,0,0.9,0.3,0.9,0.8c0,0.5-0.3,0.9-0.8,0.9l-19.2,1.9
			L191.8,4.7L191.8,4.7z"
      fill="currentColor"
    />
    <path
      d="M288.7,9.3c0,0-0.1,0-0.1,0l-48.2-7.5c-0.5-0.1-0.8-0.5-0.7-1c0.1-0.5,0.5-0.8,1-0.7l28.5,4.1l19.7,3.4
			c0.5,0.1,0.8,0.5,0.7,1C289.5,9,289.1,9.3,288.7,9.3z"
      fill="currentColor"
    />
    <path
      d="M315.1,18c-0.1,0-0.1,0-0.2,0L268.8,5.8c-0.5-0.1-0.7-0.6-0.6-1c0.1-0.5,0.5-0.8,1-0.7l19.7,3.4l26.5,8.7
			c0.5,0.1,0.7,0.6,0.6,1.1C315.8,17.7,315.5,18,315.1,18z"
      fill="currentColor"
    />
    <path
      d="M453.9,177.5c-0.4,0-0.7-0.2-0.8-0.6l-17.3-45.2c-0.2-0.4,0-0.9,0.5-1.1c0.4-0.2,0.9,0,1.1,0.4l8.8,16.5l8.5,28.9
			c0.1,0.5-0.1,0.9-0.6,1.1C454.1,177.5,454,177.5,453.9,177.5z M442.4,144.2l4.2,11l-2.1-7L442.4,144.2z"
      fill="currentColor"
    />
    <path
      d="M445.4,148.8c-0.3,0-0.6-0.2-0.8-0.5l-8.8-16.5c0,0,0,0,0,0l-12.5-26c-0.2-0.4,0-1,0.4-1.2c0.4-0.2,1,0,1.2,0.4l21.3,42.5
			c0.2,0.4,0,1-0.4,1.2C445.7,148.7,445.5,148.8,445.4,148.8z"
      fill="currentColor"
    />
    <path
      d="M461,226.6c-0.4,0-0.8-0.3-0.9-0.8l-7.1-49.1c-0.1-0.5,0.3-0.9,0.7-1c0.5-0.1,0.9,0.2,1,0.7l3.5,17.4l3.7,31.7
			c0.1,0.5-0.3,0.9-0.8,1C461.1,226.6,461,226.6,461,226.6z"
      fill="currentColor"
    />
    <path
      d="M457.3,194.9c-0.4,0-0.7-0.3-0.9-0.7l-11.9-46.1c-0.1-0.5,0.2-0.9,0.6-1.1c0.5-0.1,0.9,0.1,1.1,0.6l8.5,28.7
			c0,0,0,0.1,0,0.1l3.5,17.4c0.1,0.5-0.2,0.9-0.7,1C457.5,194.9,457.4,194.9,457.3,194.9z"
      fill="currentColor"
    />
    <path
      d="M357.5,39.4c-0.1,0-0.3,0-0.4-0.1l-29.8-14.7l0,0l-12.6-6.7c-0.4-0.2-0.6-0.8-0.4-1.2c0.2-0.4,0.8-0.6,1.2-0.4l42.4,21.5
			c0.4,0.2,0.6,0.7,0.4,1.2C358.1,39.2,357.8,39.4,357.5,39.4z"
      fill="currentColor"
    />
    <path
      d="M327.7,24.7c-0.1,0-0.2,0-0.3-0.1l-39-15.5c-0.4-0.2-0.7-0.7-0.5-1.1c0.2-0.4,0.6-0.7,1.1-0.5l26.4,8.7c0,0,0.1,0,0.1,0.1
			l12.6,6.7c0.4,0.2,0.6,0.7,0.4,1.1C328.4,24.5,328.1,24.7,327.7,24.7z"
      fill="currentColor"
    />
    <path
      d="M369.3,51.4c-0.2,0-0.3,0-0.5-0.1l-41.6-26.7c-0.4-0.3-0.5-0.8-0.3-1.2c0.2-0.4,0.7-0.6,1.2-0.4l29.8,14.7
			c0.1,0,0.2,0.1,0.2,0.2l11.8,12c0.3,0.3,0.3,0.8,0.1,1.2C369.8,51.3,369.6,51.4,369.3,51.4z M341.4,31.6l21.8,14l-6.2-6.3
			L341.4,31.6z"
      fill="currentColor"
    />
    <path
      d="M394.4,69.3c-0.2,0-0.4-0.1-0.5-0.2l-25.1-17.9c0,0-0.1-0.1-0.1-0.1l-11.8-12c-0.3-0.3-0.3-0.9,0-1.2
			c0.3-0.3,0.8-0.4,1.2-0.1l36.9,29.9c0.4,0.3,0.4,0.8,0.1,1.2C394.9,69.2,394.6,69.3,394.4,69.3z M369.9,49.9l1.7,1.2l-2.5-2
			L369.9,49.9z"
      fill="currentColor"
    />
    <path
      d="M30,123.6c-0.1,0-0.3,0-0.4-0.1c-0.4-0.2-0.5-0.7-0.4-1.1l9-19.4c0-0.1,0.1-0.2,0.2-0.3l16.1-16c0.3-0.3,0.8-0.3,1.2,0
			c0.3,0.3,0.4,0.8,0.1,1.2l-25.1,35.4C30.5,123.5,30.3,123.6,30,123.6z M39.7,103.8l-4.9,10.6l13.7-19.3L39.7,103.8z"
      fill="currentColor"
    />
    <path
      d="M211.2,5.8l-19.4-1.1c-0.5,0-0.8-0.4-0.8-0.9s0.4-0.9,0.8-0.9l48.6-3c0.5-0.1,0.9,0.3,0.9,0.8c0,0.5-0.3,0.9-0.8,1
			L211.2,5.8z M206.9,3.8l4.2,0.2l6.4-0.9L206.9,3.8z"
      fill="currentColor"
    />
    <path
      d="M55.1,88.2c-0.2,0-0.4-0.1-0.6-0.2c-0.3-0.3-0.4-0.8-0.2-1.2l11.5-18.1c0.1-0.1,0.2-0.2,0.3-0.3l19.3-11.8
			c0.4-0.2,0.9-0.1,1.2,0.2c0.3,0.4,0.2,0.9-0.1,1.2L55.7,88C55.6,88.2,55.3,88.2,55.1,88.2z M67.3,69.9l-7.4,11.5l19.7-19.1
			L67.3,69.9z"
      fill="currentColor"
    />
    <path
      d="M66.6,70.2c-0.3,0-0.5-0.1-0.7-0.4c-0.3-0.4-0.2-0.9,0.2-1.2L104,37.5c0.4-0.3,0.9-0.3,1.2,0.1c0.3,0.3,0.3,0.9,0,1.2
			L86.6,58.1l-19.5,12C67,70.1,66.8,70.2,66.6,70.2z M93.4,48.5L77.2,61.8l8.3-5.1L93.4,48.5z"
      fill="currentColor"
    />
    <path
      d="M149.2,16.4c-0.4,0-0.8-0.3-0.9-0.7c-0.1-0.4,0.2-0.9,0.6-1L191.6,3c0.4-0.1,0.9,0.1,1.1,0.6c0.2,0.4-0.1,0.9-0.5,1.1
			l-22.8,9.7c-0.1,0-0.2,0.1-0.3,0.1L149.2,16.4C149.3,16.4,149.3,16.4,149.2,16.4z M179.5,8.2l-19.9,5.5l9.3-0.9L179.5,8.2z"
      fill="currentColor"
    />
    <path
      d="M169,14.4c-0.4,0-0.7-0.2-0.8-0.6c-0.1-0.4,0.1-0.9,0.5-1.1l22.8-9.7c0.1-0.1,0.3-0.1,0.4-0.1l19.2,1.1
			c0.4,0,0.8,0.4,0.8,0.8c0,0.4-0.3,0.8-0.7,0.9l-42,8.6C169.1,14.4,169.1,14.4,169,14.4z M192,4.8l-14.5,6.2l26.8-5.5L192,4.8z"
      fill="currentColor"
    />
    <path
      d="M403.2,85.8c-0.2,0-0.5-0.1-0.6-0.3l-33.9-34.4c-0.3-0.3-0.3-0.8,0-1.2c0.3-0.4,0.8-0.4,1.2-0.1l25.1,17.9
			c0.1,0.1,0.2,0.2,0.3,0.3l8.8,16.5c0.2,0.4,0.1,0.9-0.3,1.1C403.5,85.8,403.4,85.8,403.2,85.8z M377,57.1L399.5,80l-5.9-11
			L377,57.1z"
      fill="currentColor"
    />
    <path
      d="M424.1,106.3c-0.2,0-0.4-0.1-0.6-0.3l-20.9-20.5c-0.1-0.1-0.1-0.1-0.2-0.2l-8.8-16.5c-0.2-0.4-0.1-0.9,0.3-1.1
			c0.4-0.3,0.9-0.2,1.2,0.2l29.7,37c0.3,0.4,0.3,0.9-0.1,1.2C424.5,106.2,424.3,106.3,424.1,106.3z M403.9,84.4l10.4,10.1
			l-14.7-18.3L403.9,84.4z"
      fill="currentColor"
    />
    <path
      d="M104.6,39.1c-0.3,0-0.7-0.2-0.8-0.5c-0.2-0.4,0-0.9,0.4-1.1l44.7-22.7c0.4-0.2,0.9-0.1,1.2,0.3c0.2,0.4,0.1,0.9-0.3,1.2
			l-21.1,14.4c-0.1,0-0.1,0.1-0.2,0.1l-23.6,8.3C104.8,39.1,104.7,39.1,104.6,39.1z M137.6,22.4L116.7,33l11-3.9L137.6,22.4z"
      fill="currentColor"
    />
    <path
      d="M85.9,58.3c-0.3,0-0.5-0.1-0.7-0.3c-0.3-0.3-0.3-0.8,0-1.2l18.6-19.2c0.1-0.1,0.2-0.2,0.3-0.2l23.6-8.3
			c0.4-0.2,0.9,0,1.1,0.4c0.2,0.4,0.1,0.9-0.3,1.1L86.4,58.2C86.3,58.3,86.1,58.3,85.9,58.3z M105,39L92,52.5l29.6-19.3L105,39z"
      fill="currentColor"
    />
    <path
      d="M128.1,30.8c-0.3,0-0.6-0.2-0.8-0.5c-0.2-0.4-0.1-0.9,0.3-1.1l21.1-14.4c0.1-0.1,0.3-0.1,0.4-0.1l19.8-2
			c0.5,0,0.8,0.2,0.9,0.7c0.1,0.4-0.1,0.9-0.5,1l-40.9,16.4C128.4,30.8,128.3,30.8,128.1,30.8z M149.6,16.4l-14.3,9.8L162.9,15
			L149.6,16.4z"
      fill="currentColor"
    />
    <path
      d="M260.3,8.1C260.3,8.1,260.3,8.1,260.3,8.1L211,5.8c-0.5,0-0.8-0.4-0.8-0.8c0-0.5,0.3-0.8,0.8-0.9L240.3,0
			c0.1,0,0.3,0,0.4,0l19.8,6.3c0.4,0.1,0.7,0.6,0.6,1C261.1,7.8,260.7,8.1,260.3,8.1z M220.6,4.5L253.7,6l-13.3-4.3L220.6,4.5z"
      fill="currentColor"
    />
    <path
      d="M288.7,9.3L288.7,9.3l-28.4-1.2c-0.1,0-0.2,0-0.2,0l-19.8-6.3c-0.4-0.1-0.7-0.6-0.6-1c0.1-0.4,0.6-0.7,1-0.7l48.2,7.5
			c0.5,0.1,0.8,0.5,0.7,1C289.5,8.9,289.1,9.3,288.7,9.3z M260.4,6.4l12.8,0.5l-21.8-3.4L260.4,6.4z"
      fill="currentColor"
    />
    <path
      d="M445.4,148.8c-0.3,0-0.6-0.1-0.7-0.4l-17.2-26.5c-0.1-0.1-0.1-0.2-0.1-0.3l-4.1-16c-0.1-0.4,0.1-0.9,0.5-1
			c0.4-0.2,0.9,0,1.1,0.4l21.3,42.5c0.2,0.4,0.1,0.9-0.3,1.2C445.7,148.7,445.5,148.8,445.4,148.8z M429,121.1l8.5,13.1l-10.5-21
			L429,121.1z"
      fill="currentColor"
    />
    <path
      d="M428.2,122.3c-0.3,0-0.6-0.1-0.7-0.4l-25.1-36.5c-0.3-0.4-0.2-0.9,0.2-1.2c0.3-0.3,0.9-0.3,1.2,0l20.9,20.4
			c0.1,0.1,0.2,0.3,0.2,0.4l4.1,16c0.1,0.4-0.1,0.8-0.5,1C428.5,122.3,428.3,122.3,428.2,122.3z M409,91.9l17.2,25l-2.8-11L409,91.9
			z"
      fill="currentColor"
    />
    <path
      d="M445.5,168.1c-0.4,0-0.7-0.2-0.8-0.6l-17.3-45.7c-0.2-0.4,0-0.9,0.4-1.1c0.4-0.2,0.9-0.1,1.1,0.3l17.2,26.5
			c0.1,0.1,0.1,0.3,0.1,0.5l0.1,19.3c0,0.4-0.3,0.8-0.7,0.9C445.6,168.1,445.6,168.1,445.5,168.1z M431.9,128.8l12.7,33.5l-0.1-14.1
			L431.9,128.8z"
      fill="currentColor"
    />
    <path
      d="M457.3,194.9c-0.3,0-0.7-0.2-0.8-0.5l-11.8-26.9c0-0.1-0.1-0.2-0.1-0.4l-0.1-19.3c0-0.4,0.3-0.8,0.8-0.9
			c0.5-0.1,0.9,0.2,1,0.6l11.9,46.1c0.1,0.4-0.1,0.9-0.6,1.1C457.5,194.9,457.4,194.9,457.3,194.9z M446.4,167l7.4,16.8l-7.4-28.8
			L446.4,167z"
      fill="currentColor"
    />
    <path
      d="M327.7,24.7c0,0-0.1,0-0.1,0l-29-4.2c-0.2,0-0.4-0.1-0.5-0.3L288,9c-0.3-0.3-0.3-0.8-0.1-1.1c0.2-0.3,0.7-0.5,1-0.3
			L328,23c0.4,0.2,0.6,0.6,0.5,1C328.5,24.4,328.1,24.7,327.7,24.7z M299.2,18.8l21.2,3.1l-28.5-11.3L299.2,18.8z"
      fill="currentColor"
    />
    <path
      d="M298.7,20.5c-0.1,0-0.2,0-0.3,0L260,8.1c-0.4-0.1-0.7-0.6-0.6-1c0.1-0.4,0.5-0.7,0.9-0.7l28.4,1.2c0.2,0,0.5,0.1,0.6,0.3
			L299.4,19c0.3,0.3,0.3,0.7,0.1,1.1C299.3,20.3,299,20.5,298.7,20.5z M266.7,8.4l29.2,9.4l-7.6-8.5L266.7,8.4z"
      fill="currentColor"
    />
    <path
      d="M452.4,215.9C452.4,215.9,452.4,215.9,452.4,215.9c-0.5,0-0.8-0.3-0.9-0.8l-6.9-47.8c-0.1-0.4,0.2-0.8,0.6-1
			c0.4-0.1,0.9,0.1,1,0.5l11.8,26.9c0.1,0.2,0.1,0.4,0,0.6l-4.9,20.9C453.2,215.6,452.8,215.9,452.4,215.9z M447.3,173.4l5.3,36.8
			l3.8-16.1L447.3,173.4z"
      fill="currentColor"
    />
    <path
      d="M11.8,169.8c-0.1,0-0.3,0-0.4-0.1c-0.4-0.2-0.6-0.7-0.4-1.1l18.1-46.2c0.2-0.4,0.6-0.6,1-0.5c0.4,0.1,0.7,0.5,0.7,0.9
			L28.7,146c0,0.2-0.1,0.3-0.2,0.4l-16,23.1C12.4,169.7,12.1,169.8,11.8,169.8z M28.5,128.9l-13.1,33.3L27,145.6L28.5,128.9z"
      fill="currentColor"
    />
    <path
      d="M369.3,51.4c-0.1,0-0.2,0-0.3,0l-33.2-10.9c-0.2-0.1-0.4-0.2-0.5-0.4l-8.4-15.8c-0.2-0.4-0.1-0.8,0.2-1.1
			c0.3-0.3,0.7-0.3,1.1-0.1l41.6,26.7c0.4,0.2,0.5,0.7,0.3,1.1C369.9,51.2,369.6,51.4,369.3,51.4z M336.8,38.9l26.3,8.6l-33-21.2
			L336.8,38.9z"
      fill="currentColor"
    />
    <path
      d="M336.1,40.5c-0.1,0-0.3,0-0.4-0.1l-37.4-20.1c-0.4-0.2-0.5-0.6-0.4-1c0.1-0.4,0.6-0.7,1-0.6l29,4.2c0.3,0,0.5,0.2,0.6,0.5
			l8.4,15.8c0.2,0.3,0.1,0.8-0.2,1C336.6,40.4,336.4,40.5,336.1,40.5z M303.6,21.2L334,37.5l-6.9-12.9L303.6,21.2z"
      fill="currentColor"
    />
    <path
      d="M27.8,146.8c-0.1,0-0.2,0-0.3,0c-0.4-0.1-0.6-0.5-0.6-0.9l2.2-23.1c0-0.3,0.2-0.5,0.4-0.7l19.9-12.2
			c0.4-0.2,0.8-0.2,1.1,0.1c0.3,0.3,0.3,0.7,0.1,1.1l-22.1,35.3C28.4,146.6,28.1,146.8,27.8,146.8z M30.8,123.3l-1.8,19l18.1-29
			L30.8,123.3z"
      fill="currentColor"
    />
    <path
      d="M30,123.6c-0.2,0-0.5-0.1-0.6-0.3c-0.3-0.3-0.3-0.8-0.1-1.1l25.1-35.4c0.2-0.3,0.7-0.5,1.1-0.3c0.4,0.2,0.6,0.6,0.5,1
			l-5.2,23.2c-0.1,0.2-0.2,0.4-0.4,0.6l-19.9,12.2C30.3,123.6,30.1,123.6,30,123.6z M53.3,91.4l-20.1,28.3l15.9-9.8L53.3,91.4z"
      fill="currentColor"
    />
    <path
      d="M230.9,14.6c-0.1,0-0.2,0-0.4-0.1l-19.9-8.7c-0.4-0.2-0.6-0.6-0.5-1c0.1-0.4,0.5-0.7,0.9-0.7l49.3,2.3
			c0.4,0,0.8,0.4,0.8,0.8c0,0.4-0.3,0.8-0.7,0.9l-29.4,6.5C231.1,14.5,231,14.6,230.9,14.6z M215.7,6l15.3,6.7l22.6-5L215.7,6z"
      fill="currentColor"
    />
    <path
      d="M49.9,111.4c-0.1,0-0.3,0-0.4-0.1c-0.4-0.2-0.5-0.6-0.5-1l5.2-23.2c0.1-0.3,0.3-0.5,0.6-0.6l23-8.1c0.4-0.1,0.8,0,1,0.3
			c0.2,0.3,0.2,0.8-0.1,1.1l-28.2,31.2C50.4,111.3,50.1,111.4,49.9,111.4z M55.9,88l-4.4,19.4l23.7-26.2L55.9,88z"
      fill="currentColor"
    />
    <path
      d="M55.1,88.2c-0.3,0-0.6-0.2-0.7-0.4c-0.2-0.4-0.2-0.8,0.1-1.1l30.8-29.9c0.3-0.3,0.7-0.3,1.1-0.1c0.3,0.2,0.5,0.6,0.4,1
			l-7.8,21.8c-0.1,0.2-0.3,0.4-0.5,0.5l-23,8.1C55.3,88.2,55.2,88.2,55.1,88.2z M83.8,60.7L58.6,85.2l18.8-6.6L83.8,60.7z"
      fill="currentColor"
    />
    <path
      d="M189.3,20.7c-0.1,0-0.2,0-0.3,0l-20.3-6.3c-0.4-0.1-0.6-0.5-0.6-0.9c0-0.4,0.3-0.7,0.7-0.8l42-8.6c0.4-0.1,0.8,0.1,1,0.5
			c0.2,0.4,0,0.8-0.3,1.1l-21.8,14.9C189.6,20.6,189.4,20.7,189.3,20.7z M172.5,13.7l16.6,5.1l17.8-12.2L172.5,13.7z"
      fill="currentColor"
    />
    <path
      d="M189.3,20.7c-0.4,0-0.7-0.2-0.8-0.6c-0.1-0.4,0-0.8,0.3-1l21.8-14.9c0.2-0.2,0.6-0.2,0.8-0.1l19.9,8.7
			c0.4,0.2,0.6,0.5,0.5,0.9c-0.1,0.4-0.4,0.7-0.7,0.8l-41.7,6.1C189.4,20.7,189.3,20.7,189.3,20.7z M211.1,5.9l-18.2,12.5l34.9-5.1
			L211.1,5.9z"
      fill="currentColor"
    />
    <path
      d="M6.7,210.5c-0.1,0-0.2,0-0.3,0c-0.4-0.1-0.6-0.5-0.6-0.9l5.1-40.7c0-0.4,0.3-0.7,0.7-0.8c0.4-0.1,0.8,0.1,0.9,0.5
			l8.7,16.3c0.1,0.3,0.1,0.6,0,0.8L7.5,210.1C7.4,210.3,7.1,210.5,6.7,210.5z M12.4,171.8l-4.2,33.5l11.3-20.1L12.4,171.8z"
      fill="currentColor"
    />
    <path
      d="M20.5,186.1c-0.3,0-0.6-0.2-0.8-0.5l-8.7-16.3c-0.2-0.3-0.1-0.6,0.1-0.9l16-23.1c0.2-0.3,0.7-0.5,1.1-0.3
			c0.4,0.2,0.6,0.6,0.5,1l-7.3,39.4c-0.1,0.4-0.4,0.7-0.7,0.7C20.6,186.1,20.6,186.1,20.5,186.1z M12.9,169l7.2,13.6l6.1-32.9
			L12.9,169z"
      fill="currentColor"
    />
    <path
      d="M374.7,71.8c-0.2,0-0.4-0.1-0.6-0.2l-38.6-31.2c-0.3-0.3-0.4-0.7-0.2-1.1c0.2-0.4,0.6-0.6,1-0.4l33.2,10.9
			c0.3,0.1,0.5,0.3,0.6,0.6l5.4,20.4c0.1,0.4-0.1,0.8-0.4,1C375,71.7,374.9,71.8,374.7,71.8z M340.4,42l32.8,26.5l-4.6-17.3
			L340.4,42z"
      fill="currentColor"
    />
    <path
      d="M403.2,85.8c-0.1,0-0.3,0-0.4-0.1l-28.5-14.1c-0.2-0.1-0.4-0.3-0.5-0.6l-5.4-20.4c-0.1-0.4,0.1-0.8,0.4-1
			c0.3-0.2,0.8-0.1,1.1,0.1l33.9,34.4c0.3,0.3,0.3,0.8,0.1,1.1C403.7,85.7,403.4,85.8,403.2,85.8z M375.5,70.3l23.4,11.6L371,53.5
			L375.5,70.3z"
      fill="currentColor"
    />
    <path
      d="M445.5,168.1c-0.3,0-0.5-0.1-0.7-0.3l-19.9-26c-0.1-0.2-0.2-0.4-0.2-0.6l2.6-19.7c0.1-0.4,0.4-0.7,0.8-0.8
			c0.4,0,0.8,0.2,0.9,0.6l17.3,45.7c0.2,0.4,0,0.9-0.4,1.1C445.8,168,445.6,168.1,445.5,168.1z M426.5,140.9l16,21L428.6,125
			L426.5,140.9z"
      fill="currentColor"
    />
    <path
      d="M78.1,80.2c-0.2,0-0.4-0.1-0.5-0.2c-0.3-0.2-0.4-0.6-0.3-1l7.8-21.8c0.1-0.3,0.4-0.5,0.7-0.6l25.6-4.3
			c0.4-0.1,0.8,0.1,1,0.5c0.2,0.4,0.1,0.8-0.3,1L78.7,80C78.5,80.1,78.3,80.2,78.1,80.2z M86.6,58.2L80,76.7l28.3-22.1L86.6,58.2z"
      fill="currentColor"
    />
    <path
      d="M85.9,58.3c-0.4,0-0.7-0.2-0.8-0.6c-0.1-0.4,0-0.8,0.3-1.1l42.2-27.5c0.3-0.2,0.8-0.2,1.1,0.1c0.3,0.3,0.3,0.8,0.1,1.1
			l-16.6,23.2c-0.1,0.2-0.3,0.3-0.6,0.4l-25.6,4.3C86,58.3,86,58.3,85.9,58.3z M124.7,33.2L89.9,55.9l21.1-3.5L124.7,33.2z"
      fill="currentColor"
    />
    <path
      d="M111.5,54.1c-0.2,0-0.5-0.1-0.7-0.3c-0.3-0.3-0.3-0.8-0.1-1.1l16.6-23.2c0.2-0.3,0.5-0.4,0.8-0.4l20.9,3.2
			c0.4,0.1,0.7,0.3,0.7,0.7s-0.1,0.7-0.5,0.9l-37.5,20C111.8,54,111.7,54.1,111.5,54.1z M128.6,30.9l-14.1,19.7l31.8-17L128.6,30.9z
			"
      fill="currentColor"
    />
    <path
      d="M149,34c0,0-0.1,0-0.1,0L128,30.8c-0.4-0.1-0.7-0.4-0.7-0.8c0-0.4,0.2-0.8,0.5-0.9l40.9-16.4c0.4-0.2,0.8,0,1.1,0.3
			c0.2,0.4,0.2,0.8-0.1,1.1l-20,19.6C149.5,33.9,149.2,34,149,34z M131.5,29.6l17.2,2.6L165.2,16L131.5,29.6z"
      fill="currentColor"
    />
    <path
      d="M149,34c-0.3,0-0.6-0.2-0.7-0.4c-0.2-0.4-0.2-0.8,0.1-1.1l20-19.6c0.2-0.2,0.6-0.3,0.9-0.2l20.3,6.3
			c0.4,0.1,0.6,0.4,0.6,0.8c0,0.4-0.2,0.7-0.6,0.8L149.3,34C149.2,34,149.1,34,149,34z M169.2,14.6l-16.9,16.6l34-11.3L169.2,14.6z"
      fill="currentColor"
    />
    <path
      d="M428.2,122.3c-0.2,0-0.4-0.1-0.5-0.2l-25.4-17.9c-0.2-0.2-0.4-0.4-0.4-0.7l0.4-18.6c0-0.4,0.3-0.7,0.6-0.8
			c0.4-0.1,0.8,0,1,0.3l25.1,36.5c0.2,0.3,0.2,0.8-0.1,1.1C428.7,122.2,428.4,122.3,428.2,122.3z M403.7,103.1l21.1,14.8L404,87.7
			L403.7,103.1z"
      fill="currentColor"
    />
    <path
      d="M425.6,142c-0.3,0-0.6-0.2-0.8-0.4L402,104c-0.2-0.4-0.2-0.8,0.1-1.1c0.3-0.3,0.8-0.3,1.1-0.1l25.4,17.9
			c0.3,0.2,0.4,0.5,0.4,0.8l-2.6,19.7c0,0.4-0.3,0.7-0.7,0.7C425.7,142,425.7,142,425.6,142z M405.7,106.7l19.4,31.9l2.2-16.7
			L405.7,106.7z"
      fill="currentColor"
    />
    <path
      d="M402.8,104.4c-0.3,0-0.5-0.1-0.7-0.3L374,71.5c-0.3-0.3-0.3-0.8,0-1.1c0.3-0.3,0.7-0.4,1.1-0.2l28.5,14.1
			c0.3,0.2,0.5,0.5,0.5,0.8l-0.4,18.6c0,0.4-0.2,0.7-0.6,0.8C403,104.4,402.9,104.4,402.8,104.4z M378.2,73.6l23.8,27.6l0.3-15.7
			L378.2,73.6z"
      fill="currentColor"
    />
    <path
      d="M437.9,189.6C437.9,189.6,437.9,189.6,437.9,189.6c-0.4,0-0.8-0.3-0.9-0.7l-12.3-47.6c-0.1-0.4,0.1-0.8,0.5-1
			c0.4-0.2,0.8-0.1,1.1,0.3l19.9,26c0.2,0.2,0.2,0.5,0.1,0.8l-7.6,21.6C438.6,189.4,438.3,189.6,437.9,189.6z M427.6,145.1
			l10.5,40.6l6.5-18.4L427.6,145.1z"
      fill="currentColor"
    />
    <path
      d="M452.4,215.9c-0.3,0-0.6-0.2-0.8-0.5l-14.5-26.2c-0.1-0.2-0.1-0.5-0.1-0.7l7.6-21.6c0.1-0.4,0.5-0.6,0.9-0.6
			c0.4,0,0.7,0.3,0.8,0.7l6.9,47.8c0.1,0.4-0.2,0.8-0.6,1C452.6,215.8,452.5,215.9,452.4,215.9z M438.9,188.7l12,21.7l-5.7-39.5
			L438.9,188.7z"
      fill="currentColor"
    />
    <path
      d="M269,24.4c-0.3,0-0.6-0.2-0.8-0.5l-8.7-16.3c-0.2-0.3-0.1-0.7,0.1-1c0.2-0.3,0.6-0.4,0.9-0.3L299,18.8
			c0.4,0.1,0.6,0.5,0.6,0.9c0,0.4-0.4,0.7-0.8,0.8l-29.8,3.9C269,24.4,269,24.4,269,24.4z M262.1,8.7l7.4,13.9l25.3-3.3L262.1,8.7z"
      fill="currentColor"
    />
    <path
      d="M269,24.4c-0.1,0-0.1,0-0.2,0l-38-9.8c-0.4-0.1-0.7-0.5-0.7-0.9c0-0.4,0.3-0.8,0.7-0.8l29.4-6.5c0.4-0.1,0.8,0.1,1,0.4
			l8.7,16.3c0.2,0.3,0.1,0.7-0.1,1C269.5,24.3,269.2,24.4,269,24.4z M234.7,13.7l32.5,8.4l-7.4-14L234.7,13.7z"
      fill="currentColor"
    />
    <path
      d="M20.4,227.1c-0.3,0-0.5-0.1-0.7-0.3L6.1,210.2c-0.2-0.3-0.3-0.7-0.1-1l13.8-24.4c0.2-0.3,0.6-0.5,1-0.4
			c0.4,0.1,0.7,0.5,0.7,0.9l-0.1,40.9c0,0.4-0.2,0.7-0.6,0.8C20.6,227,20.5,227.1,20.4,227.1z M7.8,209.5l11.7,14.2l0.1-35.1
			L7.8,209.5z"
      fill="currentColor"
    />
    <path
      d="M305.7,41.3c-0.4,0-0.7-0.2-0.8-0.6l-7-20.9c-0.1-0.3,0-0.7,0.3-1c0.3-0.2,0.7-0.3,1-0.1l37.4,20.1c0.3,0.2,0.5,0.6,0.4,1
			c-0.1,0.4-0.4,0.7-0.8,0.7L305.7,41.3L305.7,41.3z M300.3,21.4l6.1,18.1l26.5-0.7L300.3,21.4z"
      fill="currentColor"
    />
    <path
      d="M305.7,41.3c-0.1,0-0.3,0-0.4-0.1l-36.8-16.9c-0.4-0.2-0.6-0.5-0.5-0.9c0.1-0.4,0.4-0.7,0.8-0.7l29.8-3.9
			c0.4-0.1,0.8,0.2,0.9,0.6l7,20.9c0.1,0.3,0,0.7-0.2,0.9C306.2,41.2,305.9,41.3,305.7,41.3z M272.1,24l32.2,14.8l-6.1-18.2
			L272.1,24z"
      fill="currentColor"
    />
    <path
      d="M435.7,230.5c-0.1,0-0.3,0-0.4-0.1c-0.3-0.2-0.5-0.5-0.5-0.8l2.3-40.8c0-0.4,0.3-0.7,0.7-0.8c0.4-0.1,0.8,0.1,1,0.4
			l14.5,26.2c0.2,0.4,0.1,0.8-0.2,1.1l-16.7,14.6C436.1,230.4,435.9,230.5,435.7,230.5z M438.6,191.9l-2,35.7l14.6-12.8L438.6,191.9
			z"
      fill="currentColor"
    />
    <path
      d="M20.5,186.1c-0.1,0-0.2,0-0.3-0.1c-0.4-0.2-0.6-0.6-0.5-1l7.3-39.4c0-0.2,0.2-0.4,0.4-0.6c0.2-0.1,0.4-0.2,0.7-0.1
			l16.2,3.3c0.3,0.1,0.5,0.3,0.6,0.5c0.1,0.3,0.1,0.6-0.1,0.8l-23.5,36.1C21.1,186,20.8,186.1,20.5,186.1z M28.5,146.9l-6.3,34.2
			l20.4-31.3L28.5,146.9z"
      fill="currentColor"
    />
    <path
      d="M44,150c-0.1,0-0.1,0-0.2,0l-16.2-3.3c-0.3-0.1-0.5-0.2-0.6-0.5c-0.1-0.3-0.1-0.6,0.1-0.8l22.1-35.3
			c0.2-0.4,0.7-0.5,1-0.4c0.4,0.1,0.6,0.5,0.6,1l-5.9,38.6c0,0.2-0.2,0.4-0.4,0.6C44.4,150,44.2,150,44,150z M29.2,145.3l14.1,2.8
			l5.1-33.5L29.2,145.3z"
      fill="currentColor"
    />
    <path
      d="M225.1,32.2c-0.3,0-0.5-0.1-0.7-0.3c-0.2-0.2-0.3-0.6-0.2-0.9l5.8-17.6c0.1-0.4,0.6-0.7,1.1-0.6l38,9.8
			c0.4,0.1,0.7,0.5,0.7,0.9c0,0.4-0.3,0.8-0.7,0.8l-43.9,7.8C225.2,32.2,225.1,32.2,225.1,32.2z M231.5,14.7l-5.1,15.5l38.5-6.8
			L231.5,14.7z"
      fill="currentColor"
    />
    <path
      d="M225.1,32.2c-0.1,0-0.2,0-0.3,0L189,20.7c-0.4-0.1-0.6-0.5-0.6-0.9c0-0.4,0.3-0.7,0.7-0.8l41.7-6.1
			c0.3-0.1,0.6,0.1,0.8,0.3c0.2,0.2,0.3,0.6,0.2,0.8l-5.8,17.6C225.8,32,225.5,32.2,225.1,32.2z M193.1,20.1l31.4,10.1l5.1-15.5
			L193.1,20.1z"
      fill="currentColor"
    />
    <path
      d="M374.7,71.8c-0.1,0-0.1,0-0.2,0l-34.7-7.1c-0.4-0.1-0.6-0.4-0.7-0.7l-3.8-24.2c-0.1-0.4,0.1-0.7,0.4-0.9
			c0.3-0.2,0.7-0.1,1,0.1l38.6,31.2c0.3,0.3,0.4,0.7,0.2,1.1C375.4,71.6,375,71.8,374.7,71.8z M340.7,63.1l30.6,6.2l-34-27.5
			L340.7,63.1z"
      fill="currentColor"
    />
    <path
      d="M340,64.7c-0.2,0-0.3-0.1-0.5-0.2l-34.2-23.4c-0.3-0.2-0.5-0.6-0.3-1c0.1-0.4,0.4-0.6,0.8-0.6l30.4-0.8h0
			c0.4,0,0.8,0.3,0.9,0.7l3.8,24.2c0.1,0.3-0.1,0.7-0.4,0.9C340.3,64.7,340.1,64.7,340,64.7z M308.5,41.3L338.8,62l-3.4-21.4
			L308.5,41.3z"
      fill="currentColor"
    />
    <path
      d="M44,150c-0.1,0-0.2,0-0.3-0.1c-0.4-0.2-0.6-0.5-0.5-0.9l5.9-38.6c0-0.2,0.2-0.4,0.4-0.6c0.2-0.1,0.4-0.2,0.7-0.1l19.4,3.5
			c0.3,0.1,0.5,0.3,0.7,0.5c0.1,0.3,0.1,0.6-0.1,0.8l-25.3,35.2C44.6,149.9,44.3,150,44,150z M50.6,111.6l-5.2,34.1l22.3-31.1
			L50.6,111.6z"
      fill="currentColor"
    />
    <path
      d="M69.3,114.9c0,0-0.1,0-0.2,0l-19.4-3.5c-0.3-0.1-0.6-0.3-0.7-0.6c-0.1-0.3,0-0.6,0.2-0.9l28.2-31.2
			c0.3-0.3,0.7-0.4,1.1-0.2c0.4,0.2,0.5,0.6,0.4,1l-8.8,34.7C70,114.6,69.7,114.9,69.3,114.9z M51.6,109.9l17,3l7.7-30.5L51.6,109.9
			z"
      fill="currentColor"
    />
    <path
      d="M437.9,189.6c-0.2,0-0.5-0.1-0.7-0.3l-21.5-24.8c-0.2-0.2-0.3-0.6-0.1-0.9l9.2-22.8c0.1-0.4,0.5-0.6,0.9-0.5
			c0.4,0,0.7,0.3,0.8,0.7l12.3,47.6c0.1,0.4-0.1,0.8-0.4,1C438.2,189.6,438.1,189.6,437.9,189.6z M417.4,163.8l18.7,21.6L425.4,144
			L417.4,163.8z"
      fill="currentColor"
    />
    <path
      d="M183.1,41c-0.2,0-0.5-0.1-0.6-0.3c-0.2-0.2-0.3-0.6-0.2-0.8l6.1-20.3c0.1-0.2,0.2-0.4,0.4-0.5c0.2-0.1,0.5-0.1,0.7-0.1
			l35.8,11.5c0.4,0.1,0.6,0.5,0.6,0.9c0,0.4-0.3,0.7-0.7,0.8l-42,8.8C183.3,41,183.2,41,183.1,41z M189.9,20.9l-5.5,18l37.3-7.8
			L189.9,20.9z"
      fill="currentColor"
    />
    <path
      d="M183.1,41c-0.1,0-0.1,0-0.2,0l-34.1-7c-0.4-0.1-0.7-0.4-0.7-0.8c0-0.4,0.2-0.8,0.6-0.9L189,19c0.3-0.1,0.7,0,0.9,0.2
			c0.2,0.2,0.3,0.6,0.2,0.9L184,40.4C183.9,40.7,183.5,41,183.1,41z M152.4,32.9l30.1,6.1l5.4-17.9L152.4,32.9z"
      fill="currentColor"
    />
    <path
      d="M69.3,114.9c-0.1,0-0.3,0-0.4-0.1c-0.3-0.2-0.5-0.6-0.4-1l8.8-34.7c0.1-0.5,0.6-0.8,1-0.6l22,4.9c0.3,0.1,0.6,0.3,0.7,0.6
			c0.1,0.3,0,0.6-0.2,0.9l-30.8,29.8C69.7,114.8,69.5,114.9,69.3,114.9z M78.8,80.3l-7.8,30.9l27.4-26.5L78.8,80.3z"
      fill="currentColor"
    />
    <path
      d="M100.1,85.1c-0.1,0-0.1,0-0.2,0l-22-4.9c-0.3-0.1-0.6-0.3-0.7-0.7c-0.1-0.3,0-0.7,0.3-0.9L111,52.5c0.3-0.2,0.7-0.2,1.1,0
			c0.3,0.2,0.4,0.6,0.3,1l-11.4,31C100.8,84.9,100.5,85.1,100.1,85.1z M80.1,78.8l19.5,4.3l10.1-27.4L80.1,78.8z"
      fill="currentColor"
    />
    <path
      d="M402.8,104.4c-0.1,0-0.2,0-0.3,0l-32.3-10.6c-0.4-0.1-0.7-0.6-0.6-1l4.2-22c0.1-0.3,0.3-0.6,0.6-0.7
			c0.3-0.1,0.7,0,0.9,0.3l28.1,32.6c0.3,0.3,0.3,0.7,0.1,1.1C403.4,104.3,403.1,104.4,402.8,104.4z M371.5,92.3l28.6,9.4l-24.8-28.8
			L371.5,92.3z"
      fill="currentColor"
    />
    <path
      d="M370.5,93.8c-0.2,0-0.4-0.1-0.6-0.2l-30.5-29.1c-0.3-0.3-0.4-0.7-0.2-1c0.2-0.3,0.6-0.5,1-0.5l34.7,7.1
			c0.5,0.1,0.8,0.6,0.7,1l-4.2,22c-0.1,0.3-0.3,0.6-0.6,0.7C370.7,93.8,370.6,93.8,370.5,93.8z M342.8,65.3l27.1,25.9l3.8-19.6
			L342.8,65.3z"
      fill="currentColor"
    />
    <path
      d="M39.2,191.4c-0.1,0-0.2,0-0.2,0l-18.7-5.3c-0.3-0.1-0.5-0.3-0.6-0.5c-0.1-0.3-0.1-0.6,0.1-0.8l23.5-36.1
			c0.2-0.3,0.7-0.5,1-0.3c0.4,0.1,0.6,0.5,0.6,0.9l-4.8,41.4c0,0.3-0.2,0.5-0.4,0.6C39.5,191.4,39.4,191.4,39.2,191.4z M21.9,184.7
			l16.5,4.7l4.3-36.7L21.9,184.7z"
      fill="currentColor"
    />
    <path
      d="M20.4,227.1c-0.1,0-0.1,0-0.2,0c-0.4-0.1-0.7-0.5-0.7-0.9l0.1-40.9c0-0.3,0.1-0.5,0.4-0.7c0.2-0.2,0.5-0.2,0.8-0.1
			l18.7,5.3c0.3,0.1,0.5,0.3,0.6,0.5c0.1,0.2,0.1,0.5,0,0.8l-18.8,35.6C21,226.9,20.7,227.1,20.4,227.1z M21.4,186.4l-0.1,36.2
			l16.6-31.5L21.4,186.4z"
      fill="currentColor"
    />
    <path
      d="M100.1,85.1c-0.2,0-0.4-0.1-0.5-0.2c-0.3-0.2-0.4-0.6-0.3-1l11.4-31c0.1-0.4,0.5-0.6,0.9-0.6l30.8,3.5
			c0.4,0,0.7,0.3,0.8,0.7c0.1,0.4-0.1,0.7-0.4,0.9l-42.2,27.5C100.5,85,100.3,85.1,100.1,85.1z M112.1,54.1L101.9,82l38-24.7
			L112.1,54.1z"
      fill="currentColor"
    />
    <path
      d="M142.4,57.6c-0.2,0-0.4-0.1-0.6-0.2c-0.2-0.2-0.3-0.6-0.3-0.9l6.6-23.6c0.1-0.4,0.6-0.7,1-0.6l34.1,7
			c0.4,0.1,0.7,0.4,0.7,0.8c0,0.4-0.2,0.7-0.5,0.9l-40.8,16.6C142.6,57.6,142.5,57.6,142.4,57.6z M149.6,34.2l-5.9,21l36.4-14.8
			L149.6,34.2z"
      fill="currentColor"
    />
    <path
      d="M142.4,57.6c0,0-0.1,0-0.1,0l-30.8-3.5c-0.4,0-0.7-0.3-0.8-0.7c-0.1-0.4,0.1-0.8,0.4-0.9l37.5-20c0.3-0.2,0.7-0.1,1,0.1
			c0.3,0.2,0.4,0.6,0.3,0.9L143.2,57C143.1,57.3,142.8,57.6,142.4,57.6z M114.4,52.6l27.3,3.1l5.9-20.9L114.4,52.6z"
      fill="currentColor"
    />
    <path
      d="M425.6,142c-0.1,0-0.3,0-0.4-0.1l-29.4-14.5c-0.4-0.2-0.6-0.6-0.5-1l6.5-23.1c0.1-0.3,0.4-0.6,0.7-0.6
			c0.3-0.1,0.7,0.1,0.9,0.4l22.8,37.6c0.2,0.3,0.2,0.8-0.1,1C426.1,141.9,425.9,142,425.6,142z M397.3,126.2l26,12.9l-20.2-33.3
			L397.3,126.2z"
      fill="currentColor"
    />
    <path
      d="M416.4,164.8c-0.3,0-0.6-0.2-0.8-0.5l-20.2-37.3c-0.2-0.3-0.1-0.8,0.1-1c0.3-0.3,0.7-0.3,1-0.2l29.4,14.5
			c0.4,0.2,0.6,0.7,0.4,1.1l-9.2,22.8C417.1,164.6,416.8,164.8,416.4,164.8C416.5,164.8,416.4,164.8,416.4,164.8z M398.3,128.7
			l18,33.2l8.2-20.3L398.3,128.7z"
      fill="currentColor"
    />
    <path
      d="M396.3,127.5c-0.3,0-0.5-0.1-0.7-0.3l-25.8-33.7c-0.2-0.3-0.2-0.7,0-1c0.2-0.3,0.6-0.4,1-0.3l32.3,10.6
			c0.4,0.1,0.7,0.6,0.6,1.1l-6.5,23.1c-0.1,0.3-0.4,0.6-0.7,0.6C396.4,127.5,396.3,127.5,396.3,127.5z M372.9,94.6l23,30.1l5.8-20.6
			L372.9,94.6z"
      fill="currentColor"
    />
    <path
      d="M263.3,44.7c-0.3,0-0.5-0.1-0.7-0.3c-0.2-0.2-0.2-0.5-0.2-0.8l5.7-20.3c0.1-0.2,0.2-0.5,0.5-0.6c0.2-0.1,0.5-0.1,0.7,0
			l36.8,16.9c0.4,0.2,0.6,0.6,0.5,1c-0.1,0.4-0.4,0.7-0.8,0.7L263.3,44.7C263.4,44.7,263.3,44.7,263.3,44.7z M269.5,24.8l-5,18.1
			l37.8-3L269.5,24.8z"
      fill="currentColor"
    />
    <path
      d="M263.3,44.7c-0.1,0-0.2,0-0.3,0l-38.2-12.5c-0.4-0.1-0.6-0.5-0.6-0.9c0-0.4,0.3-0.7,0.7-0.8l43.9-7.8
			c0.3-0.1,0.6,0.1,0.8,0.3c0.2,0.2,0.3,0.5,0.2,0.8l-5.7,20.3c-0.1,0.2-0.2,0.4-0.4,0.5C263.6,44.7,263.5,44.7,263.3,44.7z
			 M228.7,31.6l34,11.1l5-18.1L228.7,31.6z"
      fill="currentColor"
    />
    <path
      d="M41.9,233.2c-0.1,0-0.2,0-0.2,0L20.1,227c-0.3-0.1-0.5-0.3-0.6-0.5c-0.1-0.2-0.1-0.5,0-0.8l18.8-35.6
			c0.2-0.3,0.6-0.5,1-0.4c0.4,0.1,0.7,0.4,0.7,0.8l2.7,41.8c0,0.3-0.1,0.6-0.3,0.7C42.3,233.1,42.1,233.2,41.9,233.2z M21.7,225.6
			l19.3,5.5l-2.4-37.4L21.7,225.6z"
      fill="currentColor"
    />
    <path
      d="M435.7,230.5c-0.3,0-0.5-0.1-0.7-0.4l-19.5-26c-0.1-0.2-0.2-0.4-0.2-0.7c0-0.2,0.2-0.4,0.4-0.6l21.8-14.9
			c0.3-0.2,0.6-0.2,0.9,0c0.3,0.2,0.5,0.5,0.4,0.8l-2.3,40.8c0,0.4-0.3,0.7-0.6,0.8C435.8,230.5,435.7,230.5,435.7,230.5z
			 M417.4,203.8l17.5,23.3l2-36.7L417.4,203.8z"
      fill="currentColor"
    />
    <path
      d="M416.2,204.5c-0.1,0-0.3,0-0.4-0.1c-0.3-0.2-0.5-0.5-0.5-0.8l0.3-39.7c0-0.4,0.2-0.7,0.6-0.8c0.3-0.1,0.7,0,1,0.2
			l21.5,24.8c0.2,0.2,0.2,0.4,0.2,0.7c0,0.2-0.2,0.5-0.4,0.6l-21.8,14.9C416.5,204.5,416.3,204.5,416.2,204.5z M417.3,166.3L417,202
			l19.6-13.4L417.3,166.3z"
      fill="currentColor"
    />
    <path
      d="M39.2,191.4c-0.1,0-0.2,0-0.3-0.1c-0.4-0.1-0.6-0.5-0.5-0.9l4.8-41.4c0-0.3,0.2-0.5,0.4-0.6c0.2-0.1,0.5-0.2,0.7-0.1
			l22.6,6.1c0.3,0.1,0.5,0.3,0.6,0.6c0.1,0.3,0,0.6-0.1,0.8l-27.4,35.4C39.7,191.3,39.5,191.4,39.2,191.4z M44.8,150.3l-4.4,37.3
			l24.7-31.8L44.8,150.3z"
      fill="currentColor"
    />
    <path
      d="M66.6,156.1c-0.1,0-0.2,0-0.2,0L43.8,150c-0.3-0.1-0.5-0.3-0.6-0.6c-0.1-0.3-0.1-0.6,0.1-0.8l25.3-35.2
			c0.2-0.3,0.6-0.5,1-0.3c0.4,0.1,0.6,0.5,0.6,0.9l-2.7,41.2c0,0.3-0.1,0.5-0.4,0.7C67,156,66.8,156.1,66.6,156.1z M45.5,148.6
			l20.3,5.4l2.4-37.1L45.5,148.6z"
      fill="currentColor"
    />
    <path
      d="M300.4,64.9c-0.3,0-0.5-0.1-0.7-0.3c-0.2-0.2-0.2-0.5-0.2-0.7l5.3-23.6c0.1-0.3,0.3-0.5,0.5-0.6c0.3-0.1,0.6-0.1,0.8,0.1
			l34.2,23.4c0.3,0.2,0.5,0.6,0.3,1c-0.1,0.4-0.4,0.6-0.8,0.6L300.4,64.9z M306.3,41.9l-4.8,21.3l35.6-0.2L306.3,41.9z"
      fill="currentColor"
    />
    <path
      d="M300.4,64.9c-0.1,0-0.3,0-0.4-0.1l-37.1-20.2c-0.3-0.2-0.5-0.6-0.4-1c0.1-0.4,0.4-0.7,0.8-0.7l42.4-3.4
			c0.3,0,0.5,0.1,0.7,0.3c0.2,0.2,0.3,0.5,0.2,0.8l-5.3,23.6c-0.1,0.3-0.2,0.5-0.5,0.6C300.7,64.9,300.6,64.9,300.4,64.9z
			 M266.3,44.5l33.5,18.3l4.8-21.3L266.3,44.5z"
      fill="currentColor"
    />
    <path
      d="M219.4,56.6c-0.2,0-0.4-0.1-0.6-0.2c-0.2-0.2-0.3-0.5-0.2-0.8l5.7-24.4c0.1-0.2,0.2-0.4,0.4-0.6c0.2-0.1,0.5-0.1,0.7-0.1
			L263.6,43c0.4,0.1,0.6,0.5,0.6,0.9c0,0.4-0.3,0.7-0.6,0.8l-43.9,11.9C219.6,56.6,219.5,56.6,219.4,56.6z M225.7,32.5l-5.1,22
			l39.6-10.8L225.7,32.5z"
      fill="currentColor"
    />
    <path
      d="M219.4,56.6c-0.1,0-0.2,0-0.3-0.1l-36.3-15.6c-0.4-0.2-0.6-0.5-0.5-0.9c0-0.4,0.3-0.7,0.7-0.8l42-8.8
			c0.3-0.1,0.6,0,0.8,0.2c0.2,0.2,0.3,0.5,0.2,0.8l-5.7,24.4c-0.1,0.3-0.2,0.5-0.5,0.6C219.7,56.6,219.6,56.6,219.4,56.6z M186,40.4
			l32.8,14.1l5.1-22.1L186,40.4z"
      fill="currentColor"
    />
    <path
      d="M66.6,156.1c-0.1,0-0.2,0-0.3-0.1c-0.4-0.1-0.6-0.5-0.6-0.9l2.7-41.2c0-0.3,0.2-0.5,0.4-0.7c0.2-0.2,0.5-0.2,0.8-0.1
			l25.2,7.6c0.3,0.1,0.5,0.3,0.6,0.6c0.1,0.3,0,0.6-0.2,0.8l-27.9,33.6C67.1,156,66.9,156.1,66.6,156.1z M70.1,115.1l-2.4,37.4
			L93,122.1L70.1,115.1z"
      fill="currentColor"
    />
    <path
      d="M94.5,122.5c-0.1,0-0.2,0-0.3,0L69,114.8c-0.3-0.1-0.5-0.3-0.6-0.6c-0.1-0.3,0-0.6,0.2-0.8l30.8-29.8
			c0.3-0.3,0.7-0.3,1-0.1c0.3,0.2,0.5,0.5,0.5,0.9l-5.7,37.4c0,0.3-0.2,0.5-0.4,0.6C94.8,122.5,94.6,122.5,94.5,122.5z M71,113.6
			l22.8,6.9l5.1-33.9L71,113.6z"
      fill="currentColor"
    />
    <path
      d="M339,96.2c-0.2,0-0.4-0.1-0.6-0.2c-0.2-0.2-0.3-0.4-0.3-0.7l1-31.5c0-0.3,0.2-0.7,0.5-0.8c0.3-0.1,0.7-0.1,0.9,0.2
			l30.5,29.1c0.3,0.2,0.3,0.6,0.2,0.9c-0.1,0.3-0.4,0.6-0.8,0.6L339,96.2C339.1,96.2,339,96.2,339,96.2z M340.8,65.8l-0.9,28.5
			l28.5-2.2L340.8,65.8z"
      fill="currentColor"
    />
    <path
      d="M339,96.2c-0.2,0-0.4-0.1-0.6-0.2l-38.6-31.2c-0.3-0.2-0.4-0.6-0.3-1c0.1-0.4,0.5-0.6,0.8-0.6L340,63
			c0.2,0,0.5,0.1,0.6,0.3c0.2,0.2,0.3,0.4,0.3,0.6l-1,31.5c0,0.3-0.2,0.6-0.5,0.8C339.3,96.2,339.1,96.2,339,96.2z M302.9,64.9
			l35.3,28.6l0.9-28.8L302.9,64.9z"
      fill="currentColor"
    />
    <path
      d="M416.2,204.5c-0.3,0-0.6-0.1-0.7-0.4l-25.8-38.4c-0.2-0.3-0.2-0.6-0.1-0.9c0.1-0.3,0.4-0.5,0.7-0.5l26-1.3
			c0.2,0,0.5,0.1,0.7,0.2c0.2,0.2,0.3,0.4,0.3,0.6l-0.3,39.7c0,0.4-0.3,0.7-0.6,0.8C416.3,204.5,416.2,204.5,416.2,204.5z
			 M392,166.1l23.3,34.7l0.2-35.9L392,166.1z"
      fill="currentColor"
    />
    <path
      d="M390.4,166.1c-0.2,0-0.5-0.1-0.7-0.3c-0.2-0.2-0.3-0.5-0.2-0.7l5.9-38.6c0.1-0.4,0.3-0.7,0.7-0.7c0.4-0.1,0.7,0.1,0.9,0.4
			l20.2,37.3c0.1,0.3,0.1,0.6,0,0.8c-0.1,0.3-0.4,0.4-0.7,0.4L390.4,166.1C390.4,166.1,390.4,166.1,390.4,166.1z M396.7,129.4
			l-5.3,35l23.6-1.2L396.7,129.4z"
      fill="currentColor"
    />
    <path
      d="M177.1,68.7c-0.2,0-0.4-0.1-0.6-0.2c-0.2-0.2-0.3-0.5-0.3-0.8l6-27.7c0.1-0.3,0.2-0.5,0.5-0.6c0.2-0.1,0.5-0.1,0.8,0
			l36.3,15.6c0.3,0.1,0.6,0.5,0.5,0.9c0,0.4-0.3,0.7-0.6,0.8l-42.3,12.1C177.3,68.7,177.2,68.7,177.1,68.7z M183.8,41.3l-5.5,25.3
			l38.6-11L183.8,41.3z"
      fill="currentColor"
    />
    <path
      d="M177.1,68.7c-0.1,0-0.2,0-0.3,0l-34.7-11.1c-0.4-0.1-0.6-0.4-0.6-0.8c0-0.4,0.2-0.7,0.5-0.8l40.8-16.6
			c0.3-0.1,0.6-0.1,0.9,0.1c0.2,0.2,0.4,0.5,0.3,0.9L178,68c-0.1,0.2-0.2,0.5-0.4,0.6C177.4,68.7,177.3,68.7,177.1,68.7z
			 M144.9,56.6l31.5,10.1l5.5-25.2L144.9,56.6z"
      fill="currentColor"
    />
    <path
      d="M390.4,166.1c-0.3,0-0.6-0.2-0.7-0.4l-23.1-37.4c-0.2-0.3-0.2-0.6,0-0.9c0.1-0.3,0.4-0.5,0.7-0.5l29-1.2
			c0.3,0,0.5,0.1,0.7,0.3c0.2,0.2,0.3,0.5,0.2,0.7l-5.9,38.6c-0.1,0.4-0.3,0.7-0.7,0.7C390.5,166.1,390.4,166.1,390.4,166.1z
			 M368.8,128.7l21.1,34.1l5.4-35.2L368.8,128.7z"
      fill="currentColor"
    />
    <path
      d="M367.2,128.7c-0.2,0-0.5-0.1-0.6-0.3c-0.2-0.2-0.3-0.4-0.2-0.7l3.2-34.9c0-0.4,0.3-0.7,0.6-0.8c0.3-0.1,0.7,0,0.9,0.3
			l25.8,33.7c0.2,0.3,0.2,0.6,0.1,0.9c-0.1,0.3-0.4,0.5-0.8,0.5L367.2,128.7L367.2,128.7z M371.1,95.2l-2.9,31.7l26.3-1.1
			L371.1,95.2z"
      fill="currentColor"
    />
    <path
      d="M367.2,128.7c-0.3,0-0.5-0.1-0.7-0.3l-28.2-32.5c-0.2-0.2-0.3-0.6-0.1-0.9c0.1-0.3,0.4-0.5,0.7-0.5l31.5-2.4
			c0.3,0,0.5,0.1,0.7,0.3c0.2,0.2,0.3,0.4,0.2,0.7l-3.2,34.9c0,0.3-0.3,0.6-0.6,0.8C367.4,128.7,367.3,128.7,367.2,128.7z
			 M340.8,96.1l25.7,29.7l3-31.9L340.8,96.1z"
      fill="currentColor"
    />
    <path
      d="M64.7,198.2c-0.1,0-0.1,0-0.2,0L39,191.4c-0.3-0.1-0.5-0.3-0.6-0.6c-0.1-0.3,0-0.6,0.1-0.8l27.4-35.4
			c0.2-0.3,0.6-0.4,1-0.3c0.4,0.1,0.6,0.5,0.6,0.9l-1.9,42.2c0,0.3-0.1,0.5-0.4,0.7C65.1,198.2,64.9,198.2,64.7,198.2z M40.7,190.1
			l23.2,6.2l1.7-38.3L40.7,190.1z"
      fill="currentColor"
    />
    <path
      d="M41.9,233.2c-0.1,0-0.1,0-0.2,0c-0.4-0.1-0.6-0.4-0.7-0.8l-2.7-41.8c0-0.3,0.1-0.6,0.3-0.7c0.2-0.2,0.5-0.2,0.8-0.2
			l25.5,6.8c0.3,0.1,0.5,0.3,0.6,0.5c0.1,0.3,0.1,0.6-0.1,0.8l-22.8,35C42.5,233.1,42.2,233.2,41.9,233.2z M40.1,191.7l2.5,37.9
			l20.7-31.7L40.1,191.7z"
      fill="currentColor"
    />
    <path
      d="M133.4,93.3c-0.1,0-0.1,0-0.2,0l-33.2-8.2c-0.3-0.1-0.6-0.4-0.7-0.7c-0.1-0.3,0.1-0.7,0.4-0.9L141.9,56
			c0.3-0.2,0.7-0.2,1,0c0.3,0.2,0.4,0.6,0.3,0.9l-9,35.7C134.1,93,133.8,93.3,133.4,93.3z M102.3,83.8l30.4,7.5l8.2-32.7L102.3,83.8
			z"
      fill="currentColor"
    />
    <path
      d="M133.4,93.3c-0.2,0-0.4-0.1-0.5-0.2c-0.3-0.2-0.4-0.6-0.3-0.9l9-35.7c0.1-0.2,0.2-0.4,0.4-0.6c0.2-0.1,0.5-0.1,0.7-0.1
			L177.4,67c0.3,0.1,0.6,0.4,0.6,0.7c0,0.3-0.1,0.7-0.4,0.9l-43.7,24.5C133.7,93.2,133.5,93.3,133.4,93.3z M143,57.8l-8.3,32.8
			l40.2-22.5L143,57.8z"
      fill="currentColor"
    />
    <path
      d="M94.5,122.5c-0.2,0-0.3,0-0.4-0.1c-0.3-0.2-0.5-0.5-0.4-0.9l5.7-37.4c0-0.2,0.2-0.5,0.4-0.6c0.2-0.1,0.5-0.2,0.7-0.1
			l33.2,8.2c0.3,0.1,0.6,0.3,0.7,0.7c0.1,0.3-0.1,0.7-0.3,0.9L95,122.3C94.8,122.5,94.7,122.5,94.5,122.5z M100.9,85.3l-5.2,34.4
			l35.7-26.8L100.9,85.3z"
      fill="currentColor"
    />
    <path
      d="M257.9,72.5c-0.2,0-0.5-0.1-0.6-0.3c-0.2-0.2-0.3-0.5-0.2-0.8l5.4-27.8c0.1-0.3,0.2-0.5,0.5-0.6c0.3-0.1,0.6-0.1,0.8,0
			l37.1,20.2c0.3,0.2,0.5,0.5,0.4,0.9c-0.1,0.4-0.3,0.7-0.7,0.7L258,72.5C258,72.5,257.9,72.5,257.9,72.5z M263.9,45.2L259,70.5
			l38.8-6.9L263.9,45.2z"
      fill="currentColor"
    />
    <path
      d="M257.9,72.5c-0.1,0-0.2,0-0.3-0.1l-38.5-15.9c-0.3-0.1-0.6-0.5-0.5-0.9c0-0.4,0.3-0.7,0.6-0.8L263.1,43
			c0.3-0.1,0.6,0,0.8,0.2c0.2,0.2,0.3,0.5,0.3,0.8l-5.4,27.8c-0.1,0.3-0.2,0.5-0.4,0.6C258.2,72.5,258,72.5,257.9,72.5z M222.1,55.9
			l35.1,14.5l4.9-25.4L222.1,55.9z"
      fill="currentColor"
    />
    <path
      d="M387.6,207.7c-0.2,0-0.4-0.1-0.6-0.2c-0.2-0.2-0.3-0.4-0.3-0.7l2.8-41.5c0-0.4,0.3-0.7,0.6-0.8c0.3-0.1,0.7,0,1,0.4
			l25.8,38.4c0.2,0.3,0.2,0.6,0.1,0.9c-0.1,0.3-0.4,0.5-0.7,0.5L387.6,207.7C387.7,207.7,387.7,207.7,387.6,207.7z M391.1,167.9
			l-2.5,37.9l26-2.9L391.1,167.9z"
      fill="currentColor"
    />
    <path
      d="M64.7,198.2c-0.1,0-0.2,0-0.3-0.1c-0.3-0.1-0.6-0.5-0.5-0.9l1.9-42.2c0-0.3,0.1-0.5,0.4-0.7c0.2-0.2,0.5-0.2,0.8-0.1
			L95,163c0.3,0.1,0.5,0.3,0.6,0.6c0.1,0.3,0,0.6-0.2,0.8l-30.1,33.5C65.2,198.1,64.9,198.2,64.7,198.2z M67.4,156.4l-1.7,38.6
			l27.5-30.7L67.4,156.4z"
      fill="currentColor"
    />
    <path
      d="M94.8,164.7c-0.1,0-0.2,0-0.3,0L66.4,156c-0.3-0.1-0.5-0.3-0.6-0.6c-0.1-0.3,0-0.6,0.2-0.8l27.9-33.6
			c0.2-0.3,0.6-0.4,1-0.3c0.3,0.1,0.6,0.5,0.6,0.8l0.3,42.2c0,0.3-0.1,0.5-0.4,0.7C95.1,164.7,95,164.7,94.8,164.7z M68.1,154.7
			l25.7,7.9L93.6,124L68.1,154.7z"
      fill="currentColor"
    />
    <path
      d="M297,100.9c-0.2,0-0.4-0.1-0.5-0.2l-39.1-28.4c-0.3-0.2-0.4-0.6-0.3-0.9c0.1-0.3,0.4-0.6,0.7-0.7l42.6-7.6
			c0.3-0.1,0.5,0,0.7,0.2c0.2,0.2,0.3,0.5,0.3,0.7l-3.4,35.9c0,0.3-0.2,0.6-0.5,0.7C297.3,100.9,297.1,100.9,297,100.9z M260.1,72.1
			l36.2,26.3l3.2-33.2L260.1,72.1z"
      fill="currentColor"
    />
    <path
      d="M297,100.9c-0.2,0-0.4-0.1-0.6-0.3c-0.2-0.2-0.3-0.4-0.3-0.7l3.4-35.9c0-0.3,0.2-0.6,0.5-0.7c0.3-0.1,0.6-0.1,0.9,0.1
			l38.6,31.2c0.3,0.2,0.4,0.6,0.3,0.9c-0.1,0.3-0.4,0.6-0.7,0.6L297,100.9C297.1,100.9,297,100.9,297,100.9z M301.2,65.8L298,99
			l38.8-4.3L301.2,65.8z"
      fill="currentColor"
    />
    <path
      d="M214.2,87c-0.2,0-0.4-0.1-0.6-0.2c-0.2-0.2-0.3-0.5-0.3-0.8l5.3-30.4c0-0.3,0.2-0.5,0.4-0.6c0.2-0.1,0.5-0.1,0.8,0
			l38.5,15.9c0.3,0.1,0.6,0.5,0.5,0.8c0,0.4-0.3,0.7-0.6,0.8L214.4,87C214.3,87,214.3,87,214.2,87z M220.1,57l-4.8,27.9l40.1-13.3
			L220.1,57z"
      fill="currentColor"
    />
    <path
      d="M214.2,87c-0.1,0-0.3,0-0.4-0.1l-37.1-18.3c-0.3-0.2-0.5-0.5-0.5-0.9c0-0.4,0.3-0.7,0.6-0.8l42.3-12.1
			c0.3-0.1,0.6,0,0.8,0.2c0.2,0.2,0.3,0.5,0.3,0.8L215,86.3c0,0.3-0.2,0.5-0.5,0.6C214.4,87,214.3,87,214.2,87z M179.5,68.1l34,16.8
			l4.8-27.9L179.5,68.1z"
      fill="currentColor"
    />
    <path
      d="M387.6,207.7c-0.3,0-0.5-0.1-0.7-0.3l-28.6-38c-0.2-0.3-0.2-0.6-0.1-0.9c0.1-0.3,0.4-0.5,0.7-0.5l31.4-3.5
			c0.3,0,0.5,0.1,0.7,0.2c0.2,0.2,0.3,0.4,0.3,0.7l-2.8,41.5c0,0.4-0.3,0.7-0.6,0.8C387.8,207.6,387.7,207.7,387.6,207.7z
			 M360.6,169.5l26.3,34.9l2.5-38.1L360.6,169.5z"
      fill="currentColor"
    />
    <path
      d="M359,169.7c-0.2,0-0.5-0.1-0.6-0.3c-0.2-0.2-0.3-0.5-0.2-0.8l8.3-41c0.1-0.4,0.4-0.6,0.7-0.7c0.3-0.1,0.7,0.1,0.9,0.4
			l23.1,37.4c0.2,0.3,0.2,0.6,0,0.8c-0.1,0.3-0.4,0.5-0.7,0.5L359,169.7C359,169.7,359,169.7,359,169.7z M367.7,130.2l-7.6,37.6
			l28.8-3.3L367.7,130.2z"
      fill="currentColor"
    />
    <path
      d="M359,169.7c-0.3,0-0.6-0.1-0.7-0.4l-25.6-36.1c-0.2-0.2-0.2-0.6-0.1-0.9c0.1-0.3,0.4-0.5,0.7-0.5l33.9-4.9
			c0.3,0,0.6,0.1,0.8,0.3c0.2,0.2,0.3,0.5,0.2,0.8l-8.3,41c-0.1,0.3-0.3,0.6-0.7,0.7C359.1,169.7,359,169.7,359,169.7z M334.9,133.4
			l23.6,33.2l7.6-37.8L334.9,133.4z"
      fill="currentColor"
    />
    <path
      d="M333.3,133.6c-0.2,0-0.5-0.1-0.6-0.3c-0.2-0.2-0.3-0.5-0.2-0.8l5.7-37.4c0-0.3,0.3-0.6,0.6-0.7c0.3-0.1,0.7,0,0.9,0.3
			l28.2,32.5c0.2,0.2,0.3,0.6,0.2,0.9c-0.1,0.3-0.4,0.5-0.7,0.6l-33.9,4.9C333.4,133.6,333.4,133.6,333.3,133.6z M339.6,97.3
			l-5.2,34.4l31.1-4.5L339.6,97.3z"
      fill="currentColor"
    />
    <path
      d="M333.3,133.6c-0.2,0-0.4-0.1-0.6-0.2l-36.3-32.7c-0.3-0.2-0.4-0.6-0.3-0.9c0.1-0.3,0.4-0.6,0.7-0.6l42-4.7
			c0.3,0,0.5,0.1,0.7,0.3c0.2,0.2,0.3,0.5,0.2,0.7l-5.7,37.4c0,0.3-0.3,0.6-0.6,0.7C333.5,133.6,333.4,133.6,333.3,133.6z
			 M299.1,100.7l33.7,30.3l5.3-34.7L299.1,100.7z"
      fill="currentColor"
    />
    <path
      d="M130.8,134.2c-0.1,0-0.2,0-0.3,0l-36.3-11.7c-0.3-0.1-0.5-0.4-0.6-0.7c-0.1-0.3,0.1-0.7,0.3-0.8l38.9-29.2
			c0.3-0.2,0.6-0.2,0.9-0.1c0.3,0.2,0.5,0.5,0.5,0.8l-2.6,40.9c0,0.3-0.2,0.5-0.4,0.7C131.1,134.1,130.9,134.2,130.8,134.2z
			 M96.4,121.3l33.6,10.8l2.4-37.9L96.4,121.3z"
      fill="currentColor"
    />
    <path
      d="M94.8,164.7c-0.1,0-0.3,0-0.4-0.1c-0.3-0.1-0.5-0.4-0.5-0.8l-0.3-42.2c0-0.3,0.1-0.5,0.4-0.7c0.2-0.2,0.5-0.2,0.8-0.1
			l36.3,11.7c0.3,0.1,0.5,0.4,0.6,0.7c0.1,0.3-0.1,0.6-0.3,0.8l-36,30.5C95.2,164.6,95,164.7,94.8,164.7z M95.4,122.8l0.3,39.1
			l33.4-28.3L95.4,122.8z"
      fill="currentColor"
    />
    <path
      d="M171.2,107.9c-0.1,0-0.2,0-0.3-0.1l-37.8-14.6c-0.3-0.1-0.5-0.4-0.6-0.8c0-0.3,0.1-0.7,0.4-0.8l43.7-24.5
			c0.3-0.2,0.6-0.2,0.9,0c0.3,0.2,0.4,0.5,0.4,0.9l-5.9,39.1c0,0.3-0.2,0.5-0.4,0.6C171.5,107.8,171.3,107.9,171.2,107.9z
			 M135.4,92.2l35,13.5l5.5-36.3L135.4,92.2z"
      fill="currentColor"
    />
    <path
      d="M171.2,107.9c-0.2,0-0.4-0.1-0.5-0.2c-0.3-0.2-0.4-0.5-0.3-0.8l5.9-39.1c0-0.3,0.2-0.5,0.5-0.6c0.2-0.1,0.5-0.1,0.8,0
			l37.1,18.3c0.3,0.1,0.5,0.5,0.5,0.8c0,0.3-0.2,0.6-0.5,0.8l-43,20.9C171.4,107.8,171.3,107.9,171.2,107.9z M177.8,69.2l-5.5,36.3
			l39.9-19.3L177.8,69.2z"
      fill="currentColor"
    />
    <path
      d="M130.8,134.2c-0.2,0-0.3,0-0.4-0.1c-0.3-0.2-0.5-0.5-0.4-0.8l2.6-40.9c0-0.3,0.2-0.5,0.4-0.7c0.2-0.1,0.5-0.2,0.8-0.1
			l37.8,14.6c0.3,0.1,0.5,0.4,0.6,0.7c0,0.3-0.1,0.6-0.4,0.8L131.2,134C131.1,134.1,130.9,134.2,130.8,134.2z M134.2,93.6l-2.4,38
			l37.5-24.4L134.2,93.6z"
      fill="currentColor"
    />
    <path
      d="M101,209.9c-0.1,0-0.2,0-0.3,0l-36.3-11.6c-0.3-0.1-0.5-0.3-0.6-0.6c-0.1-0.3,0-0.6,0.2-0.8l30.1-33.5
			c0.2-0.3,0.6-0.4,0.9-0.3c0.3,0.1,0.6,0.4,0.6,0.7l6.2,45.2c0,0.3-0.1,0.6-0.3,0.8C101.4,209.8,101.2,209.9,101,209.9z
			 M66.3,196.9l33.7,10.8l-5.8-41.9L66.3,196.9z"
      fill="currentColor"
    />
    <path
      d="M353.5,211.7c-0.2,0-0.5-0.1-0.6-0.3c-0.2-0.2-0.3-0.5-0.2-0.7l5.5-42c0-0.4,0.3-0.6,0.6-0.7c0.3-0.1,0.7,0,0.9,0.3
			l28.6,38c0.2,0.3,0.2,0.6,0.1,0.9c-0.1,0.3-0.4,0.5-0.7,0.5l-34.1,4C353.6,211.7,353.5,211.7,353.5,211.7z M359.6,171.1l-5.1,38.7
			l31.5-3.7L359.6,171.1z"
      fill="currentColor"
    />
    <path
      d="M252,111.6c-0.2,0-0.3,0-0.5-0.1l-37.8-24.6c-0.3-0.2-0.4-0.5-0.4-0.9c0-0.3,0.3-0.6,0.6-0.7l43.7-14.5
			c0.3-0.1,0.6,0,0.8,0.2c0.2,0.2,0.3,0.5,0.3,0.8l-5.9,39.1c0,0.3-0.2,0.5-0.5,0.7C252.2,111.6,252.1,111.6,252,111.6z M216.2,86.4
			l35.1,22.9l5.5-36.4L216.2,86.4z"
      fill="currentColor"
    />
    <path
      d="M252,111.6c-0.2,0-0.4-0.1-0.6-0.2c-0.2-0.2-0.3-0.5-0.3-0.8l5.9-39.1c0-0.3,0.2-0.6,0.5-0.7c0.3-0.1,0.6-0.1,0.9,0.1
			l39.1,28.4c0.3,0.2,0.4,0.5,0.3,0.9c-0.1,0.3-0.3,0.6-0.7,0.7l-45.1,10.8C252.1,111.6,252,111.6,252,111.6z M258.5,73.2l-5.5,36.4
			l41.9-10L258.5,73.2z"
      fill="currentColor"
    />
    <path
      d="M101,209.9c-0.1,0-0.2,0-0.2,0c-0.3-0.1-0.6-0.4-0.6-0.7L93.9,164c0-0.3,0.1-0.6,0.3-0.8c0.2-0.2,0.6-0.3,0.8-0.2
			l32.8,10.9c0.3,0.1,0.5,0.3,0.6,0.6c0.1,0.3,0,0.6-0.2,0.8l-26.5,34.2C101.5,209.8,101.3,209.9,101,209.9z M95.8,165.1l5.7,41.7
			l24.5-31.6L95.8,165.1z"
      fill="currentColor"
    />
    <path
      d="M127.5,175.7c-0.1,0-0.2,0-0.3,0l-32.8-10.9c-0.3-0.1-0.5-0.4-0.6-0.7c-0.1-0.3,0.1-0.6,0.3-0.8l36-30.5
			c0.3-0.2,0.7-0.3,1-0.1c0.3,0.2,0.5,0.5,0.5,0.9l-3.2,41.5c0,0.3-0.2,0.5-0.4,0.7C127.9,175.6,127.7,175.7,127.5,175.7z
			 M96.5,163.5l30.2,10.1l3-38.3L96.5,163.5z"
      fill="currentColor"
    />
    <path
      d="M209.5,122.3c-0.2,0-0.4-0.1-0.6-0.2c-0.2-0.2-0.3-0.5-0.3-0.8l4.7-35.3c0-0.3,0.2-0.6,0.5-0.7c0.3-0.1,0.6-0.1,0.8,0.1
			l37.8,24.6c0.3,0.2,0.4,0.5,0.4,0.9c-0.1,0.3-0.3,0.6-0.7,0.7l-42.5,10.7C209.6,122.3,209.5,122.3,209.5,122.3z M214.9,87.6
			l-4.3,32.6l39.3-9.9L214.9,87.6z"
      fill="currentColor"
    />
    <path
      d="M209.5,122.3c-0.1,0-0.2,0-0.3-0.1l-38.3-14.5c-0.3-0.1-0.6-0.4-0.6-0.8c0-0.3,0.2-0.7,0.5-0.8l43-20.9
			c0.3-0.1,0.6-0.1,0.9,0.1c0.3,0.2,0.4,0.5,0.4,0.8l-4.7,35.3c0,0.3-0.2,0.5-0.4,0.6C209.8,122.3,209.6,122.3,209.5,122.3z
			 M173.4,106.9l35.4,13.3l4.3-32.6L173.4,106.9z"
      fill="currentColor"
    />
    <path
      d="M353.5,211.7c-0.3,0-0.5-0.1-0.7-0.3L322.5,175c-0.2-0.2-0.3-0.6-0.1-0.9c0.1-0.3,0.4-0.5,0.7-0.6l35.8-5.7
			c0.3,0,0.6,0,0.7,0.2c0.2,0.2,0.3,0.5,0.3,0.7l-5.5,42c0,0.3-0.3,0.6-0.6,0.7C353.7,211.7,353.6,211.7,353.5,211.7z M324.9,175.1
			l28,33.6l5.1-38.8L324.9,175.1z"
      fill="currentColor"
    />
    <path
      d="M323.2,175.4c-0.2,0-0.5-0.1-0.6-0.3c-0.2-0.2-0.3-0.5-0.2-0.8l10.1-41.7c0.1-0.3,0.4-0.6,0.7-0.7
			c0.3-0.1,0.7,0.1,0.9,0.4l25.6,36.1c0.2,0.2,0.2,0.6,0.1,0.8c-0.1,0.3-0.4,0.5-0.7,0.5l-35.8,5.7
			C323.3,175.3,323.2,175.4,323.2,175.4z M333.7,134.8l-9.4,38.6l33.1-5.2L333.7,134.8z"
      fill="currentColor"
    />
    <path
      d="M288.8,141.5c-0.2,0-0.4-0.1-0.6-0.2l-36.9-29.9c-0.3-0.2-0.4-0.5-0.3-0.9c0.1-0.3,0.3-0.6,0.7-0.7l45.1-10.8
			c0.3-0.1,0.6,0,0.8,0.2c0.2,0.2,0.3,0.5,0.3,0.8l-8.2,40.6c-0.1,0.3-0.3,0.5-0.6,0.7C289,141.5,288.9,141.5,288.8,141.5z
			 M253.9,111.2l34.4,27.9l7.6-37.9L253.9,111.2z"
      fill="currentColor"
    />
    <path
      d="M288.8,141.5c-0.2,0-0.5-0.1-0.6-0.3c-0.2-0.2-0.3-0.5-0.2-0.8l8.2-40.6c0.1-0.3,0.3-0.6,0.6-0.7c0.3-0.1,0.6,0,0.9,0.2
			l36.3,32.7c0.3,0.2,0.3,0.6,0.3,0.9c-0.1,0.3-0.4,0.6-0.7,0.6l-44.5,7.9C288.9,141.5,288.9,141.5,288.8,141.5z M297.6,101.7
			l-7.6,37.9l41.5-7.4L297.6,101.7z"
      fill="currentColor"
    />
    <path
      d="M323.2,175.4c-0.2,0-0.4-0.1-0.6-0.3l-34.4-33.8c-0.2-0.2-0.3-0.6-0.2-0.9c0.1-0.3,0.4-0.5,0.7-0.6l44.5-7.9
			c0.3-0.1,0.6,0,0.8,0.3c0.2,0.2,0.3,0.5,0.2,0.8L324,174.7c-0.1,0.3-0.3,0.6-0.6,0.6C323.4,175.3,323.3,175.4,323.2,175.4z
			 M290.7,141.2l32,31.6l9.5-38.9L290.7,141.2z"
      fill="currentColor"
    />
    <path
      d="M127.5,175.7c-0.1,0-0.3,0-0.4-0.1c-0.3-0.2-0.5-0.5-0.4-0.8l3.2-41.5c0-0.3,0.2-0.5,0.4-0.7c0.2-0.1,0.5-0.2,0.8-0.1
			l36.2,12.1c0.3,0.1,0.5,0.4,0.6,0.7c0.1,0.3-0.1,0.6-0.3,0.8l-39.5,29.4C127.9,175.6,127.7,175.7,127.5,175.7z M131.6,134.5
			l-3,38.4l36.6-27.3L131.6,134.5z"
      fill="currentColor"
    />
    <path
      d="M167,146.2c-0.2,0-0.3,0-0.5-0.1c-0.3-0.2-0.4-0.5-0.4-0.8l4.2-38.4c0-0.3,0.2-0.5,0.4-0.7c0.2-0.1,0.5-0.2,0.8-0.1
			l38.3,14.5c0.3,0.1,0.5,0.4,0.6,0.8c0,0.3-0.1,0.7-0.4,0.8l-42.5,23.9C167.3,146.2,167.1,146.2,167,146.2z M171.9,108.2l-3.9,35.5
			l39.3-22.1L171.9,108.2z"
      fill="currentColor"
    />
    <path
      d="M167,146.2c-0.1,0-0.2,0-0.3,0l-36.2-12.1c-0.3-0.1-0.6-0.4-0.6-0.7c0-0.3,0.1-0.7,0.4-0.8l40.4-26.3
			c0.3-0.2,0.6-0.2,0.9,0c0.3,0.2,0.4,0.5,0.4,0.8l-4.2,38.4c0,0.3-0.2,0.5-0.4,0.6C167.3,146.2,167.2,146.2,167,146.2z M132.8,133
			l33.5,11.1l3.8-35.4L132.8,133z"
      fill="currentColor"
    />
    <path
      d="M136.9,222.8c-0.1,0-0.2,0-0.3-0.1l-35.9-12.9c-0.3-0.1-0.5-0.3-0.5-0.6c-0.1-0.3,0-0.6,0.2-0.8l26.5-34.2
			c0.2-0.3,0.6-0.4,0.9-0.3c0.3,0.1,0.6,0.3,0.7,0.7l9.4,47.2c0.1,0.3,0,0.6-0.3,0.8C137.3,222.7,137.1,222.8,136.9,222.8z
			 M102.4,208.6l33.3,12l-8.7-43.8L102.4,208.6z"
      fill="currentColor"
    />
    <path
      d="M247.5,150c-0.2,0-0.4-0.1-0.6-0.2c-0.2-0.2-0.3-0.5-0.3-0.7l4.5-38.3c0-0.3,0.2-0.6,0.5-0.7c0.3-0.1,0.6-0.1,0.9,0.1
			l36.9,29.9c0.3,0.2,0.4,0.6,0.3,0.9s-0.3,0.6-0.7,0.7l-41.4,8.5C247.6,150,247.5,150,247.5,150z M252.6,112.4l-4.2,35.6l38.4-7.8
			L252.6,112.4z"
      fill="currentColor"
    />
    <path
      d="M247.5,150c-0.2,0-0.4-0.1-0.5-0.2l-38-27.6c-0.3-0.2-0.4-0.5-0.3-0.9c0.1-0.3,0.3-0.6,0.6-0.7l42.5-10.7
			c0.3-0.1,0.6,0,0.8,0.2c0.2,0.2,0.3,0.5,0.3,0.8l-4.5,38.3c0,0.3-0.2,0.6-0.5,0.7C247.7,149.9,247.6,150,247.5,150z M211.5,121.8
			l35.3,25.7l4.2-35.6L211.5,121.8z"
      fill="currentColor"
    />
    <path
      d="M136.9,222.8c-0.1,0-0.1,0-0.2,0c-0.3-0.1-0.6-0.3-0.7-0.7l-9.4-47.2c-0.1-0.3,0-0.6,0.3-0.8c0.2-0.2,0.6-0.3,0.9-0.2
			l36.3,12.8c0.3,0.1,0.5,0.3,0.6,0.6c0.1,0.3,0,0.6-0.1,0.8l-26.9,34.3C137.4,222.7,137.2,222.8,136.9,222.8z M128.7,176.1
			l8.7,43.8l25-31.9L128.7,176.1z"
      fill="currentColor"
    />
    <path
      d="M163.8,188.5c-0.1,0-0.2,0-0.3-0.1l-36.3-12.8c-0.3-0.1-0.5-0.4-0.6-0.7c0-0.3,0.1-0.6,0.3-0.8l39.5-29.4
			c0.3-0.2,0.7-0.2,0.9-0.1c0.3,0.2,0.5,0.5,0.5,0.8l-3.2,42.3c0,0.3-0.2,0.5-0.4,0.7C164.2,188.4,164,188.5,163.8,188.5z
			 M129.4,174.5l33.7,11.9l2.9-39.2L129.4,174.5z"
      fill="currentColor"
    />
    <path
      d="M309,219.5c-0.3,0-0.5-0.1-0.7-0.3c-0.2-0.2-0.3-0.6-0.2-0.8l14.2-44.2c0.1-0.3,0.4-0.5,0.7-0.6c0.3-0.1,0.6,0.1,0.8,0.3
			l30.3,36.3c0.2,0.2,0.3,0.6,0.1,0.9c-0.1,0.3-0.4,0.5-0.7,0.6l-44.5,7.9C309.1,219.5,309.1,219.5,309,219.5z M323.5,176.3
			l-13.3,41.3l41.6-7.4L323.5,176.3z"
      fill="currentColor"
    />
    <path
      d="M205.5,161.4c-0.2,0-0.4-0.1-0.6-0.2c-0.2-0.2-0.3-0.5-0.3-0.8l4-39c0-0.3,0.2-0.6,0.5-0.7c0.3-0.1,0.6-0.1,0.9,0.1
			l38,27.6c0.3,0.2,0.4,0.5,0.3,0.9c-0.1,0.3-0.3,0.6-0.6,0.7l-42,11.4C205.7,161.4,205.6,161.4,205.5,161.4z M210.2,123.1
			l-3.7,36.2l39-10.6L210.2,123.1z"
      fill="currentColor"
    />
    <path
      d="M163.8,188.5c-0.2,0-0.3,0-0.4-0.1c-0.3-0.2-0.5-0.5-0.4-0.8l3.2-42.3c0-0.3,0.2-0.5,0.4-0.7c0.2-0.2,0.5-0.2,0.8-0.1
			l38.5,15.1c0.3,0.1,0.5,0.4,0.6,0.7c0,0.3-0.1,0.6-0.4,0.8l-41.7,27.1C164.2,188.4,164,188.5,163.8,188.5z M167.8,146.6l-2.9,39.3
			l38.8-25.2L167.8,146.6z"
      fill="currentColor"
    />
    <path
      d="M205.5,161.4c-0.1,0-0.2,0-0.3-0.1l-38.5-15.1c-0.3-0.1-0.5-0.4-0.6-0.8c0-0.3,0.1-0.7,0.4-0.8l42.5-23.9
			c0.3-0.2,0.6-0.2,0.9,0c0.3,0.2,0.4,0.5,0.4,0.8l-4,39c0,0.3-0.2,0.5-0.4,0.7C205.8,161.3,205.7,161.4,205.5,161.4z M169,145.2
			l35.7,14l3.7-36.2L169,145.2z"
      fill="currentColor"
    />
    <path
      d="M309,219.5c-0.3,0-0.6-0.1-0.7-0.4l-24.7-36.6c-0.2-0.2-0.2-0.6-0.1-0.8c0.1-0.3,0.4-0.5,0.6-0.5l38.9-7.6
			c0.3-0.1,0.6,0,0.8,0.3c0.2,0.2,0.3,0.6,0.2,0.9l-14.2,44.2c-0.1,0.3-0.4,0.6-0.7,0.6C309.1,219.5,309,219.5,309,219.5z
			 M285.7,182.7l23,34l13.2-41.1L285.7,182.7z"
      fill="currentColor"
    />
    <path
      d="M284.3,182.9c-0.2,0-0.4-0.1-0.6-0.2c-0.2-0.2-0.3-0.5-0.3-0.7l4.6-41.4c0-0.3,0.3-0.6,0.6-0.7c0.3-0.1,0.7,0,0.9,0.2
			l34.4,33.8c0.2,0.2,0.3,0.6,0.2,0.9c-0.1,0.3-0.4,0.5-0.7,0.6l-38.9,7.6C284.4,182.9,284.3,182.9,284.3,182.9z M289.5,142.5
			l-4.2,38.4l36.1-7L289.5,142.5z"
      fill="currentColor"
    />
    <path
      d="M284.3,182.9c-0.2,0-0.4-0.1-0.6-0.2l-36.8-33c-0.2-0.2-0.3-0.6-0.3-0.9c0.1-0.3,0.3-0.6,0.7-0.6l41.4-8.5
			c0.3-0.1,0.6,0,0.8,0.2c0.2,0.2,0.3,0.5,0.3,0.7l-4.6,41.4c0,0.3-0.3,0.6-0.6,0.7C284.5,182.9,284.4,182.9,284.3,182.9z
			 M249.3,149.6l34.2,30.7l4.2-38.5L249.3,149.6z"
      fill="currentColor"
    />
    <path
      d="M176.1,236.1c-0.1,0-0.2,0-0.3,0l-39.2-13.2c-0.3-0.1-0.5-0.3-0.6-0.6c-0.1-0.3,0-0.6,0.1-0.8l26.9-34.3
			c0.2-0.3,0.6-0.4,0.9-0.3c0.3,0.1,0.6,0.3,0.7,0.6L177,235c0.1,0.3,0,0.6-0.3,0.9C176.6,236,176.3,236.1,176.1,236.1z
			 M138.4,221.5l36.5,12.3l-11.4-44.3L138.4,221.5z"
      fill="currentColor"
    />
    <path
      d="M243.5,192.2c-0.2,0-0.4-0.1-0.6-0.2c-0.2-0.2-0.3-0.5-0.3-0.7l3.9-42.2c0-0.3,0.2-0.6,0.6-0.7c0.3-0.1,0.7-0.1,0.9,0.2
			l36.8,33c0.2,0.2,0.3,0.6,0.3,0.9c-0.1,0.3-0.3,0.6-0.7,0.6l-40.7,9.2C243.7,192.2,243.6,192.2,243.5,192.2z M248.2,150.9
			l-3.6,39.3l37.9-8.6L248.2,150.9z"
      fill="currentColor"
    />
    <path
      d="M243.5,192.2c-0.2,0-0.4-0.1-0.6-0.2l-38-30.8c-0.3-0.2-0.4-0.5-0.3-0.9c0.1-0.3,0.3-0.6,0.6-0.7l42-11.4
			c0.3-0.1,0.6,0,0.8,0.2c0.2,0.2,0.3,0.5,0.3,0.8l-3.9,42.2c0,0.3-0.2,0.6-0.5,0.7C243.8,192.2,243.6,192.2,243.5,192.2z
			 M207.4,160.9l35.4,28.7l3.7-39.3L207.4,160.9z"
      fill="currentColor"
    />
    <path
      d="M176.1,236.1c-0.1,0-0.1,0-0.2,0c-0.3-0.1-0.6-0.3-0.7-0.6L163,187.8c-0.1-0.3,0-0.7,0.3-0.9c0.2-0.2,0.6-0.3,0.9-0.2
			l38.6,14.3c0.3,0.1,0.5,0.3,0.5,0.6c0.1,0.3,0,0.6-0.2,0.8l-26.3,33.3C176.6,236,176.4,236.1,176.1,236.1z M165.1,189l11.4,44.2
			l24.4-30.9L165.1,189z"
      fill="currentColor"
    />
    <path
      d="M202.4,202.8c-0.2,0-0.4-0.1-0.6-0.2c-0.2-0.2-0.3-0.5-0.3-0.7l3.1-41.4c0-0.3,0.2-0.6,0.5-0.7c0.3-0.1,0.6-0.1,0.9,0.1
			l38,30.8c0.3,0.2,0.4,0.5,0.3,0.9c-0.1,0.3-0.3,0.6-0.6,0.7l-41.1,10.6C202.5,202.8,202.5,202.8,202.4,202.8z M206.2,162.2
			l-2.9,38.5l38.3-9.9L206.2,162.2z"
      fill="currentColor"
    />
    <path
      d="M202.4,202.8c-0.1,0-0.2,0-0.3-0.1l-38.6-14.3c-0.3-0.1-0.5-0.4-0.6-0.7c0-0.3,0.1-0.7,0.4-0.8l41.7-27.1
			c0.3-0.2,0.6-0.2,0.9,0c0.3,0.2,0.5,0.5,0.4,0.8l-3.1,41.4c0,0.3-0.2,0.5-0.4,0.7C202.7,202.8,202.6,202.8,202.4,202.8z
			 M165.8,187.4l35.8,13.3l2.9-38.5L165.8,187.4z"
      fill="currentColor"
    />
    <path
      d="M267.9,228.9c-0.3,0-0.6-0.1-0.7-0.4l-24.3-36.7c-0.2-0.2-0.2-0.5-0.1-0.8c0.1-0.3,0.3-0.5,0.6-0.5l40.7-9.2
			c0.3-0.1,0.6,0,0.9,0.3c0.2,0.2,0.3,0.6,0.2,0.9l-16.4,46c-0.1,0.3-0.4,0.5-0.7,0.6C267.9,228.9,267.9,228.9,267.9,228.9z
			 M245,191.9l22.7,34.2l15.3-42.8L245,191.9z"
      fill="currentColor"
    />
    <path
      d="M267.9,228.9c-0.2,0-0.5-0.1-0.7-0.3c-0.2-0.2-0.3-0.6-0.2-0.9l16.4-46c0.1-0.3,0.4-0.5,0.7-0.6c0.3,0,0.7,0.1,0.8,0.4
			l24.7,36.6c0.2,0.2,0.2,0.5,0.1,0.8c-0.1,0.3-0.3,0.5-0.6,0.5l-41.1,9.4C268,228.9,267.9,228.9,267.9,228.9z M284.5,184
			l-15.3,42.8l38.3-8.7L284.5,184z"
      fill="currentColor"
    />
    <path
      d="M225.4,238.4c-0.3,0-0.6-0.2-0.7-0.4l-23-35.6c-0.2-0.2-0.2-0.5-0.1-0.8c0.1-0.3,0.3-0.5,0.6-0.5l41.1-10.6
			c0.3-0.1,0.7,0,0.9,0.3c0.2,0.2,0.3,0.6,0.2,0.9l-18.1,46.2C226.1,238.1,225.8,238.3,225.4,238.4
			C225.5,238.4,225.4,238.4,225.4,238.4z M203.8,202.5l21.4,33.1l16.9-43L203.8,202.5z"
      fill="currentColor"
    />
    <path
      d="M225.4,238.4c-0.3,0-0.5-0.1-0.7-0.3c-0.2-0.2-0.3-0.6-0.2-0.9l18.1-46.2c0.1-0.3,0.4-0.5,0.7-0.6c0.3,0,0.6,0.1,0.8,0.4
			l24.3,36.7c0.2,0.2,0.2,0.5,0.1,0.8c-0.1,0.3-0.3,0.5-0.6,0.5l-42.5,9.5C225.5,238.4,225.5,238.4,225.4,238.4z M243.7,193.2
			l-16.9,43.1l39.6-8.8L243.7,193.2z"
      fill="currentColor"
    />
  </g>
</svg>
