<svg
  width="100%"
  className="icon"
  version="1.1"
  xmlns="http://www.w3.org/2000/svg"
  x="0px"
  y="0px"
  viewBox="0 0 444 225"
  style="enable-background: new 0 0 444 225"
>
  <defs>
    <rect id="GridPlanetRect" x="0.2" y="-0.8" width="444.1" height="225.3" />
  </defs>
  <clipPath id="GridPlanet">
    <use href="#GridPlanetRect" style="overflow: visible" />
  </clipPath>
  <g style="clip-path: url(#GridPlanet)">
    <path
      fill="currentColor"
      d="M475.5,299.1l0.8-2.5c5.7-17.5,8.5-35.8,8.3-54.2c-8.3-5.3-21.5-7.9-39-7.5h-0.6l0.1-0.6c7.7-51.3,2-101.9-16.4-146.5
			l-0.3-0.7h0.8c33.4-0.8,54.8,6.7,62,21.7c6.9,14.6-0.3,35.1-21,59.5c9.8,23.3,15.1,48.3,15.6,73.6c3.4,2.2,6.2,5.3,8,8.9
			c5.4,11.4-0.3,27.4-16.5,46.4L475.5,299.1z M485.8,243.1c0.1,17.4-2.4,34.7-7.6,51.3c14.6-17.7,19.6-32.6,14.6-43.2
			C491.2,247.9,488.8,245.1,485.8,243.1z M449.2,233.8c15.6,0,27.6,2.5,35.5,7.3c-0.6-25-5.9-49.7-15.6-72.8L469,168l0.2-0.3
			c20.6-24.1,27.8-44.3,21.1-58.6c-6.7-14.2-27.7-21.7-60.2-21.1c18.2,44.4,23.8,94.8,16.2,145.8L449.2,233.8z"
    />
    <path
      fill="currentColor"
      d="M482.8,212.3l-0.8-0.7c19.9-23.3,26.9-42.9,20.4-56.6c-6.7-14.1-27.1-21.1-59-20.4v-1.1c32.3-0.7,53.1,6.5,59.9,21
			C510.1,168.7,503,188.7,482.8,212.3z"
    />
    <path
      fill="currentColor"
      d="M243.5,302.8l-0.3-0.4c-28.5-40.3-53.7-82.8-75.2-127.2l-0.2-0.4l0.4-0.2c89.6-50.8,194.5-86,261.1-87.5h0.4l0.1,0.3
			c18.5,44.8,24.2,95.6,16.4,147.1l-0.1,0.5h-0.4c-51.4,1.2-132.5,28.4-201.8,67.7L243.5,302.8z M169.1,175.2
			c21.4,44,46.4,86.2,74.7,126.2c69.1-39.1,149.9-66.2,201.4-67.5c7.6-51,2-101.4-16.3-145.8C362.6,89.7,258.3,124.7,169.1,175.2z"
    />
    <path
      fill="currentColor"
      d="M216.6,261.8l-0.5-0.9c79.9-45.3,173.4-76.7,232.8-78v1.1C389.7,185.3,296.4,216.6,216.6,261.8z"
    />
    <path
      fill="currentColor"
      d="M191.4,219.1l-0.5-0.9C277.5,169,379,135,443.4,133.5v1.1C379.2,136.1,277.9,170,191.4,219.1z"
    />
    <path
      fill="currentColor"
      d="M385.2,243.7c-2.8-49.6-14.3-98.3-33.7-144l1-0.4c19.6,45.8,31,94.6,33.9,144.3L385.2,243.7z"
    />
    <path
      fill="currentColor"
      d="M315,267.4c-15.7-46.6-33.8-92.4-54.3-137.2l1-0.4c20.4,44.8,38.6,90.7,54.3,137.3L315,267.4z"
    />
    <path
      fill="currentColor"
      d="M132.3,413.3l-0.8-0.3c-47.9-20-85.3-52.9-108-95.2v-0.2c-1.6-17.2,11.4-39.8,37.4-65.5s63.1-52.4,107.3-77.5l0.5-0.3
			l0.2,0.5c21.5,44.3,46.7,86.8,75.2,127l0.3,0.5l-0.5,0.3c-69.2,39.2-114,83.4-111.7,109.9L132.3,413.3z M24.4,317.3
			c22.5,41.9,59.4,74.5,106.7,94.3c-1.4-27.3,42.2-70.2,111.8-109.7c-28.3-40-53.3-82.2-74.7-126.2
			C79.3,226.3,21.5,283.1,24.4,317.3z"
    />
    <path
      fill="currentColor"
      d="M50.8,356.5C49.3,339.9,61.9,318,87,293.1c25.2-24.8,61-50.7,103.8-75l0.5,0.9C105,268.1,48.9,323.3,51.9,356.4
			L50.8,356.5z"
    />
    <path
      fill="currentColor"
      d="M469.4,169.1l-0.3-0.8c-22.8-55.5-67.9-103.7-126.9-135.5l-0.6-0.3L342,32c11.4-13.4,17.2-25.2,17.1-34.6
			c-14.1-10-29.7-17.9-46.2-23.2l-3-1l3.1-0.1c24.4-0.6,40,4.9,45.2,15.9c1.1,2.4,1.8,5.1,1.9,7.8c29.7,21.1,53.6,52,69.5,90.2
			c33.2-0.7,54.5,6.8,61.6,21.7c6.9,14.6-0.4,35.3-21.2,59.7L469.4,169.1z M343.2,32.2c58.7,31.8,103.6,79.7,126.5,135
			c20.1-23.8,27.2-43.8,20.5-57.9c-6.9-14.6-28-21.9-61-21.1H429l-0.1-0.3c-15.6-38-39.3-68.5-68.6-89.6
			C360,7.6,354.3,19.1,343.2,32.2z M316.2-25.8c15.2,5.3,29.7,12.6,42.8,21.9c-0.2-2.3-0.7-4.5-1.7-6.6c-4.8-10-18.9-15.3-40.9-15.3
			L316.2-25.8z"
    />
    <path
      fill="currentColor"
      d="M440,115.6l-0.8-0.7c20.1-23.5,27.2-43.3,20.6-57.2c-6.7-14.2-27.3-21.4-59.6-20.6V36c32.7-0.7,53.6,6.6,60.6,21.2
			C467.6,71.5,460.4,91.7,440,115.6z"
    />
    <path
      fill="currentColor"
      d="M397,69.6l-0.8-0.7c18.2-21.3,24.6-39.2,18.7-51.8c-6.1-12.9-24.8-19.3-53.9-18.6v-1.1c29.6-0.7,48.6,6,54.9,19.2
			C422,29.7,415.5,48,397,69.6z"
    />
    <path
      fill="currentColor"
      d="M492.5,124.8C470,68.7,422.7,24.8,359.3,1.2l0.4-1c63.7,23.7,111.2,67.8,133.8,124.2L492.5,124.8z"
    />
    <path
      fill="currentColor"
      d="M478.5,96.8c-22.7-56.5-68.6-97.7-129.3-116l0.3-1c61.1,18.4,107.3,59.9,130,116.7L478.5,96.8z"
    />
    <path
      fill="currentColor"
      d="M168.2,175.7l-0.2-0.5C141,119.6,125,70.6,122.7,37.4v-0.3L123,37c65.2-37.1,141.6-62.7,190.1-63.8h0.1h0.1
			c51.7,16.7,93.1,57.3,116.5,114.1L430,88h-0.7c-66.4,1.5-171.2,36.6-260.6,87.4L168.2,175.7z M123.8,37.6
			c2.3,33,18.3,81.5,44.9,136.6c89.1-50.5,193.3-85.4,259.8-87.2C405.1,30.9,364.1-9.1,313-25.7C264.7-24.6,188.8,0.8,123.8,37.6z"
    />
    <path
      fill="currentColor"
      d="M145.5,122.4l-0.5-0.9c87.5-49.7,190.2-84,255.2-85.5v1.1C335.3,38.5,232.9,72.9,145.5,122.4z"
    />
    <path
      fill="currentColor"
      d="M130.2,75.9l-0.5-0.9C209,30,301.9-1.1,360.9-2.5v1.1C302.1-0.1,209.4,31,130.2,75.9z"
    />
    <path
      fill="currentColor"
      d="M351.4,99.8c-24.4-56.5-58.1-98-94.9-116.8L257-18c37,19,70.9,60.7,95.4,117.4L351.4,99.8z"
    />
    <path
      fill="currentColor"
      d="M260.7,130.2C235.1,74,210.1,29.5,190.3,5l0.8-0.7C211,29,236,73.6,261.7,129.8L260.7,130.2z"
    />
    <path
      fill="currentColor"
      d="M24.7,320l-1.2-2.3c-28.9-53.8-31-116.5-6-176.8c-2.1-25.7,39.2-66.5,105.4-104l0.7-0.4v0.8
			c2.2,33.1,18.3,81.9,45.2,137.4l0.2,0.5l-0.4,0.2c-89.3,50.6-147.3,107.7-144.3,142L24.7,320z M122.7,38.2
			C58.2,75,16.3,116.2,18.6,141v0.1v0.1c-24.7,59.2-22.9,120.8,4.8,173.9C23.1,298.3,36,276.5,60.9,252
			c25.9-25.5,62.8-52.2,106.8-77.2C141.1,119.8,125.2,71.4,122.7,38.2z"
    />
    <path
      fill="currentColor"
      d="M3.5,261.3c-1.5-16.8,11.1-38.9,36.6-64c25.5-25.1,61.6-51.2,104.9-75.7l0.5,0.9C58.2,172,1.5,227.7,4.5,261.2L3.5,261.3z
			"
    />
    <path
      fill="currentColor"
      d="M1.5,201.6c-1.4-15.2,10.1-35.3,33.2-58.1c23.1-22.7,55.9-46.4,95-68.6l0.5,0.9C51.2,120.7-0.2,171.2,2.5,201.5L1.5,201.6
			z"
    />
    <path
      fill="currentColor"
      d="M89.8,227.2c-28-55-36.6-109-23.9-152.2l1,0.3c-12.5,42.9-4,96.6,23.9,151.4L89.8,227.2z"
    />
    <path
      fill="currentColor"
      d="M39.5,276.7C10.8,222.4,7.2,163.5,29.2,111l1,0.4C8.3,163.6,11.9,222.2,40.5,276.2L39.5,276.7z"
    />
    <path
      fill="currentColor"
      d="M83.2,348.4c-20.9,0-37.2-3.5-47.6-10.7c-7.4-5-11.5-11.8-12.3-20.1c-28.9-53.8-30.9-116.6-5.8-176.8l0.8-2l0.2,2.1
			c0.2,2.8,1.1,5.6,2.6,8c1.5,2.4,3.5,4.5,5.9,6c16.7,11.4,56.3,9.7,106.1-4.6l0.6-0.2v0.6c4.9,62.6,22.3,126.5,48.9,180l0.3,0.6
			l-0.6,0.2C143.6,342.7,109.7,348.4,83.2,348.4z M17.8,143.1c-24.3,59.4-21.9,121.1,6.7,174.1v0.2c0.7,8,4.7,14.5,11.8,19.4
			c22.9,15.7,77.2,13.4,145.3-6.1c-26.5-53.2-43.8-116.8-48.7-179.1c-50.5,14.4-89.3,16-106.4,4.3c-2.3-1.4-4.2-3.3-5.7-5.5
			C19.3,148.2,18.3,145.7,17.8,143.1L17.8,143.1z"
    />
    <path
      fill="currentColor"
      d="M54.5,229c-18.5,0-32.9-3.1-42.2-9.5c-3.1-1.9-5.7-4.6-7.5-7.7c-1.9-3.1-3-6.6-3.4-10.2l1.1-0.1c0.3,3.5,1.4,6.8,3.2,9.8
			c1.8,3,4.3,5.5,7.2,7.3c20.3,13.9,68.6,11.8,129.2-5.6l0.3,1C108,224,77.9,229,54.5,229z"
    />
    <path
      fill="currentColor"
      d="M45.4,342.5C16.8,289.1,12.6,223.9,33.5,159l1,0.3C13.6,224,17.9,288.8,46.3,342L45.4,342.5z"
    />
    <path
      fill="currentColor"
      d="M100.5,347.2c-27.9-53.4-37.4-119-26.8-184.8l1,0.2c-10.5,65.6-1,131,26.8,184.2L100.5,347.2z"
    />
    <path
      fill="currentColor"
      d="M342.6,33l-0.4-0.2c-59-31.8-124.9-43.6-185.6-33l-2.4,0.4l2.1-1.4c49.6-33.2,105.3-42.3,157-25.6
			c24.4-0.5,39.9,4.9,45.1,15.9c5.1,10.7-0.3,25.8-15.5,43.6L342.6,33z M200.9-5c47.5,0,96.4,12.5,141.4,36.7
			c14.7-17.3,19.9-31.9,15-42.2c-5-10.5-20.3-15.8-44.3-15.3H313h-0.1c-50.6-16.4-105.2-7.8-154.1,24.1C172.8-3.9,186.8-5,200.9-5
			L200.9-5z"
    />
    <path
      fill="currentColor"
      d="M281.9,7.6l-0.8-0.7c10.6-12.4,14.3-22.8,10.9-30c-3.4-7.3-14.4-11.2-31.3-10.8V-35c17.4-0.4,28.6,3.5,32.3,11.4
			S292.7-5.1,281.9,7.6z"
    />
    <path
      fill="currentColor"
      d="M359.3,1.2c-63.4-23.6-135.4-24.1-202.6-1.4l-0.3-1C223.8-24,296-23.5,359.6,0.2L359.3,1.2z"
    />
    <path
      fill="currentColor"
      d="M122.7,38.2v-0.8c-1.3-19.1,2-31.8,9.7-37.6c5.8-4.3,13.8-4.7,24-1.1C206-34.4,261.7-43.5,313.3-26.8l3,1h-3.1
			c-48.3,1.1-124.5,26.7-189.6,63.6L122.7,38.2z M143.8-2.7c-3.9-0.1-7.7,1.1-10.8,3.3c-7.4,5.5-10.5,17.6-9.4,35.9
			c63.7-36,137.9-61.1,186.3-63.2c-50.5-15.3-104.8-6-153.2,26.4l-0.2,0.2l-0.3-0.1c-3.9-1.5-8.1-2.4-12.2-2.5H143.8z"
    />
    <path
      fill="currentColor"
      d="M125.8,11.3l-0.5-0.9C171.7-16,226.1-34.2,260.6-35v1.1C226.3-33.1,172.1-15,125.8,11.3z"
    />
    <path
      fill="currentColor"
      d="M190.3,5C178.8-9.5,169.7-16.2,164-14.6c-3.7,1.1-6.1,5.8-7,14l-1-0.1c0.9-8.6,3.5-13.7,7.7-14.9
			c6.2-1.8,15.5,4.9,27.5,19.9L190.3,5z"
    />
    <path
      fill="currentColor"
      d="M17.7,143.2l-0.2-2.1c-1.1-12.2,7.6-27.7,24.1-44.8c21.7-31.6,49.4-58.4,81.7-79c1.4-8.2,4.5-14.1,9.1-17.6
			c5.8-4.4,14-4.7,24.3-1l1.2,0.4l-1.1,0.5c-11.2,5.4-22,11.6-32.4,18.3c-0.9,6.4-1.1,12.8-0.6,19.3v0.3l-0.3,0.2
			C88.6,57.6,60.3,78.7,41.9,97.9c-9.2,13.7-17,28.2-23.4,43.5L17.7,143.2z M37.6,102.5c-12.1,13.6-18.9,26.1-19.1,36.1
			C23.9,126.1,30.2,114,37.6,102.5L37.6,102.5z M123.1,18.7C93,38.1,66.7,63.1,45.8,92.2c18.3-17.7,44.6-36.8,76.8-55.1
			C122.2,31,122.3,24.8,123.1,18.7z M143.9-2.7c-3.9-0.1-7.7,1.1-10.8,3.3c-4.2,3.2-7,8.5-8.4,16c9.8-6.3,20-12.1,30.5-17.2
			C151.6-2,147.8-2.7,143.9-2.7z"
    />
    <path
      fill="currentColor"
      d="M50.2,84.6c-1.6-18.3,27.8-47.5,75.1-74.3l0.5,0.9C79.7,37.5,49.8,66.9,51.3,84.5L50.2,84.6z"
    />
    <path
      fill="currentColor"
      d="M97.1,36.7c-0.9-9.7,14.6-25.1,39.5-39.2l0.5,0.9c-24.1,13.7-39.8,29-39,38.2L97.1,36.7z"
    />
    <path
      fill="currentColor"
      d="M66.8,75.3l-1-0.3c12.7-43.2,44.8-70.3,90.6-76.3l0.1,1C111.1,5.7,79.3,32.5,66.8,75.3z"
    />
    <path
      fill="currentColor"
      d="M30.2,111.4l-1-0.4C51.3,58.5,96.4,18.7,156.3-1.2l0.3,1C97.1,19.6,52.2,59.2,30.2,111.4z"
    />
    <path
      fill="currentColor"
      d="M61.2,163.7c-15.3,0-27.1-2.6-34.7-7.8c-2.5-1.6-4.7-3.8-6.2-6.3c-1.6-2.6-2.5-5.5-2.8-8.4V141v-0.1
			C42.6,80.7,91.9,30.3,156.3-1.2l1.5-0.7L157-0.5c-19.7,35-27.9,88.8-23.1,151.3v0.4l-0.4,0.1C105.1,159.6,80.5,163.7,61.2,163.7z
			 M18.6,141.2c0.3,2.8,1.2,5.5,2.6,7.9c1.5,2.4,3.5,4.4,5.9,5.9c16.6,11.4,56.1,9.7,105.7-4.5C128,88.9,136,35.7,155.3,0.5
			C91.9,31.8,43.4,81.7,18.6,141.2L18.6,141.2z"
    />
    <path
      fill="currentColor"
      d="M81.5,100.8c-10.9,0-19.4-1.8-24.8-5.6c-1.8-1.2-3.4-2.7-4.5-4.6c-1.1-1.8-1.8-3.9-2-6.1l1.1-0.1c0.2,2,0.8,3.9,1.8,5.6
			c1,1.7,2.5,3.2,4.2,4.2c11.8,8.1,40,6.8,75.3-3.3l0.3,1C112.8,97.9,95.2,100.8,81.5,100.8z"
    />
    <path
      fill="currentColor"
      d="M113.7,45.4c-5.8,0-10.3-1-13.1-3c-1-0.6-1.8-1.5-2.4-2.5c-0.6-1-1-2.1-1.1-3.3l1.1-0.1c0.1,1,0.4,2,1,2.8
			c0.5,0.9,1.2,1.6,2.1,2.1c6.1,4.2,20.8,3.5,39.4-1.8l0.3,1C130.2,43.9,120.9,45.4,113.7,45.4z"
    />
    <path
      fill="currentColor"
      d="M34.5,159.3l-1-0.3C54.4,94.1,98,37.3,156.2-1.2l0.6,0.9C98.8,38,55.4,94.6,34.5,159.3z"
    />
    <path
      fill="currentColor"
      d="M74.6,162.6l-1-0.2C84.2,96.6,113.5,38.6,156.2-1.1l0.7,0.8C114.3,39.2,85.1,97.1,74.6,162.6z"
    />
    <path
      fill="currentColor"
      d="M177.5,436.4c-11.6,0-21.3-1.4-28.8-4.1l-2.4-0.9c-1.8-0.7-3.8-1.4-5.3-2.1c-2.6-1.1-6-2.5-8.3-3.6
			c-7.6-3.4-13.4-6.5-15.3-7.5c-3.3-1.8-8.4-4.7-14.5-8.4c-7.8-5-13.6-9.3-13.6-9.3c-6.4-4.9-8.1-6.2-12.7-10.2
			c-7-6-11.8-11-11.9-11l-1.7-1.8c-1.3-1.3-2.7-2.7-3.8-3.9c-1.9-2-4-4.3-5.5-6.1c-3.1-3.7-7-8.6-9.8-12.3c-1.1-1.5-2.5-3.4-3.7-5.1
			l-1.1-1.5c-1.1-1.6-5.3-7.8-8.7-13.6c-2.7-4.7-4.4-7.5-8.6-16.1c-0.6-1.3-2.8-5.9-4.3-9.5c-0.4-0.9-0.7-1.9-1.2-2.8
			c-0.9-2.2-1.8-4.4-2.5-6.3c-0.5-1.4-2.2-6.1-3.4-9.8c-2.1-6.7-4.2-15.5-5.1-19c-0.7-3-1.5-7-2-10.2c-0.9-6-1.9-12.9-2.4-18.2
			C0,231.5,0,224.2,0,222.2c0.1-7.8,0.2-12.1,1-20.8c0.4-4.7,1.3-11.2,2.7-20c0.5-3.3,1.4-7.5,2.2-10.9c0.5-2.1,1.1-4.5,1.7-6.9
			c0.3-1.1,0.5-2.1,0.8-3c0.8-3.3,2.2-7.6,3.2-11c3.7-11.4,8.1-22.6,13.3-33.4c2.8-5.8,6.7-13.1,9.6-18.2
			c3.7-6.4,8.7-14.1,10.2-16.3c2.9-4.4,7.4-10.6,11.4-15.6c1.9-2.4,4.2-5.3,6-7.3c2.1-2.5,5-5.7,6.9-7.9c2.7-3.1,6.7-7.2,10-10.4
			l0.5-0.5c1.6-1.6,3.6-3.5,5.2-5c3.4-3.1,6-5.5,7.9-7c6-5.1,8.4-7.2,17-13.5c1.8-1.3,4-2.8,5.6-4c2.8-1.9,6.7-4.4,9.5-6.2
			c1.8-1.1,8.4-5.1,13.9-8.1c3.4-1.8,9.2-4.9,17.2-8.4c5.6-2.5,10.3-4.3,13.2-5.5c6.2-2.3,9.4-3.4,14.7-5.1c2-0.7,7.5-2.2,11.3-3.3
			c5-1.3,5-1.3,13.1-3.1c5.9-1.3,16.6-3.1,23.5-3.9c4-0.5,13.4-1.5,26.1-1.9c10.2-0.2,18.7,0.2,22.8,0.4c4.1,0.3,9.7,0.8,14.6,1.3
			c2.8,0.3,6.9,0.8,10,1.4l1.5,0.3c3.7,0.6,8.2,1.4,11.7,2.1c1.8,0.4,6.5,1.3,10.1,2.3l3.1,0.8c3,0.8,6.5,1.7,9.1,2.5
			c5.6,1.8,13.3,4.4,19.6,6.7c0.1,0,9.8,3.7,20.4,8.9c11.9,5.8,19.8,10.9,19.9,11l1.7,1.1c2.2,1.4,4.8,3,6.7,4.4
			c3,2,6.5,4.4,8.9,6.3c4.8,3.8,11,8.8,15.5,12.5c2.5,2.1,5.6,5.1,7.8,7.3c1.4,1.4,4.9,4.8,7.4,7.6c3.8,4.2,8.9,10.3,12.8,15
			c1.9,2.4,4.2,5.6,6.2,8.4c1.2,1.7,2.7,3.9,3.9,5.8l1.5,2.3c0,0,5,7.6,10.4,18.2c4.7,9.2,7.9,17.1,8.4,18.6
			c1.8,4.5,4.2,10.8,5.4,15.2c1.4,4.6,3.1,10.7,4.2,15.2c0.5,1.9,1.1,4.5,1.8,8c0.5,2.5,1.1,5.6,1.4,8.1c0.7,4.7,1.4,11,2,15.6
			c0.2,1.6,0.8,9.4,0.9,16.5c0,4.8-0.2,11.3-0.4,15.9c-0.1,1.7-0.2,3.8-0.4,5.9c0,0.9-0.2,1.8-0.2,2.5c0,0.1-0.7,7.9-2.2,16.5
			c-0.4,2.3-1,5.9-1.6,8.5c-1.1,4.9-2.6,11.2-3.8,15.9c0,0.1-1.9,7.2-5.5,17.2c-2.8,7.8-8.3,16.5-16.3,25.9l-1.7,2l0.8-2.5
			c13.2-40.2,10.7-84.6-7.3-128.3c-22.8-55.7-67.8-103.9-126.9-135.7s-124.7-43.5-185.3-33c-19.7,35.1-27.8,88.7-23,151.1
			c4.9,62.4,22.3,126.5,48.9,180c21,42,45.9,73.8,71.9,91.7l0.9,0.6l-1.1,0.3C224.8,432,198.3,436.4,177.5,436.4z M264.1-33.9
			c-2,0-4.1,0-6.3,0.1c-12.7,0.3-22,1.4-26,1.8c-6.8,0.8-17.5,2.5-23.4,3.8c-8.1,1.8-8.1,1.8-13.1,3.1c-3.9,1-9.2,2.6-11.2,3.2
			c-5.3,1.7-8.5,2.8-14.7,5.1c-2.9,1.1-7.6,3-13.2,5.4c-7.9,3.5-13.7,6.6-17.1,8.4c-5.5,2.9-12,6.9-13.8,8c-2.8,1.8-6.6,4.2-9.4,6.2
			c-1.6,1.1-3.9,2.7-5.6,4c-8.4,6.3-11,8.4-17,13.4c-1.9,1.6-4.5,3.9-7.9,7c-1.6,1.4-3.6,3.4-5.2,4.9l-0.5,0.5
			c-3.2,3.2-7.2,7.4-9.9,10.4c-1.9,2.2-4.8,5.4-6.9,7.9c-1.7,2-4,4.9-5.9,7.3c-4,5-8.4,11.2-11.4,15.6c-1.4,2.2-6.5,9.8-10.2,16.2
			c-2.9,5-6.7,12.3-9.5,18.1c-5.2,10.8-9.6,21.9-13.3,33.3c-1.1,3.4-2.4,7.7-3.2,10.9c-0.2,0.9-0.5,2-0.8,3
			c-0.6,2.4-1.2,4.8-1.7,6.9c-0.8,3.3-1.7,7.6-2.2,10.8c-1.4,8.7-2.3,15.2-2.7,19.9c-0.8,8.6-0.8,12.9-1,20.7c0,2,0,9.2,0.9,20.4
			c0.4,5.2,1.4,12.1,2.4,18.1c0.5,3.1,1.3,7.2,2,10.2c0.9,3.5,3.1,12.3,5.1,19c1.2,3.8,2.9,8.4,3.4,9.8c0.7,1.9,1.6,4.1,2.5,6.3
			c0.4,1,0.8,2,1.2,2.8c1,2.5,2.6,6,4.2,9.5c4.2,8.5,5.8,11.3,8.5,16c3.3,5.7,7.5,11.9,8.6,13.5l1.1,1.5c1.2,1.7,2.5,3.6,3.7,5.1
			c2.8,3.6,6.8,8.5,9.8,12.2c1.5,1.8,3.6,4.1,5.5,6.1c1.1,1.2,2.5,2.6,3.8,3.9l1.7,1.8c0,0,4.9,5,11.8,10.9c4.6,4,6.3,5.3,12.7,10.1
			c0.1,0.1,5.8,4.4,13.6,9.3c5.9,3.8,11.1,6.6,14.4,8.4c1.9,1,7.6,4.1,15.2,7.5c2.4,1.1,5.7,2.5,8.3,3.6c1.6,0.6,3.5,1.4,5.3,2.1
			l2.4,0.9c20.6,7.6,58.5,4.5,104-8.5c-25.8-18.2-50.5-49.8-71.3-91.5C155,277.7,137.6,213.7,132.7,151
			C127.8,88.2,136.1,34.3,155.9-1l0.1-0.2h0.3c60.9-10.6,127,1.2,186.3,33.1c59.2,31.9,104.5,80.2,127.4,136
			c17.7,43,20.5,86.7,8.1,126.5c7-8.4,11.8-16.4,14.4-23.5c3.5-9.9,5.4-17,5.4-17.1c1.2-4.7,2.8-11,3.8-15.9
			c0.6-2.6,1.2-6.1,1.6-8.4c1.4-8.5,2.1-16.3,2.1-16.4c0.1-0.8,0.1-1.6,0.2-2.5c0.2-2,0.4-4.1,0.4-5.8c0.2-4.6,0.4-11,0.4-15.9
			c-0.1-7.1-0.7-14.9-0.8-16.4c-0.5-4.6-1.3-10.9-2-15.6c-0.4-2.4-1-5.5-1.4-8c-0.7-3.5-1.3-6.1-1.7-7.9c-1.2-4.5-2.8-10.6-4.2-15.2
			c-1.3-4.3-3.7-10.6-5.4-15.1c-0.6-1.5-3.7-9.4-8.4-18.5c-5.4-10.5-10.3-18-10.3-18.1c-0.5-0.7-1-1.5-1.5-2.3
			c-1.3-1.9-2.7-4.1-3.9-5.8c-2-2.8-4.2-6-6.2-8.4c-3.8-4.7-8.9-10.7-12.7-14.9c-2.5-2.8-6-6.2-7.3-7.5c-2.2-2.2-5.3-5.1-7.8-7.2
			c-4.4-3.7-10.6-8.8-15.4-12.5c-2.4-1.9-5.8-4.2-8.9-6.3c-2-1.3-4.5-2.9-6.7-4.3l-1.7-1.2c0,0-8-5.1-19.8-10.9
			c-10.5-5.2-20.2-8.8-20.3-8.9c-6.3-2.3-14.1-4.9-19.6-6.7c-2.7-0.8-6.1-1.7-9.1-2.5l-3.1-0.8c-3.5-0.9-8.2-1.9-10-2.2
			c-3.4-0.7-8-1.4-11.6-2.1l-1.5-0.3c-3.1-0.5-7.1-1-9.9-1.3c-4.9-0.5-10.6-1-14.6-1.3C277.2-33.7,271.4-33.9,264.1-33.9z"
    />
  </g>
</svg>
