<svg
  width="100%"
  className="icon"
  version="1.1"
  xmlns="http://www.w3.org/2000/svg"
  x="0px"
  y="0px"
  viewBox="0 0 511 225"
>
  <defs>
    <rect id="gridLandscapeRect" width="511" height="225" />
  </defs>
  <clipPath id="gridLandscape">
    <use href="#gridLandscapeRect" style="overflow: visible" />
  </clipPath>
  <g style="clip-path: url(#gridLandscape)">
    <path
      fill="currentColor"
      d="M471.1,287.9l-1.5-1.5c18.3-18.7,26.5-19.1,51.1-20.3l4-0.2c2.8-0.2,5.4-0.3,7.9-0.4c27.4-1.2,37.6-1.6,43.3-28.5
			c6.5-30.9,5.4-86.3,0.3-116.7c-3.8-22.9-19.4-35.6-36-49c-12-9.7-24.3-19.7-31.8-34C492,6,511.8-44.7,529.3-89.4
			c7.9-20.3,15.4-39.5,18.4-54.2l2.1,0.4c-3,15-10.5,34.2-18.5,54.6c-17.3,44.3-37,94.5-21,125c7.2,13.9,19.4,23.8,31.2,33.3
			c16.1,13,32.8,26.5,36.7,50.3c5.1,30.6,6.3,86.4-0.3,117.5c-6,28.5-17.5,29-45.3,30.2l-7.9,0.4l-4,0.2
			C496.9,269.4,488.8,269.8,471.1,287.9z"
    />
    <path
      fill="currentColor"
      d="M462.7,289.8l-1.5-1.5c18.6-18.5,26.4-19.2,52.5-21.4l6-0.5c27.8-2.1,37-2.9,42.7-29.2c7.2-32.5,8.9-87.6,3.7-117.6
			C562.1,96.2,546,83.5,529,70c-12.5-9.9-25.4-20.1-33.1-34.9C479.8,4,499.9-45,517.6-88.3c8.5-20.8,16.6-40.3,19.5-55.5l2.1,0.4
			c-3,15.4-11.1,35.1-19.6,56c-17.6,42.7-37.5,91.3-21.8,121.6c7.5,14.4,20.2,24.5,32.5,34.2c16.6,13.1,33.7,26.7,37.9,50.9
			c5.2,30.4,3.5,85.7-3.7,118.5c-6.1,27.8-16.7,28.6-44.9,30.8l-5.8,0.5C487.8,271.3,480.8,271.9,462.7,289.8z"
    />
    <path
      fill="currentColor"
      d="M457.8,294.3l-1.6-1.5c16.5-18.2,23.4-19.8,47-23.2h0.7c30.2-4.3,36.5-5.2,42.6-31.4c8.4-35.7,16.3-88.5,11-119.8
			c-4.1-24.4-21.4-37.6-39.7-51.6c-13.4-10.2-27.3-20.8-35.4-36.1c-16.4-31,4.8-78,23.5-119.5c9.3-20.5,18-39.9,21.2-55.3l2.1,0.4
			c-3.2,15.5-12,35.1-21.4,55.7c-18.5,41-39.5,87.6-23.5,117.6c7.9,15,21.5,25.3,34.8,35.4c17.9,13.6,36.3,27.8,40.6,52.9
			c5.3,31.6-2.6,84.8-11.1,120.6c-6.4,27.6-13.8,28.7-44.4,33h-0.7C480,275.2,473.8,276.6,457.8,294.3z"
    />
    <path
      fill="currentColor"
      d="M455.6,300.8l-2-0.8c7.4-18.3,22.5-23.1,37.1-27.8c15-4.7,29-9.2,36.1-26.9c4.4-10.9,6.2-24.5,8-37.7
			c1.1-9.4,2.7-18.8,4.9-28.1c0.8-3.2,1.8-6.4,2.7-9.8c4.9-17.5,9.9-35.5,6.5-52.8c-5-25.1-23.7-39.1-43.6-54
			c-16.6-12.5-33.8-25.3-41.7-45.2c-12.3-31,8.3-68.9,28.2-105.6c11.1-20.5,21.6-39.8,25.4-56.5l2.1,0.5
			c-3.9,17.1-14.4,36.4-25.6,57c-19.6,36.3-39.9,73.7-28,103.7c7.6,19.2,24.6,32,41,44.3c19.2,14.5,39.3,29.4,44.4,55.3
			c3.5,17.8-1.6,36.1-6.5,53.8c-0.9,3.3-1.8,6.5-2.7,9.7c-2.2,9.2-3.8,18.4-4.8,27.8c-1.8,13.3-3.7,27.1-8.2,38.2
			c-7.5,18.7-22.7,23.5-37.4,28.2S462.7,283.4,455.6,300.8z"
    />
    <path
      fill="currentColor"
      d="M455.4,309l-2.1-0.5c3.6-15.7,12.3-20.4,22.4-25.6c3.9-2,7.8-4.2,11.4-6.7c12.5-8.5,13.6-11.7,17.5-23.2
			c0.6-1.8,1.3-3.7,2-5.9c3.6-10.2,6.4-21.1,8.9-31.7c2.8-12.4,6.4-24.5,10.7-36.5c1.2-3.2,2.5-6.4,3.8-9.7
			c7.2-17.9,14.6-36.3,11.3-54.8c-4.9-26.8-25.8-41.7-47.9-57.5C475,43.8,456.1,30.3,447.5,9.4c-12.5-30.6,10-66.2,31.8-100.7
			c12.2-19.4,23.8-37.6,28.2-53.5l2.1,0.6c-4.5,16.4-16.1,34.8-28.4,54.2c-21.5,34-43.7,69.2-31.6,98.7c8.3,20.3,27,33.6,45.1,46.5
			c21.5,15.3,43.8,31.2,48.8,58.9c3.5,19-4.1,37.8-11.4,55.9c-1.3,3.3-2.6,6.5-3.8,9.7c-4.2,11.9-7.8,24-10.5,36.3
			c-2.6,10.7-5.4,21.6-9,31.9c-0.8,2.1-1.4,4.1-2,5.9c-3.9,11.5-5.2,15.3-18.3,24.3c-3.7,2.5-7.6,4.8-11.6,6.8
			C466.8,290,458.9,294.2,455.4,309z"
    />
    <path
      fill="currentColor"
      d="M456.6,318.4l-2.1-0.2c1.1-13.9,8.8-26.7,16.2-39c5.8-9.7,11.8-19.6,14.7-30.2c3.7-13.5,11.9-30.1,20.6-47.7
			c15-30.6,32-65.3,28-89.7c-4.7-28.7-29.2-45.4-52.8-61.6C460.9,36.2,440,22,430.8,0.1c-12.8-30.5,11.9-63.5,35.8-95.4
			c13.5-17.9,26.2-34.8,31.2-50.2l2,0.7c-5.2,15.7-18,32.8-31.6,50.8c-23.6,31.4-48,63.9-35.6,93.3c9,21.4,29.6,35.3,49.6,49
			c24,16.4,48.9,33.3,53.8,62.9c4.1,25.1-13.1,60.1-28.3,91c-8.5,17.5-16.7,34.2-20.4,47.4c-3,10.8-9.1,21-15,30.7
			C464.9,293.1,457.6,305,456.6,318.4z"
    />
    <path
      fill="currentColor"
      d="M456.4,328.5c-0.6-23.8,1.3-60.1,6.7-83.4c4.4-19.1,17.7-37.9,31.7-57.8c18.1-25.6,36.7-52.2,34.3-79
			c-2.7-29.8-31.2-48.9-58.7-67.3c-19.8-13.3-40.2-27-50.3-44.5c-19.8-34.2,7.3-64.8,33.5-94.3c14.1-15.8,28.6-32,34.8-48.3l2,0.7
			c-6.4,16.6-21,33.1-35.2,49c-25.6,29-52.3,58.9-33.3,91.8c9.9,17.1,29.2,29.9,49.7,43.8c28,18.7,56.9,38.1,59.7,68.9
			c2.5,27.5-16.4,54.4-34.7,80.4c-13.9,19.7-27,38.4-31.3,57c-5.4,23.2-7.2,59.2-6.7,82.9L456.4,328.5z"
    />
    <path
      fill="currentColor"
      d="M460.6,338.8h-2.1c0.1-14-4.8-27.3-9.5-40.2c-6-16.3-12.1-33-8.3-51.6c4.6-22,22.7-42.9,40.3-63.1
			c21.5-24.8,43.8-50.4,41.8-78.5c-2.2-31.1-33.9-51.8-64.6-71.7C435.5,18.9,414.1,5,403.5-13c-21-35.6,8.1-62.5,36.3-88.4
			c15.6-14.4,31.7-29.2,39.1-45.3l1.9,0.9c-7.7,16.5-24,31.5-39.8,46c-28.8,26.5-56,51.6-35.9,85.8c10.3,17.5,31.5,31.3,54,46
			c31.1,20.3,63.2,41.2,65.5,73.4c2.1,29-20.5,54.9-42.3,80c-17.4,20-35.3,40.6-39.8,62.2c-3.7,17.9,2.1,33.7,8.2,50.4
			C455.7,310.9,460.7,324.3,460.6,338.8z"
    />
    <path
      fill="currentColor"
      d="M460,348.9c-3.5-11.8-11.1-23.8-19.2-36.3c-13.2-20.6-26.8-41.9-22.1-63.7c5.1-23.7,26.9-45.3,48-66.2
			c25.1-24.9,51.1-50.6,49.5-80.1c-1-17.9-23-35.9-37.6-47.9l-5.1-4.3c-7.9-6.7-17.6-13.3-27.8-20.5C424,15,399.4-1.9,387.2-22.3
			c-22.3-37,8.8-60.4,38.8-83c17.1-12.8,34.8-26.2,43.4-42.2l1.9,1c-8.9,16.4-26.8,29.9-44,42.8c-30.6,23-59.5,44.9-38.2,80.2
			c12,20,36.3,36.8,57.7,51.6c10.3,7.1,20.1,13.9,28,20.6l5.1,4.3c15,12.2,37.3,30.5,38.4,49.4c1.7,30.5-24.6,56.6-50.1,81.8
			c-20.9,20.6-42.4,42-47.4,65.1c-4.5,21,8.9,41.9,21.9,62.1c8.2,12.8,15.9,24.8,19.5,36.9L460,348.9z"
    />
    <path
      fill="currentColor"
      d="M460.3,357.8c-5.4-13.2-17.1-25.8-29.7-39.2c-18-19.2-36.6-39-35-61.5c2.1-29.7,29.5-53.1,55.9-75.8
			c28.3-24.2,57.5-49.3,54-81.2c-3.9-35.4-38-55.7-71.1-75.2c-29-17.1-59-34.9-69.1-63.1c-9.9-27.8-3.6-37.1,21.7-53.2
			c7.5-4.7,14.5-8.7,21.4-12.5c19.9-11,37.1-20.6,51.3-44l1.8,1.1c-14.3,23.9-31.8,33.6-52,44.9c-6.8,3.8-13.9,7.7-21.4,12.4
			c-24.6,15.7-30.3,24.2-20.8,50.7c9.8,27.4,39.5,45,68.2,61.9c33.5,19.8,68.1,40.3,72.1,76.9c3.6,33.1-26.1,58.5-54.7,83.1
			c-26.1,22.3-53.1,45.3-55.2,74.1c-1.5,21.5,16.8,41,34.4,59.8c12.6,13.5,24.6,26.2,30.1,39.8L460.3,357.8z"
    />
    <path
      fill="currentColor"
      d="M458.8,365.3c-12-24.6-23.7-34.5-39.9-48.2c-5.1-4.3-11-9.2-17.4-15.1c-11.4-10.4-26.4-26.3-25.5-43.3
			c1.7-31.1,32.2-55,61.7-78c31.1-24.3,63.4-49.6,59.9-82.7c-3.9-36.7-40-57.7-74.9-78c-30.6-17.7-62.2-36.1-72.6-65.1
			c-6.1-5-9.4-10.4-10-16.1c-0.6-6.2,2.1-12.8,8.2-19.7l0.2-0.2l24.4-15.7c8.1-4.3,15.7-7.8,23.1-11.1c20.7-9.4,38.6-17.4,53.8-40.4
			l1.8,1.2c-15.5,23.5-33.7,31.6-54.7,41.1c-7.3,3.3-15,6.7-22.9,11L350-79.5c-5.5,6.4-8.1,12.5-7.6,18c0.5,5.2,3.7,10.2,9.4,14.8
			l0.2,0.2v0.3c10.2,28.4,41.5,46.7,71.9,64.3c35.4,20.5,71.9,41.8,75.9,79.6c3.6,34.3-29.1,59.8-60.7,84.6
			c-29.1,22.8-59.2,46.4-60.9,76.5c-0.9,16.1,13.7,31.5,24.8,41.6c6.4,5.9,12.2,10.7,17.3,15.1c16.4,13.8,28.3,23.8,40.5,48.9
			L458.8,365.3z"
    />
    <path
      fill="currentColor"
      d="M454.8,370.7c-13.6-25.8-27.3-36.1-46-50.2c-6.2-4.7-13.2-9.9-20.8-16.2c-9.8-8.1-30.2-25.1-29.2-44.5
			c1.6-32,34.4-56.2,66.2-79.6c33.3-24.5,67.8-49.9,64.2-83.8c-4-37.6-41.5-59.1-77.8-79.9C379.7-1.8,346.8-20.7,336-50.5
			c-6.3-5-9.7-10.4-10.2-16.1c-0.6-6.2,2.3-12.8,8.4-19.7l0.3-0.2l25.4-14.5c8.5-4,16.7-7.1,24.4-10c21.4-8,39.7-15,55.6-37.7
			l1.8,1.2c-16.3,23.3-35,30.4-56.6,38.4c-7.8,2.9-15.8,5.9-24.2,9.9l-25.2,14.3c-5.6,6.4-8.2,12.4-7.8,17.9
			c0.5,5.2,3.7,10.2,9.7,14.8l0.2,0.2l0.1,0.3c10.4,29.2,43.1,48,74.8,66.1c36.8,21.1,74.8,42.9,78.8,81.6
			c3.7,35.2-31.3,60.9-65.1,85.8c-31.3,23-63.7,47-65.3,77.9c-0.9,18.3,18.9,34.9,28.4,42.7c7.5,6.3,14.5,11.5,20.7,16.1
			c18.3,13.8,32.8,24.6,46.7,50.9L454.8,370.7z"
    />
    <path
      fill="currentColor"
      d="M447.7,373.6c-14.1-26.7-29.5-37.5-49.1-51.3c-6.9-4.8-14.8-10.4-23.3-17.1c-11.9-9.4-31.8-25.2-30.8-45
			c1.8-32.7,35.9-56.9,68.8-80.4c34.6-24.6,70.3-50,66.6-84.4c-4.1-38.1-42.5-59.9-79.6-81c-32.6-18.5-66.3-37.7-77.3-68
			c-6.3-5-9.7-10.4-10.2-16.1c-0.6-6.2,2.2-12.8,8.4-19.8l0.3-0.2l26-13.7c9-3.9,17.4-6.6,25.5-9.2c21.6-7,40.2-13.1,56.4-36.3
			l1.8,1.2c-16.6,23.8-35.6,29.9-57.5,37.1c-8.1,2.6-16.4,5.3-25.3,9.1L322.7-88c-5.6,6.4-8.2,12.5-7.7,18
			c0.5,5.2,3.7,10.2,9.7,14.8l0.3,0.2l0.1,0.3c10.7,29.7,44.1,48.7,76.5,67.2c37.6,21.4,76.5,43.5,80.6,82.7
			c3.8,35.7-32.4,61.5-67.5,86.4c-32.6,23.2-66.2,47-67.9,78.8c-1,18.7,18.4,34,29.9,43.2c8.4,6.6,15.9,11.9,23.2,17
			c19.8,13.8,35.5,24.8,49.8,51.9L447.7,373.6z"
    />
    <path
      fill="currentColor"
      d="M436.9,373.9c-14.1-26.4-29.6-37.5-49.3-51.6c-7.2-5.1-14.6-10.4-22.9-17.1c-12.6-10.1-31.7-25.4-30.7-44.9
			c1.6-32.7,35.8-57,68.8-80.5c34.6-24.6,70.3-50,66.7-84.5c-4-38.2-42.5-59.8-79.8-80.9C357-3.8,323.1-23,312.1-53.3
			c-6.2-5-9.6-10.4-10.2-16.2c-0.6-6.2,2.1-12.8,8.2-19.8l0.3-0.2l26.2-13.8c9.1-3.9,17.6-6.6,25.8-9.2
			c21.7-6.9,40.4-12.8,56.5-36.3l1.8,1.2c-16.5,24-35.5,30.1-57.7,37.1c-8.2,2.6-16.6,5.3-25.6,9.1l-25.9,13.6
			c-5.6,6.4-8.1,12.5-7.6,18c0.5,5.2,3.7,10.3,9.6,15l0.3,0.2v0.3c10.7,29.7,44.3,48.6,76.7,66.9c37.8,21.2,76.8,43.2,80.9,82.5
			c3.7,35.7-32.5,61.5-67.6,86.5c-32.6,23.2-66.3,47.2-67.9,78.9c-0.9,18.3,17.7,33.2,29.9,43.1c8.2,6.6,15.6,11.9,22.8,17.1
			c19.9,14.2,35.6,25.4,49.9,52.3L436.9,373.9z"
    />
    <path
      fill="currentColor"
      d="M423,373.9c-13.5-25.6-28.1-37.4-46.6-52.4c-6.4-5.1-12.8-10.4-20.1-16.9c-11.2-9.9-29.9-26.5-29.1-44.9
			c1.4-32.3,34.5-56.8,66.6-80.4c33.6-24.8,68.3-50.5,64.8-84.6c-4-38-42.3-58.9-79.4-79C346.7-1.9,313-20.3,302-50.2
			c-6.2-5-9.7-10.4-10.2-16.2c-0.6-6.2,2.1-12.8,8.2-19.8l0.3-0.2l26.2-14.3c9-4,17.5-7,25.6-9.8c21.9-7.6,40.8-14.1,56.8-37.5
			l1.8,1.2c-16.4,23.9-35.6,30.6-57.9,38.4c-8.1,2.8-16.5,5.7-25.4,9.7l-25.9,14.2c-5.5,6.4-8.1,12.5-7.6,18s3.7,10.2,9.6,15
			l0.2,0.2l0.1,0.3c10.7,29.3,44,47.5,76.3,65.2c37.5,20.5,76.4,41.7,80.5,80.8c3.7,35.3-31.5,61.3-65.6,86.5
			c-31.6,23.4-64.3,47.5-65.7,78.8c-0.8,17.5,17.5,33.6,28.3,43.3c7.2,6.4,13.7,11.6,20.1,16.8c18.6,15.1,33.4,27,47.1,53L423,373.9
			z"
    />
    <path
      fill="currentColor"
      d="M406.6,373.9c-6.8-14.4-21.6-28.7-37.2-43.8c-23.3-22.6-47.4-46-46-71.4c1.6-31.5,32.9-56.1,63.1-79.9
			c32-25.2,65-51.3,61.2-84.8c-4.3-37.4-42.2-57-78.8-76.1c-32.2-16.7-65.5-34-76.7-63.4c-6.2-4.9-9.6-10.3-10.2-16
			c-0.6-6.2,2.1-12.8,8.3-19.8l0.3-0.2l26.3-15.3c8.9-4.3,17.3-7.6,25.4-10.7c22.1-8.5,41.2-15.9,57.2-39.6l1.8,1.2
			c-16.4,24.3-35.7,31.8-58.2,40.4c-8.1,3.1-16.4,6.4-25.2,10.7l-26,15.2c-5.6,6.4-8.2,12.5-7.6,18.1c0.5,5.2,3.7,10.1,9.6,14.7
			l0.2,0.2v0.3c10.7,28.8,43.8,45.9,75.8,62.5c37.2,19.2,75.6,39.2,80,77.7c3.9,34.7-29.6,61.1-61.9,86.7
			c-29.9,23.5-60.7,47.8-62.3,78.4c-1.3,24.4,22.4,47.5,45.4,69.8c15.7,15.3,30.6,29.8,37.6,44.4L406.6,373.9z"
    />
    <path
      fill="currentColor"
      d="M388.1,373.8c-5.4-14-17.1-28.7-29.6-44.2c-19-23.7-38.7-48.2-36.7-72.5c2.5-30.1,31.1-54.9,58.6-78.8
			c31.2-27.1,60.7-52.6,56.4-85.4c-4.8-36.5-42.1-54.6-78.2-72c-31.8-15.4-64.8-31.4-76-60c-6.2-4.8-9.6-10.1-10.1-15.8
			c-0.6-6.2,2.1-12.9,8.4-20l0.2-0.2l26.3-16.5c8.8-4.6,17.2-8.3,25.3-11.8c22.4-9.7,41.7-18.1,57.7-42.4l1.8,1.2
			c-16.3,24.9-35.9,33.4-58.6,43.2c-8.1,3.5-16.4,7.1-25.1,11.7l-26.2,16.4c-5.7,6.6-8.3,12.7-7.7,18.3c0.5,5.1,3.7,10,9.5,14.5
			l0.3,0.2l0.1,0.3c10.8,28.1,43.5,43.9,75,59.2c36.6,17.8,74.4,36,79.3,73.7c4.4,33.9-26.9,61-57.1,87.3
			c-27.3,23.6-55.5,48.1-57.9,77.3c-2,23.5,17.4,47.6,36.2,71c12.6,15.7,24.5,30.5,29.9,44.9L388.1,373.8z"
    />
    <path
      fill="currentColor"
      d="M368.2,373.7c-3.8-14.2-12.2-29.2-21-45c-13.7-24.5-27.8-49.8-25.2-73.5c3.1-28.3,28.5-53.2,53.1-77.3
			c28.8-28,55.9-54.6,51.1-86.2c-5.5-35.4-42.1-51.6-77.4-67.3c-31.5-13.9-63.9-28.2-75.3-56c-6.1-4.7-9.5-9.9-10.1-15.5
			c-0.6-6.2,2.1-13,8.5-20.2l0.2-0.2l26.4-17.9c8.7-5.1,17.1-9.1,25.1-13c22.7-11.1,42.3-20.6,58.1-45.8l1.8,1.2
			c-16.2,25.6-36,35.3-59,46.5c-8,3.9-16.3,7.9-24.9,12.8l-26.2,17.8c-5.8,6.7-8.5,12.8-7.9,18.5c0.5,5.1,3.7,9.8,9.5,14.2l0.2,0.2
			l0.1,0.3c11,27.2,43.1,41.5,74.2,55.2c35.9,15.9,73,32.3,78.7,68.9c5.1,32.7-23.8,60.9-51.6,88.1c-24.3,23.8-49.5,48.4-52.5,76
			c-2.5,23,11.5,48,25,72.2c8.9,16,17.4,31.1,21.2,45.5L368.2,373.7z"
    />
    <path
      fill="currentColor"
      d="M347.3,373.6c-1.9-14.2-6.6-29.3-11.5-45.2c-7.9-25.4-16-51.6-12.7-75.2c3.6-25.9,25.6-50.7,46.8-74.8
			c25.1-28.4,51-57.7,45.4-88c-6.4-34.2-42.1-48.4-76.7-62.1c-31-12.3-63-25-74.5-52.1c-12.5-29.3,0.9-39.5,25.5-55.1
			c8.5-5.4,16.9-9.9,24.9-14.3c23-12.5,42.8-23.3,58.6-49.4l1.8,1.1c-16.1,26.5-36.2,37.5-59.4,50.2c-8,4.3-16.2,8.9-24.8,14.2
			c-26.3,16.6-35.9,26-24.6,52.4c11.2,26.4,42.7,38.8,73.3,50.9c35.1,13.9,71.4,28.4,78,63.7c5.8,31.3-20.5,61-45.9,89.7
			c-21,23.8-42.7,48.4-46.3,73.7c-3.2,23.1,4.8,49.1,12.6,74.2c5,16,9.7,31.2,11.6,45.6L347.3,373.6z"
    />
    <path
      fill="currentColor"
      d="M328.2,373.4h-2.1c0-13.6-1-27.5-2-42.4c-1.9-27-3.8-54.9,0.6-80c4-22.9,22.2-47.4,39.9-71c22.8-30.5,46.3-62.1,40-90.9
			c-7.2-32.9-42.2-45.1-75.9-56.8c-30.4-10.6-61.8-21.5-73.5-47.6c-12.7-28.2,1.5-39.9,25.7-56.6c8.5-5.8,16.7-10.8,24.7-15.6
			c23.3-14.1,43.4-26.2,59.1-53.3l1.8,1.1c-16,27.6-36.3,39.8-59.8,54c-7.9,4.8-16.2,9.8-24.6,15.6c-24,16.5-37,27.2-25,53.9
			c11.3,25.2,42.3,36,72.3,46.4c34.3,11.9,69.8,24.3,77.3,58.4c6.6,29.8-17.3,61.7-40.3,92.7c-17.5,23.5-35.6,47.7-39.5,70.1
			c-4.3,24.9-2.4,52.7-0.6,79.5C327.3,345.8,328.2,359.8,328.2,373.4z"
    />
    <path
      fill="currentColor"
      d="M307.1,373.6l-2.1-0.3c4.1-31.5,10-63.4,15.7-94.3c1.8-10,3.7-20,5.4-29.9c3.7-20.6,18-43.4,33.2-67.6
			c20.4-32.5,41.5-66.1,34.5-93.7c-8.1-31.7-42.2-41.8-75.2-51.6c-29.9-8.9-60.7-18-72.6-43.1c-13.7-28.6,3.8-41.6,26-58.1
			c8.4-6.3,16.6-11.7,24.6-16.9c23.6-15.6,44-29,59.6-57.1l1.9,1c-15.9,28.5-36.5,42.1-60.3,57.8c-7.9,5.2-16.1,10.7-24.5,16.8
			c-24.5,18.2-37.7,29.7-25.4,55.4c11.6,24.2,41.9,33.2,71.3,42c33.6,10,68.3,20.3,76.7,53.1c7.3,28.5-14.1,62.5-34.7,95.3
			c-15.1,24-29.3,46.6-32.9,66.8c-1.8,9.9-3.6,19.9-5.4,29.9C317.1,310.1,311.2,342.2,307.1,373.6z"
    />
    <path
      fill="currentColor"
      d="M286.7,373.7l-2.1-0.5c5-20.3,12.7-39.7,20.1-58.5c8.5-21.6,17.4-44,22-67.6c5.9-29.9,17.5-54.4,29.9-80.3
			c1.8-3.9,3.7-7.8,5.6-11.8c1.6-3.5,3.6-7.3,5.6-11.3c9.1-17.7,20.3-39.7,15.2-57.2c-8.9-30.5-42.2-38.7-74.5-46.8
			C279.2,32.5,249,25,236.7,0.9c-14-27.5,3.8-41.6,26.3-59.4c8.3-6.6,16.5-12.4,24.4-18.1c23.9-17.1,44.5-31.7,60.1-60.7l1.9,1
			c-15.9,29.4-37.7,45-60.8,61.4c-7.9,5.6-16,11.4-24.3,18C242.6-39.6,225.4-26,238.7,0c11.8,23.2,41.6,30.6,70.4,37.7
			c32.8,8.2,66.8,16.6,76,48.2c5.4,18.3-6.1,40.7-15.3,58.8c-2,4-4,7.7-5.6,11.2c-1.9,4-3.7,7.9-5.6,11.8
			c-12.8,27-23.9,50.3-29.6,79.8c-4.7,23.8-13.6,46.2-22.1,67.9C299.3,334.1,291.6,353.5,286.7,373.7z"
    />
    <path
      fill="currentColor"
      d="M267.5,373.8l-2-0.7c6.9-20.3,17.8-38.8,28.4-56.6c13.1-22.1,26.7-44.9,32-71c7-33.9,17-60.6,29.3-91.8
			c1.4-3.7,3.1-7.6,5-11.7c7.7-17.7,17.3-39.7,11.9-56.4c-9.5-29.5-42.2-36.1-73.9-42.5c-28.7-5.8-58.5-11.9-70.9-35
			c-14.2-26.5,4.1-41.9,25.4-59.8l1.1-0.9C262-59.8,270.2-66,278-72c24.1-18.3,44.9-34.2,60.6-63.9l1.9,1
			c-15.8,30.2-37.8,47-61.2,64.6c-7.8,6-16,12.1-24.2,19l-1.1,0.9c-21.4,18-38.3,32.2-24.9,57.1c12,22.3,41.2,28.3,69.5,34
			c32.2,6.5,65.6,13.3,75.5,43.9c5.7,17.5-4.1,39.9-12,57.9c-1.8,4.1-3.5,8.1-4.9,11.7c-12.3,31.2-22.2,57.7-29.2,91.5
			c-5.4,26.4-19.1,49.4-32.3,71.7C285.2,335.3,274.3,353.6,267.5,373.8z"
    />
    <path
      fill="currentColor"
      d="M250.1,373.8l-2-0.8c8.3-20.9,22.1-39,35.4-56.5c16.7-22,33.9-44.7,39.7-72.4c6.3-31,14.4-61.5,24.3-91.5
			c1.3-3.9,2.8-8.1,4.5-12.5c6.6-17.6,14.8-39.5,9.2-55.5c-10-28.8-42.2-34.2-73.3-39.2c-28.3-4.6-57.7-9.4-70.3-31.9
			c-14.5-25.6,4.5-42.3,24.5-59.8l2.1-1.9c8.2-7.2,16.3-13.7,24.1-19.9c23.3-18.6,45.3-36.3,60.9-66.5l1.9,1
			c-15.8,30.7-38,48.4-61.5,67.2c-7.8,6.3-15.9,12.8-24,19.9l-2.1,1.9c-20.2,17.7-37.7,33-24,57.2c12.2,21.6,40.9,26.3,68.8,30.8
			c31.8,5.2,64.6,10.6,75,40.6c5.8,16.8-2.5,39.1-9.2,57c-1.7,4.4-3.2,8.5-4.5,12.4c-9.9,29.9-18,60.4-24.2,91.3
			c-6,28.2-23.3,51.1-40.2,73.2C272,335.2,258.3,353.2,250.1,373.8z"
    />
    <path
      fill="currentColor"
      d="M235,373.8l-2-0.8c9.2-21.8,25.1-39.8,40.4-57.3c19.8-22.5,38.4-43.7,44.4-72.6l2.4-11.4c5.6-27.1,10.8-52.6,18.5-80
			c1.2-4.2,2.6-8.7,4.3-13.4c6-18.2,12.8-38.9,7.4-54.6c-9.7-28.6-41.8-32.9-72.8-37c-28.1-3.7-57.1-7.5-69.9-29.5
			c-14.6-25.1,4-42,23.8-59.8l2.9-2.6c8.1-7.4,16.2-14.1,24.1-20.6c23.5-19.4,45.5-37.7,61.2-68.2l1.9,1
			c-15.8,30.9-38.1,49.4-61.7,68.9c-7.8,6.4-15.9,13.2-24,20.5l-2.9,2.6c-19.1,17.2-37.1,33.5-23.4,57.1
			c12.3,21,40.8,24.8,68.3,28.4c31.7,4.3,64.4,8.5,74.5,38.4c5.5,16.4-1.4,37.4-7.4,56c-1.6,4.7-3,9.2-4.3,13.3
			c-7.7,27.3-12.8,52.8-18.5,79.8l-2.3,11.4c-6.1,29.4-25.8,51.8-44.9,73.5C259.8,334.5,244.1,352.4,235,373.8z"
    />
    <path
      fill="currentColor"
      d="M222.7,373.8l-2-0.8c9.2-23.2,26.4-41.3,42.9-58.8c20.4-21.6,39.8-42.1,45.6-71.3c1.1-5.3,2.1-10.5,3.1-15.7
			c5-25.6,9.8-50,16.2-75.6c1.1-4.5,2.6-9.4,4.3-14.7c5.5-18,11.8-38.4,6.6-53.4c-10-28.8-41.7-32.4-72.4-36
			c-27.9-3.2-56.7-6.5-69.6-28.5c-14.7-25,4.5-42.7,23.2-59.7l3.4-3.1c8.1-7.5,16.2-14.3,24-20.9c23.5-19.8,45.6-38.4,61.3-69l1.9,1
			C295.3-101.8,273-83,249.4-63.1c-7.8,6.6-15.9,13.4-23.9,20.8l-3.4,3.1c-18.8,17.2-36.6,33.5-22.8,56.9c12.4,21,40.6,24.3,68,27.4
			c31.4,3.6,63.8,7.4,74.2,37.4c5.4,15.6-1,36.5-6.6,54.8c-1.6,5.2-3.1,10.1-4.3,14.6c-6.4,25.5-11.1,49.8-16.2,75.5
			c-1,5.2-2,10.4-3.1,15.7c-5.9,29.9-26.4,51.5-46.1,72.4C248.9,333,231.8,351,222.7,373.8z"
    />
    <path
      fill="currentColor"
      d="M212.8,371.5l-2-0.8c9.3-23.5,26.6-41.6,43.3-59c20.5-21.4,39.8-41.5,45.7-70.8c2-10,3.9-20.1,5.7-29.8
			c3.7-19.4,7.5-39.5,12.2-59.5c1.1-4.6,2.6-9.7,4.1-15.1c5.1-17.6,10.9-37.4,5.9-52.1c-9.7-28.3-40.9-32.7-71-36.9
			c-27.3-3.8-55.5-7.8-68.2-29.4c-14.7-24.8,3.7-41.7,23.1-59.6l3-2.9c7.8-7.3,15.7-13.9,23.2-20.4c23.1-19.7,44.9-38.3,60.6-68.5
			l1.9,1c-15.8,30.6-37.8,49.4-61.1,69.2c-7.5,6.4-15.3,13.1-23.2,20.3l-3.1,2.8c-18.8,17.3-36.5,33.6-22.7,57
			c12.2,20.7,39.9,24.6,66.7,28.4c30.7,4.3,62.5,8.8,72.6,38.3c5.3,15.3-0.6,35.5-5.9,53.4c-1.6,5.4-3,10.4-4.1,15
			c-4.6,19.9-8.5,40-12.1,59.4c-1.8,9.8-3.7,19.8-5.7,29.9c-6,29.9-26.5,51.3-46.3,71.9C239.1,330.5,221.9,348.4,212.8,371.5z"
    />
    <path
      fill="currentColor"
      d="M204.3,365.2l-2-0.8c9.3-23.5,26.9-41.2,43.9-58.4c20.8-21,40.5-40.8,46.2-70.2c1.9-9.5,5.1-21.9,8.5-35
			c10.3-39.2,23.2-87.9,14.4-114.4c-9.3-27.8-39.1-33.3-67.9-38.7c-26.1-4.9-53.1-9.9-65.3-31.3c-14.3-24.9,3.8-41.8,23-59.6
			l2.3-2.1c7.5-7,15-13.4,22.1-19.6c22.3-19.2,43.3-37.4,58.5-66.9l1.9,1c-15.4,29.9-36.6,48.2-59,67.6c-7.2,6.2-14.6,12.6-22,19.6
			l-2.3,2.1c-19.2,18-36,33.5-22.6,57c11.7,20.5,38.2,25.5,63.8,30.2c29.4,5.5,59.8,11.2,69.5,40.1c9,27.1-3.9,76.2-14.3,115.7
			c-3.5,13.1-6.7,25.4-8.5,34.9c-5.9,29.9-26.7,51-46.8,71.3C230.9,324.6,213.4,342.2,204.3,365.2z"
    />
    <path
      fill="currentColor"
      d="M196.8,355.7l-2-0.8c9.8-23,27.4-40.6,44.4-57.7c22.3-22.3,43.3-43.3,47.9-75.3c1.4-9.7,4.3-22.4,7.3-35.8
			c7.5-33.2,16.7-74.5,10.3-98.3c-7.2-26.4-36.9-34.7-65.6-42.7c-21.5-6-43.8-12.2-56.1-26.1c-20.7-23.4-7.2-40.3,14.2-61.8
			c8.8-8.8,17.5-16.5,26-24c20.5-18.1,40-35.2,54.3-63.1l1.9,1c-14.6,28.2-34.2,45.5-54.8,63.7c-8.4,7.5-17.1,15.2-25.9,23.9
			C177.5-19.9,165-4.4,184.6,17.6c11.9,13.5,33.9,19.6,55.1,25.5c29.3,8.1,59.5,16.6,67,44.1c6.6,24.2-2.7,65.8-10.3,99.3
			c-3,13.3-5.8,26-7.2,35.6c-4.7,32.7-27,55-48.5,76.5C223.9,315.6,206.4,333.1,196.8,355.7z"
    />
    <path
      fill="currentColor"
      d="M190.2,343.6l-2-0.9c9.8-22.1,27.8-39.1,45.2-55.5c23.2-21.9,45.2-42.7,48.9-74.3c0.8-7.2,2.1-16,3.6-25.4
			c4.9-32,11.1-72.1,4.9-96c-6.7-26-33.6-36-59.8-45.7c-19.8-7.3-40.2-15-51.7-29.4c-19.2-24.2-6-41.2,13.3-60.9
			c8.2-8.4,16.3-15.7,24.2-22.7c19-17.1,37-33.2,50.1-60l1.9,0.9c-13.2,27.1-31.3,43.3-50.5,60.6c-7.9,7-16,14.3-24.1,22.6
			C175.8-24,163-7.6,181.1,15.1c11.2,14.1,31.3,21.5,50.8,28.7c26.6,9.8,54.1,20,61.1,47.1c6.2,24.3,0,64.5-4.9,96.8
			c-1.4,9.3-2.8,18.1-3.6,25.3c-3.8,32.5-27,54.3-49.6,75.7C217.6,305,199.8,321.9,190.2,343.6z"
    />
    <path
      fill="currentColor"
      d="M184.1,329.8l-1.9-0.9c10.4-21.6,28.5-37.7,46-53.3c22-19.6,42.7-38.2,49.1-66.4c5.6-24.9,5.3-87.6-2.4-112.9
			c-7.7-25.3-30.8-36.6-53.2-47.5C201.8,39,181.2,28.9,171,9c-10.1-19.9,2.4-37.9,14.3-51.6c9-10.1,18.6-19.7,28.8-28.5
			c16.3-14.7,30.3-27.4,42.5-53l1.9,0.9c-12.3,26.1-26.5,38.9-43,53.7c-10.1,8.8-19.7,18.3-28.6,28.3c-11.4,13.2-23.5,30.7-14,49.1
			c9.8,19.2,30.1,29.2,49.8,38.8c22.8,11.1,46.4,22.6,54.3,48.8c7.7,25.6,8,88.9,2.4,114c-6.4,28.9-27.5,47.7-49.8,67.6
			C212.3,292.7,194.4,308.7,184.1,329.8z"
    />
    <path
      fill="currentColor"
      d="M178.4,315l-1.9-1c14.1-26.4,26.9-39.1,50.4-57.8l6.8-5.4c22.6-17.7,37.4-29.4,40.5-58.5c2.5-23.5-5.5-68.1-11.9-92.2
			c-6.8-25.4-26.3-38.2-47-51.8C199.9,38.3,184,28,174.1,11.9c-16.5-26.7-0.3-44.7,16.8-63.8l1.3-1.4c6.4-7.1,12.2-12.8,17.7-18.4
			c14.3-14.2,25.6-25.5,36.3-49.1l1.9,0.9c-10.9,24.1-22.3,35.5-36.7,49.9c-5.6,5.5-11.3,11.3-17.6,18.3l-1.3,1.5
			c-17.3,19.2-32.3,35.9-16.6,61.2c9.6,15.6,25.3,25.9,40.6,35.8c20.1,13.2,41,26.8,47.9,53c6.4,24.3,14.5,69.3,12,93
			c-3.1,29.9-18.3,41.9-41.3,59.9l-6.8,5.4C205,276.4,192.3,289,178.4,315z"
    />
    <path
      fill="currentColor"
      d="M172.8,300l-1.9-1c14.6-26,27.2-37.8,51.7-56.1c2.8-2.1,5.5-4.1,8.2-6c20.8-15.2,38.9-28.3,39.5-55.1
			c0.4-14.7-7.1-34.2-13.7-51.5c-3.5-9.3-6.9-18-8.9-25.5c-6.6-24.5-22.8-39.1-40.1-54.6c-13.2-11.9-26.9-24.2-35.6-41.4
			c-15.7-31.1,8.9-58.2,32.6-84.5c13.1-14.4,25.4-28,31-41.9l2,0.8c-5.7,14.3-18.2,28-31.4,42.5C183-48.7,159-22,174,7.8
			c8.4,16.8,22,29,35.1,40.7c16.7,15,34,30.6,40.6,55.6c2,7.4,5.3,16.1,8.8,25.3c6.7,17.5,14.2,37.3,13.9,52.4
			c-0.7,27.8-19.1,41.3-40.4,56.8c-2.7,2-5.5,4-8.2,6C199.6,262.7,187.2,274.4,172.8,300z"
    />
    <path
      fill="currentColor"
      d="M166.9,285.6l-1.8-1.1c17.2-27.8,32.2-39.3,57.2-57.2c2.1-1.6,4.5-3.2,7.1-4.9c16.3-11.1,38.6-26.3,38.8-46.5
			c0.1-12.6-9.6-26.9-19.1-40.7c-6.7-9.8-13-19-15.8-27.4c-6.4-19.4-19.2-36.1-31.5-52.4c-13.3-17.5-27-35.5-32.5-56.6
			c-7.8-29.9,9.6-50.2,28-71.8c10.9-12.8,22.2-26,28-41.5l2,0.7c-5.9,15.8-17.3,29.2-28.3,42.2c-18,21.1-35,41.1-27.6,69.8
			c5.4,20.6,18.4,37.7,32.2,55.8c12.5,16.4,25.3,33.3,31.8,53c2.7,8.2,8.9,17.3,15.5,26.9c9.6,14.1,19.6,28.7,19.5,42
			c-0.2,21.4-23,36.9-39.7,48.2c-2.5,1.7-4.9,3.4-7.1,4.9C198.8,246.8,183.9,258.2,166.9,285.6z"
    />
    <path
      fill="currentColor"
      d="M160.7,272.4l-1.9-0.9c6.1-13.6,14.8-25.9,25.8-36c10.9-10.1,23.8-17.9,37.9-22.9c25.9-9.1,39.5-26.8,40.6-52.5
			c-2.6-10.4-11.4-16.5-20.6-23c-9.2-6.4-18.4-12.8-23.1-24v-0.3c-1.4-22.2-9.7-43.3-23.9-60.4c-15.1-18.9-26-40.7-32.3-64.1
			c-2.6-25.1,12.3-43.4,26.7-61.2c9.8-12,19.8-24.3,24.7-38.8l2.1,0.7c-5.1,14.8-15.3,27.3-25.1,39.4C177-53.4,163-36.2,165.4-12.1
			c6.1,23,17,44.5,31.8,63.2c14.3,17.4,22.8,38.9,24.2,61.4c4.5,10.5,13.5,16.8,22.3,22.9c9.6,6.7,18.7,13,21.5,24.3v0.1v0.1
			c-1.1,26.7-15.2,45.1-42,54.6c-13.8,4.9-26.4,12.6-37.2,22.5C175.3,247,166.7,259,160.7,272.4z"
    />
    <path
      fill="currentColor"
      d="M153.7,261.3l-1.9-0.9c13.2-27.9,35.1-47.2,64.8-57.5c26.2-8.4,40-25.6,41.2-51.3c-3.7-10.5-13.2-13.1-23.2-15.9
			c-10.5-2.9-22.3-6.3-28.7-19.2l-0.1-0.4c-0.7-22.4-7.3-44.3-19.2-63.3C173.9,32,164.9,9.2,160.1-14.7c-1.8-24,10.1-39.9,22.6-56.8
			c8.4-11.4,17.1-23.2,21.6-37.7l2.1,0.6c-4.5,15-13.3,26.8-21.9,38.4C172.3-53.6,160.7-38,162.3-15c4.7,23.6,13.5,46.1,26,66.7
			c12.1,19.2,18.8,41.4,19.5,64.1c6,12,16.8,15,27.3,18c10.5,3,20.6,5.8,24.7,17.5v0.2v0.2c-1.1,26.7-15.4,44.6-42.6,53.4
			C188.1,215,166.7,234,153.7,261.3z"
    />
    <path
      fill="currentColor"
      d="M145.8,253.2l-1.9-1c15.3-29.2,39.3-49.3,71.3-59.5c28.2-8.8,39.2-25.6,33.8-51.3c-11.2-5.9-24.1-7.4-36.4-4.3h-0.2h-0.2
			c-7.2-0.5-12.4-2.7-15.4-6.5c-3-3.8-3.7-8.7-2.7-15c-1.7-16.6-5.6-33-11.7-48.6c-10.8-24.2-19.5-49.2-26.1-74.9
			c-3.8-27.8,7-44.4,18.5-62.1c7.2-11.1,14.6-22.6,19-37.5l2.1,0.6c-4.5,15.3-12,26.9-19.2,38.1C165.4-51.3,154.9-35,158.5-8.2
			c6.6,25.5,15.3,50.4,26,74.5c6.2,15.8,10.2,32.4,11.9,49.3v0.2c-1,5.8-0.2,10.4,2.1,13.5c2.4,3.1,7.2,5.2,13.8,5.7
			c12.9-3.2,26.5-1.5,38.1,4.9l0.4,0.2v0.5c5.9,26.8-5.9,45-35.1,54.2C184.4,204.8,160.9,224.5,145.8,253.2z"
    />
    <path
      fill="currentColor"
      d="M136.7,248.6l-1.9-1c15.4-29.3,39.6-49.1,71.8-58.8c28.4-8.5,39.6-25.3,34.2-51.1c-12.5-5-26.5-5.2-39.1-0.4h-0.3
			c-7.7,0.3-13.2-1.5-16.4-5.1c-3.2-3.7-3.9-8.5-2.8-15.1c-1.9-16.8-5.4-33.3-10.5-49.4c-9.1-25.2-16.6-50.9-22.5-77.1
			c-3.2-27,6.6-43.3,16.8-60.5c6.4-10.8,13.1-22,17.3-36.7l2.1,0.6c-4.3,15-11,26.2-17.5,37.2c-10.1,16.9-19.6,32.8-16.6,59.1
			c5.8,26,13.3,51.6,22.4,76.7c5.2,16.3,8.8,33.1,10.7,50v0.3c-1,6-0.3,10.7,2.3,13.5c2.5,2.8,7.6,4.6,14.6,4.3
			c13.3-5,27.9-4.7,41,0.7l0.5,0.2l0.1,0.6c5.9,27-6.1,45.2-35.5,54.1C175.5,200.4,151.8,219.8,136.7,248.6z"
    />
    <path
      fill="currentColor"
      d="M126.5,248.1l-1.9-1c15.3-29.2,39.3-48.8,71.4-58.5c28.1-8.5,39.3-25.4,34.4-51.1c-12.8-4.9-27-4.9-39.8,0h-0.3
			c-7.8,0.3-13.3-1.3-16.6-5c-3.2-3.6-4.1-8.5-3-15.1c-2.3-16.7-5.7-33.3-10.4-49.6c-8-25.3-15-51.3-20.5-77.2
			c-3-26.9,6.4-43.7,16.3-61.6c5.9-10.7,12.1-21.6,16.1-35.5l2.1,0.6c-4.3,14.1-10.3,25.2-16.3,35.9c-9.8,17.5-19,34-16.1,60.2
			c5.6,25.8,12.5,51.7,20.5,76.9c4.7,16.4,8.2,33.1,10.4,50v0.3c-1,6.1-0.1,10.7,2.5,13.5s7.7,4.5,14.7,4.3
			c13.4-5.1,28.3-5,41.7,0.4l0.5,0.2l0.1,0.6c5.4,27-6.6,45.2-35.8,54.2C165.1,200.1,141.5,219.5,126.5,248.1z"
    />
    <path
      fill="currentColor"
      d="M118,249.9l-1.9-1c6.9-13.7,16.5-25.9,28.2-35.8c11.8-9.9,25.4-17.2,40.1-21.6c26.8-8.9,37.7-25.4,33.1-50.5
			c-12.1-5.9-25.9-7.2-39-3.9h-0.1h0c-7.5-0.3-12.8-2.3-16.1-6.1c-3.3-3.8-4.1-8.5-3.2-15.1c-2.6-16.3-5.8-32.8-9.5-48.9
			c-6.6-24.7-12.4-50-17.3-75.2c-2.6-26.3,5.8-44.9,14.7-64.7c5.3-11.1,9.8-22.6,13.3-34.4l2.1,0.6c-3.5,11.9-8,23.5-13.4,34.7
			c-8.8,19.5-17.1,37.9-14.5,63.5c4.8,25,10.7,50.3,17.2,75c3.7,16.3,6.9,32.8,9.5,49.3v0.3c-0.8,5.9,0.1,10.5,2.7,13.6
			s7.6,5.1,14.4,5.4c13.6-3.5,28-2,40.6,4.3l0.5,0.2v0.5c5,26.3-6.6,44.3-34.4,53.4c-14.4,4.3-27.9,11.6-39.4,21.3
			C134.1,224.4,124.7,236.4,118,249.9z"
    />
    <path
      fill="currentColor"
      d="M111.5,253.4l-1.9-0.9c6-13.2,14.7-24.9,25.5-34.5c10.8-9.6,23.6-16.8,37.4-21.2c25.2-9.3,35.1-25.6,30.4-49.9
			c-11.1-7.4-24.4-10.7-37.6-9.5H165c-13.9-2.4-20.1-10.3-18.6-23.3c-12.9-26.5-16.7-77.6-19.2-111.5c-0.2-3.1-0.4-6-0.7-8.8
			c-2-25.6,4.5-47,11.3-69.6c3.2-10.6,6.4-21.5,8.9-33l2.1,0.4c-2.5,11.6-5.7,22.6-8.9,33.2c-6.8,22.5-13.2,43.7-11.2,68.8
			c0.2,2.8,0.4,5.7,0.7,8.8c2.5,33.8,6.3,84.9,19.2,111.1l0.1,0.3v0.3c-1.5,12,4,19,16.7,21.4c13.8-1.2,27.7,2.3,39.2,10.1l0.4,0.2
			v0.4c5.1,25.4-5.6,43.1-31.7,52.8c-13.5,4.2-26,11.3-36.7,20.7C126,229,117.4,240.5,111.5,253.4z"
    />
    <path
      fill="currentColor"
      d="M106.5,258.1l-2-0.8c4.8-12.4,12.3-23.6,21.9-32.9c9.6-9.2,21.1-16.2,33.8-20.5c23-10,31.8-26.2,26.7-49.4
			c-10-9.2-22.6-15.1-36-16.7h-0.2c-13-4.7-18.8-13.5-17.4-26.4c-9.4-23.8-9.9-60.9-10.3-90.8c-0.1-8.8-0.2-17.1-0.6-24.3
			c-1.2-27,2.5-53.8,6.2-79.8c1.3-9,2.6-18.4,3.7-27.6l2.1,0.3c-1.1,9.2-2.4,18.6-3.7,27.8c-3.5,25.7-7.3,52.4-6.2,79.3
			c0.3,7.3,0.4,15.6,0.6,24.4c0.4,29.8,0.9,66.8,10.3,90.2v0.3v0.3c-1.4,12,3.8,20,15.9,24.4c14,1.8,27,7.9,37.3,17.5l0.3,0.2v0.3
			c5.5,24.2-3.9,41.8-27.9,52.2c-12.3,4.2-23.6,11.1-33,20.1C118.6,235,111.3,245.9,106.5,258.1z"
    />
    <path
      fill="currentColor"
      d="M102.7,263.7l-2.1-0.6c2.9-10.9,8.4-21,16-29.4c7.6-8.4,17.1-14.9,27.7-18.8c19.5-9.2,28.8-24.7,27.8-45.9
			c-2.9-13.7-13.5-20.4-24.8-27.4c-11.7-7.3-23.9-15-28.2-31.2c-6.3-23.5-4-53-1.8-81.5c1.1-13.6,2.1-26.4,2.1-37.9
			c0-16.3-0.6-32.8-1.2-48.8c-0.7-18.2-1.3-37.1-1.1-55.7h2.1c-0.2,18.6,0.5,37.4,1.1,55.5c0.6,16,1.2,32.6,1.2,48.9
			c0,11.6-1,24.5-2.1,38.1c-2.1,28.3-4.5,57.7,1.7,80.8c4.1,15.5,15.9,22.9,27.3,29.9c11.4,7,22.7,14.2,25.8,29
			c1.2,22.4-8.5,38.4-28.9,48.2c-10.3,3.9-19.6,10.2-27,18.4C110.8,243.1,105.5,253,102.7,263.7z"
    />
    <path
      fill="currentColor"
      d="M99.7,269.9l-2.1-0.4c3.8-21.1,15.5-36.4,34.8-45.5c16.7-9.9,24.1-24.9,21.8-44.4c-2.5-15.4-12.8-24.8-23.6-34.7
			c-11.3-10.3-22.9-20.9-25.6-38.9c-3.3-21.4,1.4-44.1,6-66.2c3.1-15.2,6.4-30.8,6.9-45.6c0.7-22.4-4-44.3-8.5-65.5
			c-3.5-15-6.1-30.2-7.9-45.6l2.1-0.2c1.7,15.2,4.4,30.4,7.9,45.3c4.5,21.4,9.2,43.4,8.5,66c-0.5,15-3.7,30.7-6.9,45.9
			c-4.6,21.9-9.2,44.5-6,65.4c2.7,17.3,14.1,27.6,25.1,37.7c10.7,9.7,21.7,19.8,24.3,35.9c2.4,20.5-5.3,36.2-22.9,46.6
			c-8.9,3.9-16.6,10-22.5,17.7C105,251.2,101.1,260.3,99.7,269.9z"
    />
    <path
      fill="currentColor"
      d="M96.8,276.6l-2-0.7c4-12.5,12.3-23.2,20.4-33.6c12.4-15.9,24-30.9,20.8-51.6c-2.6-16.6-12.6-29.1-22.2-41.2
			c-10.9-13.6-22.1-27.8-23.3-47.9c-1.2-20.1,6.1-39,13-57.2c5.7-15,11.7-30.5,12.8-46.6c1.8-24.8-7.5-49.1-16.6-72.5
			c-5.7-14.8-11.6-30.1-14.6-45.4l2.1-0.4c3,15,8.8,30.3,14.5,45c9.1,23.7,18.5,48.2,16.7,73.5c-1.2,16.3-7.2,32-13,47.2
			c-6.9,18-14,36.7-12.8,56.3c1.2,19.6,12.2,33.3,22.9,46.7c9.8,12.3,20,25,22.7,42.2c3.4,21.7-9.1,37.7-21.2,53.3
			C109,253.9,100.7,264.4,96.8,276.6z"
    />
    <path
      fill="currentColor"
      d="M94,283l-2.1-0.4c2.2-12.5,7.9-23,13.3-33.1c6.9-12.8,13.4-24.9,13.3-40.6c-0.1-20.1-10.4-37.3-20.3-53.9
			c-10.4-17.5-21.3-35.5-20.6-57.2c0.6-19.5,9.5-35.5,18.2-51c6.9-12.4,14-25.1,16.9-39.6c5.7-28.2-9-56.6-23.1-84.1
			c-7.9-15.3-16-31.1-20.2-46.3l2.1-0.6c4.1,15,11.9,30,20.1,45.9c14.3,27.8,29.1,56.5,23.4,85.4c-2.9,14.8-10.2,27.8-17.1,40.2
			c-8.9,16-17.3,31.1-17.9,50c-0.7,21.1,10,38.9,20.3,56c10.1,16.9,20.5,34.3,20.6,55c0.1,16.2-6.8,29.1-13.6,41.6
			C101.8,260.6,96.2,270.9,94,283z"
    />
    <path
      fill="currentColor"
      d="M88.7,289c-0.9-13,2.6-24.5,6.1-35.6c3.3-10.6,6.6-21.4,6.2-33.6c-0.8-20.4-9.9-39.5-18.7-58
			C72,140.5,61.5,118.4,63.9,94.4C66,74.6,77.2,60.7,88,47.3c8.9-11,18.1-22.4,22.2-37c8-28.3-12-59.8-31.3-90.4
			C68.6-96.4,58.8-111.8,53.8-126l2-0.7c4.9,14,14.6,29.3,24.8,45.5c19.6,30.9,39.8,62.9,31.6,92.1c-4.3,15-13.6,26.6-22.6,37.8
			C78.6,62.5,68,75.5,66.1,94.6c-2.4,23.5,7.6,44.2,18.1,66.2c8.9,18.7,18.1,38,18.9,58.8c0.5,12.6-2.9,23.6-6.3,34.3
			c-3.5,11.4-6.9,22.2-6,34.8L88.7,289z"
    />
    <path
      fill="currentColor"
      d="M84.4,294.5c-1-11.5-1.1-23.1-0.6-34.6c0.7-12.9,0.4-25.9-1.1-38.8c-2.3-16.2-9.2-33.6-16.4-51.9
			c-10.7-26.8-21.6-54.5-17.7-79.3c3.1-20.3,17.3-31.9,30.9-43.1c9.9-8.1,20.1-16.5,26-28.1C120-9.5,91.9-48.7,67.3-83.1
			c-12.2-16.8-23.5-32.7-28.6-45.5l2-0.8c5,12.6,16.3,28.4,28.3,45c25.1,35,53.5,74.8,38.4,103.9c-6.2,12-16.5,20.5-26.6,28.8
			c-14,11.5-27.1,22.3-30.2,41.8c-3.8,24.3,7.1,51.7,17.6,78.2c7.3,18.5,14.2,35.9,16.6,52.4c1.5,13,1.9,26.1,1.1,39.2
			c-0.6,11.4-0.4,22.9,0.6,34.3L84.4,294.5z"
    />
    <path
      fill="currentColor"
      d="M78.9,298.8c-1.3-13.6-3.9-27.4-6.5-40.8c-1.9-9.7-3.8-19.8-5.2-29.7c-2.1-15.7-8.5-33.7-15-52.7
			C41.6,144.8,30.4,112.9,35.6,87c4.3-21.1,20.1-31.1,35.5-40.8c11.1-7,22.6-14.2,29.6-25.6C114.7-1.8,100.1-21,86-39.5
			c-2-2.6-4-5.2-5.8-7.8C74.6-55,69.2-61.9,64-68.6C48.9-88.1,35.9-105,24.7-130.8l2-0.8C37.8-106,50.7-89.3,65.7-70
			c5.2,6.7,10.6,13.7,16.2,21.4c1.9,2.5,3.8,5.1,5.8,7.7c13.9,18.2,29.6,38.9,15,62.5c-7.3,11.8-19,19.1-30.3,26.2
			c-15.7,9.9-30.5,19.2-34.6,39.4c-5.1,25.4,5.9,57,16.6,87.6C61,194,67.2,212,69.5,227.9c1.4,9.9,3.3,19.9,5.2,29.6
			c2.9,13.6,5.1,27.2,6.5,41L78.9,298.8z"
    />
    <path
      fill="currentColor"
      d="M71.8,301.7c-0.7-12.7-4.9-24.1-9.4-36.3c-3.7-10.2-7.6-20.7-9.2-32c-2.1-15.2-7.9-33.3-13.9-52.4
			c-10.7-34-21.9-69.1-16-95.9c4.9-22,22-30.6,38.6-39C73.9,40,86.4,33.7,94.2,22.3c15.1-22.2-1.3-42.5-15.8-60.3
			c-2.3-2.9-4.5-5.6-6.6-8.3c-6.2-8.2-12.2-15.5-18-22.5c-16.2-19.7-30.1-36.7-42.2-63.2l1.9-0.9c11.9,26.3,25.8,43.2,41.9,62.8
			c5.8,7.1,11.8,14.4,18.1,22.6c2.1,2.7,4.3,5.4,6.6,8.3C95-21,112,0,95.9,23.5c-8.1,11.9-20.8,18.3-33.1,24.5
			C45.9,56.5,30,64.5,25.3,85.5c-5.8,26.3,5.2,61.1,15.9,94.7c6.1,19.2,11.8,37.4,14,52.8c1.6,11.1,5.4,21.6,9.1,31.6
			c4.3,11.7,8.8,23.9,9.5,36.9L71.8,301.7z"
    />
    <path
      fill="currentColor"
      d="M64.7,302.9h-2.1c0-8.7-2.8-13.8-5.9-19.2c-1.6-2.7-3-5.6-4.3-8.5c-5.6-14.1-8.7-21.8-11.3-39.3
			c-2.3-14.8-7.5-32.4-13.1-51.2C17.7,150.5,6.1,112,12,84.3c4.9-23,22.7-30.8,40-38.3c12.6-5.5,25.6-11.1,33.8-22.8
			C101.3,1,84.2-19.5,69.1-37.7c-2.4-2.9-4.6-5.6-6.7-8.2C55.7-54.5,49.3-62.1,43-69.4c-16.6-19.5-30.9-36.3-43-63.4l1.9-0.9
			c12,26.8,26.2,43.5,42.7,62.9c6.2,7.3,12.7,15,19.4,23.5c2.1,2.6,4.3,5.3,6.7,8.2c14.8,17.8,33.3,40,16.8,63.5
			C79,36.5,65.7,42.3,52.8,47.8c-17.5,7.6-34,14.8-38.7,36.8c-5.8,27.1,5.7,65.4,15.8,99.3c5.6,18.8,10.9,36.5,13.2,51.4
			c2.6,17.3,5.5,24.5,11.2,38.8c1.2,2.9,2.6,5.7,4.3,8.4C61.7,288.3,64.7,293.6,64.7,302.9z"
    />
  </g>
</svg>
