<svg
  width="100%"
  className="icon"
  version="1.1"
  xmlns="http://www.w3.org/2000/svg"
  x="0px"
  y="0px"
  viewBox="0 0 564 225"
>
  <defs>
    <rect id="gridHoleRect" width="564.1" height="225.1" />
  </defs>
  <clipPath id="gridHole">
    <use href="#gridHoleRect" style="overflow: visible" />
  </clipPath>
  <g style="clip-path: url(#gridHole)">
    <path
      fill="currentColor"
      d="M246.6,128.2l-0.4-0.2c-9.5-5.4-10.8-10.6-10.1-13.9c1.5-7.7,14.2-14.7,34.3-19.5c41-61.4,63.4-132.9,63.5-205.2h1.1
			C334.8-25,319.4,46.9,291.5,91.6l-0.1,0.2h-0.2c-7.3,1-14,2.2-20.1,3.6c-7.5,11.2-15.6,22-24.2,32.4L246.6,128.2z M269.5,95.9
			c-19.1,4.6-31,11.2-32.4,18.4c-0.8,4.3,2.3,8.6,9.2,12.6C254.6,116.8,262.3,106.5,269.5,95.9z M332.6-70.6
			c-7,58.9-27.8,115.4-60.7,164.7c5.7-1.3,12-2.4,18.8-3.3C314,53.4,328.4-3,332.6-70.6z"
    />
    <path
      fill="currentColor"
      d="M294.1,55c-4.5-2.6-5-5-4.7-6.7c0.9-4.8,10.3-8.8,25.2-10.8l0.1,1.1c-13.9,1.9-23.5,5.8-24.3,9.9c-0.5,2.3,2,4.3,4.2,5.5
			L294.1,55z"
    />
    <path
      fill="currentColor"
      d="M237.1,114l-0.8-0.8c62.7-58.9,97.4-138.4,97.5-223.8h1.1C334.8-24.9,300.1,54.9,237.1,114z"
    />
    <path
      fill="currentColor"
      d="M34.6,250.2l-0.2-0.1c-25.3-14.4-37-30.3-33.9-46.3c6.5-33.7,78-63.7,186.5-78.3h0.2l0.2,0.1c18.3,10.4,36,13.1,52.5,8.7
			c1.9-2.2,3.8-4.4,5.6-6.6c-9-5.3-10.2-10.3-9.6-13.6c2-10,23-19,54.9-23.2l1.1-0.1l-0.6,1c-14.8,23.8-32.1,38.4-51.1,43.7
			c-55.9,63.8-128.6,104.5-205.7,114.9L34.6,250.2z M187,126.7c-108,14.6-179,44.2-185.4,77.4c-2.9,15.4,8.5,30.9,33.2,45
			c76.3-10.3,148.3-50.4,203.8-113.3C222.3,139.8,204.9,136.8,187,126.7z M290,92c-30.8,4.3-51.1,12.8-52.8,22.2
			c-0.8,4.4,2.5,8.8,9.6,12.8l0.6,0.3l-0.4,0.5c-1.6,1.9-3.3,3.9-5,5.8C259.7,128.2,275.9,114.2,290,92z"
    />
    <path
      fill="currentColor"
      d="M9.3,202.7c-2.6,0-5.2,0-7.8-0.1v-1.1c88.7,2,172.2-29.4,234.9-88.4l0.8,0.8C176,171.4,95.4,202.7,9.3,202.7z"
    />
    <path
      fill="currentColor"
      d="M235.9,116.6v-1.4c0.2-1.5,0.6-3,1.4-4.4c0.8-1.4,1.8-2.6,3-3.5c10.1-9.3,16.7-16.7,16.8-16.8
			c4.6-5.2,10.5-12.2,14.8-17.5c1.8-2.3,4.3-5.6,7.3-9.8c2.3-3.3,5-7.1,6.8-10.1c3.8-6.1,8.6-14.3,12.1-20.4
			c1.5-2.7,6.8-13,10.8-22.2C317-8.3,323.2-28,327.4-48.1c0.2-1,0.4-1.9,0.6-2.9c0.6-3.1,1.2-6.2,1.7-9.4v-0.1
			c1.1-7.4,2.3-17.3,3.1-24.8c0.3-4.1,0.6-8.3,0.8-12.4c0-0.1,0-0.2,0-0.3c0.1-2.6,0.2-5.7,0.2-8.8c0-1.5,0-2.8,0.1-4h1.1
			c0,4.4-0.1,8.8-0.3,13.1c-0.2,3.9-0.4,8.8-0.8,12.4c-0.7,8.4-1.7,16.7-3.1,24.9c-0.4,2.7-1,6.1-1.7,9.3
			C316.7,12,285,69.7,236.8,115.7L235.9,116.6z M270.7,76.2c-4,4.9-8.9,10.6-12.8,15c0,0.1-6.7,7.5-16.8,16.9
			c-1.8,1.5-3.1,3.4-3.8,5.6C249.3,102.1,260.5,89.6,270.7,76.2z"
    />
    <path
      fill="currentColor"
      d="M246.6,128.2l-0.4-0.2c-9.5-5.4-10.8-10.6-10.1-13.9c1.5-7.7,14.2-14.7,34.3-19.5c41-61.4,63.4-132.9,63.5-205.2h1.1
			C334.8-25,319.4,46.9,291.5,91.6l-0.1,0.2h-0.2c-7.3,1-14,2.2-20.1,3.6c-7.5,11.2-15.6,22-24.2,32.4L246.6,128.2z M269.5,95.9
			c-19.1,4.6-31,11.2-32.4,18.4c-0.8,4.3,2.3,8.6,9.2,12.6C254.6,116.8,262.3,106.5,269.5,95.9z M332.6-70.6
			c-7,58.9-27.8,115.4-60.7,164.7c5.7-1.3,12-2.4,18.8-3.3C314,53.4,328.4-3,332.6-70.6z"
    />
    <path
      fill="currentColor"
      d="M294.1,55c-4.5-2.6-5-5-4.7-6.7c0.9-4.8,10.3-8.8,25.2-10.8l0.1,1.1c-13.9,1.9-23.5,5.8-24.3,9.9c-0.5,2.3,2,4.3,4.2,5.5
			L294.1,55z"
    />
    <path
      fill="currentColor"
      d="M237.1,114l-0.8-0.8c62.7-58.9,97.4-138.4,97.5-223.8h1.1C334.8-24.9,300.1,54.9,237.1,114z"
    />
    <path
      fill="currentColor"
      d="M34.6,250.2l-0.2-0.1c-25.3-14.4-37-30.3-33.9-46.3c6.5-33.7,78-63.7,186.5-78.3h0.2l0.2,0.1c18.3,10.4,36,13.1,52.5,8.7
			c1.9-2.2,3.8-4.4,5.6-6.6c-9-5.3-10.2-10.3-9.6-13.6c2-10,23-19,54.9-23.2l1.1-0.1l-0.6,1c-14.8,23.8-32.1,38.4-51.1,43.7
			c-55.9,63.8-128.6,104.5-205.7,114.9L34.6,250.2z M187,126.7c-108,14.6-179,44.2-185.4,77.4c-2.9,15.4,8.5,30.9,33.2,45
			c76.3-10.3,148.3-50.4,203.8-113.3C222.3,139.8,204.9,136.8,187,126.7z M290,92c-30.8,4.3-51.1,12.8-52.8,22.2
			c-0.8,4.4,2.5,8.8,9.6,12.8l0.6,0.3l-0.4,0.5c-1.6,1.9-3.3,3.9-5,5.8C259.7,128.2,275.9,114.2,290,92z"
    />
    <path
      fill="currentColor"
      d="M9.3,202.7c-2.6,0-5.2,0-7.8-0.1v-1.1c88.7,2,172.2-29.4,234.9-88.4l0.8,0.8C176,171.4,95.4,202.7,9.3,202.7z"
    />
    <path
      fill="currentColor"
      d="M241,108.1l-0.8-0.8c5-4.8,11.3-11.1,15.7-15.6c1.8-1.9,3.9-4.4,5.8-6.5l2.3-2.7c0,0,7.5-8.8,14.6-18.8
			c2.5-3.5,5-7.2,6.9-10.1c3.8-6,8.7-14.2,12.1-20.4c1.5-2.7,7-13.3,10.9-22.3c8.2-18.9,14.5-38.5,18.7-58.6
			c0.9-4.4,1.8-8.9,2.3-12.4c1.1-7.4,2.3-17.4,3.1-24.8c0-0.1,1.1-11.3,1.1-25.7h1.1C334.8-24.9,301.5,52.8,241,108.1z"
    />
    <path
      fill="currentColor"
      d="M246.6,128.2l-0.4-0.2c-9.5-5.4-10.8-10.6-10.1-13.9c1.5-7.7,14.2-14.7,34.3-19.5c41-61.4,63.4-132.9,63.5-205.2h1.1
			C334.8-25,319.4,46.9,291.5,91.6l-0.1,0.2h-0.2c-7.3,1-14,2.2-20.1,3.6c-7.5,11.2-15.6,22-24.2,32.4L246.6,128.2z M269.5,95.9
			c-19.1,4.6-31,11.2-32.4,18.4c-0.8,4.3,2.3,8.6,9.2,12.6C254.6,116.8,262.3,106.5,269.5,95.9z M332.6-70.6
			c-7,58.9-27.8,115.4-60.7,164.7c5.7-1.3,12-2.4,18.8-3.3C314,53.4,328.4-3,332.6-70.6z"
    />
    <path
      fill="currentColor"
      d="M294.1,55c-4.5-2.6-5-5-4.7-6.7c0.9-4.8,10.3-8.8,25.2-10.8l0.1,1.1c-13.9,1.9-23.5,5.8-24.3,9.9c-0.5,2.3,2,4.3,4.2,5.5
			L294.1,55z"
    />
    <path
      fill="currentColor"
      d="M334.8,143.4c-36.4,0-71.5-5.7-88.6-15.4l-0.6-0.3l0.4-0.5c56.5-67.9,87.7-152.3,87.9-237.8h1.1
			c-0.2,85.5,14.9,174.5,42.5,250.6l0.2,0.6l-0.7,0.1C363,142.5,348.9,143.4,334.8,143.4z M247.3,127.3
			c23.8,13.1,81.2,18.6,128.9,12.3c-25-69.2-39.7-149.2-41.9-227.4C329.1-10.2,298.7,65.4,247.3,127.3L247.3,127.3z"
    />
    <path
      fill="currentColor"
      d="M334.5,62.1c-16.6,0-32.6-2.6-40.4-7l0.5-1c10.7,6.1,37.1,8.6,58.9,5.7l0.1,1.1C347.3,61.7,340.9,62.1,334.5,62.1z"
    />
    <path
      fill="currentColor"
      d="M280.6,138.4l-1-0.5c34.9-74.8,54.1-163.1,54.3-248.6h1.1C334.8-25,315.5,63.5,280.6,138.4z"
    />
    <path
      fill="currentColor"
      d="M327.4,142.8l-1.1-0.1c4.7-77.8,7.4-167.8,7.5-253.3h1.1C334.8-25.1,332.1,64.9,327.4,142.8z"
    />
    <path
      fill="currentColor"
      d="M376.6,140.7l-0.1-0.4C348.8,64.1,333.7-25,333.9-110.6h1.1c-0.2,85.4,30.7,161.5,87,214.2c9.4,5.3,10.6,10.5,10,13.9
			c-1.9,10-23,19-54.9,23.2L376.6,140.7z M335.9-72.9c3.6,73.4,18,147.6,41.4,212.4c31.2-4.2,51.7-12.8,53.6-22.3
			c0.8-4.4-2.5-8.8-9.6-12.8C373.2,59.4,343.6-2.6,335.9-72.9z"
    />
    <path
      fill="currentColor"
      d="M353.7,60.8l-0.1-1.1c13.9-1.9,23.5-5.8,24.3-9.9c0.4-2.3-2-4.3-4.2-5.5l0.5-1c4.5,2.6,5,5,4.7,6.7
			C378,54.8,368.6,58.8,353.7,60.8z"
    />
    <path
      fill="currentColor"
      d="M414.8,131.2c-52.4-70.2-81.1-156.1-81-241.8h1.1c-0.2,85.4,28.5,171.1,80.7,241.1L414.8,131.2z"
    />
    <path
      fill="currentColor"
      d="M430.9,118.2c-62.7-61.9-97.2-143.2-97-228.9h1.1c-0.2,85.4,34.2,166.4,96.7,228.1L430.9,118.2z"
    />
    <path
      fill="currentColor"
      d="M34.6,250.2l-0.2-0.1c-25.3-14.4-37-30.3-33.9-46.3c6.5-33.7,78-63.7,186.5-78.3h0.2l0.2,0.1c18.3,10.4,36,13.1,52.5,8.7
			c1.9-2.2,3.8-4.4,5.6-6.6c-9-5.3-10.2-10.3-9.6-13.6c2-10,23-19,54.9-23.2l1.1-0.1l-0.6,1c-14.8,23.8-32.1,38.4-51.1,43.7
			c-55.9,63.8-128.6,104.5-205.7,114.9L34.6,250.2z M187,126.7c-108,14.6-179,44.2-185.4,77.4c-2.9,15.4,8.5,30.9,33.2,45
			c76.3-10.3,148.3-50.4,203.8-113.3C222.3,139.8,204.9,136.8,187,126.7z M290,92c-30.8,4.3-51.1,12.8-52.8,22.2
			c-0.8,4.4,2.5,8.8,9.6,12.8l0.6,0.3l-0.4,0.5c-1.6,1.9-3.3,3.9-5,5.8C259.7,128.2,275.9,114.2,290,92z"
    />
    <path
      fill="currentColor"
      d="M336.5,302.5c-124,0-243.8-19.3-302-52.4l-1.5-0.8l1.6-0.2c79.8-10.7,154.9-54,211.4-122l0.3-0.4l0.4,0.2
			c23.6,13.4,82,19,130.2,12.5h0.4l0.2,0.4c27.5,76,64.2,130.1,103.3,152.3l1.5,0.8l-1.6,0.2C432.8,299.5,384.7,302.6,336.5,302.5z
			 M36.4,250c81.4,45.2,278.9,64.2,442.4,42.5c-38.7-22.8-75-76.6-102.3-151.7c-48,6.4-106.1,0.8-130-12.5
			C190.3,195.7,115.8,238.8,36.4,250z"
    />
    <path
      fill="currentColor"
      d="M149.8,286.7l-0.4-1c49.1-20.4,95.4-72.9,130.2-147.7l1,0.5C245.6,213.5,199.2,266.1,149.8,286.7z"
    />
    <path
      fill="currentColor"
      d="M310,301.8l-1.1-0.3c6.5-24.6,12.7-81,17.4-158.8l1.1,0.1C322.7,220.6,316.6,277.1,310,301.8z"
    />
    <path
      fill="currentColor"
      d="M480.4,293.3l-0.2-0.1c-39.4-22.3-76.2-76.6-103.8-152.9l-0.2-0.6l0.7-0.1c31.5-4.2,52.2-12.8,54-22.4
			c0.3-1.7,0-3.4-0.8-4.9c-3-2.6-6-5.2-8.9-7.9l-3.4-3.2l4,2.3c5,2.9,7.7,5.6,9.1,8.1c55.1,47,126.3,67.2,202,57h0.2l0.2,0.1
			c25.3,14.3,37,30.3,33.9,46.3c-6.5,33.7-78,63.7-186.5,78.3H480.4z M377.7,140.6c27.5,75.6,64,129.4,102.9,151.6
			c108-14.6,179-44.2,185.4-77.4c2.9-15.4-8.5-30.9-33.2-45c-75.1,10.1-146-9.8-201-56c0.3,1.2,0.4,2.4,0.1,3.7
			C430,127.4,409.3,136.3,377.7,140.6L377.7,140.6z"
    />
    <path
      fill="currentColor"
      d="M611.4,261.6c-74.4-13.8-144.1-60.2-196.5-130.4l0.9-0.7c52.2,70,121.8,116.2,195.8,130L611.4,261.6z"
    />
    <path
      fill="currentColor"
      d="M666.1,217.3c-89-2-172.5-37.1-235.2-99l0.8-0.8c62.5,61.7,145.8,96.7,234.5,98.7L666.1,217.3z"
    />
    <path
      fill="currentColor"
      d="M334.8,143.4c-36.4,0-71.5-5.7-88.6-15.4c-7-4-10.4-8.3-10.2-12.7V115l0.2-0.2c62.9-60,97.6-140.1,97.7-225.5h1.1
			c-0.2,85.4,34.3,165.6,96.9,225.8l0.2,0.1v0.2c0.4,10.9-20.7,20.4-55.1,25.1C363,142.5,348.9,143.4,334.8,143.4z M237.1,115.5
			c0,3.9,3.3,7.9,9.7,11.5c23.6,13.4,82,19,130.2,12.5c33-4.4,54.2-13.7,54.1-23.8C372.8,59.9,338.9-13.4,334.4-92
			C329.6-13.4,295.4,59.7,237.1,115.5L237.1,115.5z"
    />
    <path
      fill="currentColor"
      d="M425.3,106.7l-4-2.3c-23.6-13.4-82-19-130.2-12.5L290,92l0.6-1c27.7-44.6,43.1-116.2,43.3-201.7h1.1
			c-0.2,85.4,30.7,161.5,87,214.2L425.3,106.7z M333.2,88.1c34.1,0,67.1,5,85.2,13.6c-49.8-48-79.1-114.6-83.8-189.7
			C332-13,317.2,49.8,292.1,90.6C305.8,88.9,319.5,88.1,333.2,88.1z"
    />
    <path
      fill="currentColor"
      d="M373.7,44.3c-10.7-6.1-37.1-8.6-58.9-5.7l-0.1-1.1c22-2.9,48.8-0.4,59.6,5.8L373.7,44.3z"
    />
    <path
      fill="currentColor"
      d="M387.5,93.6c-34.7-46-53.8-118.5-53.6-204.2h1.1c-0.2,85.4,18.8,157.7,53.4,203.5L387.5,93.6z"
    />
    <path
      fill="currentColor"
      d="M340.6,88.8c-4.5-43-6.9-113.8-6.7-199.4h1.1c-0.2,85.5,2.2,156.3,6.7,199.3L340.6,88.8z"
    />
    <path
      fill="currentColor"
      d="M246.6,128.2l-0.4-0.2c-9.5-5.4-10.8-10.6-10.1-13.9c1.5-7.7,14.2-14.7,34.3-19.5c41-61.4,63.4-132.9,63.5-205.2h1.1
			C334.8-25,319.4,46.9,291.5,91.6l-0.1,0.2h-0.2c-7.3,1-14,2.2-20.1,3.6c-7.5,11.2-15.6,22-24.2,32.4L246.6,128.2z M269.5,95.9
			c-19.1,4.6-31,11.2-32.4,18.4c-0.8,4.3,2.3,8.6,9.2,12.6C254.6,116.8,262.3,106.5,269.5,95.9z M332.6-70.6
			c-7,58.9-27.8,115.4-60.7,164.7c5.7-1.3,12-2.4,18.8-3.3C314,53.4,328.4-3,332.6-70.6z"
    />
    <path
      fill="currentColor"
      d="M294.1,55c-4.5-2.6-5-5-4.7-6.7c0.9-4.8,10.3-8.8,25.2-10.8l0.1,1.1c-13.9,1.9-23.5,5.8-24.3,9.9c-0.5,2.3,2,4.3,4.2,5.5
			L294.1,55z"
    />
    <path
      fill="currentColor"
      d="M253.1,101l-0.8-0.8c52.4-50.6,81.4-125.5,81.5-210.8h1.1C334.8-24.9,305.7,50.2,253.1,101z"
    />
    <path
      fill="currentColor"
      d="M595,172.3c-55.9,0-108.2-17-151.7-49.5c-57.9-5.6-116.1-6.8-174.1-3.7c-24.1,21.5-52.5,24.4-82.2,7.5l-1.5-0.8l1.6-0.2
			c26.5-3.6,53.9-6.1,81.5-7.5c8.6-7.9,16-17,22-26.9l0.1-0.2h0.3c48.4-6.5,107.1-0.8,130.8,12.7l0.1,0.1
			c6.9,6.4,14.2,12.5,21.8,18.1c80,7.9,149.5,24.2,189.7,47l1.5,0.8l-1.6,0.2C620.5,171.4,607.8,172.3,595,172.3z M445.3,123
			c52.4,38.5,117.4,54.7,185.9,45.9C591.3,146.7,523.4,130.8,445.3,123z M188.9,126.4c28.3,15.5,55.3,12.8,78.4-7.3
			C240.7,120.6,214.4,123,188.9,126.4z M331.2,116.3c37.7,0,75,1.8,110.3,5.2c-7.1-5.4-13.8-11.1-20.3-17.1
			c-23.6-13.3-81.7-19-129.8-12.6c-5.8,9.6-12.9,18.3-21,26.1C290.6,116.9,310.9,116.3,331.2,116.3z"
    />
    <path
      fill="currentColor"
      d="M474.7,142.4c-32.8,0-62.8-16.6-87.2-48.8l0.9-0.7c34.5,45.7,80.5,59.6,129.5,39.2l0.4,1
			C504.5,139.1,489.7,142.2,474.7,142.4z"
    />
    <path
      fill="currentColor"
      d="M351.4,130.9h-0.2c-1.6-0.1-6.3-0.5-10.6-42.1l1.1-0.1c3.7,35.4,7.6,41,9.6,41.1c1.1,0,3.3-1.5,6.3-12.8l1.1,0.3
			C356.3,126.6,353.9,130.9,351.4,130.9z"
    />
    <path
      fill="currentColor"
      d="M34.6,250.2l-0.2-0.1c-25.3-14.4-37-30.3-33.9-46.3c6.5-33.7,78-63.7,186.5-78.3h0.2l0.2,0.1c18.3,10.4,36,13.1,52.5,8.7
			c1.9-2.2,3.8-4.4,5.6-6.6c-9-5.3-10.2-10.3-9.6-13.6c2-10,23-19,54.9-23.2l1.1-0.1l-0.6,1c-14.8,23.8-32.1,38.4-51.1,43.7
			c-55.9,63.8-128.6,104.5-205.7,114.9L34.6,250.2z M187,126.7c-108,14.6-179,44.2-185.4,77.4c-2.9,15.4,8.5,30.9,33.2,45
			c76.3-10.3,148.3-50.4,203.8-113.3C222.3,139.8,204.9,136.8,187,126.7z M290,92c-30.8,4.3-51.1,12.8-52.8,22.2
			c-0.8,4.4,2.5,8.8,9.6,12.8l0.6,0.3l-0.4,0.5c-1.6,1.9-3.3,3.9-5,5.8C259.7,128.2,275.9,114.2,290,92z"
    />
    <path
      fill="currentColor"
      d="M101.1,162.5c-15.1,0-30.2-1.4-45-4.2l0.2-1.1c74,13.8,143.7-6.5,196.1-57l0.8,0.8C211.3,141.4,158.4,162.5,101.1,162.5z"
    />
    <path
      fill="currentColor"
      d="M241,108.1l-0.7-0.8c60.2-55.2,93.4-132.6,93.6-218h1.1c-0.2,85.4,30.7,161.5,87,214.2l3.4,3.2l-4-2.3
			c-23.6-13.4-82-19-130.2-12.5C267,95.1,248.8,101,241,108.1z M334.4-91.4c-4.6,75.5-35.3,143.6-87.9,194.3
			c9.5-5.3,24.9-9.5,44.5-12.2c46.2-6.2,101.8-1.3,127.4,10.9C367.9,52.9,338.5-14.9,334.4-91.4L334.4-91.4z"
    />
    <path
      fill="currentColor"
      d="M376.6,140.7l-0.1-0.4C348.8,64.1,333.7-25,333.9-110.6h1.1c-0.2,85.4,30.7,161.5,87,214.2c9.4,5.3,10.6,10.5,10,13.9
			c-1.9,10-23,19-54.9,23.2L376.6,140.7z M335.9-72.9c3.6,73.4,18,147.6,41.4,212.4c31.2-4.2,51.7-12.8,53.6-22.3
			c0.8-4.4-2.5-8.8-9.6-12.8C373.2,59.4,343.6-2.6,335.9-72.9z"
    />
    <path
      fill="currentColor"
      d="M353.7,60.8l-0.1-1.1c13.9-1.9,23.5-5.8,24.3-9.9c0.4-2.3-2-4.3-4.2-5.5l0.5-1c4.5,2.6,5,5,4.7,6.7
			C378,54.8,368.6,58.8,353.7,60.8z"
    />
    <path
      fill="currentColor"
      d="M480.4,293.3l-0.2-0.1c-39.4-22.3-76.2-76.6-103.8-152.9l-0.2-0.6l0.7-0.1c31.5-4.2,52.2-12.8,54-22.4
			c0.3-1.7,0-3.4-0.8-4.9c-3-2.6-6-5.2-8.9-7.9l-3.4-3.2l4,2.3c5,2.9,7.7,5.6,9.1,8.1c55.1,47,126.3,67.2,202,57h0.2l0.2,0.1
			c25.3,14.3,37,30.3,33.9,46.3c-6.5,33.7-78,63.7-186.5,78.3H480.4z M377.7,140.6c27.5,75.6,64,129.4,102.9,151.6
			c108-14.6,179-44.2,185.4-77.4c2.9-15.4-8.5-30.9-33.2-45c-75.1,10.1-146-9.8-201-56c0.3,1.2,0.4,2.4,0.1,3.7
			C430,127.4,409.3,136.3,377.7,140.6L377.7,140.6z"
    />
    <path
      fill="currentColor"
      d="M427.1,108.5c-55-50.8-87.4-120.1-92.5-197c0-0.9-0.1-1.9-0.2-2.9c-0.4-6.4-0.5-12.8-0.5-19.2h1.1c0,1.2,0,2.6,0,4
			c0,3,0.1,6.1,0.2,8.8c0,1.9,0.2,4.2,0.3,6.3c0,1,0.1,2,0.2,3c0.1,1,0.2,2.3,0.3,3.3c0.7,7.5,1.9,17.4,2.9,24.8
			c0.5,3.5,1.5,8.1,2.3,12.4c4.1,20.1,10.3,39.8,18.4,58.7c4.2,9.8,9.6,20.2,10.7,22.2c3.4,6.2,8.3,14.4,12,20.4
			c1.8,2.9,4.5,6.7,6.8,10.1c2.9,4.2,5.4,7.5,7.3,9.8c4.2,5.3,10.2,12.4,14.7,17.6c0.1,0.1,6.7,7.5,16.7,16.8L427.1,108.5z"
    />
    <path
      fill="currentColor"
      d="M376.6,140.7l-0.1-0.4C348.8,64.1,333.7-25,333.9-110.6h1.1c-0.2,85.4,30.7,161.5,87,214.2c9.4,5.3,10.6,10.5,10,13.9
			c-1.9,10-23,19-54.9,23.2L376.6,140.7z M335.9-72.9c3.6,73.4,18,147.6,41.4,212.4c31.2-4.2,51.7-12.8,53.6-22.3
			c0.8-4.4-2.5-8.8-9.6-12.8C373.2,59.4,343.6-2.6,335.9-72.9z"
    />
    <path
      fill="currentColor"
      d="M353.7,60.8l-0.1-1.1c13.9-1.9,23.5-5.8,24.3-9.9c0.4-2.3-2-4.3-4.2-5.5l0.5-1c4.5,2.6,5,5,4.7,6.7
			C378,54.8,368.6,58.8,353.7,60.8z"
    />
    <path
      fill="currentColor"
      d="M480.4,293.3l-0.2-0.1c-39.4-22.3-76.2-76.6-103.8-152.9l-0.2-0.6l0.7-0.1c31.5-4.2,52.2-12.8,54-22.4
			c0.3-1.7,0-3.4-0.8-4.9c-3-2.6-6-5.2-8.9-7.9l-3.4-3.2l4,2.3c5,2.9,7.7,5.6,9.1,8.1c55.1,47,126.3,67.2,202,57h0.2l0.2,0.1
			c25.3,14.3,37,30.3,33.9,46.3c-6.5,33.7-78,63.7-186.5,78.3H480.4z M377.7,140.6c27.5,75.6,64,129.4,102.9,151.6
			c108-14.6,179-44.2,185.4-77.4c2.9-15.4-8.5-30.9-33.2-45c-75.1,10.1-146-9.8-201-56c0.3,1.2,0.4,2.4,0.1,3.7
			C430,127.4,409.3,136.3,377.7,140.6L377.7,140.6z"
    />
    <path
      fill="currentColor"
      d="M432.1,116.9l-1-0.9c-48-46.1-79.5-103.8-91.6-166.7c-0.7-3.3-1.3-6.5-1.6-9.2c-1.3-8.2-2.3-16.5-3-24.9
			c0-0.3-0.5-5.8-0.8-14.3c-0.1-3.8-0.2-7.7-0.2-11.5h1.1c0,3.7,0,7.2,0.1,10.3c0.2,5.2,0.4,10.3,0.9,15.4
			c0.7,7.3,1.9,17.3,2.9,24.8v0.1c0.5,3.1,1,6.2,1.6,9.3c0.2,1,0.4,2.1,0.6,3.1c4.1,20.2,10.3,39.8,18.4,58.7
			c3.9,9.1,9.3,19.6,10.8,22.3c3.5,6.2,8.3,14.4,12.1,20.4c1.8,2.9,4.4,6.6,6.9,10.1c7.2,10.2,14.5,18.8,14.6,18.8l2.3,2.7
			c2,2.3,4,4.6,5.7,6.5c4.4,4.5,10.7,11,15.7,15.8c2.7,2.5,4.2,5.2,4.3,7.9L432.1,116.9z M399.1,78.6c9.7,12.6,20.2,24.5,31.7,35.5
			c-0.7-2.2-2-4.1-3.7-5.6c-5-4.7-11.4-11.3-15.8-15.8c-1.8-1.9-3.9-4.4-5.8-6.5l-2.3-2.7C403.1,83.5,401.5,81.6,399.1,78.6z"
    />
    <path
      fill="currentColor"
      d="M376.6,140.7l-0.1-0.4C348.8,64.1,333.7-25,333.9-110.6h1.1c-0.2,85.4,30.7,161.5,87,214.2c9.4,5.3,10.6,10.5,10,13.9
			c-1.9,10-23,19-54.9,23.2L376.6,140.7z M335.9-72.9c3.6,73.4,18,147.6,41.4,212.4c31.2-4.2,51.7-12.8,53.6-22.3
			c0.8-4.4-2.5-8.8-9.6-12.8C373.2,59.4,343.6-2.6,335.9-72.9z"
    />
    <path
      fill="currentColor"
      d="M353.7,60.8l-0.1-1.1c13.9-1.9,23.5-5.8,24.3-9.9c0.4-2.3-2-4.3-4.2-5.5l0.5-1c4.5,2.6,5,5,4.7,6.7
			C378,54.8,368.6,58.8,353.7,60.8z"
    />
    <path
      fill="currentColor"
      d="M480.4,293.3l-0.2-0.1c-39.4-22.3-76.2-76.6-103.8-152.9l-0.2-0.6l0.7-0.1c31.5-4.2,52.2-12.8,54-22.4
			c0.3-1.7,0-3.4-0.8-4.9c-3-2.6-6-5.2-8.9-7.9l-3.4-3.2l4,2.3c5,2.9,7.7,5.6,9.1,8.1c55.1,47,126.3,67.2,202,57h0.2l0.2,0.1
			c25.3,14.3,37,30.3,33.9,46.3c-6.5,33.7-78,63.7-186.5,78.3H480.4z M377.7,140.6c27.5,75.6,64,129.4,102.9,151.6
			c108-14.6,179-44.2,185.4-77.4c2.9-15.4-8.5-30.9-33.2-45c-75.1,10.1-146-9.8-201-56c0.3,1.2,0.4,2.4,0.1,3.7
			C430,127.4,409.3,136.3,377.7,140.6L377.7,140.6z"
    />
    <path
      fill="currentColor"
      d="M427.1,108.5c-1.8-1.6-3.7-2.9-5.7-4.1c-56.6-53-87.5-129.3-87.4-215.1h1.1c-0.2,85.4,32.8,162.9,92.8,218.3L427.1,108.5z
			 M361.8,19.1c13.6,30.2,32.8,57.7,56.5,80.9C394.8,76.5,375.7,49.2,361.8,19.1z"
    />
    <path
      fill="currentColor"
      d="M425.3,106.7l-4-2.3c-23.6-13.4-82-19-130.2-12.5L290,92l0.6-1c27.7-44.6,43.1-116.2,43.3-201.7h1.1
			c-0.2,85.4,30.7,161.5,87,214.2L425.3,106.7z M333.2,88.1c34.1,0,67.1,5,85.2,13.6c-49.8-48-79.1-114.6-83.8-189.7
			C332-13,317.2,49.8,292.1,90.6C305.8,88.9,319.5,88.1,333.2,88.1z"
    />
    <path
      fill="currentColor"
      d="M387.5,93.6c-34.7-46-53.8-118.5-53.6-204.2h1.1c-0.2,85.4,18.8,157.7,53.4,203.5L387.5,93.6z"
    />
    <path
      fill="currentColor"
      d="M340.6,88.8c-4.5-43-6.9-113.8-6.7-199.4h1.1c-0.2,85.5,2.2,156.3,6.7,199.3L340.6,88.8z"
    />
    <path
      fill="currentColor"
      d="M246.6,128.2l-0.4-0.2c-9.5-5.4-10.8-10.6-10.1-13.9c1.5-7.7,14.2-14.7,34.3-19.5c41-61.4,63.4-132.9,63.5-205.2h1.1
			C334.8-25,319.4,46.9,291.5,91.6l-0.1,0.2h-0.2c-7.3,1-14,2.2-20.1,3.6c-7.5,11.2-15.6,22-24.2,32.4L246.6,128.2z M269.5,95.9
			c-19.1,4.6-31,11.2-32.4,18.4c-0.8,4.3,2.3,8.6,9.2,12.6C254.6,116.8,262.3,106.5,269.5,95.9z M332.6-70.6
			c-7,58.9-27.8,115.4-60.7,164.7c5.7-1.3,12-2.4,18.8-3.3C314,53.4,328.4-3,332.6-70.6z"
    />
    <path
      fill="currentColor"
      d="M253.1,101l-0.8-0.8c52.4-50.6,81.4-125.5,81.5-210.8h1.1C334.8-24.9,305.7,50.2,253.1,101z"
    />
    <path
      fill="currentColor"
      d="M595,172.3c-55.9,0-108.2-17-151.7-49.5c-57.9-5.6-116.1-6.8-174.1-3.7c-24.1,21.5-52.5,24.4-82.2,7.5l-1.5-0.8l1.6-0.2
			c26.5-3.6,53.9-6.1,81.5-7.5c8.6-7.9,16-17,22-26.9l0.1-0.2h0.3c48.4-6.5,107.1-0.8,130.8,12.7l0.1,0.1
			c6.9,6.4,14.2,12.5,21.8,18.1c80,7.9,149.5,24.2,189.7,47l1.5,0.8l-1.6,0.2C620.5,171.4,607.8,172.3,595,172.3z M445.3,123
			c52.4,38.5,117.4,54.7,185.9,45.9C591.3,146.7,523.4,130.8,445.3,123z M188.9,126.4c28.3,15.5,55.3,12.8,78.4-7.3
			C240.7,120.6,214.4,123,188.9,126.4z M331.2,116.3c37.7,0,75,1.8,110.3,5.2c-7.1-5.4-13.8-11.1-20.3-17.1
			c-23.6-13.3-81.7-19-129.8-12.6c-5.8,9.6-12.9,18.3-21,26.1C290.6,116.9,310.9,116.3,331.2,116.3z"
    />
    <path
      fill="currentColor"
      d="M483.4,147.2C443,124.3,343,114.6,260.6,125.7l-0.1-1.1c82.7-11.1,182.9-1.5,223.5,21.7L483.4,147.2z"
    />
    <path
      fill="currentColor"
      d="M474.7,142.4c-32.8,0-62.8-16.6-87.2-48.8l0.9-0.7c34.5,45.7,80.5,59.6,129.5,39.2l0.4,1
			C504.5,139.1,489.7,142.2,474.7,142.4z"
    />
    <path
      fill="currentColor"
      d="M351.4,130.9h-0.2c-1.6-0.1-6.3-0.5-10.6-42.1l1.1-0.1c3.7,35.4,7.6,41,9.6,41.1c1.1,0,3.3-1.5,6.3-12.8l1.1,0.3
			C356.3,126.6,353.9,130.9,351.4,130.9z"
    />
    <path
      fill="currentColor"
      d="M34.6,250.2l-0.2-0.1c-25.3-14.4-37-30.3-33.9-46.3c6.5-33.7,78-63.7,186.5-78.3h0.2l0.2,0.1c18.3,10.4,36,13.1,52.5,8.7
			c1.9-2.2,3.8-4.4,5.6-6.6c-9-5.3-10.2-10.3-9.6-13.6c2-10,23-19,54.9-23.2l1.1-0.1l-0.6,1c-14.8,23.8-32.1,38.4-51.1,43.7
			c-55.9,63.8-128.6,104.5-205.7,114.9L34.6,250.2z M187,126.7c-108,14.6-179,44.2-185.4,77.4c-2.9,15.4,8.5,30.9,33.2,45
			c76.3-10.3,148.3-50.4,203.8-113.3C222.3,139.8,204.9,136.8,187,126.7z M290,92c-30.8,4.3-51.1,12.8-52.8,22.2
			c-0.8,4.4,2.5,8.8,9.6,12.8l0.6,0.3l-0.4,0.5c-1.6,1.9-3.3,3.9-5,5.8C259.7,128.2,275.9,114.2,290,92z"
    />
    <path
      fill="currentColor"
      d="M183.9,187.5c-12.8-7.3-18.7-15.4-17.1-23.5c3.3-17,39.2-32.1,93.6-39.4l0.1,1.1c-54,7.3-89.5,22-92.7,38.5
			c-1.5,7.6,4.2,15.3,16.6,22.3L183.9,187.5z"
    />
    <path
      fill="currentColor"
      d="M101.1,162.5c-15.1,0-30.2-1.4-45-4.2l0.2-1.1c74,13.8,143.7-6.5,196.1-57l0.8,0.8C211.3,141.4,158.4,162.5,101.1,162.5z"
    />
    <path
      fill="currentColor"
      d="M180.7,147.4l3.1-2c0.8-0.5,1.6-0.8,2.5-1.1l1-0.4c3.9-1.7,10.6-5.4,12-6.2c2.3-1.3,5.6-3.3,8.1-4.9
			c1.7-1.1,3.8-2.5,5.7-3.8l1.7-1.2c2.1-1.5,5-3.5,8.8-6.4c1.7-1.3,3.6-2.9,5.6-4.4l2.4-1.9c2.6-2.1,5.8-5,8.8-7.7
			c8-7.3,26-13.2,50.7-16.5c48.4-6.5,107.1-0.8,130.8,12.7c14.5,13.6,30.5,25.4,47.7,35.2c2.1,1.2,6.1,3.3,9.1,4.8
			c1.3,0.7,3.3,1.5,5.7,2.5l-0.4,1c-2.3-0.7-3.5-1.1-9.5-2.6c-1.5-0.4-3.4-0.8-5.1-1.2l-2.1-0.5c-2.9-0.7-6.8-1.4-10.1-2l-3.2-0.6
			c-7.1-1.4-22.8-3.5-27.9-4.1l-1.9-0.2c-4.4-0.5-10-1.1-14.2-1.5c-3.4-0.3-7.7-0.7-11.7-1c-1.8-0.1-3.5-0.3-5.1-0.4
			c-3.6-0.3-8-0.6-12.2-0.8l-5.1-0.3c-6.7-0.4-25.6-1.1-36.9-1.1c-6.2,0-24.9,0-37.2,0.5l-5.6,0.2c-4.4,0.2-8.8,0.4-12.6,0.6
			l-5.4,0.4c-4.3,0.3-8.8,0.6-12.4,0.9c-4.1,0.3-9.7,0.9-16.8,1.6c-5.3,0.5-12,1.3-16.7,2c-7.8,1.1-16.9,2.5-23.1,3.6
			c-5.1,0.9-11.7,2.4-17.4,3.7c-0.7,0.1-2.6,0.6-7.7,2.1L180.7,147.4z M333.9,129.6h5.1c11.3,0,30.2,0.7,37,1.1l5.1,0.3
			c4.2,0.2,8.6,0.5,12.3,0.8l5.1,0.4c3.9,0.3,8.2,0.7,11.7,1c4.2,0.4,9.7,1,14.2,1.5l1.9,0.2c5.1,0.6,20.8,2.8,28,4.1l3.2,0.6
			c3.4,0.6,7.2,1.3,10.2,2l2.2,0.5c1.7,0.4,3.6,0.8,5.1,1.2l2.5,0.6c-2.9-1.5-6.3-3.3-8.2-4.4c-17.3-9.9-33.3-21.7-47.9-35.3
			c-23.5-13.3-81.9-19-130-12.5c-24.1,3.2-42.3,9.2-50.1,16.3c-2.9,2.6-6.2,5.6-8.8,7.7c-0.7,0.6-1.5,1.3-2.4,1.9
			c-1.9,1.6-3.9,3.2-5.6,4.5c-3.8,2.9-6.7,5-8.8,6.4l-1.7,1.2c-1.9,1.3-4,2.7-5.7,3.8c-2.5,1.6-5.8,3.6-8.2,4.9
			c-1.1,0.6-5.3,2.9-9,4.8l0.9-0.2c5.8-1.3,12.4-2.8,17.5-3.7c6.2-1.1,15.3-2.5,23.2-3.6c4.7-0.7,11.4-1.5,16.7-2
			c7.1-0.7,12.8-1.3,16.8-1.6c3.7-0.3,8.1-0.6,12.4-0.9l5.4-0.4c3.7-0.3,8.2-0.4,12.6-0.6l5.5-0.2
			C311.6,129.7,325.6,129.6,333.9,129.6z"
    />
    <path
      fill="currentColor"
      d="M425.3,106.7l-4-2.3c-23.6-13.4-82-19-130.2-12.5L290,92l0.6-1c27.7-44.6,43.1-116.2,43.3-201.7h1.1
			c-0.2,85.4,30.7,161.5,87,214.2L425.3,106.7z M333.2,88.1c34.1,0,67.1,5,85.2,13.6c-49.8-48-79.1-114.6-83.8-189.7
			C332-13,317.2,49.8,292.1,90.6C305.8,88.9,319.5,88.1,333.2,88.1z"
    />
    <path
      fill="currentColor"
      d="M387.5,93.6c-34.7-46-53.8-118.5-53.6-204.2h1.1c-0.2,85.4,18.8,157.7,53.4,203.5L387.5,93.6z"
    />
    <path
      fill="currentColor"
      d="M340.6,88.8c-4.5-43-6.9-113.8-6.7-199.4h1.1c-0.2,85.5,2.2,156.3,6.7,199.3L340.6,88.8z"
    />
    <path
      fill="currentColor"
      d="M246.6,128.2l-0.4-0.2c-9.5-5.4-10.8-10.6-10.1-13.9c1.5-7.7,14.2-14.7,34.3-19.5c41-61.4,63.4-132.9,63.5-205.2h1.1
			C334.8-25,319.4,46.9,291.5,91.6l-0.1,0.2h-0.2c-7.3,1-14,2.2-20.1,3.6c-7.5,11.2-15.6,22-24.2,32.4L246.6,128.2z M269.5,95.9
			c-19.1,4.6-31,11.2-32.4,18.4c-0.8,4.3,2.3,8.6,9.2,12.6C254.6,116.8,262.3,106.5,269.5,95.9z M332.6-70.6
			c-7,58.9-27.8,115.4-60.7,164.7c5.7-1.3,12-2.4,18.8-3.3C314,53.4,328.4-3,332.6-70.6z"
    />
    <path
      fill="currentColor"
      d="M253.1,101l-0.8-0.8c52.4-50.6,81.4-125.5,81.5-210.8h1.1C334.8-24.9,305.7,50.2,253.1,101z"
    />
    <path
      fill="currentColor"
      d="M595,172.3c-55.9,0-108.2-17-151.7-49.5c-57.9-5.6-116.1-6.8-174.1-3.7c-24.1,21.5-52.5,24.4-82.2,7.5l-1.5-0.8l1.6-0.2
			c26.5-3.6,53.9-6.1,81.5-7.5c8.6-7.9,16-17,22-26.9l0.1-0.2h0.3c48.4-6.5,107.1-0.8,130.8,12.7l0.1,0.1
			c6.9,6.4,14.2,12.5,21.8,18.1c80,7.9,149.5,24.2,189.7,47l1.5,0.8l-1.6,0.2C620.5,171.4,607.8,172.3,595,172.3z M445.3,123
			c52.4,38.5,117.4,54.7,185.9,45.9C591.3,146.7,523.4,130.8,445.3,123z M188.9,126.4c28.3,15.5,55.3,12.8,78.4-7.3
			C240.7,120.6,214.4,123,188.9,126.4z M331.2,116.3c37.7,0,75,1.8,110.3,5.2c-7.1-5.4-13.8-11.1-20.3-17.1
			c-23.6-13.3-81.7-19-129.8-12.6c-5.8,9.6-12.9,18.3-21,26.1C290.6,116.9,310.9,116.3,331.2,116.3z"
    />
    <path
      fill="currentColor"
      d="M483.4,147.2C443,124.3,343,114.6,260.6,125.7l-0.1-1.1c82.7-11.1,182.9-1.5,223.5,21.7L483.4,147.2z"
    />
    <path
      fill="currentColor"
      d="M554.9,169.3c-59.7-34-207.5-48.2-329.4-31.8l-0.1-1.1c122.1-16.4,270.2-2.1,330.1,31.9L554.9,169.3z"
    />
    <path
      fill="currentColor"
      d="M474.7,142.4c-32.8,0-62.8-16.6-87.2-48.8l0.9-0.7c34.5,45.7,80.5,59.6,129.5,39.2l0.4,1
			C504.5,139.1,489.7,142.2,474.7,142.4z"
    />
    <path
      fill="currentColor"
      d="M351.4,130.9h-0.2c-1.6-0.1-6.3-0.5-10.6-42.1l1.1-0.1c3.7,35.4,7.6,41,9.6,41.1c1.1,0,3.3-1.5,6.3-12.8l1.1,0.3
			C356.3,126.6,353.9,130.9,351.4,130.9z"
    />
    <path
      fill="currentColor"
      d="M34.6,250.2l-0.2-0.1c-25.3-14.4-37-30.3-33.9-46.3c6.5-33.7,78-63.7,186.5-78.3h0.2l0.2,0.1c18.3,10.4,36,13.1,52.5,8.7
			c1.9-2.2,3.8-4.4,5.6-6.6c-9-5.3-10.2-10.3-9.6-13.6c2-10,23-19,54.9-23.2l1.1-0.1l-0.6,1c-14.8,23.8-32.1,38.4-51.1,43.7
			c-55.9,63.8-128.6,104.5-205.7,114.9L34.6,250.2z M187,126.7c-108,14.6-179,44.2-185.4,77.4c-2.9,15.4,8.5,30.9,33.2,45
			c76.3-10.3,148.3-50.4,203.8-113.3C222.3,139.8,204.9,136.8,187,126.7z M290,92c-30.8,4.3-51.1,12.8-52.8,22.2
			c-0.8,4.4,2.5,8.8,9.6,12.8l0.6,0.3l-0.4,0.5c-1.6,1.9-3.3,3.9-5,5.8C259.7,128.2,275.9,114.2,290,92z"
    />
    <path
      fill="currentColor"
      d="M183.9,187.5c-12.8-7.3-18.7-15.4-17.1-23.5c3.3-17,39.2-32.1,93.6-39.4l0.1,1.1c-54,7.3-89.5,22-92.7,38.5
			c-1.5,7.6,4.2,15.3,16.6,22.3L183.9,187.5z"
    />
    <path
      fill="currentColor"
      d="M112.3,228.8c-18.7-10.6-27.4-22.5-25.1-34.4c4.9-25,57.8-47.2,138.1-58l0.1,1.1C145.6,148.2,93,170.1,88.3,194.6
			c-2.2,11.3,6.3,22.8,24.6,33.2L112.3,228.8z"
    />
    <path
      fill="currentColor"
      d="M101.1,162.5c-15.1,0-30.2-1.4-45-4.2l0.2-1.1c74,13.8,143.7-6.5,196.1-57l0.8,0.8C211.3,141.4,158.4,162.5,101.1,162.5z"
    />
    <path
      fill="currentColor"
      d="M42.7,183.9c-9.2,0-18.4-0.4-27.7-1.2l-1.2-0.1l0.9-0.8c26.7-24.6,89.6-45.1,172.5-56.2c12-1.6,24.2-3,36.6-4.2l0.8-0.6
			c4.7-3.8,11.1-9.2,15.8-13.4l0.7,0.8c-5,4.5-10,8.9-15.2,13c156.5-14.6,332.7,5.1,407.4,47.6l1.5,0.8l-1.6,0.2
			c-53.8,7.2-105.8-0.9-151.5-23.3c-3.1-0.9-8.5-2.4-16.9-4.1c-12-2.5-23.1-4.1-25.2-4.4c-6.1-0.9-16.3-2.3-30-3.7
			c-19.5-1.9-33.9-2.5-34.1-2.5l-5.6-0.2c-4.2-0.2-8.8-0.4-12.5-0.5c-5.6-0.2-13-0.3-18.4-0.4c-11.2-0.1-26.2,0.1-37.2,0.5
			c-32.2,1.2-55,3.8-69.3,5.7c-6.2,0.8-14.5,2.2-20.2,3.1c-2.4,0.4-5.4,1-8,1.5l-1.8,0.4c-2.5,0.5-5.8,1.2-8.4,1.9l-2.1,0.5
			C147.5,170.2,96.5,183.9,42.7,183.9z M16.2,181.7c61.9,5.1,121-7.7,171.7-36.3l-3.7,1l-2.9,0.9l2.5-1.8c0.4-0.3,0.8-0.4,1.2-0.6
			l0.4-0.2c2.4-1,5.6-2.6,7.8-3.7c3-1.5,6.7-3.7,7.7-4.3c2.5-1.5,5.6-3.4,7.7-4.7c1.6-1.1,3.6-2.4,5.4-3.6l2-1.4
			c1.8-1.2,4-2.9,6-4.4c-11.8,1.1-23.4,2.5-34.8,4C105.5,137.6,43.4,157.6,16.2,181.7z M484.2,146.4c44.4,21.4,94.8,29.2,147,22.5
			c-75.6-42-251.3-61.3-407-46.5c-9.2,7.2-18.9,13.9-29,20c2.3-0.6,5-1.1,7-1.5l1.8-0.4c2.7-0.5,5.7-1.1,8.1-1.5
			c5.7-0.9,14-2.3,20.2-3.1c14.4-1.9,37.2-4.5,69.5-5.7c11-0.4,26-0.6,37.2-0.5c5.4,0,12.8,0.2,18.5,0.3c3.7,0.1,8.3,0.3,12.5,0.5
			l5.6,0.2c0.1,0,14.6,0.6,34.1,2.5c13.7,1.3,23.9,2.7,30,3.6c2.1,0.3,13.2,1.9,25.3,4.4c4.9,1,8.8,1.9,11.8,2.7
			c-2.6-1.3-5.2-2.8-7.7-4.2l0.5-0.9c2.6,1.5,5.3,2.9,7.4,4c2.8,1.4,6.3,2.9,7.3,3.3L484.2,146.4z M194.2,141.7l-0.4,0.2
			c-0.9,0.5-2,1-3.1,1.5l0.9-0.2L194.2,141.7z"
    />
    <path
      fill="currentColor"
      d="M246.6,128.2l-0.4-0.2c-9.5-5.4-10.8-10.6-10.1-13.9c1.5-7.7,14.2-14.7,34.3-19.5c41-61.4,63.4-132.9,63.5-205.2h1.1
			C334.8-25,319.4,46.9,291.5,91.6l-0.1,0.2h-0.2c-7.3,1-14,2.2-20.1,3.6c-7.5,11.2-15.6,22-24.2,32.4L246.6,128.2z M269.5,95.9
			c-19.1,4.6-31,11.2-32.4,18.4c-0.8,4.3,2.3,8.6,9.2,12.6C254.6,116.8,262.3,106.5,269.5,95.9z M332.6-70.6
			c-7,58.9-27.8,115.4-60.7,164.7c5.7-1.3,12-2.4,18.8-3.3C314,53.4,328.4-3,332.6-70.6z"
    />
    <path
      fill="currentColor"
      d="M237.1,114l-0.8-0.8c62.7-58.9,97.4-138.4,97.5-223.8h1.1C334.8-24.9,300.1,54.9,237.1,114z"
    />
    <path
      fill="currentColor"
      d="M334.8,143.4c-36.4,0-71.5-5.7-88.6-15.4l-0.6-0.3l0.4-0.5c56.5-67.9,87.7-152.3,87.9-237.8h1.1
			c-0.2,85.5,14.9,174.5,42.5,250.6l0.2,0.6l-0.7,0.1C363,142.5,348.9,143.4,334.8,143.4z M247.3,127.3
			c23.8,13.1,81.2,18.6,128.9,12.3c-25-69.2-39.7-149.2-41.9-227.4C329.1-10.2,298.7,65.4,247.3,127.3L247.3,127.3z"
    />
    <path
      fill="currentColor"
      d="M280.6,138.4l-1-0.5c34.9-74.8,54.1-163.1,54.3-248.6h1.1C334.8-25,315.5,63.5,280.6,138.4z"
    />
    <path
      fill="currentColor"
      d="M327.4,142.8l-1.1-0.1c4.7-77.8,7.4-167.8,7.5-253.3h1.1C334.8-25.1,332.1,64.9,327.4,142.8z"
    />
    <path
      fill="currentColor"
      d="M376.6,140.7l-0.1-0.4C348.8,64.1,333.7-25,333.9-110.6h1.1c-0.2,85.4,30.7,161.5,87,214.2c9.4,5.3,10.6,10.5,10,13.9
			c-1.9,10-23,19-54.9,23.2L376.6,140.7z M335.9-72.9c3.6,73.4,18,147.6,41.4,212.4c31.2-4.2,51.7-12.8,53.6-22.3
			c0.8-4.4-2.5-8.8-9.6-12.8C373.2,59.4,343.6-2.6,335.9-72.9z"
    />
    <path
      fill="currentColor"
      d="M414.8,131.2c-52.4-70.2-81.1-156.1-81-241.8h1.1c-0.2,85.4,28.5,171.1,80.7,241.1L414.8,131.2z"
    />
    <path
      fill="currentColor"
      d="M430.9,118.2c-62.7-61.9-97.2-143.2-97-228.9h1.1c-0.2,85.4,34.2,166.4,96.7,228.1L430.9,118.2z"
    />
    <path
      fill="currentColor"
      d="M34.6,250.2l-0.2-0.1c-25.3-14.4-37-30.3-33.9-46.3c6.5-33.7,78-63.7,186.5-78.3h0.2l0.2,0.1c18.3,10.4,36,13.1,52.5,8.7
			c1.9-2.2,3.8-4.4,5.6-6.6c-9-5.3-10.2-10.3-9.6-13.6c2-10,23-19,54.9-23.2l1.1-0.1l-0.6,1c-14.8,23.8-32.1,38.4-51.1,43.7
			c-55.9,63.8-128.6,104.5-205.7,114.9L34.6,250.2z M187,126.7c-108,14.6-179,44.2-185.4,77.4c-2.9,15.4,8.5,30.9,33.2,45
			c76.3-10.3,148.3-50.4,203.8-113.3C222.3,139.8,204.9,136.8,187,126.7z M290,92c-30.8,4.3-51.1,12.8-52.8,22.2
			c-0.8,4.4,2.5,8.8,9.6,12.8l0.6,0.3l-0.4,0.5c-1.6,1.9-3.3,3.9-5,5.8C259.7,128.2,275.9,114.2,290,92z"
    />
    <path
      fill="currentColor"
      d="M183.9,187.5c-12.8-7.3-18.7-15.4-17.1-23.5c3.3-17,39.2-32.1,93.6-39.4l0.1,1.1c-54,7.3-89.5,22-92.7,38.5
			c-1.5,7.6,4.2,15.3,16.6,22.3L183.9,187.5z"
    />
    <path
      fill="currentColor"
      d="M112.3,228.8c-18.7-10.6-27.4-22.5-25.1-34.4c4.9-25,57.8-47.2,138.1-58l0.1,1.1C145.6,148.2,93,170.1,88.3,194.6
			c-2.2,11.3,6.3,22.8,24.6,33.2L112.3,228.8z"
    />
    <path
      fill="currentColor"
      d="M9.3,202.7c-2.6,0-5.2,0-7.8-0.1v-1.1c88.7,2,172.2-29.4,234.9-88.4l0.8,0.8C176,171.4,95.4,202.7,9.3,202.7z"
    />
    <path
      fill="currentColor"
      d="M336.5,302.5c-124,0-243.8-19.3-302-52.4l-1.5-0.8l1.6-0.2c79.8-10.7,154.9-54,211.4-122l0.3-0.4l0.4,0.2
			c23.6,13.4,82,19,130.2,12.5h0.4l0.2,0.4c27.5,76,64.2,130.1,103.3,152.3l1.5,0.8l-1.6,0.2C432.8,299.5,384.7,302.6,336.5,302.5z
			 M36.4,250c81.4,45.2,278.9,64.2,442.4,42.5c-38.7-22.8-75-76.6-102.3-151.7c-48,6.4-106,0.8-130-12.5
			C190.3,195.7,115.8,238.8,36.4,250z"
    />
    <path
      fill="currentColor"
      d="M335.2,213.7c-62.2,0-122.2-9.7-151.3-26.3l0.5-1c40.4,23,140.3,32.6,222.8,21.5l0.1,1.1
			C383.4,212.2,359.4,213.8,335.2,213.7z"
    />
    <path
      fill="currentColor"
      d="M149.8,286.7l-0.4-1c49.1-20.4,95.4-72.9,130.2-147.7l1,0.5C245.6,213.5,199.2,266.1,149.8,286.7z"
    />
    <path
      fill="currentColor"
      d="M310,301.8l-1.1-0.3c6.5-24.6,12.7-81,17.4-158.8l1.1,0.1C322.7,220.6,316.6,277.1,310,301.8z"
    />
    <path
      fill="currentColor"
      d="M480.4,293.3l-0.2-0.1c-39.4-22.3-76.2-76.6-103.8-152.9l-0.2-0.6l0.7-0.1c31.5-4.2,52.2-12.8,54-22.4
			c0.3-1.7,0-3.4-0.8-4.9c-3-2.6-6-5.2-8.9-7.9l-3.4-3.2l4,2.3c5,2.9,7.7,5.6,9.1,8.1c55.1,47,126.3,67.2,202,57h0.2l0.2,0.1
			c25.3,14.3,37,30.3,33.9,46.3c-6.5,33.7-78,63.7-186.5,78.3H480.4z M377.7,140.6c27.5,75.6,64,129.4,102.9,151.6
			c108-14.6,179-44.2,185.4-77.4c2.9-15.4-8.5-30.9-33.2-45c-75.1,10.1-146-9.8-201-56c0.3,1.2,0.4,2.4,0.1,3.7
			C430,127.4,409.3,136.3,377.7,140.6L377.7,140.6z"
    />
    <path
      fill="currentColor"
      d="M407.4,209.1l-0.1-1.1c54-7.3,89.5-22,92.7-38.5c1.5-7.6-4.2-15.3-16.6-22.3l0.5-0.9c12.8,7.3,18.7,15.3,17.1,23.4
			C497.7,186.7,461.9,201.8,407.4,209.1z"
    />
    <path
      fill="currentColor"
      d="M442.4,260.7l-0.1-1.1c79.9-10.8,132.4-32.7,137.1-57.2c2.2-11.3-6.3-22.8-24.6-33.2l0.5-0.9
			c18.7,10.7,27.4,22.5,25.1,34.4C575.7,227.7,522.8,249.9,442.4,260.7z"
    />
    <path
      fill="currentColor"
      d="M611.4,261.6c-74.4-13.8-144.1-60.2-196.5-130.4l0.9-0.7c52.2,70,121.8,116.2,195.8,130L611.4,261.6z"
    />
    <path
      fill="currentColor"
      d="M666.1,217.3c-89-2-172.5-37.1-235.2-99l0.8-0.8c62.5,61.7,145.8,96.7,234.5,98.7L666.1,217.3z"
    />
    <path
      fill="currentColor"
      d="M336.5,302.5c-124,0-243.8-19.3-302-52.4c-21.2-12.1-32.7-24.9-34.3-38.3c-1.2-10.2,3.7-20.4,14.3-30.2l0.2-0.2h0.2
			c85.1,7.3,165.1-19.1,225.3-74.2l0.7,0.8c-1.1,0.9-2,1.9-2.7,3.2c-0.7,1.2-1.1,2.6-1.3,4c-0.2,4,3.2,8,9.7,11.7
			c23.6,13.4,82,19,130.2,12.5c33.3-4.5,54.5-13.9,54.1-24c-0.2-1.4-0.6-2.7-1.3-3.9c-0.7-1.2-1.6-2.3-2.7-3.2l0.7-0.8
			c60,55.4,140,82.1,225.1,75.1h0.2l0.2,0.2c12.4,11.4,16.7,23.3,13,35.2c-10.3,32.9-79.7,61-185.7,75.2
			C432.8,299.5,384.6,302.6,336.5,302.5z M15.1,182.7c-10.2,9.5-14.9,19.3-13.8,29.1c1.5,13,12.8,25.6,33.7,37.4
			c80.8,45.9,280.6,65.2,445.5,43c103.9-14,174.8-42.5,184.8-74.4c3.6-11.4-0.6-22.8-12.5-33.9c-8.8,0.7-17.6,1.1-26.3,1.1
			c-73.5,0-141.8-25.3-195.2-72.6c0.5,1,0.7,2.1,0.8,3.2c0.4,10.9-20.7,20.4-55.1,25.1c-48.4,6.5-107.1,0.8-130.8-12.7
			c-7-4-10.4-8.3-10.2-12.7c0.1-1.1,0.3-2.2,0.8-3.2C176.9,164.7,98.4,189.7,15.1,182.7z"
    />
    <path
      fill="currentColor"
      d="M376.6,140.7l-0.1-0.4C348.8,64.1,333.7-25,333.9-110.6h1.1c-0.2,85.4,30.7,161.5,87,214.2c9.4,5.3,10.6,10.5,10,13.9
			c-1.9,10-23,19-54.9,23.2L376.6,140.7z M335.9-72.9c3.6,73.4,18,147.6,41.4,212.4c31.2-4.2,51.7-12.8,53.6-22.3
			c0.8-4.4-2.5-8.8-9.6-12.8C373.2,59.4,343.6-2.6,335.9-72.9z"
    />
    <path
      fill="currentColor"
      d="M480.4,293.3l-0.2-0.1c-39.4-22.3-76.2-76.6-103.8-152.9l-0.2-0.6l0.7-0.1c31.5-4.2,52.2-12.8,54-22.4
			c0.3-1.7,0-3.4-0.8-4.9c-3-2.6-6-5.2-8.9-7.9l-3.4-3.2l4,2.3c5,2.9,7.7,5.6,9.1,8.1c55.1,47,126.3,67.2,202,57h0.2l0.2,0.1
			c25.3,14.3,37,30.3,33.9,46.3c-6.5,33.7-78,63.7-186.5,78.3H480.4z M377.7,140.6c27.5,75.6,64,129.4,102.9,151.6
			c108-14.6,179-44.2,185.4-77.4c2.9-15.4-8.5-30.9-33.2-45c-75.1,10.1-146-9.8-201-56c0.3,1.2,0.4,2.4,0.1,3.7
			C430,127.4,409.3,136.3,377.7,140.6L377.7,140.6z"
    />
    <path
      fill="currentColor"
      d="M469,139.7c-17.3-9.9-33.3-21.7-47.9-35.3l-3.4-3.2l4,2.3c2.1,1.2,4.1,2.6,6,4.2c4.8,4.2,11.2,9.7,15.9,13.5
			c1.7,1.5,4,3.1,6,4.5l2.3,1.7c2.7,2,6.5,4.5,8.5,5.8c2.4,1.6,6,3.7,9,5.5L469,139.7z"
    />
    <path
      fill="currentColor"
      d="M376.6,140.7l-0.1-0.4C348.8,64.1,333.7-25,333.9-110.6h1.1c-0.2,85.4,30.7,161.5,87,214.2c9.4,5.3,10.6,10.5,10,13.9
			c-1.9,10-23,19-54.9,23.2L376.6,140.7z M335.9-72.9c3.6,73.4,18,147.6,41.4,212.4c31.2-4.2,51.7-12.8,53.6-22.3
			c0.8-4.4-2.5-8.8-9.6-12.8C373.2,59.4,343.6-2.6,335.9-72.9z"
    />
    <path
      fill="currentColor"
      d="M480.4,293.3l-0.2-0.1c-39.4-22.3-76.2-76.6-103.8-152.9l-0.2-0.6l0.7-0.1c31.5-4.2,52.2-12.8,54-22.4
			c0.3-1.7,0-3.4-0.8-4.9c-3-2.6-6-5.2-8.9-7.9l-3.4-3.2l4,2.3c5,2.9,7.7,5.6,9.1,8.1c55.1,47,126.3,67.2,202,57h0.2l0.2,0.1
			c25.3,14.3,37,30.3,33.9,46.3c-6.5,33.7-78,63.7-186.5,78.3H480.4z M377.7,140.6c27.5,75.6,64,129.4,102.9,151.6
			c108-14.6,179-44.2,185.4-77.4c2.9-15.4-8.5-30.9-33.2-45c-75.1,10.1-146-9.8-201-56c0.3,1.2,0.4,2.4,0.1,3.7
			C430,127.4,409.3,136.3,377.7,140.6L377.7,140.6z"
    />
    <path
      fill="currentColor"
      d="M407.4,209.1l-0.1-1.1c54-7.3,89.5-22,92.7-38.5c1.5-7.6-4.2-15.3-16.6-22.3l0.5-0.9c12.8,7.3,18.7,15.3,17.1,23.4
			C497.7,186.7,461.9,201.8,407.4,209.1z"
    />
    <path
      fill="currentColor"
      d="M442.4,260.7l-0.1-1.1c79.9-10.8,132.4-32.7,137.1-57.2c2.2-11.3-6.3-22.8-24.6-33.2l0.5-0.9
			c18.7,10.7,27.4,22.5,25.1,34.4C575.7,227.7,522.8,249.9,442.4,260.7z"
    />
    <path
      fill="currentColor"
      d="M626.5,185c-75.4,0-145.5-26.7-199.4-76.5l0.7-0.8c10,9.2,17.5,14.8,17.8,15c4.4,3.3,10.4,7.5,15,10.6
			c2.5,1.7,5.9,3.7,8.8,5.3l0.3,0.2c48.3,27.4,104.8,37.8,163.3,29.9h0.2l0.2,0.1c7.2,4,14,8.8,20.1,14.2l0.9,0.8l-1.3,0.1
			C644.1,184.6,635.3,185,626.5,185z M474.3,142.6c51.9,31.2,113.1,45.3,177.4,40.3c-5.8-5-12.1-9.4-18.8-13.1
			C576.3,177.3,521.6,167.9,474.3,142.6z"
    />
    <path
      fill="currentColor"
      d="M35.2,250.6l-0.8-0.5c-23-13.1-34.8-27.5-34.4-42c0-1.9,0.1-3.8,0.5-5.7c6.5-33.7,78-63.7,186.5-78.3l0.6-0.1v2.5h-0.5
			C79.1,141.2,8,170.8,1.6,204c-0.3,1.3-0.4,2.7-0.4,4c0.4,13.6,11.9,27.2,33.8,39.7l0.3,0.2L35.2,250.6z M18.8,238.3
			c4.8,3.9,10,7.3,15.3,10.4v-0.1C28.8,245.5,23.7,242.1,18.8,238.3L18.8,238.3z M186.5,125.3c-84,11.4-145.5,31.9-171.7,56.1
			c26.8-24.2,88.3-44.6,171.7-55.8L186.5,125.3z"
    />
    <path
      fill="currentColor"
      d="M480,293.4v-2.5h0.5c108-14.6,179.2-44.2,185.6-77.4c0.3-1.3,0.4-2.7,0.5-4c-0.4-13.6-11.9-27.2-33.8-39.7l-0.3-0.2v-2.7
			l0.8,0.5c23,13.1,34.8,27.5,34.4,42c0,1.9-0.1,3.8-0.5,5.6c-6.5,33.7-78,63.7-186.5,78.3L480,293.4z M481.1,291.8v0.3
			c84-11.4,145.6-31.9,171.7-56.1C625.9,260.2,564.5,280.6,481.1,291.8L481.1,291.8z M633.5,168.9c5.3,3,10.5,6.4,15.3,10.2
			c-4.8-3.8-9.9-7.3-15.3-10.3L633.5,168.9z"
    />
    <path
      fill="currentColor"
      d="M336.5,302.5c-124,0-243.8-19.3-302-52.4c-22.9-13-34.4-26.8-34.4-41.3v-1.5h1.1c0,14,11.4,27.5,33.8,40.3
			c80.8,45.9,280.6,65.2,445.5,43.1c56.9-7.7,104.4-19.6,137.3-34.5c31.8-14.4,48.7-30.9,48.7-47.8h1.1v1.5
			c0,17.3-17.1,34.1-49.4,48.8c-33,15-80.6,26.9-137.7,34.6C432.8,299.5,384.6,302.6,336.5,302.5z M18.5,238.1
			c5.2,4.1,10.7,7.8,16.5,11.1c80.8,45.9,280.6,65.2,445.5,43c56.9-7.6,104.4-19.6,137.3-34.5c13.1-6,23.7-12.3,31.6-18.8
			c-9.6,7.4-20.1,13.6-31.2,18.4c-33,14.9-80.6,26.9-137.7,34.5c-165,22.2-365.2,2.9-446.1-43.1C28.9,245.6,23.5,242.1,18.5,238.1z"
    />
    <path
      fill="currentColor"
      d="M633.5,170.1l-0.8-0.5c-80.8-45.9-280.6-65.2-445.5-43l-0.6,0.1v-2.5h0.5c165-22.2,365.2-2.8,446.2,43.2l0.3,0.2V170.1z
			 M331.2,116.3c123.5,0,242.7,19.1,301.2,51.9v-0.1c-80.9-45.7-280.1-65-444.7-42.9v0.3C235.3,119.3,283.2,116.2,331.2,116.3z"
    />
    <path fill="currentColor" d="M517.6,131.2l0,1.4l1.1,0l0-1.4L517.6,131.2z" />
    <path fill="currentColor" d="M357.6,115.8l0,1.4l1.1,0l0-1.4L357.6,115.8z" />
    <path
      fill="currentColor"
      d="M35.2,250.6l-0.8-0.5c-23-13.1-34.8-27.5-34.4-42c0-1.9,0.1-3.8,0.5-5.7c6.5-33.7,78-63.7,186.5-78.3l0.6-0.1v2.5h-0.5
			C79.1,141.2,8,170.8,1.6,204c-0.3,1.3-0.4,2.7-0.4,4c0.4,13.6,11.9,27.2,33.8,39.7l0.3,0.2L35.2,250.6z M18.8,238.3
			c4.8,3.9,10,7.3,15.3,10.4v-0.1C28.8,245.5,23.7,242.1,18.8,238.3L18.8,238.3z M186.5,125.3c-84,11.4-145.5,31.9-171.7,56.1
			c26.8-24.2,88.3-44.6,171.7-55.8L186.5,125.3z"
    />
    <path fill="currentColor" d="M55.7,156.4l0,1.4l1.1,0l0-1.4L55.7,156.4z" />
    <path fill="currentColor" d="M1,200.7l0,1.4l1.1,0l0-1.4L1,200.7z" />
    <path
      fill="currentColor"
      d="M1.1,208.9H0.1v-1.5c0-17.3,17.1-34.1,49.4-48.8c33-14.9,80.6-26.8,137.6-34.5c165-22.2,365.2-2.8,446.2,43.2l0.3,0.2v2.7
			l-0.8-0.5c-80.8-45.9-280.6-65.2-445.5-43c-56.9,7.7-104.4,19.6-137.3,34.5C18,175.5,1.2,192,1.1,208.9z M331.3,116
			c-48.2-0.1-96.3,3-144.1,9.2c-56.9,7.7-104.4,19.6-137.3,34.5c-13.1,6-23.7,12.2-31.6,18.8c9.6-7.4,20-13.6,31.1-18.4
			c33-14.9,80.6-26.9,137.6-34.6c164.5-22.1,363.8-2.9,445.3,42.7v-0.1C574.3,135.2,454.9,116,331.3,116z"
    />
    <path
      fill="currentColor"
      d="M480,293.4v-2.5h0.5c108-14.6,179.2-44.2,185.6-77.4c0.3-1.3,0.4-2.7,0.5-4c-0.4-13.6-11.9-27.2-33.8-39.7l-0.3-0.2v-2.7
			l0.8,0.5c23,13.1,34.8,27.5,34.4,42c0,1.9-0.1,3.8-0.5,5.6c-6.5,33.7-78,63.7-186.5,78.3L480,293.4z M481.1,291.8v0.3
			c84-11.4,145.6-31.9,171.7-56.1C625.9,260.2,564.5,280.6,481.1,291.8L481.1,291.8z M633.5,168.9c5.3,3,10.5,6.4,15.3,10.2
			c-4.8-3.8-9.9-7.3-15.3-10.3L633.5,168.9z"
    />
    <path
      fill="currentColor"
      d="M595.2,170.9c-55.8,0-107.9-17-151.3-49.5c-58.2-5.6-116.7-6.9-175.1-3.8c-24.1,21.5-52.3,24.3-81.9,7.5l-1.5-0.8l1.6-0.2
			c26.4-3.6,53.7-6,81.2-7.5c8.5-7.9,15.9-16.9,21.9-26.8l0.1-0.2h0.2c48.9-6.6,108.2-0.8,132.2,12.8c6.8,6.4,14,12.4,21.5,18
			c79.7,7.9,148.9,24,189,46.9l1.5,0.8l-1.6,0.2C620.5,170,607.8,170.9,595.2,170.9z M446,121.7c52.3,38.4,116.9,54.6,185.3,45.8
			C591.4,145.4,523.8,129.5,446,121.7z M188.9,125c28.1,15.4,55,12.7,78.1-7.2C240.5,119.2,214.3,121.6,188.9,125z M331.2,114.9
			c37.9,0,75.5,1.8,111,5.3c-7-5.3-13.7-11-20.1-17C398.4,89.8,339.6,84.1,291,90.6c-5.8,9.5-12.8,18.3-20.9,25.9
			C290.4,115.5,310.9,114.9,331.2,114.9z"
    />
    <path
      fill="currentColor"
      d="M555.2,167.8c-59.8-34-207.9-48.3-330-31.9l-0.1-1.1c122.3-16.4,270.6-2.1,330.7,32L555.2,167.8z"
    />
    <path
      fill="currentColor"
      d="M484,146c-40.6-23.1-141-32.8-223.8-21.6l-0.1-1.1c83-11.2,183.7-1.5,224.5,21.7L484,146z"
    />
    <path
      fill="currentColor"
      d="M474.9,141c-32.6,0-62.5-16.5-86.8-48.6l0.9-0.7c34.3,45.5,80.1,59.3,128.9,39l0.4,1C504.6,137.7,489.8,140.8,474.9,141z"
    />
    <path
      fill="currentColor"
      d="M351.4,129.5h-0.2c-1.5-0.1-6.3-0.5-10.6-42l1.1-0.1c3.7,35.3,7.6,40.8,9.6,41c1.1,0,3.3-1.5,6.3-12.7l1.1,0.3
			C356.3,125.1,353.9,129.5,351.4,129.5z"
    />
    <path
      fill="currentColor"
      d="M34.6,248.8l-0.2-0.1c-25.3-14.4-37-30.3-33.9-46.3c6.5-33.7,78-63.7,186.5-78.3h0.2l0.2,0.1c18.1,10.2,35.6,13.1,52,8.8
			c1.8-2,3.5-4.1,5.2-6.1c-9.1-5.4-10.3-10.4-9.6-13.8c2-10.1,23.2-19.1,55.4-23.5l1.2-0.1l-0.6,1c-14.8,23.8-32.1,38.4-51.1,43.6
			c-55.6,63.7-128.2,104.4-205.2,114.8L34.6,248.8z M187.1,125.3c-108,14.6-179,44.2-185.4,77.4c-2.9,15.4,8.5,30.9,33.2,45
			c76.2-10.3,148-50.4,203.3-113.3C222,138.2,204.8,135.3,187.1,125.3z M289.5,90.8c-31.1,4.3-51.6,12.9-53.4,22.4
			c-0.8,4.4,2.5,8.9,9.7,12.9l0.6,0.3l-0.4,0.5c-1.5,1.8-3,3.6-4.6,5.4C259.2,127,275.5,113,289.5,90.8z"
    />
    <path
      fill="currentColor"
      d="M112,227.5c-18.8-10.7-27.5-22.6-25.2-34.4c4.8-25,57.9-47.3,138.3-58.1l0.1,1.1c-80,10.8-132.6,32.7-137.4,57.2
			c-2.2,11.4,6.3,22.9,24.6,33.3L112,227.5z"
    />
    <path
      fill="currentColor"
      d="M183.3,186.4c-12.8-7.3-18.7-15.4-17.2-23.5c3.3-17.1,39.4-32.2,94-39.6l0.1,1.1c-54.2,7.3-89.9,22.1-93.1,38.7
			c-1.5,7.6,4.3,15.4,16.6,22.4L183.3,186.4z"
    />
    <path
      fill="currentColor"
      d="M100.9,161.1c-15,0-30.1-1.4-44.8-4.2l0.2-1.1c73.7,13.7,143-6.4,195.2-56.8l0.8,0.8C210.6,140.1,158,161.1,100.9,161.1z"
    />
    <path
      fill="currentColor"
      d="M426.2,105.6l-4-2.3c-23.8-13.5-82.9-19.2-131.6-12.7l-1.1,0.1l0.6-1C317.7,45.4,333-25.9,333.2-111v-0.5h0.5
			c0.8-0.1,1.6,0,2.3,0.3l0.3,0.2v0.2c-0.1,85,30.6,160.8,86.6,213.2L426.2,105.6z M333.2,86.8c34.5,0,67.8,5,86.1,13.7
			C364.9,48,335-26.7,335.1-110.4c-0.3,0-0.6,0-0.8,0C334-26,318.9,44.9,291.6,89.4C305.4,87.7,319.3,86.8,333.2,86.8L333.2,86.8z"
    />
    <path
      fill="currentColor"
      d="M388.1,92.4c-34.6-45.8-53.6-118-53.4-203.3h1c-0.2,85.1,18.7,157,53.2,202.7L388.1,92.4z"
    />
    <path
      fill="currentColor"
      d="M340.7,87.5c-4.5-42.8-6.8-113.3-6.7-198.5h1.1c-0.2,85.2,2.2,155.6,6.7,198.4L340.7,87.5z"
    />
    <path
      fill="currentColor"
      d="M245.6,127.3l-0.4-0.2c-9.6-5.5-10.9-10.7-10.2-14.1c1.5-7.7,14.3-14.8,34.6-19.7c40.6-61,62.7-131.9,62.9-203.6
			c-0.1-0.1-0.1-0.2-0.1-0.3c0-0.1,0-0.2,0-0.3c0.1-0.4,0.5-0.7,1.3-0.8h0.6v0.6c-0.2,85.3-15.5,156.8-43.3,201.3l-0.1,0.2h-0.3
			c-7.4,1-14.2,2.2-20.3,3.6c-7.6,11.3-15.7,22.2-24.4,32.7L245.6,127.3z M268.8,94.7c-19.2,4.7-31.3,11.4-32.7,18.6
			c-0.8,4.3,2.4,8.8,9.3,12.7C253.7,115.9,261.5,105.5,268.8,94.7z M332.7-85.1c-4.9,63.6-26.1,125-61.5,178.1
			c5.8-1.3,12.2-2.5,19.1-3.4C315,49.8,329.8-11.6,332.7-85.1z"
    />
    <path
      fill="currentColor"
      d="M252.3,99.9l-0.8-0.8c52.1-50.3,81-124.9,81.2-209.9h1.1C333.6-25.5,304.7,49.3,252.3,99.9z"
    />
    <path
      fill="currentColor"
      d="M42.6,182.4c-9.2,0-18.4-0.4-27.7-1.2l-1.2-0.1l0.9-0.8c26.8-24.5,89.7-45,172.5-56.1c11.8-1.6,23.8-3,35.9-4.1
			c1.6-1.2,3.4-2.7,5-4l2.2-1.7l1.2-1c1.9-1.6,3.7-3.2,5.5-4.8l2.5-2.2l0.7,0.8c-0.8,0.7-1.6,1.5-2.4,2.2c-1.9,1.7-3.8,3.4-5.6,4.8
			c-2.3,1.9-4.6,3.8-6.9,5.7c156.7-14.7,333.3,5,408.1,47.5l1.5,0.8l-1.6,0.2c-53.6,7.2-105.5-0.9-150.9-23.3
			c-1.5-0.4-3.4-0.9-7.3-1.9c-1.5-0.4-3.3-0.8-5-1.2l-2.3-0.5c-2.9-0.7-6.7-1.5-10.1-2l-3.3-0.6c-7.1-1.3-22.8-3.5-28-4.1l-1.6-0.2
			c-4.5-0.5-10.2-1.2-14.5-1.6c-3.4-0.3-7.6-0.7-11.5-1l-5.3-0.4c-3.6-0.3-8-0.6-12.2-0.8l-5.1-0.3c-6.7-0.4-25.6-1.1-37-1.1
			c-6.2,0-25,0-37.2,0.5l-5.6,0.2c-4.4,0.2-8.9,0.4-12.6,0.6l-5.4,0.4c-4.3,0.3-8.8,0.6-12.4,0.9c-4.8,0.4-11.2,1-16.8,1.6
			c-5.2,0.5-11.9,1.3-16.7,2c-7.5,1.1-16.7,2.5-23.3,3.7c-1,0.2-8.8,1.6-17.5,3.7C147.2,168.8,96.2,182.4,42.6,182.4z M16.3,180.3
			C78,185.3,137,172.6,187.5,144c-0.9,0.2-1.8,0.5-2.6,0.7l-0.3,0.1c-0.3,0.1-0.6,0.2-1,0.2l-3.5,0.3l3.2-1.5c1.6-0.7,4.7-2,7-3.1
			c2.3-1.1,5.4-2.8,8-4.2c2.6-1.5,6-3.5,8-4.8c1.8-1.1,4.1-2.7,6-4l1.3-0.9c1.9-1.3,4.5-3.2,7.7-5.6c-11.5,1.1-22.9,2.4-34.1,4
			C105.5,136.2,43.4,156.2,16.3,180.3L16.3,180.3z M484.8,145.1c44.2,21.3,94.5,29.1,146.4,22.4c-75.7-42-251.8-61.4-407.7-46.4
			c-9.2,7.2-18.8,13.9-28.8,19.9c7.2-1.7,13.1-2.8,14.1-2.9c6.6-1.2,15.8-2.6,23.3-3.7c4.9-0.7,11.6-1.5,16.7-2
			c5.6-0.6,12-1.2,16.9-1.6c3.7-0.3,8.1-0.6,12.4-0.9l5.4-0.4c3.7-0.3,8.2-0.4,12.6-0.6l5.6-0.2c12.3-0.6,31.1-0.5,37.3-0.5
			c11.3,0,30.3,0.7,37,1.1l5.1,0.3c4.2,0.2,8.6,0.5,12.2,0.8l5.3,0.4c3.9,0.3,8.1,0.7,11.5,1c4.4,0.4,10,1.1,14.5,1.6l1.6,0.2
			c5.2,0.6,21,2.8,28.1,4.1l3.3,0.6c3.3,0.6,7.1,1.3,10.1,2l2.3,0.5c1.7,0.4,3.5,0.8,5,1.2l2.2,0.6c-2.5-1.3-5.1-2.7-7.6-4.1
			l0.5-0.9c2.1,1.1,6,3.3,9,4.8c1.3,0.6,3.2,1.5,5.6,2.5L484.8,145.1z M193.7,140.3c-1.1,0.6-2.1,1.1-2.9,1.5l-0.5,0.2l0.9-0.2
			L193.7,140.3z"
    />
    <path
      fill="currentColor"
      d="M595.2,170.9c-55.8,0-107.9-17-151.3-49.5c-58.2-5.6-116.7-6.9-175.1-3.8c-24.1,21.5-52.3,24.3-81.9,7.5l-1.5-0.8l1.6-0.2
			c26.4-3.6,53.7-6,81.2-7.5c8.5-7.9,15.9-16.9,21.9-26.8l0.1-0.2h0.2c48.9-6.6,108.2-0.8,132.2,12.8c6.8,6.4,14,12.4,21.5,18
			c79.7,7.9,148.9,24,189,46.9l1.5,0.8l-1.6,0.2C620.5,170,607.8,170.9,595.2,170.9z M446,121.7c52.3,38.4,116.9,54.6,185.3,45.8
			C591.4,145.4,523.8,129.5,446,121.7z M188.9,125c28.1,15.4,55,12.7,78.1-7.2C240.5,119.2,214.3,121.6,188.9,125z M331.2,114.9
			c37.9,0,75.5,1.8,111,5.3c-7-5.3-13.7-11-20.1-17C398.4,89.8,339.6,84.1,291,90.6c-5.8,9.5-12.8,18.3-20.9,25.9
			C290.4,115.5,310.9,114.9,331.2,114.9z"
    />
    <path
      fill="currentColor"
      d="M484,146c-40.6-23.1-141-32.8-223.8-21.6l-0.1-1.1c83-11.2,183.7-1.5,224.5,21.7L484,146z"
    />
    <path
      fill="currentColor"
      d="M474.9,141c-32.6,0-62.5-16.5-86.8-48.6l0.9-0.7c34.3,45.5,80.1,59.3,128.9,39l0.4,1C504.6,137.7,489.8,140.8,474.9,141z"
    />
    <path
      fill="currentColor"
      d="M351.4,129.5h-0.2c-1.5-0.1-6.3-0.5-10.6-42l1.1-0.1c3.7,35.3,7.6,40.8,9.6,41c1.1,0,3.3-1.5,6.3-12.7l1.1,0.3
			C356.3,125.1,353.9,129.5,351.4,129.5z"
    />
    <path
      fill="currentColor"
      d="M34.6,248.8l-0.2-0.1c-25.3-14.4-37-30.3-33.9-46.3c6.5-33.7,78-63.7,186.5-78.3h0.2l0.2,0.1c18.1,10.2,35.6,13.1,52,8.8
			c1.8-2,3.5-4.1,5.2-6.1c-9.1-5.4-10.3-10.4-9.6-13.8c2-10.1,23.2-19.1,55.4-23.5l1.2-0.1l-0.6,1c-14.8,23.8-32.1,38.4-51.1,43.6
			c-55.6,63.7-128.2,104.4-205.2,114.8L34.6,248.8z M187.1,125.3c-108,14.6-179,44.2-185.4,77.4c-2.9,15.4,8.5,30.9,33.2,45
			c76.2-10.3,148-50.4,203.3-113.3C222,138.2,204.8,135.3,187.1,125.3z M289.5,90.8c-31.1,4.3-51.6,12.9-53.4,22.4
			c-0.8,4.4,2.5,8.9,9.7,12.9l0.6,0.3l-0.4,0.5c-1.5,1.8-3,3.6-4.6,5.4C259.2,127,275.5,113,289.5,90.8z"
    />
    <path
      fill="currentColor"
      d="M183.3,186.4c-12.8-7.3-18.7-15.4-17.2-23.5c3.3-17.1,39.4-32.2,94-39.6l0.1,1.1c-54.2,7.3-89.9,22.1-93.1,38.7
			c-1.5,7.6,4.3,15.4,16.6,22.4L183.3,186.4z"
    />
    <path
      fill="currentColor"
      d="M100.9,161.1c-15,0-30.1-1.4-44.8-4.2l0.2-1.1c73.7,13.7,143-6.4,195.2-56.8l0.8,0.8C210.6,140.1,158,161.1,100.9,161.1z"
    />
    <path
      fill="currentColor"
      d="M426.2,105.6l-4-2.3c-23.8-13.5-82.9-19.2-131.6-12.7l-1.1,0.1l0.6-1C317.7,45.4,333-25.9,333.2-111v-0.5h0.5
			c0.8-0.1,1.6,0,2.3,0.3l0.3,0.2v0.2c-0.1,85,30.6,160.8,86.6,213.2L426.2,105.6z M333.2,86.8c34.5,0,67.8,5,86.1,13.7
			C364.9,48,335-26.7,335.1-110.4c-0.3,0-0.6,0-0.8,0C334-26,318.9,44.9,291.6,89.4C305.4,87.7,319.3,86.8,333.2,86.8L333.2,86.8z"
    />
    <path
      fill="currentColor"
      d="M388.1,92.4c-34.6-45.8-53.6-118-53.4-203.3h1c-0.2,85.1,18.7,157,53.2,202.7L388.1,92.4z"
    />
    <path
      fill="currentColor"
      d="M340.7,87.5c-4.5-42.8-6.8-113.3-6.7-198.5h1.1c-0.2,85.2,2.2,155.6,6.7,198.4L340.7,87.5z"
    />
    <path
      fill="currentColor"
      d="M245.6,127.3l-0.4-0.2c-9.6-5.5-10.9-10.7-10.2-14.1c1.5-7.7,14.3-14.8,34.6-19.7c40.6-61,62.7-131.9,62.9-203.6
			c-0.1-0.1-0.1-0.2-0.1-0.3c0-0.1,0-0.2,0-0.3c0.1-0.4,0.5-0.7,1.3-0.8h0.6v0.6c-0.2,85.3-15.5,156.8-43.3,201.3l-0.1,0.2h-0.3
			c-7.4,1-14.2,2.2-20.3,3.6c-7.6,11.3-15.7,22.2-24.4,32.7L245.6,127.3z M268.8,94.7c-19.2,4.7-31.3,11.4-32.7,18.6
			c-0.8,4.3,2.4,8.8,9.3,12.7C253.7,115.9,261.5,105.5,268.8,94.7z M332.7-85.1c-4.9,63.6-26.1,125-61.5,178.1
			c5.8-1.3,12.2-2.5,19.1-3.4C315,49.8,329.8-11.6,332.7-85.1z"
    />
    <path
      fill="currentColor"
      d="M252.3,99.9l-0.8-0.8c52.1-50.3,81-124.9,81.2-209.9h1.1C333.6-25.5,304.7,49.3,252.3,99.9z"
    />
    <path
      fill="currentColor"
      d="M484.5,145.7c-6.2-2-14-3.7-19.5-4.9c-12-2.5-23.2-4.1-25.3-4.4c-6-0.8-16-2.3-30-3.6c-19.7-1.9-34-2.5-34.1-2.5l-5.6-0.2
			c-4.3-0.2-8.9-0.4-12.6-0.5c-5.6-0.2-13-0.3-18.5-0.4c-11.3-0.1-26.3,0.1-37.2,0.5c-12.3,0.4-24.2,1.1-36.2,2.1
			c-16,1.3-27.7,2.8-33.2,3.6l-0.1-0.5v0.5c-8.8,1.1-30.7,4.4-47.4,9.2l-0.3,0.1c-0.3,0.1-0.7,0.2-1,0.2l-3.9,0.5l3.7-1.5
			c3.6-1.5,7.2-3.2,10.6-5c1.8-0.9,4.2-2.3,6-3.4c2.1-1.2,5.3-3.1,7.6-4.6c0.7-0.5,1.5-1,2.2-1.5c1.8-1.2,3.6-2.4,5.1-3.5
			c2.9-2.1,6.4-4.6,8.8-6.5c4.7-3.6,10.6-8.8,15.8-13.3c8.1-7.4,26.3-13.3,51.2-16.7c48.9-6.6,108.2-0.8,132.2,12.8
			c14.4,13.5,30.4,25.3,47.5,35.1c2.6,1.5,5.3,2.9,7.3,3.9c2.7,1.3,6.2,2.8,7.3,3.3L484.5,145.7z M333.7,128.2h5.3
			c5.4,0,12.9,0.2,18.5,0.4c3.7,0.1,8.3,0.3,12.6,0.5l5.6,0.2c0.1,0,14.5,0.6,34.2,2.5c13.9,1.3,24,2.8,30,3.6
			c2.1,0.3,13.4,1.9,25.4,4.4c3.5,0.7,8,1.7,12.4,2.8l-0.5-0.2c-2.1-1.1-4.8-2.5-7.4-4c-17.2-9.8-33.2-21.6-47.7-35.2
			c-23.7-13.5-82.7-19.2-131.4-12.6c-24.4,3.3-42.8,9.3-50.6,16.4c-5.2,4.6-11.1,9.7-15.8,13.4c-2.4,1.9-5.8,4.4-8.8,6.5
			c-1.5,1.1-3.4,2.3-5.2,3.5l-2.2,1.5c-2.3,1.5-5.5,3.4-7.6,4.7c-1.9,1.1-4.4,2.4-6.1,3.4c-1.4,0.7-2.8,1.5-4.2,2.1
			c13.8-3.3,27.8-5.9,41.9-7.7l0.1,0.5v-0.6c5.6-0.7,17.2-2.2,33.3-3.6c12.1-1,23.9-1.7,36.3-2.1
			C311.1,128.4,323.3,128.2,333.7,128.2L333.7,128.2z"
    />
    <path
      fill="currentColor"
      d="M34.6,248.8l-0.2-0.1c-25.3-14.4-37-30.3-33.9-46.3c6.5-33.7,78-63.7,186.5-78.3h0.2l0.2,0.1c18.1,10.2,35.6,13.1,52,8.8
			c1.8-2,3.5-4.1,5.2-6.1c-9.1-5.4-10.3-10.4-9.6-13.8c2-10.1,23.2-19.1,55.4-23.5l1.2-0.1l-0.6,1c-14.8,23.8-32.1,38.4-51.1,43.6
			c-55.6,63.7-128.2,104.4-205.2,114.8L34.6,248.8z M187.1,125.3c-108,14.6-179,44.2-185.4,77.4c-2.9,15.4,8.5,30.9,33.2,45
			c76.2-10.3,148-50.4,203.3-113.3C222,138.2,204.8,135.3,187.1,125.3z M289.5,90.8c-31.1,4.3-51.6,12.9-53.4,22.4
			c-0.8,4.4,2.5,8.9,9.7,12.9l0.6,0.3l-0.4,0.5c-1.5,1.8-3,3.6-4.6,5.4C259.2,127,275.5,113,289.5,90.8z"
    />
    <path
      fill="currentColor"
      d="M112,227.5c-18.8-10.7-27.5-22.6-25.2-34.4c4.8-25,57.9-47.3,138.3-58.1l0.1,1.1c-80,10.8-132.6,32.7-137.4,57.2
			c-2.2,11.4,6.3,22.9,24.6,33.3L112,227.5z"
    />
    <path
      fill="currentColor"
      d="M183.3,186.4c-12.8-7.3-18.7-15.4-17.2-23.5c3.3-17.1,39.4-32.2,94-39.6l0.1,1.1c-54.2,7.3-89.9,22.1-93.1,38.7
			c-1.5,7.6,4.3,15.4,16.6,22.4L183.3,186.4z"
    />
    <path
      fill="currentColor"
      d="M9.3,201.4c-2.6,0-5.2,0-7.8-0.1v-1.1c88.3,2,171.4-29.3,233.8-88l0.8,0.8C175.2,170.1,95,201.4,9.3,201.4z"
    />
    <path
      fill="currentColor"
      d="M336.5,301.1c-124,0-243.8-19.3-302-52.4l-1.5-0.8l1.6-0.2c79.5-10.7,154.2-53.8,210.5-121.4l0.3-0.4l0.4,0.2
			c23.8,13.5,82.8,19.2,131.5,12.7h0.4l0.1,0.4c27.4,75.7,63.9,129.6,102.9,151.7l1.5,0.8l-1.6,0.2
			C432.8,298.2,384.7,301.2,336.5,301.1z M36.4,248.6c81.4,45.2,278.9,64.2,442.4,42.5c-38.6-22.7-74.7-76.2-101.8-151
			c-48.5,6.4-107.2,0.8-131.4-12.6C189.7,194.5,115.4,237.5,36.4,248.6z"
    />
    <path
      fill="currentColor"
      d="M335.3,212.7c-62.4,0-122.7-9.7-152-26.4l0.5-0.9c40.6,23.1,141,32.8,223.8,21.6l0.1,1.1
			C383.7,211.2,359.5,212.8,335.3,212.7z"
    />
    <path
      fill="currentColor"
      d="M149.8,285.3l-0.4-1c48.9-20.4,94.9-72.6,129.6-147.1l1,0.5C245.3,212.4,199,264.8,149.8,285.3z"
    />
    <path
      fill="currentColor"
      d="M310,300.4l-1.1-0.3c6.5-24.5,12.6-80.7,17.3-158.1h1.1C322.7,219.6,316.5,275.8,310,300.4z"
    />
    <path
      fill="currentColor"
      d="M480.4,291.9l-0.2-0.1c-39.2-22.2-75.9-76.3-103.4-152.2l-0.2-0.6l0.7-0.1c31.8-4.3,52.7-12.9,54.6-22.6
			c0.3-1.7,0-3.5-0.8-5c-3-2.6-6-5.3-9-8l-3.4-3.2l4,2.3c5,2.9,7.8,5.7,9.2,8.2c54.8,46.7,125.7,66.8,201,56.7h0.2l0.2,0.1
			c25.3,14.4,37,30.3,33.9,46.3c-6.5,33.7-78,63.7-186.5,78.3L480.4,291.9z M378.1,139.8c27.3,75.3,63.7,128.8,102.5,150.9
			c108-14.6,179-44.2,185.4-77.4c2.9-15.4-8.5-30.9-33.2-45c-74.8,10-145.2-9.7-200-55.6c0.3,1.2,0.4,2.5,0.2,3.7
			C431,126.5,410,135.5,378.1,139.8z"
    />
    <path
      fill="currentColor"
      d="M442.6,259.5l-0.1-1.1c80-10.8,132.6-32.7,137.4-57.2c2.2-11.4-6.3-22.9-24.6-33.3l0.5-0.9c18.8,10.7,27.5,22.6,25.2,34.4
			C576.1,226.4,523.1,248.7,442.6,259.5z"
    />
    <path
      fill="currentColor"
      d="M407.7,208.1l-0.1-1.1c54.2-7.3,89.9-22.1,93.1-38.7c1.5-7.6-4.3-15.4-16.6-22.4l0.5-1c12.8,7.3,18.7,15.4,17.2,23.6
			C498.4,185.6,462.4,200.7,407.7,208.1z"
    />
    <path
      fill="currentColor"
      d="M611.4,260.2c-74-13.8-143.5-59.9-195.7-129.8l0.9-0.7c52,69.8,121.2,115.7,195,129.4L611.4,260.2z"
    />
    <path
      fill="currentColor"
      d="M666.1,215.9c-88.6-2-171.8-37-234.1-98.6l0.8-0.8c62.2,61.4,145.1,96.3,233.4,98.3L666.1,215.9z"
    />
    <path
      fill="currentColor"
      d="M245.6,127.3l-0.4-0.2c-9.6-5.5-10.9-10.7-10.2-14.1c1.5-7.7,14.3-14.8,34.6-19.7c40.6-61,62.7-131.9,62.9-203.6
			c-0.1-0.1-0.1-0.2-0.1-0.3c0-0.1,0-0.2,0-0.3c0.1-0.4,0.5-0.7,1.3-0.8h0.6v0.6c-0.2,85.3-15.5,156.8-43.3,201.3l-0.1,0.2h-0.3
			c-7.4,1-14.2,2.2-20.3,3.6c-7.6,11.3-15.7,22.2-24.4,32.7L245.6,127.3z M268.8,94.7c-19.2,4.7-31.3,11.4-32.7,18.6
			c-0.8,4.3,2.4,8.8,9.3,12.7C253.7,115.9,261.5,105.5,268.8,94.7z M332.7-85.1c-4.9,63.6-26.1,125-61.5,178.1
			c5.8-1.3,12.2-2.5,19.1-3.4C315,49.8,329.8-11.6,332.7-85.1z"
    />
    <path
      fill="currentColor"
      d="M236.1,113l-0.8-0.8c62.5-58.6,96.9-137.8,97.1-222.8h1.1C333.4-25.3,298.8,54,236.1,113z"
    />
    <path
      fill="currentColor"
      d="M334.8,142.7c-36.8,0-72.3-5.7-89.6-15.6l-0.6-0.3l0.4-0.5c56.3-67.6,87.3-151.7,87.5-236.7v-0.9l0.8,0.5
			c0.5,0.2,1.1,0.2,1.6,0.1h0.6v0.6c-0.2,85.1,14.9,173.7,42.3,249.5l0.2,0.6l-0.7,0.1C363.4,141.8,349.1,142.7,334.8,142.7z
			 M246.4,126.5c24.1,13.2,82.1,18.8,130.3,12.5c-27.3-75.5-42.2-163.8-42.1-248.6c-0.3,0-0.6,0-0.9,0
			C333.3-24.9,302.3,59,246.4,126.5z"
    />
    <path
      fill="currentColor"
      d="M280,137.7l-1-0.5c34.7-74.5,54-162.4,54.1-247.5h1.1C334-25,314.8,63,280,137.7z"
    />
    <path
      fill="currentColor"
      d="M327.4,142.1h-1.1c4.7-77.5,7.3-167,7.5-252.2h1.1C334.7-25,332,64.6,327.4,142.1z"
    />
    <path
      fill="currentColor"
      d="M377,140l-0.2-0.4C349.4,63.7,334.4-25,334.6-110.3v-0.5h0.5h0.2v-0.9l0.8,0.5c0.1,0.1,0.3,0.2,0.3,0.3
			c0.1,0.1,0.1,0.3,0.1,0.5c0,0.1-0.1,0.2-0.1,0.3c0,84.8,30.7,160.3,86.6,212.6c9.5,5.4,10.8,10.6,10.1,14
			c-2,10.2-23.2,19.1-55.4,23.5L377,140z M335.9-87.5c2.3,77.8,16.9,157.3,41.8,226.1c31.5-4.3,52.3-12.9,54.1-22.5
			c0.8-4.4-2.5-8.9-9.7-12.9C371.1,55.5,340.9-11.6,335.9-87.5z"
    />
    <path
      fill="currentColor"
      d="M415.7,130.3c-52.1-69.9-80.8-155.4-80.6-240.7h1.1C336-25.3,364.6,60,416.6,129.7L415.7,130.3z"
    />
    <path
      fill="currentColor"
      d="M432,117.3c-62.5-61.6-96.8-142.6-96.6-227.9h1.1c-0.1,85,34,165.7,96.3,227.1L432,117.3z"
    />
    <path
      fill="currentColor"
      d="M336.5,301.1c-124,0-243.8-19.3-302-52.4c-21.2-12.1-32.7-24.9-34.3-38.3C-1,200.3,3.8,190,14.5,180.3l0.2-0.2h0.2
			c9.2,0.8,18.5,1.2,27.6,1.2c74.4,0,143.4-26.2,196.7-75.1l0.7,0.8c-2.7,2.5-4.1,5-4.1,7.5c0,3.9,3.4,7.9,9.8,11.6
			c23.8,13.5,82.8,19.2,131.5,12.7c33.2-4.5,54.7-13.9,54.7-24c0-2.5-1.3-5-4-7.5l0.7-0.8c59.7,55.1,139.3,81.7,224.1,74.8h0.2
			l0.2,0.2c12.4,11.4,16.7,23.3,13,35.2c-10.3,32.8-79.7,60.9-185.6,75.1C432.8,298.1,384.7,301.2,336.5,301.1z M15.1,181.2
			c-10.3,9.5-14.9,19.3-13.8,29.1c1.5,13,12.8,25.6,33.7,37.4C93,280.7,212.6,300,336.4,300c48.2,0.1,96.3-3,144.1-9.2
			c103.9-14,174.8-42.5,184.8-74.4c3.6-11.4-0.6-22.8-12.5-33.9c-83,6.7-161-18.5-220.4-71.2c0.5,1.1,0.8,2.3,0.8,3.6
			c0,10.8-21.3,20.4-55.7,25c-48.9,6.6-108.2,0.8-132.2-12.8c-6.9-3.9-10.4-8.1-10.4-12.5c0-1.2,0.3-2.5,0.8-3.6
			C176.1,163.4,98.1,188.3,15.1,181.2z"
    />
    <path
      fill="currentColor"
      d="M480.4,291.9l-0.2-0.1c-39.2-22.2-75.9-76.3-103.4-152.2l-0.2-0.6l0.7-0.1c31.8-4.3,52.7-12.9,54.6-22.6
			c0.3-1.7,0-3.5-0.8-5c-3-2.6-6-5.3-9-8l-3.4-3.2l4,2.3c5,2.9,7.8,5.7,9.2,8.2c54.8,46.7,125.7,66.8,201,56.7h0.2l0.2,0.1
			c25.3,14.4,37,30.3,33.9,46.3c-6.5,33.7-78,63.7-186.5,78.3L480.4,291.9z M378.1,139.8c27.3,75.3,63.7,128.8,102.5,150.9
			c108-14.6,179-44.2,185.4-77.4c2.9-15.4-8.5-30.9-33.2-45c-74.8,10-145.2-9.7-200-55.6c0.3,1.2,0.4,2.5,0.2,3.7
			C431,126.5,410,135.5,378.1,139.8z"
    />
    <path
      fill="currentColor"
      d="M377,140l-0.2-0.4C349.4,63.7,334.4-25,334.6-110.3v-0.5h0.5h0.2v-0.9l0.8,0.5c0.1,0.1,0.3,0.2,0.3,0.3
			c0.1,0.1,0.1,0.3,0.1,0.5c0,0.1-0.1,0.2-0.1,0.3c0,84.8,30.7,160.3,86.6,212.6c9.5,5.4,10.8,10.6,10.1,14
			c-2,10.2-23.2,19.1-55.4,23.5L377,140z M335.9-87.5c2.3,77.8,16.9,157.3,41.8,226.1c31.5-4.3,52.3-12.9,54.1-22.5
			c0.8-4.4-2.5-8.9-9.7-12.9C371.1,55.5,340.9-11.6,335.9-87.5z"
    />
    <path
      fill="currentColor"
      d="M469.8,138.4c-17.2-9.8-33.2-21.6-47.6-35.2l-3.4-3.2l4,2.3c2.2,1.2,4.2,2.6,6,4.3c3.1,2.8,7.2,6.4,10.2,8.9
			c3,2.5,6.2,5,8.7,6.9l0.3,0.2c2.7,2,6.1,4.5,8.8,6.3c3.6,2.4,8.9,5.7,13.6,8.5L469.8,138.4z"
    />
    <path
      fill="currentColor"
      d="M480.4,291.9l-0.2-0.1c-39.2-22.2-75.9-76.3-103.4-152.2l-0.2-0.6l0.7-0.1c31.8-4.3,52.7-12.9,54.6-22.6
			c0.3-1.7,0-3.5-0.8-5c-3-2.6-6-5.3-9-8l-3.4-3.2l4,2.3c5,2.9,7.8,5.7,9.2,8.2c54.8,46.7,125.7,66.8,201,56.7h0.2l0.2,0.1
			c25.3,14.4,37,30.3,33.9,46.3c-6.5,33.7-78,63.7-186.5,78.3L480.4,291.9z M378.1,139.8c27.3,75.3,63.7,128.8,102.5,150.9
			c108-14.6,179-44.2,185.4-77.4c2.9-15.4-8.5-30.9-33.2-45c-74.8,10-145.2-9.7-200-55.6c0.3,1.2,0.4,2.5,0.2,3.7
			C431,126.5,410,135.5,378.1,139.8z"
    />
    <path
      fill="currentColor"
      d="M442.6,259.5l-0.1-1.1c80-10.8,132.6-32.7,137.4-57.2c2.2-11.4-6.3-22.9-24.6-33.3l0.5-0.9c18.8,10.7,27.5,22.6,25.2,34.4
			C576.1,226.4,523.1,248.7,442.6,259.5z"
    />
    <path
      fill="currentColor"
      d="M407.7,208.1l-0.1-1.1c54.2-7.3,89.9-22.1,93.1-38.7c1.5-7.6-4.3-15.4-16.6-22.4l0.5-1c12.8,7.3,18.7,15.4,17.2,23.6
			C498.4,185.6,462.4,200.7,407.7,208.1z"
    />
    <path
      fill="currentColor"
      d="M377,140l-0.2-0.4C349.4,63.7,334.4-25,334.6-110.3v-0.5h0.5h0.2v-0.9l0.8,0.5c0.1,0.1,0.3,0.2,0.3,0.3
			c0.1,0.1,0.1,0.3,0.1,0.5c0,0.1-0.1,0.2-0.1,0.3c0,84.8,30.7,160.3,86.6,212.6c9.5,5.4,10.8,10.6,10.1,14
			c-2,10.2-23.2,19.1-55.4,23.5L377,140z M335.9-87.5c2.3,77.8,16.9,157.3,41.8,226.1c31.5-4.3,52.3-12.9,54.1-22.5
			c0.8-4.4-2.5-8.9-9.7-12.9C371.1,55.5,340.9-11.6,335.9-87.5z"
    />
    <path
      fill="currentColor"
      d="M626.6,183.6c-75.1,0-144.8-26.6-198.6-76.2l0.7-0.8c0.8,0.7,1.6,1.5,2.5,2.2c1.9,1.7,3.8,3.4,5.4,4.8
			c2.8,2.3,6.8,5.7,9.9,8l1.8,1.3c2.2,1.7,4.8,3.6,6.9,5c8.4,5.6,9.3,6.2,15,9.5c48.1,27.3,104.3,37.6,162.6,29.8h0.2l0.2,0.1
			c7.2,4,14,8.8,20.1,14.2l0.9,0.8l-1.2,0.1C644.1,183.2,635.3,183.6,626.6,183.6z M475,141.3c51.7,31.1,112.7,45.2,176.7,40.2
			c-5.8-5-12.1-9.4-18.8-13.1C576.4,175.9,522,166.5,475,141.3z"
    />
    <path
      fill="currentColor"
      d="M34.6,248.8l-0.2-0.1c-25.3-14.4-37-30.3-33.9-46.3c6.5-33.7,78-63.7,186.5-78.3h0.2l0.2,0.1c18.1,10.2,35.6,13.1,52,8.8
			c1.8-2,3.5-4.1,5.2-6.1c-9.1-5.4-10.3-10.4-9.6-13.8c2-10.1,23.2-19.1,55.4-23.5l1.2-0.1l-0.6,1c-14.8,23.8-32.1,38.4-51.1,43.6
			c-55.6,63.7-128.2,104.4-205.2,114.8L34.6,248.8z M187.1,125.3c-108,14.6-179,44.2-185.4,77.4c-2.9,15.4,8.5,30.9,33.2,45
			c76.2-10.3,148-50.4,203.3-113.3C222,138.2,204.8,135.3,187.1,125.3z M289.5,90.8c-31.1,4.3-51.6,12.9-53.4,22.4
			c-0.8,4.4,2.5,8.9,9.7,12.9l0.6,0.3l-0.4,0.5c-1.5,1.8-3,3.6-4.6,5.4C259.2,127,275.5,113,289.5,90.8z"
    />
    <path
      fill="currentColor"
      d="M9.3,201.4c-2.6,0-5.2,0-7.8-0.1v-1.1c88.3,2,171.4-29.3,233.8-88l0.8,0.8C175.2,170.1,95,201.4,9.3,201.4z"
    />
    <path
      fill="currentColor"
      d="M245.6,127.3l-0.4-0.2c-9.6-5.5-10.9-10.7-10.2-14.1c1.5-7.7,14.3-14.8,34.6-19.7c40.6-61,62.7-131.9,62.9-203.6
			c-0.1-0.1-0.1-0.2-0.1-0.3c0-0.1,0-0.2,0-0.3c0.1-0.4,0.5-0.7,1.3-0.8h0.6v0.6c-0.2,85.3-15.5,156.8-43.3,201.3l-0.1,0.2h-0.3
			c-7.4,1-14.2,2.2-20.3,3.6c-7.6,11.3-15.7,22.2-24.4,32.7L245.6,127.3z M268.8,94.7c-19.2,4.7-31.3,11.4-32.7,18.6
			c-0.8,4.3,2.4,8.8,9.3,12.7C253.7,115.9,261.5,105.5,268.8,94.7z M332.7-85.1c-4.9,63.6-26.1,125-61.5,178.1
			c5.8-1.3,12.2-2.5,19.1-3.4C315,49.8,329.8-11.6,332.7-85.1z"
    />
    <path
      fill="currentColor"
      d="M293,54.5c-4.6-2.6-5.2-5.2-4.9-6.8c0.9-4.9,10.6-9,25.9-11.1l0.1,1.1c-14.3,1.9-24.1,5.9-25,10.2
			c-0.5,2.4,2.1,4.4,4.4,5.7L293,54.5z"
    />
    <path
      fill="currentColor"
      d="M236.1,113l-0.8-0.8c62.5-58.6,96.9-137.8,97.1-222.8h1.1C333.4-25.3,298.8,54,236.1,113z"
    />
    <path
      fill="currentColor"
      d="M234.9,115.9v-1.3c0-2.9,1.5-5.6,4.4-8.3c5-4.8,11.2-11,15.6-15.5c1.8-1.9,3.9-4.4,5.8-6.5l2.3-2.7
			c0-0.1,7.4-8.6,14.6-18.7c1.8-2.6,4.9-6.9,6.9-10.1c3.8-6,8.6-14.2,12.1-20.3c1.5-2.7,7-13.2,10.8-22.2
			C315.6-8.5,321.8-28,326-48.1l0.9-4.5c0.5-2.5,0.9-5,1.4-7.6v-0.3c1.1-7.4,2.3-17.3,3.1-24.6v-0.1c0.3-3.6,0.5-7.1,0.7-10.7
			c0.2-4.1,0.4-9.2,0.4-14.8h1.1c0,4.7-0.1,9.3-0.3,14c-0.3,6.5-0.7,10.9-0.8,11.7c-0.7,8.5-1.8,16.9-3.2,25.2
			c-0.3,2.2-0.8,4.8-1.3,7.5C315.8,10.8,284.2,68.8,235.8,115L234.9,115.9z M271.7,72.6c-4.4,5.7-7.8,9.6-7.8,9.6
			c-0.7,0.8-1.5,1.7-2.3,2.7c-1.9,2.2-4,4.6-5.8,6.5C251.3,96,245,102.3,240,107c-1.9,1.6-3.3,3.7-3.9,6.1
			C249.1,100.6,261,87.1,271.7,72.6z"
    />
    <path
      fill="currentColor"
      d="M34.6,248.8l-0.2-0.1c-25.3-14.4-37-30.3-33.9-46.3c6.5-33.7,78-63.7,186.5-78.3h0.2l0.2,0.1c18.1,10.2,35.6,13.1,52,8.8
			c1.8-2,3.5-4.1,5.2-6.1c-9.1-5.4-10.3-10.4-9.6-13.8c2-10.1,23.2-19.1,55.4-23.5l1.2-0.1l-0.6,1c-14.8,23.8-32.1,38.4-51.1,43.6
			c-55.6,63.7-128.2,104.4-205.2,114.8L34.6,248.8z M187.1,125.3c-108,14.6-179,44.2-185.4,77.4c-2.9,15.4,8.5,30.9,33.2,45
			c76.2-10.3,148-50.4,203.3-113.3C222,138.2,204.8,135.3,187.1,125.3z M289.5,90.8c-31.1,4.3-51.6,12.9-53.4,22.4
			c-0.8,4.4,2.5,8.9,9.7,12.9l0.6,0.3l-0.4,0.5c-1.5,1.8-3,3.6-4.6,5.4C259.2,127,275.5,113,289.5,90.8z"
    />
    <path
      fill="currentColor"
      d="M9.3,201.4c-2.6,0-5.2,0-7.8-0.1v-1.1c88.3,2,171.4-29.3,233.8-88l0.8,0.8C175.2,170.1,95,201.4,9.3,201.4z"
    />
    <path
      fill="currentColor"
      d="M245.6,127.3l-0.4-0.2c-9.6-5.5-10.9-10.7-10.2-14.1c1.5-7.7,14.3-14.8,34.6-19.7c40.6-61,62.7-131.9,62.9-203.6
			c-0.1-0.1-0.1-0.2-0.1-0.3c0-0.1,0-0.2,0-0.3c0.1-0.4,0.5-0.7,1.3-0.8h0.6v0.6c-0.2,85.3-15.5,156.8-43.3,201.3l-0.1,0.2h-0.3
			c-7.4,1-14.2,2.2-20.3,3.6c-7.6,11.3-15.7,22.2-24.4,32.7L245.6,127.3z M268.8,94.7c-19.2,4.7-31.3,11.4-32.7,18.6
			c-0.8,4.3,2.4,8.8,9.3,12.7C253.7,115.9,261.5,105.5,268.8,94.7z M332.7-85.1c-4.9,63.6-26.1,125-61.5,178.1
			c5.8-1.3,12.2-2.5,19.1-3.4C315,49.8,329.8-11.6,332.7-85.1z"
    />
    <path
      fill="currentColor"
      d="M293,54.5c-4.6-2.6-5.2-5.1-4.9-6.8c0.9-4.9,10.6-9,25.9-11.1l0.1,1.1c-14.3,1.9-24.1,5.9-25,10.2
			c-0.5,2.4,2.1,4.4,4.4,5.7L293,54.5z"
    />
    <path
      fill="currentColor"
      d="M236.1,113l-0.8-0.8c62.5-58.6,96.9-137.8,97.1-222.8h1.1C333.4-25.3,298.8,54,236.1,113z"
    />
    <path
      fill="currentColor"
      d="M240,107.1l-0.7-0.8c10-9.2,16.6-16.6,16.7-16.7c4.6-5.2,10.5-12.2,14.7-17.4c1.8-2.3,4.3-5.6,7.3-9.7
			c2.5-3.5,5-7.1,6.8-10c3.8-6,8.6-14.2,12-20.3c1.5-2.7,6.8-13,10.7-22.1c8.1-18.8,14.3-38.3,18.5-58.4c0.8-4.1,1.8-8.8,2.3-12.4
			c1.1-7.3,2.3-17.2,3.1-24.6c0.4-3.7,0.6-8.8,0.8-12.7c0.1-2.6,0.2-5.6,0.2-8.6c0-1.4,0-2.7,0.1-3.9v-0.1l0.2-0.3l0.9-0.8v1.1
			C333.5-25.5,300.3,51.9,240,107.1L240,107.1z"
    />
    <path
      fill="currentColor"
      d="M595.2,170.9c-55.8,0-107.9-17-151.3-49.5c-58.2-5.6-116.7-6.9-175.1-3.7c-24.1,21.5-52.3,24.3-81.9,7.5l-1.5-0.8l1.6-0.2
			c26.4-3.6,53.7-6,81.2-7.5c8.5-7.9,15.9-16.9,21.9-26.8l0.1-0.2h0.2c48.9-6.6,108.2-0.8,132.2,12.8c6.8,6.4,14,12.4,21.5,18
			c79.7,7.9,148.9,24,189,46.9l1.5,0.8l-1.6,0.2C620.5,170,607.8,170.9,595.2,170.9z M446,121.7c52.3,38.4,116.9,54.6,185.3,45.8
			C591.4,145.4,523.8,129.5,446,121.7z M188.9,125c28.1,15.4,55,12.7,78.1-7.2C240.5,119.2,214.3,121.6,188.9,125z M331.2,114.9
			c37.9,0,75.5,1.8,111,5.3c-7-5.3-13.7-11-20.1-17C398.4,89.8,339.6,84.1,291,90.6c-5.8,9.5-12.8,18.3-20.9,25.9
			C290.4,115.5,310.9,114.9,331.2,114.9z"
    />
    <path
      fill="currentColor"
      d="M474.9,141c-32.6,0-62.5-16.5-86.8-48.6l0.9-0.7c34.3,45.5,80.1,59.3,128.9,39l0.4,1C504.6,137.7,489.8,140.8,474.9,141z"
    />
    <path
      fill="currentColor"
      d="M351.4,129.5h-0.2c-1.5-0.1-6.3-0.5-10.6-42l1.1-0.1c3.7,35.3,7.6,40.9,9.6,41c1.1,0,3.3-1.5,6.3-12.7l1.1,0.3
			C356.3,125.1,353.9,129.5,351.4,129.5z"
    />
    <path
      fill="currentColor"
      d="M34.6,248.8l-0.2-0.1c-25.3-14.4-37-30.3-33.9-46.3c6.5-33.7,78-63.7,186.5-78.3h0.2l0.2,0.1c18.1,10.2,35.6,13.1,52,8.8
			c1.8-2,3.5-4.1,5.2-6.1c-9.1-5.4-10.3-10.4-9.6-13.8c2-10.1,23.2-19.1,55.4-23.5l1.2-0.1l-0.6,1c-14.8,23.8-32.1,38.4-51.1,43.6
			c-55.6,63.7-128.2,104.4-205.2,114.8L34.6,248.8z M187.1,125.3c-108,14.6-179,44.2-185.4,77.4c-2.9,15.4,8.5,30.9,33.2,45
			c76.2-10.3,148-50.4,203.3-113.3C222,138.2,204.8,135.3,187.1,125.3z M289.5,90.8c-31.1,4.3-51.6,12.9-53.4,22.4
			c-0.8,4.4,2.5,8.9,9.7,12.9l0.6,0.3l-0.4,0.5c-1.5,1.8-3,3.6-4.6,5.4C259.2,127,275.5,113,289.5,90.8z"
    />
    <path
      fill="currentColor"
      d="M100.9,161.1c-15,0-30.1-1.4-44.8-4.2l0.2-1.1c73.7,13.7,143-6.4,195.2-56.8l0.8,0.8C210.6,140.1,158,161.1,100.9,161.1z"
    />
    <path
      fill="currentColor"
      d="M426.2,105.6l-4-2.3c-23.8-13.5-82.9-19.2-131.6-12.7l-1.1,0.1l0.6-1C317.7,45.4,333-25.9,333.2-111v-0.5h0.5
			c0.8-0.1,1.6,0,2.3,0.3l0.3,0.2v0.2c-0.1,85,30.6,160.8,86.6,213.2L426.2,105.6z M333.2,86.8c34.5,0,67.8,5,86.1,13.7
			C364.9,48,335-26.7,335.1-110.4c-0.3,0-0.6,0-0.8,0C334-26,318.9,44.9,291.6,89.4C305.4,87.7,319.3,86.8,333.2,86.8L333.2,86.8z"
    />
    <path
      fill="currentColor"
      d="M374.8,43.5c-11-6.2-38.2-8.9-60.6-5.8l-0.1-1.1c22.7-3,50.2-0.4,61.3,6L374.8,43.5z"
    />
    <path
      fill="currentColor"
      d="M388.1,92.4c-34.6-45.8-53.6-118-53.4-203.3h1c-0.2,85.1,18.7,157,53.2,202.7L388.1,92.4z"
    />
    <path
      fill="currentColor"
      d="M340.7,87.5c-4.5-42.8-6.8-113.3-6.7-198.5h1.1c-0.2,85.2,2.2,155.6,6.7,198.4L340.7,87.5z"
    />
    <path
      fill="currentColor"
      d="M245.6,127.3l-0.4-0.2c-9.6-5.5-10.9-10.7-10.2-14.1c1.5-7.7,14.3-14.8,34.6-19.7c40.6-61,62.7-131.9,62.9-203.6
			c-0.1-0.1-0.1-0.2-0.1-0.3c0-0.1,0-0.2,0-0.3c0.1-0.4,0.5-0.7,1.3-0.8h0.6v0.6c-0.2,85.3-15.5,156.8-43.3,201.3l-0.1,0.2h-0.3
			c-7.4,1-14.2,2.2-20.3,3.6c-7.6,11.3-15.7,22.2-24.4,32.7L245.6,127.3z M268.8,94.7c-19.2,4.7-31.3,11.4-32.7,18.6
			c-0.8,4.3,2.4,8.8,9.3,12.7C253.7,115.9,261.5,105.5,268.8,94.7z M332.7-85.1c-4.9,63.6-26.1,125-61.5,178.1
			c5.8-1.3,12.2-2.5,19.1-3.4C315,49.8,329.8-11.6,332.7-85.1z"
    />
    <path
      fill="currentColor"
      d="M293,54.5c-4.6-2.6-5.2-5.1-4.9-6.8c0.9-4.9,10.6-9,25.9-11.1l0.1,1.1c-14.3,1.9-24.1,5.9-25,10.2
			c-0.5,2.4,2.1,4.4,4.4,5.7L293,54.5z"
    />
    <path
      fill="currentColor"
      d="M252.3,99.9l-0.8-0.8c52.1-50.3,81-124.9,81.2-209.9h1.1C333.6-25.5,304.7,49.3,252.3,99.9z"
    />
    <path
      fill="currentColor"
      d="M240,107.1l-0.7-0.8c59.9-54.9,93-132,93.2-217.1v-0.2l0.2-0.2c0.3-0.2,0.7-0.4,1.1-0.4c0.8-0.1,1.6,0,2.3,0.3l0.3,0.2
			v0.4c-0.1,85,30.6,160.8,86.6,213.2l3.4,3.2l-4-2.3c-23.8-13.5-82.9-19.2-131.6-12.7C266.3,93.9,247.9,99.9,240,107.1L240,107.1z
			 M333.6-110.4c-0.2,82.6-31.4,157.6-88,212.3c9.6-5.4,25.2-9.7,45-12.3c46.7-6.3,102.9-1.3,128.8,11
			C365,48,335.1-26.7,335.2-110.4c-0.4-0.1-0.9-0.1-1.3,0L333.6-110.4z"
    />
    <path
      fill="currentColor"
      d="M34.6,248.8l-0.2-0.1c-25.3-14.4-37-30.3-33.9-46.3c6.5-33.7,78-63.7,186.5-78.3h0.2l0.2,0.1c18.1,10.2,35.6,13.1,52,8.8
			c1.8-2,3.5-4.1,5.2-6.1c-9.1-5.4-10.3-10.4-9.6-13.8c2-10.1,23.2-19.1,55.4-23.5l1.2-0.1l-0.6,1c-14.8,23.8-32.1,38.4-51.1,43.6
			c-55.6,63.7-128.2,104.4-205.2,114.8L34.6,248.8z M187.1,125.3c-108,14.6-179,44.2-185.4,77.4c-2.9,15.4,8.5,30.9,33.2,45
			c76.2-10.3,148-50.4,203.3-113.3C222,138.2,204.8,135.3,187.1,125.3z M289.5,90.8c-31.1,4.3-51.6,12.9-53.4,22.4
			c-0.8,4.4,2.5,8.9,9.7,12.9l0.6,0.3l-0.4,0.5c-1.5,1.8-3,3.6-4.6,5.4C259.2,127,275.5,113,289.5,90.8z"
    />
    <path
      fill="currentColor"
      d="M336.5,301.1c-124,0-243.8-19.3-302-52.4l-1.5-0.8l1.6-0.2c79.5-10.7,154.2-53.8,210.5-121.4l0.3-0.4l0.4,0.2
			c23.8,13.5,82.8,19.2,131.5,12.7h0.4l0.1,0.4c27.4,75.7,63.9,129.6,102.9,151.7l1.5,0.8l-1.6,0.2
			C432.8,298.2,384.7,301.2,336.5,301.1z M36.4,248.6c81.4,45.2,278.9,64.2,442.4,42.5c-38.6-22.7-74.7-76.2-101.8-151
			c-48.5,6.4-107.2,0.8-131.4-12.6C189.7,194.5,115.4,237.5,36.4,248.6z"
    />
    <path
      fill="currentColor"
      d="M149.8,285.3l-0.4-1c48.9-20.4,94.9-72.6,129.6-147.1l1,0.5C245.3,212.4,199,264.8,149.8,285.3z"
    />
    <path
      fill="currentColor"
      d="M310,300.4l-1.1-0.3c6.5-24.5,12.6-80.7,17.3-158.1h1.1C322.7,219.6,316.5,275.8,310,300.4z"
    />
    <path
      fill="currentColor"
      d="M480.4,291.9l-0.2-0.1c-39.2-22.2-75.9-76.3-103.4-152.2l-0.2-0.6l0.7-0.1c31.8-4.3,52.7-12.9,54.6-22.6
			c0.3-1.7,0-3.5-0.8-5c-3-2.6-6-5.3-9-8l-3.4-3.2l4,2.3c5,2.9,7.8,5.7,9.2,8.2c54.8,46.7,125.7,66.8,201,56.7h0.2l0.2,0.1
			c25.3,14.4,37,30.3,33.9,46.3c-6.5,33.7-78,63.7-186.5,78.3L480.4,291.9z M378.1,139.8c27.3,75.3,63.7,128.8,102.5,150.9
			c108-14.6,179-44.2,185.4-77.4c2.9-15.4-8.5-30.9-33.2-45c-74.8,10-145.2-9.7-200-55.6c0.3,1.2,0.4,2.5,0.2,3.7
			C431,126.5,410,135.5,378.1,139.8z"
    />
    <path
      fill="currentColor"
      d="M611.4,260.2c-74-13.8-143.5-59.9-195.7-129.8l0.9-0.7c52,69.8,121.2,115.7,195,129.4L611.4,260.2z"
    />
    <path
      fill="currentColor"
      d="M666.1,215.9c-88.6-2-171.8-37-234.1-98.6l0.8-0.8c62.2,61.4,145.1,96.3,233.4,98.3L666.1,215.9z"
    />
    <path
      fill="currentColor"
      d="M245.6,127.3l-0.4-0.2c-9.6-5.5-10.9-10.7-10.2-14.1c1.5-7.7,14.3-14.8,34.6-19.7c40.6-61,62.7-131.9,62.9-203.6
			c-0.1-0.1-0.1-0.2-0.1-0.3c0-0.1,0-0.2,0-0.3c0.1-0.4,0.5-0.7,1.3-0.8h0.6v0.6c-0.2,85.3-15.5,156.8-43.3,201.3l-0.1,0.2h-0.3
			c-7.4,1-14.2,2.2-20.3,3.6c-7.6,11.3-15.7,22.2-24.4,32.7L245.6,127.3z M268.8,94.7c-19.2,4.7-31.3,11.4-32.7,18.6
			c-0.8,4.3,2.4,8.8,9.3,12.7C253.7,115.9,261.5,105.5,268.8,94.7z M332.7-85.1c-4.9,63.6-26.1,125-61.5,178.1
			c5.8-1.3,12.2-2.5,19.1-3.4C315,49.8,329.8-11.6,332.7-85.1z"
    />
    <path
      fill="currentColor"
      d="M293,54.5c-4.6-2.6-5.2-5.2-4.9-6.8c0.9-4.9,10.6-9,25.9-11.1l0.1,1.1c-14.3,1.9-24.1,5.9-25,10.2
			c-0.5,2.4,2.1,4.4,4.4,5.7L293,54.5z"
    />
    <path
      fill="currentColor"
      d="M334.8,142.7c-36.8,0-72.3-5.7-89.6-15.6l-0.6-0.3l0.4-0.5c56.3-67.6,87.3-151.7,87.5-236.7v-0.9l0.8,0.5
			c0.5,0.2,1.1,0.2,1.6,0.1h0.6v0.6c-0.2,85.1,14.9,173.7,42.3,249.5l0.2,0.6l-0.7,0.1C363.4,141.8,349.1,142.7,334.8,142.7z
			 M246.4,126.5c24.1,13.2,82.1,18.8,130.3,12.5c-27.3-75.5-42.2-163.8-42.1-248.6c-0.3,0-0.6,0-0.9,0
			C333.3-24.9,302.3,59,246.4,126.5z"
    />
    <path
      fill="currentColor"
      d="M334.5,61.7c-17.1,0-33.6-2.7-41.6-7.2l0.5-0.9c11,6.2,38.2,8.9,60.6,5.8l0.1,1.1C347.7,61.3,341.1,61.7,334.5,61.7z"
    />
    <path
      fill="currentColor"
      d="M280,137.7l-1-0.5c34.7-74.5,54-162.4,54.1-247.5h1.1C334-25,314.8,63,280,137.7z"
    />
    <path
      fill="currentColor"
      d="M327.4,142.1h-1.1c4.7-77.5,7.3-167,7.5-252.2h1.1C334.7-25,332,64.6,327.4,142.1z"
    />
    <path
      fill="currentColor"
      d="M377,140l-0.2-0.4C349.4,63.7,334.4-25,334.6-110.3v-0.5h0.5h0.2v-0.9l0.8,0.5c0.1,0.1,0.3,0.2,0.3,0.3
			c0.1,0.1,0.1,0.3,0.1,0.5c0,0.1-0.1,0.2-0.1,0.3c0,84.8,30.7,160.3,86.6,212.6c9.5,5.4,10.8,10.6,10.1,14
			c-2,10.2-23.2,19.1-55.4,23.5L377,140z M335.9-87.5c2.3,77.8,16.9,157.3,41.8,226.1c31.5-4.3,52.3-12.9,54.1-22.5
			c0.8-4.4-2.5-8.9-9.7-12.9C371.1,55.5,340.9-11.6,335.9-87.5z"
    />
    <path
      fill="currentColor"
      d="M354.3,60.4l-0.1-1.1c14.3-1.9,24.1-5.9,25-10.2c0.5-2.4-2.1-4.4-4.4-5.7l0.5-0.9c4.6,2.6,5.2,5.2,4.9,6.8
			C379.2,54.2,369.5,58.4,354.3,60.4z"
    />
    <path
      fill="currentColor"
      d="M415.7,130.3c-52.1-69.9-80.8-155.4-80.6-240.7h1.1C336-25.3,364.6,60,416.6,129.7L415.7,130.3z"
    />
    <path
      fill="currentColor"
      d="M432,117.3c-62.5-61.6-96.8-142.6-96.6-227.9h1.1c-0.1,85,34,165.7,96.3,227.1L432,117.3z"
    />
    <path
      fill="currentColor"
      d="M334.8,142.7c-36.8,0-72.3-5.7-89.6-15.6c-6.9-3.9-10.4-8.1-10.4-12.5v-0.2l0.2-0.2c62.6-59.9,97.2-139.8,97.4-224.8h1.1
			c0-0.1,0-0.1,0-0.2c0-0.1-0.1-0.1-0.1-0.1c0.5,0.2,1.1,0.2,1.6,0.1c0.2,0,0.3,0,0.5-0.1c0,0-0.1,0.1-0.1,0.1c0,0.1,0,0.1,0,0.2
			h1.1c-0.2,85,34.1,165,96.5,225.1l0.2,0.2v0.2c0,10.8-21.3,20.4-55.7,25C363.3,141.8,349.1,142.7,334.8,142.7z M236,114.8
			c0.1,3.9,3.5,7.8,9.8,11.3c23.8,13.5,82.8,19.2,131.5,12.7c33-4.4,54.4-13.7,54.7-23.7C369.7,55,335.4-24.7,335.3-109.8h-0.2
			c-0.5,0.1-1.1,0.1-1.6,0C333.1-24.8,298.5,54.9,236,114.8z"
    />
    <path
      fill="currentColor"
      d="M480.4,291.9l-0.2-0.1c-39.2-22.2-75.9-76.3-103.4-152.2l-0.2-0.6l0.7-0.1c31.8-4.3,52.7-12.9,54.6-22.6
			c0.3-1.7,0-3.5-0.8-5c-3-2.6-6-5.3-9-8l-3.4-3.2l4,2.3c5,2.9,7.8,5.7,9.2,8.2c54.8,46.7,125.7,66.8,201,56.7h0.2l0.2,0.1
			c25.3,14.4,37,30.3,33.9,46.3c-6.5,33.7-78,63.7-186.5,78.3L480.4,291.9z M378.1,139.8c27.3,75.3,63.7,128.8,102.5,150.9
			c108-14.6,179-44.2,185.4-77.4c2.9-15.4-8.5-30.9-33.2-45c-74.8,10-145.2-9.7-200-55.6c0.3,1.2,0.4,2.5,0.2,3.7
			C431,126.5,410,135.5,378.1,139.8z"
    />
    <path
      fill="currentColor"
      d="M377,140l-0.2-0.4C349.4,63.7,334.4-25,334.6-110.3v-0.5h0.5h0.2v-0.9l0.8,0.5c0.1,0.1,0.3,0.2,0.3,0.3
			c0.1,0.1,0.1,0.3,0.1,0.5c0,0.1-0.1,0.2-0.1,0.3c0,84.8,30.7,160.3,86.6,212.6c9.5,5.4,10.8,10.6,10.1,14
			c-2,10.2-23.2,19.1-55.4,23.5L377,140z M335.9-87.5c2.3,77.8,16.9,157.3,41.8,226.1c31.5-4.3,52.3-12.9,54.1-22.5
			c0.8-4.4-2.5-8.9-9.7-12.9C371.1,55.5,340.9-11.6,335.9-87.5z"
    />
    <path
      fill="currentColor"
      d="M354.3,60.4l-0.1-1.1c14.3-1.9,24.1-5.9,25-10.2c0.5-2.4-2.1-4.4-4.4-5.7l0.5-0.9c4.6,2.6,5.2,5.2,4.9,6.8
			C379.2,54.2,369.5,58.4,354.3,60.4z"
    />
    <path
      fill="currentColor"
      d="M428,107.4c-60-55.3-92.9-132.8-92.8-218.2v-1.3l1.1,1v0.3c0,14.6,1,25.5,1,25.6c0.7,7.3,1.9,17.2,3,24.6
			c0.5,3.5,1.4,8,2.3,12.4c4.1,20,10.3,39.6,18.4,58.4c3.8,9,9.2,19.5,10.7,22.2c3.4,6.1,8.3,14.3,12,20.4c2,3.2,5,7.5,6.8,10.1
			c7.1,10.1,14.4,18.7,14.5,18.7c0.7,0.8,1.5,1.7,2.3,2.7c2,2.3,4,4.6,5.7,6.5c4.4,4.6,10.7,10.9,15.7,15.7L428,107.4z"
    />
    <path
      fill="currentColor"
      d="M480.4,291.9l-0.2-0.1c-39.2-22.2-75.9-76.3-103.4-152.2l-0.2-0.6l0.7-0.1c31.8-4.3,52.7-12.9,54.6-22.6
			c0.3-1.7,0-3.5-0.8-5c-3-2.6-6-5.3-9-8l-3.4-3.2l4,2.3c5,2.9,7.8,5.7,9.2,8.2c54.8,46.7,125.7,66.8,201,56.7h0.2l0.2,0.1
			c25.3,14.4,37,30.3,33.9,46.3c-6.5,33.7-78,63.7-186.5,78.3L480.4,291.9z M378.1,139.8c27.3,75.3,63.7,128.8,102.5,150.9
			c108-14.6,179-44.2,185.4-77.4c2.9-15.4-8.5-30.9-33.2-45c-74.8,10-145.2-9.7-200-55.6c0.3,1.2,0.4,2.5,0.2,3.7
			C431,126.5,410,135.5,378.1,139.8z"
    />
    <path
      fill="currentColor"
      d="M377,140l-0.2-0.4C349.4,63.7,334.4-25,334.6-110.3v-0.5h0.5h0.2v-0.9l0.8,0.5c0.1,0.1,0.3,0.2,0.3,0.3
			c0.1,0.1,0.1,0.3,0.1,0.5c0,0.1-0.1,0.2-0.1,0.3c0,84.8,30.7,160.3,86.6,212.6c9.5,5.4,10.8,10.6,10.1,14
			c-2,10.2-23.2,19.1-55.4,23.5L377,140z M335.9-87.5c2.3,77.8,16.9,157.3,41.8,226.1c31.5-4.3,52.3-12.9,54.1-22.5
			c0.8-4.4-2.5-8.9-9.7-12.9C371.1,55.5,340.9-11.6,335.9-87.5z"
    />
    <path
      fill="currentColor"
      d="M354.3,60.4l-0.1-1.1c14.3-1.9,24.1-5.9,25-10.2c0.5-2.4-2.1-4.4-4.4-5.7l0.5-0.9c4.6,2.6,5.2,5.2,4.9,6.8
			C379.2,54.2,369.5,58.4,354.3,60.4z"
    />
    <path
      fill="currentColor"
      d="M433.1,116.2l-0.9-0.9c-48.1-46.4-79.6-104.6-91.5-167.8c-0.5-2.7-1-5.4-1.3-7.7c-1.3-8.3-2.3-16.7-3-25.1
			c-0.4-3.5-0.6-8-0.7-11.8c-0.2-4.5-0.3-9.1-0.3-13.6h1.1c0,1.2,0,2.6,0,4c0,2.9,0.1,6.1,0.2,8.6v0.9c0.2,3.9,0.4,7.8,0.7,11.8
			c0.7,7.4,1.9,17.3,2.9,24.7v0.3c0.4,2.6,0.9,5.2,1.4,7.7c0.3,1.5,0.6,2.9,0.9,4.3c4.1,20,10.2,39.6,18.3,58.4
			c3.9,9.2,9.1,19.4,10.6,22.1c3.4,6.1,8.2,14.3,12,20.4c1.8,2.9,4.4,6.7,6.8,10c2.9,4.2,5.4,7.5,7.2,9.8
			c4.2,5.3,10.2,12.3,14.7,17.5c0,0,6.7,7.6,16.6,16.7c2.9,2.7,4.4,5.5,4.4,8.3L433.1,116.2z M396.7,73.1
			c10.6,14.4,22.4,27.9,35.2,40.4c-0.6-2.4-2-4.5-3.9-6c-10-9.2-16.6-16.7-16.7-16.8C406.8,85.4,400.9,78.4,396.7,73.1z"
    />
    <path
      fill="currentColor"
      d="M480.4,291.9l-0.2-0.1c-39.2-22.2-75.9-76.3-103.4-152.2l-0.2-0.6l0.7-0.1c31.8-4.3,52.7-12.9,54.6-22.6
			c0.3-1.7,0-3.5-0.8-5c-3-2.6-6-5.3-9-8l-3.4-3.2l4,2.3c5,2.9,7.8,5.7,9.2,8.2c54.8,46.7,125.7,66.8,201,56.7h0.2l0.2,0.1
			c25.3,14.4,37,30.3,33.9,46.3c-6.5,33.7-78,63.7-186.5,78.3L480.4,291.9z M378.1,139.8c27.3,75.3,63.7,128.8,102.5,150.9
			c108-14.6,179-44.2,185.4-77.4c2.9-15.4-8.5-30.9-33.2-45c-74.8,10-145.2-9.7-200-55.6c0.3,1.2,0.4,2.5,0.2,3.7
			C431,126.5,410,135.5,378.1,139.8z"
    />
    <path
      fill="currentColor"
      d="M377,140l-0.2-0.4C349.4,63.7,334.4-25,334.6-110.3v-0.5h0.5h0.2v-0.9l0.8,0.5c0.1,0.1,0.3,0.2,0.3,0.3
			c0.1,0.1,0.1,0.3,0.1,0.5c0,0.1-0.1,0.2-0.1,0.3c0,84.8,30.7,160.3,86.6,212.6c9.5,5.4,10.8,10.6,10.1,14
			c-2,10.2-23.2,19.1-55.4,23.5L377,140z M335.9-87.5c2.3,77.8,16.9,157.3,41.8,226.1c31.5-4.3,52.3-12.9,54.1-22.5
			c0.8-4.4-2.5-8.9-9.7-12.9C371.1,55.5,340.9-11.6,335.9-87.5z"
    />
    <path
      fill="currentColor"
      d="M354.3,60.4l-0.1-1.1c14.3-1.9,24.1-5.9,25-10.2c0.5-2.4-2.1-4.4-4.4-5.7l0.5-0.9c4.6,2.6,5.2,5.2,4.9,6.8
			C379.2,54.2,369.5,58.4,354.3,60.4z"
    />
    <path
      fill="currentColor"
      d="M428,107.4c-1.8-1.6-3.7-3-5.8-4.1c-56.3-52.8-87.2-128.8-87-214.1v-0.9l1.2,0.8v0.2c-0.1,85,32.7,162.2,92.4,217.4
			L428,107.4z M360.9,13.9c13.8,32.1,33.7,61.2,58.8,85.6C395,74.8,375.1,45.8,360.9,13.9L360.9,13.9z"
    />
  </g>
</svg>
