<svg viewBox="0 0 18 18" fill="none" xmlns="http://www.w3.org/2000/svg">
  <path
    d="M10.2739 5.95728C9.79691 6.29735 9.21316 6.4974 8.58268 6.4974C6.97185 6.4974 5.66602 5.19156 5.66602 3.58073C5.66602 1.9699 6.97185 0.664062 8.58268 0.664062C9.62684 0.664062 10.5428 1.21274 11.0581 2.03751M3.99935 15.7367H6.17459C6.45821 15.7367 6.74009 15.7704 7.01503 15.8379L9.31343 16.3965C9.81214 16.518 10.3317 16.5298 10.8356 16.4319L13.3768 15.9375C14.0481 15.8067 14.6657 15.4853 15.1496 15.0145L16.9476 13.2655C17.461 12.7669 17.461 11.9578 16.9476 11.4583C16.4853 11.0086 15.7533 10.958 15.2303 11.3393L13.1348 12.8681C12.8348 13.0875 12.4696 13.2056 12.0941 13.2056H10.0706L11.3586 13.2055C12.0845 13.2055 12.6726 12.6335 12.6726 11.9273V11.6717C12.6726 11.0853 12.2623 10.574 11.6777 10.4323L9.68984 9.94885C9.36633 9.87038 9.03502 9.83073 8.70197 9.83073C7.89796 9.83073 6.44259 10.4964 6.44259 10.4964L3.99935 11.5181M15.666 4.41406C15.666 6.02489 14.3602 7.33073 12.7493 7.33073C11.1385 7.33073 9.83268 6.02489 9.83268 4.41406C9.83268 2.80323 11.1385 1.4974 12.7493 1.4974C14.3602 1.4974 15.666 2.80323 15.666 4.41406ZM0.666016 11.1641L0.666016 15.9974C0.666016 16.4641 0.666016 16.6975 0.756843 16.8757C0.836738 17.0325 0.964222 17.16 1.12102 17.2399C1.29928 17.3307 1.53264 17.3307 1.99935 17.3307H2.66602C3.13273 17.3307 3.36608 17.3307 3.54434 17.2399C3.70114 17.16 3.82863 17.0325 3.90852 16.8757C3.99935 16.6975 3.99935 16.4641 3.99935 15.9974V11.1641C3.99935 10.6974 3.99935 10.464 3.90852 10.2857C3.82863 10.1289 3.70114 10.0015 3.54434 9.92156C3.36608 9.83073 3.13273 9.83073 2.66602 9.83073L1.99935 9.83073C1.53264 9.83073 1.29928 9.83073 1.12102 9.92156C0.964222 10.0015 0.836738 10.1289 0.756844 10.2857C0.666016 10.464 0.666016 10.6974 0.666016 11.1641Z"
    stroke="currentColor"
    stroke-linecap="round"
    stroke-linejoin="round"
  />
</svg>
