<svg xmlns="http://www.w3.org/2000/svg" version="1.1" viewBox="0 0 120 120">
  <path
    fill="#4a9bd5"
    d="M60.1,7l-26.2,41.1,26.2,15.3,26.2-15.3L60.1,7ZM41.9,46.1h0s0,0,0,0h0s18.2-28.5,18.2-28.5l18.2,28.5-18.2,10.6-18.2-10.6Z"
  />
  <polygon fill="#FFFFFF" points="41.9 46.1 41.9 46.1 41.9 46.1 41.9 46.1" />
  <polygon fill="#FFFFFF" points="60.1 17.6 41.9 46.1 60.1 56.7 78.3 46.1 60.1 17.6" />
  <path
    fill="#4a9bd5"
    d="M60.1,72.4l-30.4-17.7-.8,1.3c-11,17.3-6,40.2,11.3,51.2,17.3,11,40.2,6,51.2-11.3,7.8-12.2,7.8-27.8,0-39.9l-.8-1.3-30.4,17.7h0Z"
  />
</svg>
