<svg viewBox="0 0 26 26" fill="none" xmlns="http://www.w3.org/2000/svg">
  <path
    d="M25 25H3.13333C2.3866 25 2.01323 25 1.72801 24.8547C1.47713 24.7268 1.27316 24.5229 1.14532 24.272C1 23.9868 1 23.6134 1 22.8667V1M23.6667 7.66667L18.4415 13.2435C18.2435 13.4549 18.1445 13.5606 18.025 13.6152C17.9196 13.6634 17.8034 13.6833 17.688 13.6729C17.5571 13.6611 17.4286 13.5944 17.1716 13.4609L12.8284 11.2058C12.5714 11.0723 12.4429 11.0056 12.312 10.9938C12.1966 10.9834 12.0804 11.0033 11.975 11.0515C11.8555 11.1061 11.7565 11.2118 11.5585 11.4231L6.33333 17"
    stroke="currentColor"
    stroke-width="1.33333"
    stroke-linecap="round"
    stroke-linejoin="round"
  />
</svg>
