<svg
  xmlns="http://www.w3.org/2000/svg"
  xmlns:xlink="http://www.w3.org/1999/xlink"
  version="1.1"
  viewBox="0 0 500 500"
>
  <defs>
    <linearGradient
      id="gradient"
      data-name="gradient"
      x1="1421.1754928"
      y1="-960.6674377"
      x2="1640.1636027"
      y2="-960.6674377"
      gradientTransform="translate(1123.8090258 1721.9616982) rotate(-89.9452276)"
      gradientUnits="userSpaceOnUse"
    >
      <stop offset="0" stop-color="#ef4136" />
      <stop offset=".01" stop-color="#ef4136" />
      <stop offset=".32" stop-color="#df5153" />
      <stop offset="1" stop-color="#ac0b1b" />
    </linearGradient>
    <linearGradient
      id="gradient1"
      data-name="gradient"
      x1="-221.365483"
      y1="-143.8505191"
      x2=".3579068"
      y2="-143.8505191"
      gradientTransform="translate(413.4127674 251.0718401) rotate(-17.9452276)"
      xlink:href="#gradient"
    />
    <linearGradient
      id="gradient2"
      data-name="gradient"
      x1="2708.4627247"
      y1="347.4654991"
      x2="2920.9889122"
      y2="347.4654991"
      gradientTransform="translate(2742.2329267 1500.8646705) rotate(-161.9452276)"
      xlink:href="#gradient"
    />
    <linearGradient
      id="gradient3"
      data-name="gradient"
      x1="1859.5444542"
      y1="1972.0306844"
      x2="2077.4830127"
      y2="1972.0306844"
      gradientTransform="translate(3032.0776474 -106.6706655) rotate(126.0547724)"
      xlink:href="#gradient"
    />
    <linearGradient
      id="gradient4"
      data-name="gradient"
      x1="53.5019669"
      y1="1670.8025255"
      x2="267.24564"
      y2="1670.8025255"
      gradientTransform="translate(1592.7876353 -879.0851137) rotate(54.0547724)"
      xlink:href="#gradient"
    />
  </defs>
  <polygon
    id="Triangle-Left"
    points="83.9170216 83.8496006 83.6925917 318.619064 245.3848416 201.3975671 83.9170216 83.8496006"
    style="fill: url(#gradient)"
  />
  <polygon
    id="Triangle-Top"
    points="341.2945133 37.2397251 115.1563908 110.4775281 278.6229091 229.5008872 341.2945133 37.2397251"
    style="fill: url(#gradient1)"
  />
  <polygon
    id="Triangle-BottomLeft"
    points="51.270931 340.679376 267.8941134 411.2935309 208.1907953 226.898223 51.270931 340.679376"
    style="fill: url(#gradient2)"
  />
  <polygon
    id="Triangle-Bottomright"
    points="281.8465304 457.0958712 419.3598876 268.2049656 220.6042127 267.9998167 281.8465304 457.0958712"
    style="fill: url(#gradient3)"
  />
  <polygon
    id="Triangle-Right"
    points="459.112192 269.3555305 324.6001331 83.8428857 264.1720909 269.1701791 459.112192 269.3555305"
    style="fill: url(#gradient4)"
  />
  <path
    id="White-contour"
    d="M426.127032,276.2220582l52.4979955.049888-144.7419016-199.6212651,16.8568695-51.712901L116.8376936,100.6899969l-42.7094002-31.0923384-.2347587,245.8319475-43.2337943,31.3484777,233.8525564,76.2305714,16.8584374,52.0535647,144.7562979-198.8401616ZM408.799505,276.2163568l-122.5713902,168.3665769-54.5877325-168.549452,23.0294402.0238037-.0005701.0017104,21.4022362.0203828,132.7280165.1369782ZM227.0907394,262.0169497l-10.5520243-32.5901187,26.6582932-19.3264679,26.6514514,19.4054335-10.6114623,32.5442217-32.146258-.0330686ZM275.3858849,262.0666952l-1.4156788-.0014254,54.9191313-168.4318589,122.2491138,168.6003378-175.7525663-.1670535ZM328.8953239,46.7409734l-54.9082985,168.4453999-18.8617968-13.7335957.0618611-.0448992-124.3468328-90.5241955,198.055067-64.1427095ZM88.1138948,97.1107469l12.2466483,8.9155554-.0681328.0220933,130.9944798,95.3798656-19.286415,13.9820379-.0317858-.097923-124.0534914,89.9501985.1986968-208.1518277ZM61.148149,341.9791434l12.7288514-9.2295647-.0001425.1026267,130.7337794-94.7779313,54.5404102,168.4492484-198.0028984-64.5443791Z"
    style="fill: #fff"
  />
  <metadata>
    <sfw xmlns="http://ns.adobe.com/SaveForWeb/1.0/">
      <slices />
      <sliceSourceBounds
        x="78.3"
        y="-646.01"
        width="447.97"
        height="450.12"
        bottomLeftOrigin="true"
      />
    </sfw>
  </metadata>
</svg>
