<svg xmlns="http://www.w3.org/2000/svg" version="1.1" viewBox="0 0 120 120">
  <defs>
    <style>
      .cls-1 {
        fill-rule: evenodd;
      }

      .cls-1,
      .cls-2 {
        fill: #fff;
      }

      .cls-3 {
        fill: url(#linear-gradient);
      }

      .cls-4 {
        fill: #2775ca;
      }
    </style>
    <linearGradient
      id="linear-gradient"
      x1="-.2"
      y1="120.1"
      x2=".2"
      y2="120.1"
      gradientTransform="translate(8980.4 -8835.9) rotate(-135.1) scale(104.9 -104.9)"
      gradientUnits="userSpaceOnUse"
    >
      <stop offset="0" stop-color="#ef4136" />
      <stop offset="0" stop-color="#ef4136" />
      <stop offset=".3" stop-color="#df5153" />
      <stop offset="1" stop-color="#ac0b1b" />
    </linearGradient>
  </defs>
  <!-- Generator: Adobe Illustrator 28.7.1, SVG Export Plug-In . SVG Version: 1.2.0 Build 142)  -->
  <g>
    <g id="Layer_1">
      <path class="cls-4" d="M60,120c33.2,0,60-26.8,60-60S93.2,0,60,0,0,26.8,0,60s26.8,60,60,60Z" />
      <path
        class="cls-2"
        d="M76.5,69.5c0-8.8-5.3-11.8-15.7-13-7.5-1-9-3-9-6.5s2.5-5.8,7.5-5.8,7,1.5,8.2,5.3c.2.8,1,1.3,1.7,1.3h4c1,0,1.7-.8,1.7-1.7v-.2c-1-5.5-5.5-9.7-11.2-10.3v-6c0-1-.8-1.7-2-2h-3.7c-1,0-1.7.7-2,2v5.8c-7.5,1-12.2,6-12.2,12.2s5,11.5,15.5,12.7c7,1.3,9.2,2.8,9.2,6.7s-3.5,6.7-8.2,6.7-8.8-2.8-9.5-6.5c-.2-1-1-1.5-1.7-1.5h-4.3c-1,0-1.7.8-1.7,1.7v.2c1,6.2,5,10.7,13.3,12v6c0,1,.8,1.7,2,2h3.6c1,0,1.7-.8,2-2v-6c7.5-1.1,12.5-6.4,12.5-13.1h0Z"
      />
      <path
        class="cls-2"
        d="M47.3,95.8c-19.5-7-29.5-28.7-22.3-48,3.8-10.5,12-18.5,22.3-22.3,1-.5,1.5-1.3,1.5-2.5v-3.5c0-1-.5-1.7-1.5-2-.2,0-.8,0-1,.2-23.8,7.6-36.8,32.8-29.3,56.6,4.5,14,15.2,24.7,29.2,29.2,1,.5,2,0,2.3-1,.2-.2.2-.5.2-1v-3.5c0-.8-.7-1.8-1.4-2.2h0ZM73.8,17.8c-1-.5-2,0-2.3,1-.2.2-.2.5-.2,1v3.5c0,1,.8,2,1.5,2.5,19.5,7,29.5,28.7,22.3,48-3.9,10.5-12.1,18.5-22.4,22.2-1,.5-1.5,1.3-1.5,2.5v3.5c0,1,.5,1.7,1.5,2,.2,0,.8,0,1-.2,23.8-7.5,36.8-32.8,29.3-56.5-4.5-14.3-15.5-25-29.2-29.5h0Z"
      />
      <path
        class="cls-3"
        d="M99.6,76.2c1.8,0,2.4.2,3.7.6.3.1.6.2,1.1.4,8.4,2.7,14.6,10.8,14.6,20.1s-.2,3.2-.5,4.7c-1.4,5.9-5.2,10.9-10.2,13.8-2.5,1.4-5.4,2.5-8.4,2.7-.5,0-2.1,0-3.3,0-.4,0-.7,0-.9,0-10.9-1.5-19.1-9.6-19.1-21.2s.6-5.9,1.7-8.6c1.2-2.8,3.2-5.2,5.3-7.3,1.9-1.8,4.2-2.8,6.5-3.8.3-.1.7-.3,1-.4,1.2-.5,2-.6,3-.8.4,0,.9-.1,1.4-.2.9-.2,1.9-.1,2.8,0,.5,0,1,0,1.4,0Z"
      />
      <path
        class="cls-1"
        d="M97.7,75l6.9,1.1,6.2,3.2,4.9,4.9,3.2,6.2,1.1,6.9-1.1,6.9-3.2,6.2-4.9,4.9-6.2,3.2-6.9,1.1-6.9-1.1-6.2-3.2-4.9-4.9-3.2-6.2-1.1-6.9,1.1-6.9,3.2-6.2,4.9-4.9,6.2-3.2,6.9-1.1ZM91.2,77.3l-5.9,3-4.7,4.7-3,5.9-1,6.5,1,6.5,3,5.9,4.7,4.7,5.9,3,6.5,1,6.5-1,5.9-3,4.7-4.7,3-5.9,1-6.5-1-6.5-3-5.9-4.7-4.7-5.9-3-6.5-1-6.5,1Z"
      />
      <path
        class="cls-1"
        d="M97.6,82.1c.1,0,.3,0,.4.1l4.9,8.2c0,.1,0,.3-.1.4-.1,0-.3,0-.4-.1l-4.9-8.2c0-.1,0-.3.1-.4Z"
      />
      <path
        class="cls-1"
        d="M97.7,82.1l10.1,1.1v.6c0,0-10.1-1.1-10.1-1.1l-10.1,1.1v-.6c0,0,10.1-1.1,10.1-1.1Z"
      />
      <path
        class="cls-1"
        d="M92.5,90.6c0-.2.1-.3.3-.3h9.8c.2,0,.3.1.3.3s-.1.3-.3.3h-9.8c-.2,0-.3-.1-.3-.3Z"
      />
      <path
        class="cls-1"
        d="M97.9,82.1c.1,0,.2.3.1.4l-4.9,8.2c0,.1-.3.2-.4.1-.1,0-.2-.3-.1-.4l4.9-8.2c0-.1.3-.2.4-.1Z"
      />
      <path
        class="cls-1"
        d="M90.9,76.2l6.8,5.8,6.8-5.8,3.6,7.1-.6.3-3.2-6.4-6.6,5.6-6.6-5.6-3.2,6.4-.6-.3,3.6-7.1Z"
      />
      <path
        class="cls-1"
        d="M84.8,79.6c.1-.1.3,0,.4,0l12.5,17.2,12.5-17.2c.1-.1.3-.2.4,0,.1.1.2.3,0,.4l-12.8,17.6c0,0-.2.1-.3.1s-.2,0-.3-.1l-12.8-17.6c-.1-.1,0-.3,0-.4Z"
      />
      <path
        class="cls-1"
        d="M93.1,90.4c0,0,.1.2,0,.3l-3,9.1,7.7,5.6,8.8,3.8c.2,0,.2.3.2.4,0,.2-.3.2-.4.2l-8.8-3.8s0,0,0,0l-7.9-5.8c-.1,0-.2-.2-.1-.3l2.9-8.8-8.8,2c-.2,0-.3,0-.4-.2s0-.3.2-.4l9.3-2.1c.1,0,.2,0,.3,0Z"
      />
      <path
        class="cls-1"
        d="M83.3,92.5c.1-.1.3-.1.4,0l6.3,7.2c.1.1.1.3,0,.4-.1.1-.3.1-.4,0l-6.3-7.2c-.1-.1-.1-.3,0-.4Z"
      />
      <path
        class="cls-1"
        d="M88.2,83.1l-4.3,9.7h0c0,.1-.1.2-.1.2l-2,9.6,7.4,6.7,8.8,5,6.3,3.3,2.1-8.4,8.6.6-1.2-7.1h.6c0-.1,1.3,7.7,1.3,7.7l-8.9-.7-2.1,8.7-7.1-3.7-8.8-5.1-7.6-6.8-5.7-5.6,7.6-4.7-3.4-8.3,8.4-1.3ZM83,93.4l-6.5,4,4.7,4.6,1.8-8.7ZM83.5,91.9l3.6-8.1-6.5,1,2.9,7.1Z"
      />
      <path
        class="cls-1"
        d="M89.8,99.6c.2,0,.3.2.3.3l-.9,9.5c0,.2-.2.3-.3.3-.2,0-.3-.2-.3-.3l.9-9.5c0-.2.2-.3.3-.3Z"
      />
      <path
        class="cls-1"
        d="M98,105.6c0,.2,0,.3-.2.4l-8.8,3.8c-.2,0-.3,0-.4-.2,0-.2,0-.3.2-.4l8.8-3.8c.2,0,.3,0,.4.2Z"
      />
      <path
        class="cls-1"
        d="M80.5,109.8l1.2-7.1h-.6c0-.1-1.3,7.7-1.3,7.7l8.9-.7,2.1,8.7,7.1-3.7-.3-.6-6.4,3.3-2.1-8.4-8.6.6Z"
      />
      <path
        class="cls-1"
        d="M97.9,97.1c0,0,.1.2.1.3v21.7c0,.2-.1.3-.3.3s-.3-.1-.3-.3v-21.3l-20.2,6.6c-.2,0-.3,0-.4-.2,0-.2,0-.3.2-.4l20.6-6.7c0,0,.2,0,.3,0Z"
      />
      <path
        class="cls-1"
        d="M107.6,83.3c0,0,.2-.1.3-.1l7.5,1.1c0,0,.2,0,.2.2,0,0,0,.2,0,.3l-3.2,7.9,7.2,4.5c0,0,.1.1.1.2,0,0,0,.2,0,.3l-5.4,5.3h0s0,0,0,0c0,0,0,0,0,0l-7.5,6.8c0,0-.2.1-.3,0-.1,0-.2-.1-.2-.3l-.9-9.5-3-9.3c0-.1,0-.2,0-.3,0,0,.2-.1.3,0l8.7,2-3.9-8.7c0-.1,0-.2,0-.3ZM111.4,92.9l-8.3-1.9,2.7,8.3,5.6-6.4ZM106,100l.8,8.8,6.9-6.3-1.9-9.1-5.8,6.6ZM112.4,93.4l1.8,8.7,4.7-4.6-6.5-4ZM112,91.9l2.9-7.1-6.5-1,3.6,8.1Z"
      />
      <path
        class="cls-1"
        d="M97.4,97.3c0-.2.2-.3.4-.2l20.6,6.7c.2,0,.3.2.2.4,0,.2-.2.3-.4.2l-20.6-6.7c-.2,0-.3-.2-.2-.4Z"
      />
      <path
        class="cls-1"
        d="M105.9,99.8c.1.1,0,.3,0,.4l-7.9,5.8c-.1.1-.3,0-.4,0-.1-.1,0-.3,0-.4l7.9-5.8c.1-.1.3,0,.4,0Z"
      />
      <path
        class="cls-1"
        d="M106.4,109.2c.1,0,.3,0,.4,0l4,5.4c.1.1,0,.3,0,.4-.1.1-.3,0-.4,0l-3.8-5.2-8.6,4.9c-.1,0-.3,0-.4-.1,0-.1,0-.3.1-.4l8.8-5Z"
      />
      <path
        class="cls-1"
        d="M97.7,75.3c.2,0,.3.1.3.3v6.7c0,.2-.1.3-.3.3s-.3-.1-.3-.3v-6.7c0-.2.1-.3.3-.3Z"
      />
      <path
        class="cls-1"
        d="M118.7,90.6c0,.2,0,.3-.2.4l-6.4,2.1c-.2,0-.3,0-.4-.2,0-.2,0-.3.2-.4l6.4-2.1c.2,0,.3,0,.4.2Z"
      />
      <path
        class="cls-1"
        d="M89.1,109.2c.1.1.2.3,0,.4l-4,5.4c-.1.1-.3.2-.4,0-.1-.1-.2-.3,0-.4l4-5.4c.1-.1.3-.2.4,0Z"
      />
      <path
        class="cls-1"
        d="M76.8,90.6c0-.2.2-.3.4-.2l6.4,2.1c.2,0,.3.2.2.4,0,.2-.2.3-.4.2l-6.4-2.1c-.2,0-.3-.2-.2-.4Z"
      />
    </g>
  </g>
</svg>
