<svg viewBox="0 0 441 370" fill="none" xmlns="http://www.w3.org/2000/svg">
  <path
    d="M303.514 0.45874C312.222 23.9919 330.777 42.5463 354.31 51.2543C330.777 59.9623 312.222 78.5167 303.514 102.05C294.805 78.5167 276.251 59.9623 252.717 51.2543C276.251 42.5463 294.805 23.9919 303.514 0.45874Z"
    fill="#FEf7F1"
  />
  <path
    fill-rule="evenodd"
    clip-rule="evenodd"
    d="M228.258 64.4134L135.82 188.57C106.219 228.328 106.411 281.655 134.276 320.882C104.574 323.112 83.0407 317.414 76.4029 303.179C71.3327 292.306 75.6643 277.977 87.2627 262.315C86.7032 250.65 87.6731 238.915 90.1912 227.399C26.4569 271.709 -9.6657 317.705 3.19738 345.289C16.9113 374.698 82.4481 374.907 164.501 350.101C209.102 379.611 270.012 374.901 309.407 335.97C316.979 328.488 323.292 320.185 328.325 311.335L254.172 315.528C286.834 300.297 316.709 283.479 342.528 266.267C411.683 220.164 451.735 171.231 438.293 142.406C424.843 113.562 361.541 112.807 281.7 136.193L228.258 64.4134ZM292.45 150.631L320.696 188.57C329.953 201.003 336.296 214.763 339.791 229.003C365.979 204.926 378.712 181.596 371.288 165.675C363.174 148.273 332.796 143.629 292.45 150.631Z"
    fill="#FEf7F1"
  />
</svg>
