<svg viewBox="0 0 17 16" fill="none" xmlns="http://www.w3.org/2000/svg">
  <path
    d="M8.5 5.33333V10.6667M5.83333 8H11.1667M5.7 14H11.3C12.4201 14 12.9802 14 13.408 13.782C13.7843 13.5903 14.0903 13.2843 14.282 12.908C14.5 12.4802 14.5 11.9201 14.5 10.8V5.2C14.5 4.0799 14.5 3.51984 14.282 3.09202C14.0903 2.71569 13.7843 2.40973 13.408 2.21799C12.9802 2 12.4201 2 11.3 2H5.7C4.5799 2 4.01984 2 3.59202 2.21799C3.21569 2.40973 2.90973 2.71569 2.71799 3.09202C2.5 3.51984 2.5 4.0799 2.5 5.2V10.8C2.5 11.9201 2.5 12.4802 2.71799 12.908C2.90973 13.2843 3.21569 13.5903 3.59202 13.782C4.01984 14 4.5799 14 5.7 14Z"
    stroke="currentColor"
    stroke-linecap="round"
    stroke-linejoin="round"
  />
</svg>
