<svg width="40" height="40" viewBox="0 0 40 40" fill="none" xmlns="http://www.w3.org/2000/svg">
<g id="safe">
<path id="Icon" d="M10 35H15M25 35H30M29.1667 10.8333V24.1667M5 10.3333L5 24.6667C5 26.5335 5 27.4669 5.36331 28.18C5.68289 28.8072 6.19282 29.3171 6.82003 29.6367C7.53307 30 8.46649 30 10.3333 30L29.6667 30C31.5335 30 32.4669 30 33.18 29.6367C33.8072 29.3171 34.3171 28.8072 34.6367 28.18C35 27.4669 35 26.5335 35 24.6667V10.3333C35 8.46649 35 7.53307 34.6367 6.82003C34.3171 6.19283 33.8072 5.68289 33.18 5.36331C32.4669 5 31.5335 5 29.6667 5L10.3333 5C8.46649 5 7.53307 5 6.82003 5.36331C6.19283 5.68289 5.68289 6.19282 5.36331 6.82003C5 7.53307 5 8.46649 5 10.3333ZM19.1667 17.5C19.1667 19.8012 17.3012 21.6667 15 21.6667C12.6988 21.6667 10.8333 19.8012 10.8333 17.5C10.8333 15.1988 12.6988 13.3333 15 13.3333C17.3012 13.3333 19.1667 15.1988 19.1667 17.5Z" stroke="white" stroke-width="1.66667" stroke-linecap="round" stroke-linejoin="round"/>
</g>
</svg>
