<svg viewBox="0 0 16 16" fill="none" xmlns="http://www.w3.org/2000/svg">
  <path
    d="M7.52193 2.30302C7.67559 1.99173 7.75242 1.83609 7.85672 1.78636C7.94746 1.74309 8.05289 1.74309 8.14363 1.78636C8.24793 1.83609 8.32476 1.99173 8.47842 2.30302L9.9362 5.25634C9.98157 5.34824 10.0042 5.39419 10.0374 5.42986C10.0667 5.46145 10.1019 5.48705 10.141 5.50523C10.1852 5.52576 10.2359 5.53317 10.3373 5.548L13.5982 6.02462C13.9415 6.07481 14.1132 6.0999 14.1927 6.18377C14.2618 6.25674 14.2943 6.35701 14.2812 6.45666C14.266 6.5712 14.1417 6.69227 13.8931 6.9344L11.5345 9.23176C11.4609 9.30338 11.4242 9.33918 11.4004 9.38179C11.3794 9.41951 11.366 9.46096 11.3608 9.50382C11.3549 9.55223 11.3636 9.60281 11.3809 9.70397L11.9375 12.9489C11.9962 13.2911 12.0255 13.4623 11.9704 13.5638C11.9224 13.6522 11.8371 13.7141 11.7382 13.7325C11.6246 13.7535 11.4709 13.6727 11.1636 13.5111L8.24841 11.978C8.15758 11.9303 8.11217 11.9064 8.06432 11.897C8.02196 11.8887 7.97839 11.8887 7.93602 11.897C7.88818 11.9064 7.84276 11.9303 7.75193 11.978L4.83678 13.5111C4.52944 13.6727 4.37577 13.7535 4.26214 13.7325C4.16328 13.7141 4.07798 13.6522 4.02999 13.5638C3.97483 13.4623 4.00418 13.2911 4.06288 12.9489L4.61942 9.70397C4.63677 9.60281 4.64545 9.55223 4.63958 9.50382C4.63438 9.46096 4.6209 9.41951 4.5999 9.38179C4.57618 9.33918 4.53941 9.30337 4.46589 9.23176L2.1072 6.9344C1.8586 6.69227 1.73431 6.5712 1.71918 6.45666C1.70602 6.35701 1.73853 6.25674 1.80766 6.18377C1.88712 6.0999 2.05881 6.07481 2.40219 6.02462L5.66304 5.548C5.76445 5.53317 5.81515 5.52576 5.85931 5.50523C5.89841 5.48705 5.9336 5.46145 5.96295 5.42986C5.9961 5.39419 6.01878 5.34824 6.06415 5.25634L7.52193 2.30302Z"
    stroke="currentColor"
    stroke-opacity="0.5"
    stroke-linecap="round"
    stroke-linejoin="round"
  />
</svg>
