<svg xmlns="http://www.w3.org/2000/svg" version="1.1" viewBox="0 0 512 512">
  <circle cx="255.6" cy="256.1" r="256" fill="#4da1ff" />
  <path
    d="M331.2,222.1c28.7,36.5,29.1,90.5.9,127.4-2.2,3-3.6,3.3-4.3-.7-7.8-35.2-29.9-59.7-67.8-82.7-20.2-11-41.6-29.8-46.5-51.3-5.4-21.4.6-44.4,11.7-62.7,4.6-7.3,9.6-12.5,15.6-20.1,3.4-4.4,5.7-7.4,10.9-6.1,2,.7,2.6,1.2,3.5,2.2,4.5,5.5,61.1,75.6,76,94h0ZM355.2,203.7c-7.4-9.3-94.4-115.5-101.4-124.3-1.6-1.9-5.3-2-7.5-.8-17.8,21-94.5,115.5-104.3,127.7-74.3,98.9,11.9,237.6,133.9,214.1,42.8-8.3,79.6-38,97.1-77.7,20.5-43.9,12.8-102.1-17.8-138.8h0ZM168.6,220.6c1.2-1.5,2.4-3,3.6-4.4,1.6-1.7,4.7-6.8,5.8-5.1,4.7,27.6,18.5,50.4,44.2,69.6,4.3,3.2,8.8,6.3,13.6,9.3,26.6,14.3,51.8,37,57.2,58.7,2.4,8,3.4,17.4,3,25.3,0,3.4-1.7,5.9-4.7,7.2-6.7,3-13.9,5.3-21.4,6.8-94.9,18.3-160.5-91.2-101.3-167.1h.1Z"
    fill="white"
    fill-rule="evenodd"
  />
</svg>
