<svg xmlns="http://www.w3.org/2000/svg" viewBox="0 0 40 40" fill="none">
<path d="M20 40C31.0457 40 40 31.0457 40 20C40 8.9543 31.0457 0 20 0C8.9543 0 0 8.9543 0 20C0 31.0457 8.9543 40 20 40Z" fill="#2775C9"/>
<path d="M20 35C11.7149 35 5 28.2851 5 20C5 11.7149 11.7149 5 20 5C28.2851 5 35 11.7149 35 20C35 23.9782 33.4196 27.7936 30.6066 30.6066C27.7936 33.4196 23.9782 35 20 35ZM19.1064 14.434C18.2857 14.4747 17.5098 14.8208 16.9311 15.4042C16.3524 15.9876 16.0127 16.7662 15.9787 17.5872C15.9787 19.1319 16.9234 20.1404 18.9277 20.5617L20.3319 20.8936C21.6979 21.2128 22.2596 21.6723 22.2596 22.4511C22.2596 23.2298 21.2766 23.9957 20 23.9957C19.5466 24.0373 19.0906 23.9504 18.6842 23.745C18.2778 23.5395 17.9375 23.2238 17.7021 22.834C17.6324 22.6861 17.5223 22.5609 17.3845 22.4728C17.2468 22.3848 17.0869 22.3374 16.9234 22.3362H16.1702C16.1123 22.3469 16.0571 22.369 16.0077 22.4011C15.9584 22.4333 15.9158 22.4749 15.8826 22.5235C15.8494 22.5722 15.8261 22.6269 15.8141 22.6846C15.8021 22.7422 15.8017 22.8017 15.8128 22.8596C15.9962 23.6084 16.4228 24.2752 17.0257 24.7557C17.6286 25.2361 18.3738 25.5032 19.1447 25.5149V26.5872C19.1447 26.8259 19.2395 27.0548 19.4083 27.2236C19.5771 27.3924 19.806 27.4872 20.0447 27.4872C20.2834 27.4872 20.5123 27.3924 20.6811 27.2236C20.8499 27.0548 20.9447 26.8259 20.9447 26.5872V25.5021C21.8163 25.4922 22.6497 25.1425 23.2672 24.5273C23.8848 23.9121 24.2378 23.0801 24.2511 22.2085C24.2511 20.5872 23.3191 19.6553 21.1106 19.183L19.834 18.9021C18.5574 18.583 17.9574 18.1617 17.9574 17.4468C17.9574 16.7319 18.7234 15.9404 20 15.9404C20.402 15.8984 20.8077 15.9737 21.1678 16.1572C21.528 16.3407 21.8274 16.6246 22.0298 16.9745C22.1118 17.1492 22.2417 17.2971 22.4044 17.4011C22.5671 17.505 22.7559 17.5607 22.9489 17.5617H23.5489C23.6854 17.5283 23.8032 17.4428 23.8772 17.3234C23.9512 17.2041 23.9755 17.0604 23.9447 16.9234C23.7717 16.232 23.3849 15.613 22.8393 15.1545C22.2937 14.696 21.6172 14.4215 20.9064 14.3702V13.4894C20.9064 13.2507 20.8116 13.0217 20.6428 12.853C20.474 12.6842 20.2451 12.5894 20.0064 12.5894C19.7677 12.5894 19.5388 12.6842 19.37 12.853C19.2012 13.0217 19.1064 13.2507 19.1064 13.4894V14.434ZM8.75319 20C8.75465 22.3516 9.49486 24.6433 10.8693 26.5514C12.2437 28.4595 14.1828 29.8876 16.4128 30.634H16.5915C16.7438 30.634 16.89 30.5735 16.9977 30.4658C17.1054 30.3581 17.166 30.2119 17.166 30.0596V29.7915C17.1664 29.5539 17.0962 29.3214 16.9644 29.1237C16.8326 28.926 16.645 28.7719 16.4255 28.6808C14.6889 27.9799 13.2013 26.7759 12.1538 25.2234C11.1062 23.671 10.5466 21.8409 10.5466 19.9681C10.5466 18.0953 11.1062 16.2652 12.1538 14.7127C13.2013 13.1603 14.6889 11.9563 16.4255 11.2553C16.644 11.1666 16.8312 11.0147 16.963 10.8192C17.0949 10.6237 17.1655 10.3933 17.166 10.1574V9.86383C17.1668 9.77762 17.1468 9.69248 17.1077 9.61564C17.0686 9.53879 17.0116 9.4725 16.9415 9.42239C16.8713 9.37228 16.7901 9.33982 16.7047 9.32778C16.6194 9.31573 16.5323 9.32445 16.4511 9.35319C14.2119 10.0937 12.2629 11.521 10.8811 13.4322C9.49919 15.3435 8.75465 17.6415 8.75319 20ZM31.2468 20C31.2427 17.6506 30.5012 15.3618 29.127 13.4562C27.7528 11.5506 25.8151 10.1244 23.5872 9.37872H23.3957C23.2366 9.37872 23.084 9.44194 22.9715 9.55446C22.859 9.66698 22.7957 9.81959 22.7957 9.97872V10.1702C22.8009 10.4164 22.8772 10.6559 23.0153 10.8598C23.1535 11.0636 23.3477 11.2232 23.5745 11.3191C25.3072 12.0222 26.7907 13.2262 27.8352 14.7772C28.8797 16.3282 29.4377 18.1556 29.4377 20.0255C29.4377 21.8954 28.8797 23.7228 27.8352 25.2738C26.7907 26.8248 25.3072 28.0289 23.5745 28.7319C23.352 28.8289 23.1618 28.9873 23.0261 29.1885C22.8905 29.3898 22.815 29.6255 22.8085 29.8681V30.0851C22.8096 30.1797 22.8331 30.2728 22.877 30.3566C22.9209 30.4405 22.984 30.5127 23.0612 30.5675C23.1384 30.6223 23.2275 30.658 23.3211 30.6718C23.4147 30.6856 23.5103 30.677 23.6 30.6468C25.8297 29.8975 27.7675 28.4665 29.1397 26.5561C30.5118 24.6456 31.2489 22.3522 31.2468 20Z" fill="white"/>
</svg>

