<svg version="1.1" xmlns="http://www.w3.org/2000/svg" viewBox="0 0 183 183">
  <linearGradient
    id="SVGID_1_"
    x1="118"
    y1="202.8"
    x2="77.9"
    y2="36.1"
    gradientTransform="translate(0 184) scale(1 -1)"
    gradientUnits="userSpaceOnUse"
  >
    <stop offset="0" stop-color="#333333" />
    <stop offset="1" stop-color="#111111" />
  </linearGradient>
  <circle fill="url(#SVGID_1_)" cx="91.5" cy="91.5" r="91.5" />
  <path
    d="M86.2,118v-4c0-13.8,4-21.6,18.1-35.1,7.3-7.2,9.5-11,9.5-17.1,0-10.1-8.3-17.5-19.8-17.5s-21.6,8.8-22,26.3h-14.1c.7-25.1,13.8-39.1,36.8-39.1,8,0,15,1.9,20.5,5.3s9.6,8.3,11.8,14.4c1.2,3.2,1.8,6.8,1.8,10.6s-.5,6.4-1.4,9.3-2.5,5.5-4.6,8c-2.3,3-2.8,3.5-14.1,14.1-7.3,6.8-9.1,11.8-9,24.8h-13.5Z"
    fill="#FFFFFF"
  />
  <path d="M99.9,141.7h-13.8v-13.6h13.8v13.6Z" fill="#FFFFFF" />
</svg>
